<svg xmlns="http://www.w3.org/2000/svg" fill="none" viewBox="0 0 24 24"><path fill="#000" fill-rule="evenodd" d="M14.955 4.4c0-.2.01-.4.04-.59H2.215v18.21h18.21V8.68c-.33.09-.69.13-1.05.13a4.42 4.42 0 0 1-4.42-4.41" clip-rule="evenodd" opacity=".4"/><path fill="#000" d="m9.835 12.66 3.2 2.51 3.67-4.73-1.19-.92-2.74 3.54-3.2-2.52-3.72 4.84 1.18.92z"/><path fill="#000" fill-rule="evenodd" d="M19.375 1.98c-1.13 0-2.08.78-2.34 1.83-.05.19-.08.39-.08.59a2.42 2.42 0 0 0 3.47 2.17c.8-.39 1.36-1.22 1.36-2.17 0-1.34-1.08-2.42-2.41-2.42" clip-rule="evenodd"/></svg>