<svg xmlns="http://www.w3.org/2000/svg" fill="none" viewBox="0 0 24 24"><path fill="#000" fill-rule="evenodd" d="M12.75 16.443a.75.75 0 0 1-1.5 0v-2.22a.75.75 0 0 1 1.5 0zM12 8.39c-1.503 0-2.764.111-3.81.354v-1.43a3.79 3.79 0 0 1 3.76-3.747h.047a3.845 3.845 0 0 1 3.656 2.707.75.75 0 1 0 1.434-.439c-.689-2.248-2.85-3.783-5.156-3.768A5.284 5.284 0 0 0 6.69 7.301v1.957c-2.033.97-2.849 2.821-2.849 5.903 0 5 2.136 6.772 8.16 6.772s8.16-1.772 8.16-6.772c0-4.999-2.136-6.77-8.16-6.77" clip-rule="evenodd"/></svg>