<svg xmlns="http://www.w3.org/2000/svg" fill="none" viewBox="0 0 24 24"><path fill="#000" fill-rule="evenodd" d="M13.494 9.039h-2.99c-.41 0-.75-.34-.75-.75s.34-.75.75-.75h2.99c.41 0 .75.34.75.75s-.34.75-.75.75m-2-4.27h1.01c.41 0 .75.34.75.75s-.34.75-.75.75h-1.01c-.41 0-.75-.34-.75-.75s.34-.75.75-.75m.51-2.42c-3.25 0-5.89 2.64-5.89 5.89v2.14c0 .28.22.5.5.5h10.77c.28 0 .5-.22.5-.5v-2.14c0-3.25-2.64-5.89-5.88-5.89m6.774 10.371H5.222a.75.75 0 0 0 0 1.5h.945a5.89 5.89 0 0 0 5.083 5.082v1.6a.75.75 0 0 0 1.5 0v-1.599a5.89 5.89 0 0 0 5.083-5.083h.945a.75.75 0 0 0 0-1.5" clip-rule="evenodd"/></svg>