<svg xmlns="http://www.w3.org/2000/svg" fill="none" viewBox="0 0 24 24"><path fill="#000" fill-rule="evenodd" d="M18.778 12.72H5.222a.75.75 0 0 0 0 1.5h.945a5.89 5.89 0 0 0 5.083 5.082v1.6a.75.75 0 0 0 1.5 0v-1.599a5.89 5.89 0 0 0 5.083-5.083h.945a.75.75 0 0 0 0-1.5" clip-rule="evenodd"/><path fill="#000" fill-rule="evenodd" d="M12.004 2.348c-3.25 0-5.89 2.64-5.89 5.89v2.14c0 .28.22.5.5.5h10.77c.28 0 .5-.22.5-.5v-2.14c0-3.25-2.64-5.89-5.88-5.89" clip-rule="evenodd" opacity=".4"/><path fill="#000" d="M10.503 9.038h2.99c.41 0 .75-.34.75-.75s-.34-.75-.75-.75h-2.99c-.41 0-.75.34-.75.75s.34.75.75.75m2-4.27h-1.01c-.41 0-.75.34-.75.75s.34.75.75.75h1.01c.41 0 .75-.34.75-.75s-.34-.75-.75-.75"/></svg>