<svg xmlns="http://www.w3.org/2000/svg" fill="none" viewBox="0 0 24 24"><path fill="#000" fill-rule="evenodd" d="M16.944 16.696h-.102a.75.75 0 0 1 0-1.5h.102a.75.75 0 0 1 0 1.5m-1.731-3.412h-.102a.75.75 0 0 1 0-1.5h.102a.75.75 0 0 1 0 1.5m-4.398 1.68H9.74V16a.75.75 0 0 1-1.5 0v-1.038H7.167a.75.75 0 0 1 0-1.5H8.24v-1.038a.75.75 0 0 1 1.5 0v1.038h1.074a.75.75 0 0 1 0 1.5m2.519-8.595v-.543c-.02-1.509-1.244-2.764-2.77-2.717h-1.02A.54.54 0 0 1 9 2.572c-.004-.415-.36-.768-.757-.743a.75.75 0 0 0-.743.757A2.044 2.044 0 0 0 9.536 4.61h1.042c.684 0 1.247.554 1.256 1.228v.511c-7.287.032-9.882 2.112-9.882 7.91 0 5.842 2.63 7.914 10.049 7.914s10.047-2.072 10.047-7.914c0-5.479-2.311-7.64-8.714-7.889" clip-rule="evenodd"/></svg>