<svg xmlns="http://www.w3.org/2000/svg" fill="none" viewBox="0 0 24 24"><path fill="#000" fill-rule="evenodd" d="M11.282 6.355c-6.867.134-9.33 2.254-9.33 7.903 0 5.842 2.63 7.914 10.049 7.914s10.047-2.072 10.047-7.914c0-5.124-2.021-7.347-7.52-7.816a47 47 0 0 0-3.246-.087" clip-rule="evenodd" opacity=".4"/><path fill="#000" d="M13.334 6.37v-.544c-.02-1.509-1.244-2.764-2.77-2.717h-1.02A.54.54 0 0 1 9 2.572c-.004-.415-.36-.768-.757-.743a.75.75 0 0 0-.743.757A2.044 2.044 0 0 0 9.536 4.61h1.042c.684 0 1.247.554 1.256 1.228v.511c-.52.003 1.5.021 1.5.021m-2.519 8.593H9.741v1.038a.75.75 0 0 1-1.5 0v-1.038H7.167a.75.75 0 0 1 0-1.5h1.074v-1.038a.75.75 0 0 1 1.5 0v1.038h1.074a.75.75 0 0 1 0 1.5m4.296-1.679h.102a.75.75 0 0 0 0-1.5h-.102a.75.75 0 0 0 0 1.5m1.731 3.412h.102a.75.75 0 0 0 0-1.5h-.102a.75.75 0 0 0 0 1.5"/></svg>