<svg xmlns="http://www.w3.org/2000/svg" fill="none" viewBox="0 0 24 24"><path fill="#000" d="M8.24 15.875a.75.75 0 0 0 1.5 0v-1.038h1.075a.75.75 0 0 0 0-1.5H9.74V12.3a.75.75 0 0 0-1.5 0v1.037H7.167a.75.75 0 0 0 0 1.5H8.24zm6.973-2.716h-.102a.75.75 0 0 1 0-1.5h.102a.75.75 0 0 1 0 1.5m1.627 3.411h.104a.75.75 0 0 0 0-1.5h-.103a.75.75 0 0 0 0 1.5"/><path fill="#000" fill-rule="evenodd" d="M11.834 5.969C4.357 6 1.702 8.149 1.702 14.133c0 6.027 2.694 8.164 10.298 8.164 7.603 0 10.298-2.137 10.298-8.164 0-5.662-2.377-7.89-8.964-8.14V5.7c-.021-1.51-1.284-2.71-2.77-2.718H9.549L9.49 2.97c-.106-.025-.24-.056-.328-.142A.54.54 0 0 1 9 2.447a.75.75 0 0 0-.75-.744h-.006a.75.75 0 0 0-.744.756c.004.546.222 1.057.612 1.44.39.381.882.568 1.444.584h1.014a1.244 1.244 0 0 1 1.264 1.228zm-8.632 8.164c0-5.107 2.055-6.664 8.798-6.664 6.742 0 8.798 1.557 8.798 6.664S18.742 20.797 12 20.797c-6.743 0-8.798-1.557-8.798-6.664" clip-rule="evenodd"/></svg>