<svg xmlns="http://www.w3.org/2000/svg" fill="none" viewBox="0 0 24 24"><path fill="#000" fill-rule="evenodd" d="M19.609 18.748H13.23a.75.75 0 0 0 0 1.5h6.377a.75.75 0 0 0 0-1.5M9.367 7.74a.3.3 0 0 1 .42-.06l5.18 3.88a.3.3 0 0 1 .06.42l-4.82 6.42c-1.16 1.55-2.91 1.86-4.12 1.86-.75 0-1.29-.12-1.35-.13a.5.5 0 0 1-.32-.24c-.07-.13-1.79-3.19.13-5.74zm7.59 1.67-.67.89a.3.3 0 0 1-.42.06l-5.18-3.88a.3.3 0 0 1-.061-.42l.67-.9c.69-.93 1.76-1.42 2.84-1.42.74 0 1.48.23 2.12.71.75.57 1.24 1.4 1.38 2.33.13.94-.11 1.87-.68 2.63" clip-rule="evenodd"/></svg>