<svg xmlns="http://www.w3.org/2000/svg" fill="none" viewBox="0 0 24 24"><path fill="#000" fill-rule="evenodd" d="M14.055 15.26a.75.75 0 0 0 0-1.05l-1.208-1.22 1.208-1.22a.75.75 0 0 0 0-1.05.724.724 0 0 0-1.05 0l-1.208 1.22-1.208-1.22a.713.713 0 0 0-1.04 0 .75.75 0 0 0 0 1.05l1.208 1.22-1.207 1.22a.75.75 0 0 0 0 1.05c.138.15.326.22.514.22s.386-.07.525-.22l1.208-1.22 1.208 1.22a.73.73 0 0 0 .525.22c.188 0 .376-.07.525-.22m5.28-6.234c.234-.003.486-.006.71-.006.257 0 .455.2.455.45v8.04c0 2.48-1.99 4.49-4.455 4.49H8.173C5.59 22 3.5 19.89 3.5 17.29V6.51C3.5 4.03 5.5 2 7.965 2h5.288c.247 0 .455.21.455.46v3.22c0 1.83 1.495 3.33 3.307 3.34q.628 0 1.12.006.38.004.672.004c.142 0 .328-.002.528-.004m.27-1.46c-.813.003-1.772 0-2.462-.007-1.095 0-1.997-.91-1.997-2.017V2.906c0-.43.518-.645.813-.334l3.987 4.187a.477.477 0 0 1-.34.807" clip-rule="evenodd"/></svg>