<svg xmlns="http://www.w3.org/2000/svg" fill="none" viewBox="0 0 24 24"><path fill="#000" fill-rule="evenodd" d="m15.241 2.245 5.05 5.311a.76.76 0 0 1 .209.524v9.364c0 2.511-2.003 4.556-4.466 4.556h-7.86C5.555 22 3.5 19.999 3.5 17.444V14.92c0-.417.335-.755.748-.755.412 0 .747.338.747.755v2.523c0 1.736 1.367 3.046 3.18 3.046h7.859c1.639 0 2.97-1.367 2.97-3.046v-9.06l-3.817-4.014v1.317a1.83 1.83 0 0 0 1.816 1.836c.412.001.746.34.745.757a.75.75 0 0 1-.747.753H17c-1.824-.004-3.308-1.505-3.308-3.346V3.522H7.964c-1.637 0-2.969 1.345-2.969 3v4.294a.75.75 0 0 1-.747.755.75.75 0 0 1-.748-.755V6.521c0-2.486 2.003-4.509 4.464-4.509h6.419q.013 0 .025-.006.014-.005.032-.006.017 0 .032.006.012.005.025.006h.205c.203 0 .398.084.54.233m-5.15 13.244a.74.74 0 0 1-.53-.222.76.76 0 0 1 0-1.068l1.2-1.21-1.2-1.211a.76.76 0 0 1 0-1.068.743.743 0 0 1 1.059 0l1.198 1.212 1.2-1.212a.74.74 0 0 1 1.056 0 .76.76 0 0 1 0 1.068l-1.198 1.21 1.198 1.21a.76.76 0 0 1 0 1.069.74.74 0 0 1-1.057 0l-1.199-1.21-1.198 1.21a.75.75 0 0 1-.53.222" clip-rule="evenodd"/></svg>