<svg xmlns="http://www.w3.org/2000/svg" fill="none" viewBox="0 0 24 24"><path stroke="#000" stroke-linecap="round" stroke-linejoin="round" stroke-width="1.5" d="M14.737 2.762H7.979a3.73 3.73 0 0 0-3.73 3.729V17.34c0 2.176 1.765 3.775 3.94 3.775h7.884c2.06 0 3.729-1.715 3.729-3.775V8.038z" clip-rule="evenodd"/><path stroke="#000" stroke-linecap="round" stroke-linejoin="round" stroke-width="1.5" d="M14.474 2.75v2.91a2.574 2.574 0 0 0 2.568 2.574c1.317.003 2.664.004 2.755-.002"/><path fill="#000" fill-rule="evenodd" d="M10.64 10.651a.75.75 0 1 0-1.06 1.061l1.203 1.203-1.203 1.202a.75.75 0 0 0 1.06 1.061l1.204-1.203 1.202 1.203a.75.75 0 0 0 1.06-1.06l-1.202-1.203 1.203-1.203a.75.75 0 0 0-1.06-1.06l-1.203 1.202z" clip-rule="evenodd" opacity=".4"/></svg>