<svg xmlns="http://www.w3.org/2000/svg" fill="none" viewBox="0 0 24 24"><path fill="#000" fill-rule="evenodd" d="M2.114 13.519A10 10 0 0 1 2 12C2 6.486 6.486 2 12 2s10 4.486 10 10-4.485 10-10 10a9.94 9.94 0 0 1-7.927-3.902.728.728 0 0 1 1.153-.888 8.49 8.49 0 0 0 6.775 3.336c4.711 0 8.546-3.833 8.546-8.546S16.712 3.455 12 3.455 3.453 7.288 3.453 12c0 .437.033.874.098 1.299a.728.728 0 0 1-1.438.22m12.68-1.518c0 .199-.078.39-.22.53l-3.486 3.472a.75.75 0 1 1-1.06-1.062L12.983 12 10.03 9.06a.75.75 0 1 1 1.059-1.063l3.486 3.472c.142.14.22.33.22.53" clip-rule="evenodd"/></svg>