<svg xmlns="http://www.w3.org/2000/svg" fill="none" viewBox="0 0 24 24"><path fill="#000" fill-rule="evenodd" d="M3 6.528c0 1.945 1.603 3.528 3.575 3.528 1.971 0 3.574-1.583 3.574-3.528S8.546 3 6.575 3q-.409 0-.803.09a.826.826 0 0 0-.627.993.836.836 0 0 0 1.007.618c.136-.03.28-.046.423-.046 1.047 0 1.897.84 1.897 1.873s-.85 1.873-1.897 1.873-1.898-.84-1.898-1.873q0-.16.025-.311a.83.83 0 0 0-.688-.953.837.837 0 0 0-.964.68Q3 6.23 3 6.528m11.29.827h6.872c.462 0 .838-.37.838-.827a.833.833 0 0 0-.838-.828h-6.873a.833.833 0 0 0-.838.828c0 .456.376.827.838.827m-3.578 10.994H3.838A.833.833 0 0 1 3 17.522c0-.457.376-.828.838-.828h6.874c.462 0 .838.371.838.828a.833.833 0 0 1-.838.827m4.14-.827c0 1.945 1.602 3.528 3.574 3.528 1.97 0 3.574-1.583 3.574-3.528q0-.298-.05-.583a.84.84 0 0 0-.964-.681.83.83 0 0 0-.688.953q.026.151.026.311c0 1.033-.852 1.873-1.898 1.873-1.047 0-1.898-.84-1.898-1.873 0-1.175 1.162-2.09 2.325-1.827a.84.84 0 0 0 1.003-.623.827.827 0 0 0-.632-.99 3.7 3.7 0 0 0-.798-.088c-1.972 0-3.574 1.582-3.574 3.528" clip-rule="evenodd"/></svg>