<svg xmlns="http://www.w3.org/2000/svg" fill="none" viewBox="0 0 24 24"><path stroke="#000" stroke-linecap="round" stroke-linejoin="round" stroke-width="1.5" d="M10.33 16.593h-6.3M13.14 6.9h6.301"/><path stroke="#000" stroke-linecap="round" stroke-linejoin="round" stroke-width="1.5" d="M8.726 6.846A2.355 2.355 0 0 0 6.363 4.5 2.355 2.355 0 0 0 4 6.846a2.355 2.355 0 0 0 2.363 2.347 2.355 2.355 0 0 0 2.363-2.347M20 16.554a2.354 2.354 0 0 0-2.362-2.346 2.355 2.355 0 0 0-2.364 2.346 2.355 2.355 0 0 0 2.364 2.346A2.354 2.354 0 0 0 20 16.554" clip-rule="evenodd"/></svg>