<svg xmlns="http://www.w3.org/2000/svg" fill="none" viewBox="0 0 24 24"><path fill="#000" fill-rule="evenodd" d="M5.9 18.14h1.5v-1.59H5.9zM2.5 21.5h8.31v-8.31H2.5zm14.1-3.36h1.5v-1.59h-1.5zm-3.41 3.36h8.31v-8.31h-8.31zM14.694 4h2.431V2.5h-3.93v5.619h1.5zm-1.499 6.804h3.72v-1.5h-3.72zM18.298 2.5V4H20v1.7h1.5V2.5zM20 9.304h-1.702v1.5H21.5v-3.93H20z" clip-rule="evenodd"/><path fill="#000" fill-rule="evenodd" d="M15.517 4.864v3.72h3.33v-1.5h-1.83v-2.22z" clip-rule="evenodd"/><path fill="#000" fill-rule="evenodd" d="m19.443 4.854-1.5.01v1.5h1.5zM5.9 7.45h1.5v-1.6H5.9zM2.5 10.8h8.31V2.5H2.5z" clip-rule="evenodd"/></svg>