<svg xmlns="http://www.w3.org/2000/svg" fill="none" viewBox="0 0 24 24"><path stroke="#000" stroke-linecap="square" stroke-width="1.5" d="M10.056 3.228v6.806H3.25V3.228h3.132M20.75 20.727h-6.806v-6.806h6.806v3.72"/><path fill="#000" d="M16.375 3.978h.75v-1.5h-.75zm-2.43-.75v-.75h-.75v.75zm-.75 4.12v.75h1.5v-.75zM20 4.928v.75h1.5v-.75zm.75-1.7h.75v-.75h-.75zm-1.7-.75h-.75v1.5h.75zm2.45 5.125v-.75H20v.75zm-.75 2.43v.75h.75v-.75zm-1.7-.75h-.75v1.5h.75zm-5.105 0h-.75v1.5h.75zm2.22 1.5h.75v-1.5h-.75zm.21-8.305h-2.43v1.5h2.43zm-3.18.75v4.12h1.5v-4.12zm8.305 1.7v-1.7H20v1.7zm-.75-2.45h-1.7v1.5h1.7zM20 7.603v2.43h1.5v-2.43zm.75 1.68h-1.7v1.5h1.7zm-6.805 1.5h2.22v-1.5h-2.22z"/><path stroke="#000" stroke-linecap="square" stroke-width="1.5" d="M16.267 5.593v2.219h1.83m.597-2.229v.01m-12.042.989v.097m0 10.597v.096m10.695-.096v.096M3.25 20.727v-6.806h6.806v6.806l-3.291.045"/></svg>