<svg xmlns="http://www.w3.org/2000/svg" fill="none" viewBox="0 0 24 24"><path fill="#000" fill-rule="evenodd" d="M2.5 2.5h8.306v8.306H2.5zM4 4v5.306h5.306V4zm-1.5 9.195h8.306V21.5H2.5zm1.5 1.5V20h5.306v-5.305zm9.195-1.5H21.5V21.5h-8.305zm1.5 1.5V20H20v-5.305zM13.195 2.5h3.93V4h-2.43v4.12h-1.5zm5.104 0H21.5v3.201H20V4h-1.701zM21.5 6.875v3.93h-3.201v-1.5H20v-2.43zm-8.305 2.43h3.72v1.5h-3.72z" clip-rule="evenodd"/><path fill="#000" fill-rule="evenodd" d="M18.847 8.584h-3.33V4.866h1.5v2.218h1.83z" clip-rule="evenodd"/><path fill="#000" fill-rule="evenodd" d="M17.944 6.365v-1.51h1.5v1.51zM5.902 7.451V5.854h1.5v1.597zm0 10.695v-1.598h1.5v1.598zm10.696 0v-1.598h1.5v1.598z" clip-rule="evenodd"/></svg>