<svg xmlns="http://www.w3.org/2000/svg" fill="none" viewBox="0 0 24 24"><path fill="#000" fill-rule="evenodd" d="m19.595 5.501 2.47-2.47a.749.749 0 1 0-1.061-1.06l-2.47 2.469-2.469-2.469a.75.75 0 0 0-1.061 1.06l2.47 2.47-2.47 2.47a.749.749 0 1 0 1.061 1.06l2.469-2.469 2.47 2.469a.746.746 0 0 0 1.061 0 .75.75 0 0 0 0-1.06zm-4.037 8.347c-.998.486-1.861.908-4.108-1.34-2.246-2.246-1.827-3.11-1.34-4.108.705-1.448.99-2.765-2.212-5.402-.763-.624-1.585-.861-2.46-.698-1.86.346-3.13 2.383-3.128 2.383C1.499 5.82.387 9.238 7.554 16.403c4.712 4.713 7.804 5.846 9.68 5.846.977 0 1.626-.307 2.002-.576.02-.013 2.089-1.317 2.425-3.168.156-.864-.08-1.686-.703-2.447-2.633-3.197-3.951-2.915-5.4-2.21" clip-rule="evenodd"/></svg>