<svg xmlns="http://www.w3.org/2000/svg" fill="none" viewBox="0 0 24 24"><path fill="#000" fill-rule="evenodd" d="M19.018 5.152a.75.75 0 0 1 1.04.205 11.88 11.88 0 0 1 0 13.193.75.75 0 0 1-1.245-.836 10.38 10.38 0 0 0 0-11.522.75.75 0 0 1 .205-1.04" clip-rule="evenodd"/><path fill="#000" fill-rule="evenodd" d="M16.627 7.56a.75.75 0 0 1 1.019.295 8.49 8.49 0 0 1-.001 8.197.75.75 0 1 1-1.312-.726 6.99 6.99 0 0 0 0-6.746.75.75 0 0 1 .294-1.02M8.838 5.206c.952-.619 2.278-1.195 3.695-.356l.052.034c.736.523 1.232 1.256 1.536 2.384.295 1.091.42 2.585.42 4.685 0 2.102-.131 3.6-.429 4.693-.307 1.126-.801 1.86-1.527 2.376l-.052.033c-1.417.84-2.743.264-3.695-.354-.36-.234-.715-.506-1.025-.744l-.28-.213c-.404-.304-.678-.48-.878-.545-.428-.14-.761-.18-1.138-.226a16 16 0 0 1-.44-.057c-.584-.086-1.194-.252-1.851-.81-.684-.58-1.001-1.34-1.15-2.072-.147-.713-.145-1.461-.144-2.07v-.023c-.001-.608-.003-1.356.143-2.069.15-.732.467-1.492 1.151-2.073.657-.557 1.267-.722 1.852-.809q.233-.033.437-.056c.377-.046.712-.086 1.14-.227.2-.066.474-.241.879-.545l.28-.213c.31-.238.664-.51 1.024-.743M7.124 8.132c-.585.192-1.118.256-1.522.303q-.168.02-.305.04c-.414.06-.727.152-1.1.468-.345.293-.544.701-.652 1.23-.111.542-.114 1.142-.113 1.778v.004c-.001.636.002 1.236.113 1.778.108.529.307.937.652 1.23.373.317.686.408 1.1.47q.136.019.306.038c.403.048.937.111 1.521.303.467.154.926.482 1.31.77l.329.25c.299.23.586.45.892.649.819.531 1.45.7 2.087.337.377-.276.693-.686.923-1.528.243-.895.376-2.23.376-4.299 0-2.071-.127-3.402-.368-4.294-.226-.838-.541-1.249-.931-1.533-.636-.363-1.268-.194-2.087.338-.306.199-.593.419-.891.647q-.161.124-.33.25c-.385.29-.843.617-1.31.77" clip-rule="evenodd"/></svg>