<svg xmlns="http://www.w3.org/2000/svg" fill="none" viewBox="0 0 24 24"><path fill="#000" fill-rule="evenodd" d="M17.431 4.119C15.951 2.591 14.021 1.75 12 1.75s-3.952.842-5.434 2.371C5.061 5.672 4.235 7.756 4.3 9.838c.104 3.344 2.366 5.785 4.362 7.938 1.523 1.642 2.837 3.06 2.837 4.474h1c0-1.458 1.317-2.858 2.841-4.48 1.994-2.121 4.255-4.525 4.36-7.932.063-2.083-.764-4.168-2.269-5.719" clip-rule="evenodd" opacity=".4"/><path fill="#000" d="M9.35 9.85A2.653 2.653 0 0 0 12 12.5a2.653 2.653 0 0 0 2.65-2.65A2.653 2.653 0 0 0 12 7.2a2.653 2.653 0 0 0-2.65 2.65"/></svg>