<svg xmlns="http://www.w3.org/2000/svg" fill="none" viewBox="0 0 24 24"><path fill="#000" fill-rule="evenodd" d="M8.85 9.6a3.15 3.15 0 1 1 6.3 0 3.15 3.15 0 0 1-6.3 0M12 7.95a1.65 1.65 0 1 0 0 3.3 1.65 1.65 0 0 0 0-3.3" clip-rule="evenodd"/><path fill="#000" fill-rule="evenodd" d="M12 2.75c-3.537 0-6.562 3.199-6.45 6.8.079 2.548 1.684 4.568 3.47 6.52l.543.589c.695.749 1.39 1.499 1.938 2.234q.264.351.49.723.234-.385.508-.749c.55-.735 1.25-1.48 1.947-2.22l.537-.573c1.782-1.92 3.387-3.918 3.467-6.523.11-3.602-2.914-6.801-6.45-6.801M12.75 22c0-.683.324-1.397.95-2.234.495-.66 1.118-1.323 1.806-2.056l.577-.616c1.773-1.912 3.768-4.278 3.866-7.497.135-4.413-3.532-8.347-7.95-8.347-4.416 0-8.085 3.934-7.948 8.347.098 3.16 2.092 5.551 3.862 7.485q.298.325.583.632c.686.74 1.308 1.411 1.802 2.075.63.846.951 1.554.951 2.211z" clip-rule="evenodd"/></svg>