<svg xmlns="http://www.w3.org/2000/svg" fill="none" viewBox="0 0 24 24"><path fill="#000" fill-rule="evenodd" d="M7.121 17.563a.75.75 0 0 1-.75-.75v-6.86a.75.75 0 0 1 1.5 0v6.86a.75.75 0 0 1-.75.75m4.667-.001a.75.75 0 0 1-.75-.75V6.667a.75.75 0 0 1 1.5 0v10.144a.75.75 0 0 1-.75.75m4.59.001a.75.75 0 0 1-.75-.75v-3.235a.75.75 0 0 1 1.5 0v3.234a.75.75 0 0 1-.75.75" clip-rule="evenodd"/><path fill="#000" fill-rule="evenodd" d="M7.064 2.5C4.292 2.5 2.5 4.397 2.5 7.335v8.83C2.5 19.103 4.292 21 7.064 21h9.372C19.209 21 21 19.103 21 16.165v-8.83C21 4.397 19.209 2.5 16.436 2.5zm9.372 20H7.064C3.437 22.5 1 19.954 1 16.165v-8.83C1 3.546 3.437 1 7.064 1h9.372C20.063 1 22.5 3.546 22.5 7.335v8.83c0 3.789-2.437 6.335-6.064 6.335" clip-rule="evenodd"/></svg>