<svg xmlns="http://www.w3.org/2000/svg" fill="none" viewBox="0 0 24 24"><path fill="#000" fill-rule="evenodd" d="M15.427 9.968H8.572a.75.75 0 0 1 0-1.5h6.855a.75.75 0 0 1 0 1.5m4.542 3.022-.003-2.061C19.966 3.335 18.775 2 12 2s-7.966 1.335-7.966 8.929l-.003 2.061c-.009 5.625-.013 7.731.846 8.59.278.279.647.42 1.096.42.955 0 2.017-.907 3.142-1.868.996-.851 2.125-1.815 2.885-1.815s1.889.964 2.885 1.815C16.01 21.093 17.072 22 18.027 22c.449 0 .818-.141 1.096-.42.859-.859.855-2.965.846-8.59" clip-rule="evenodd"/></svg>