<svg xmlns="http://www.w3.org/2000/svg" fill="none" viewBox="0 0 24 24"><path fill="#000" fill-rule="evenodd" d="m15.164 6.083.948.011c3.405 0 5.888 2.428 5.888 5.78v4.307c0 3.353-2.483 5.78-5.888 5.78A194 194 0 0 1 12.01 22c-1.374 0-2.758-.01-4.122-.038-3.405 0-5.888-2.428-5.888-5.78v-4.307c0-3.353 2.483-5.78 5.898-5.78 1.286-.02 2.6-.04 3.935-.04v-.163c0-.665-.56-1.204-1.226-1.204h-.972c-1.109 0-2.012-.886-2.012-1.965 0-.395.334-.723.736-.723.412 0 .736.328.736.723 0 .289.246.52.54.52h.972c1.481.01 2.688 1.194 2.698 2.64v.183q.928.002 1.859.017m-4.312 8.663h-1.03v1.02a.735.735 0 0 1-.737.723.73.73 0 0 1-.736-.722v-1.021H7.31a.73.73 0 0 1-.736-.723c0-.395.334-.722.736-.722h1.04v-1.012c0-.395.324-.723.736-.723.403 0 .736.328.736.723v1.012h1.03c.403 0 .737.327.737.722a.73.73 0 0 1-.736.723m4.17-1.629h.099a.73.73 0 0 0 .736-.722.735.735 0 0 0-.736-.723h-.098a.722.722 0 1 0 0 1.445m1.679 3.315h.098a.73.73 0 0 0 .736-.723.735.735 0 0 0-.736-.723H16.7a.722.722 0 1 0 0 1.445" clip-rule="evenodd"/></svg>