<svg xmlns="http://www.w3.org/2000/svg" fill="none" viewBox="0 0 24 24"><path fill="#000" fill-rule="evenodd" d="M16.11 6.102c3.143-.022 5.751 2.335 5.885 5.414q.007.186.003.371v4.307a5.6 5.6 0 0 1-1.57 4.025 5.62 5.62 0 0 1-4.339 1.742 229 229 0 0 1-4.142.036c-1.37 0-2.736-.011-4.077-.035-3.085.153-5.728-2.292-5.865-5.412a7 7 0 0 1-.004-.37v-4.31c-.068-3.108 2.418-5.704 5.54-5.772q.183-.003.371.005l3.96-.001v-.23a1.256 1.256 0 0 0-1.256-1.229H9.62c-.517-.022-1.009-.193-1.383-.561a1.95 1.95 0 0 1-.587-1.377A.7.7 0 0 1 8.34 2h.008c.381 0 .693.308.697.691a.55.55 0 0 0 .17.395.56.56 0 0 0 .391.161h1.016a2.657 2.657 0 0 1 2.646 2.617v.935a.7.7 0 0 1-.698.698H7.844a4.273 4.273 0 0 0-4.448 4.358v4.339a4.26 4.26 0 0 0 4.455 4.374c2.718.046 5.481.046 8.256-.001a4.24 4.24 0 0 0 3.313-1.313 4.23 4.23 0 0 0 1.183-3.045V11.87a4 4 0 0 0-.003-.295c-.103-2.357-2.025-4.127-4.472-4.078a.69.69 0 0 1-.706-.688.7.7 0 0 1 .688-.707m-6.264 9.63a.77.77 0 0 1-.762.756h-.009a.76.76 0 0 1-.752-.756V14.73h-1.01a.76.76 0 0 1-.727-.35.75.75 0 0 1 0-.803.76.76 0 0 1 .727-.35h1.01v-.994c0-.418.34-.756.761-.756a.76.76 0 0 1 .762.756v.993h1.01a.76.76 0 0 1 .727.35.75.75 0 0 1 0 .803.76.76 0 0 1-.728.35h-1.01zm4.631-3.895a.7.7 0 0 1 .24-.167.75.75 0 0 1 .566 0q.144.061.257.167a.75.75 0 0 1 .168.818.6.6 0 0 1-.168.246.775.775 0 0 1-1.063 0 .727.727 0 0 1 0-1.064m1.692 3.35a.743.743 0 0 0 .004 1.054c.294.29.769.29 1.063 0a.743.743 0 0 0-.244-1.221.77.77 0 0 0-.823.167" clip-rule="evenodd"/></svg>