<svg xmlns="http://www.w3.org/2000/svg" fill="none" viewBox="0 0 24 24"><path fill="#000" fill-rule="evenodd" d="M2.768 9.012a.766.766 0 0 1-.765-.765C2 4.392 4.392 2 8.243 2h7.504C19.607 2 22 4.392 22 8.244v7.5C22 19.607 19.608 22 15.747 22h-7.5C4.41 22 2 19.607 2 15.747v-2.569c0-.417.339-.756.756-.756h.009v.017c.422 0 .764.342.765.764v2.544c0 3.053 1.67 4.723 4.714 4.723h7.5c3.046 0 4.726-1.68 4.726-4.723v-7.5c0-3.034-1.68-4.714-4.723-4.714h-7.5c-3.043 0-4.714 1.68-4.714 4.714a.766.766 0 0 1-.765.765m5.146 3.738h6.356l-2.477 2.467a.749.749 0 1 0 1.058 1.062l3.764-3.748v-.001a.74.74 0 0 0 .22-.529V12q0-.01-.003-.019l-.003-.016a.8.8 0 0 0-.051-.251.8.8 0 0 0-.152-.23q-.003-.008-.01-.013a.74.74 0 0 0-.53-.221H7.914a.75.75 0 0 0 0 1.5m6.222-3.751L12.852 7.72a.75.75 0 0 0-1.062.002.75.75 0 0 0 .003 1.06l1.284 1.278a.751.751 0 0 0 1.059-1.062" clip-rule="evenodd"/></svg>