<svg xmlns="http://www.w3.org/2000/svg" fill="none" viewBox="0 0 24 24"><path fill="#000" fill-rule="evenodd" d="M12 3.5c-4.687 0-8.5 3.813-8.5 8.5s3.813 8.5 8.5 8.5 8.5-3.813 8.5-8.5-3.813-8.5-8.5-8.5M12 22C6.486 22 2 17.514 2 12S6.486 2 12 2s10 4.486 10 10-4.486 10-10 10" clip-rule="evenodd"/><path fill="#000" fill-rule="evenodd" d="M11.994 13.373a.75.75 0 0 1-.75-.75V8.204a.75.75 0 0 1 1.5 0v4.419a.75.75 0 0 1-.75.75m.01 3.423a1.003 1.003 0 0 1-1.005-1c0-.553.443-1 .995-1h.01a1 1 0 1 1 0 2" clip-rule="evenodd"/></svg>