<svg xmlns="http://www.w3.org/2000/svg" fill="none" viewBox="0 0 24 24"><path fill="#000" d="M21.02 7.069a1.69 1.69 0 0 0-1.812.223l-1.575 1.297a.74.74 0 0 0-.102 1.037.73.73 0 0 0 1.03.103l1.575-1.298a.23.23 0 0 1 .258-.031.24.24 0 0 1 .143.225v6.75a.24.24 0 0 1-.143.226.23.23 0 0 1-.26-.032l-3.728-3.074V8.587c0-2.406-1.717-4.087-4.176-4.087H6.176C3.717 4.5 2 6.18 2 8.587v6.837c0 2.4 1.713 4.076 4.166 4.076.404 0 .732-.33.732-.737a.735.735 0 0 0-.732-.736c-1.667 0-2.703-.997-2.703-2.603V8.587c0-1.613 1.04-2.614 2.713-2.614h6.054c1.673 0 2.712 1.001 2.712 2.614v6.837c0 1.606-1.039 2.603-2.712 2.603h-1.687a.735.735 0 0 0-.731.736c0 .407.328.737.731.737h1.687c2.459 0 4.176-1.677 4.176-4.076v-1.025l2.802 2.31a1.68 1.68 0 0 0 1.813.222A1.71 1.71 0 0 0 22 15.374V8.625c0-.672-.376-1.269-.98-1.556"/></svg>