<svg xmlns="http://www.w3.org/2000/svg" fill="none" viewBox="0 0 24 24"><path fill="#000" fill-rule="evenodd" d="M9.5 12.554c2.755 0 4.963-2.237 4.963-5.027S12.255 2.5 9.5 2.5 4.537 4.737 4.537 7.527s2.208 5.027 4.963 5.027m0 2.461c-4.046 0-7.5.647-7.5 3.231S5.433 21.5 9.5 21.5c4.045 0 7.5-.647 7.5-3.231 0-2.585-3.433-3.254-7.5-3.254m10.398-5.427H21.1c.495 0 .899.41.899.912a.907.907 0 0 1-.899.911h-1.203v1.177a.906.906 0 0 1-.899.912.907.907 0 0 1-.899-.912v-1.177h-1.201A.906.906 0 0 1 16 10.5c0-.502.403-.911.899-.911H18.1V8.412c0-.503.404-.912.899-.912.496 0 .899.41.899.912z" clip-rule="evenodd"/></svg>