<svg xmlns="http://www.w3.org/2000/svg" fill="none" viewBox="0 0 24 24"><path fill="#000" fill-rule="evenodd" d="M13.824 7.354c0-2.16-1.75-3.917-3.903-3.917S6.02 5.194 6.02 7.354s1.75 3.917 3.902 3.917 3.903-1.757 3.903-3.917m1.431 0c0 2.952-2.392 5.354-5.334 5.354-2.94 0-5.333-2.402-5.333-5.354S6.98 2 9.92 2s5.334 2.402 5.334 5.354m5.998 2.685H19.96V8.784a.75.75 0 0 0-.747-.75.75.75 0 0 0-.747.75v1.255h-1.29a.749.749 0 0 0 0 1.5h1.29v1.254c0 .414.335.75.747.75a.75.75 0 0 0 .747-.75V11.54h1.292a.749.749 0 0 0 0-1.5M9.92 14.64c-3.4 0-7.921.38-7.921 3.67 0 .985.456 2.315 2.63 3.054a.718.718 0 0 0 .46-1.36c-1.488-.506-1.66-1.209-1.66-1.694 0-1.482 2.185-2.234 6.491-2.234 4.307 0 6.491.758 6.491 2.254 0 1.483-2.184 2.234-6.49 2.234q-.494 0-.971-.014c-.383.003-.724.301-.735.697a.717.717 0 0 0 .693.74q.499.012 1.012.013c3.401 0 7.922-.381 7.922-3.67 0-3.69-5.963-3.69-7.922-3.69" clip-rule="evenodd"/></svg>