<svg xmlns="http://www.w3.org/2000/svg" fill="none" viewBox="0 0 24 24"><path fill="#000" fill-rule="evenodd" d="M9.846 12.636h.031a5.324 5.324 0 0 0 5.318-5.318A5.324 5.324 0 0 0 9.877 2 5.323 5.323 0 0 0 4.56 7.315 5.27 5.27 0 0 0 6.1 11.07a5.27 5.27 0 0 0 3.746 1.566M6.06 7.318A3.82 3.82 0 0 1 9.877 3.5a3.823 3.823 0 0 1 3.818 3.818 3.823 3.823 0 0 1-3.818 3.818h-.028a3.8 3.8 0 0 1-2.686-1.123A3.78 3.78 0 0 1 6.06 7.318M2 18.115c0 3.68 5.929 3.68 7.877 3.68 3.382 0 7.877-.379 7.877-3.658 0-3.68-5.929-3.68-7.877-3.68-3.382 0-7.877.378-7.877 3.658m1.5 0c0-1.432 2.146-2.159 6.377-2.159s6.377.733 6.377 2.181c0 1.431-2.146 2.158-6.377 2.158S3.5 19.561 3.5 18.115" clip-rule="evenodd"/><path fill="#000" d="M19.204 13.43a.75.75 0 0 1-.75-.75v-1.256H17.16a.75.75 0 0 1 0-1.5h1.294V8.669a.75.75 0 0 1 1.5 0v1.255h1.296a.75.75 0 0 1 0 1.5h-1.296v1.256a.75.75 0 0 1-.75.75"/></svg>