<svg xmlns="http://www.w3.org/2000/svg" fill="none" viewBox="0 0 24 24"><path fill="#000" fill-rule="evenodd" d="M3.575 2h11.312l5.537 5.766V22H3.575zm1.5 1.5v17h13.85V8.37L14.247 3.5z" clip-rule="evenodd"/><path fill="#000" fill-rule="evenodd" d="M14.842 2.555V7.9h5.107v1.5h-6.607V2.555zm-4.729 15.728V8.937h1.5v9.346z" clip-rule="evenodd"/><path fill="#000" fill-rule="evenodd" d="M11.613 17.533c0-1.846-1.608-3.337-3.337-3.337h-.75v1.5h.75c.932 0 1.837.851 1.837 1.837v.75h1.5z" clip-rule="evenodd"/><path fill="#000" fill-rule="evenodd" d="M10.113 17.533c0-1.846 1.61-3.337 3.337-3.337h.75v1.5h-.75c-.932 0-1.837.851-1.837 1.837v.75h-1.5z" clip-rule="evenodd"/></svg>