<svg xmlns="http://www.w3.org/2000/svg" fill="none" viewBox="0 0 24 24"><path fill="#000" fill-rule="evenodd" d="M21.775 11.36a.76.76 0 0 1-.54.218v-.018a.765.765 0 0 1-.765-.765V8.253c0-3.052-1.671-4.723-4.714-4.723H8.253C5.21 3.53 3.53 5.21 3.53 8.253v7.502c0 3.035 1.68 4.715 4.723 4.715h7.502c3.044 0 4.715-1.68 4.715-4.714a.765.765 0 1 1 1.53 0C22 19.607 19.608 22 15.756 22H8.253C4.393 22 2 19.608 2 15.756V8.253C2 4.393 4.392 2 8.253 2h7.502C19.59 2 22 4.392 22 8.253v2.569a.75.75 0 0 1-.225.537m-9.74-3.511q.124 0 .24.039a.77.77 0 0 1 .552.735v2.392h2.603a.8.8 0 0 1 .263.044.76.76 0 0 1 .529.73.765.765 0 0 1-.748.765H8.658a.8.8 0 0 1-.188-.027.774.774 0 0 1-.604-.747.756.756 0 0 1 .757-.765h2.638v-2.4a.783.783 0 0 1 .774-.765m-.756 7.502v-.968a.766.766 0 0 1 .791-.738.757.757 0 0 1 .74.791v.968a.765.765 0 1 1-1.531-.053" clip-rule="evenodd"/></svg>