<svg xmlns="http://www.w3.org/2000/svg" fill="none" viewBox="0 0 24 24"><path fill="#000" fill-rule="evenodd" d="M12 9.062a2.938 2.938 0 1 0 0 5.875 2.938 2.938 0 0 0 0-5.875M7.563 12a4.438 4.438 0 1 1 8.875 0 4.438 4.438 0 0 1-8.875 0" clip-rule="evenodd"/><path fill="#000" fill-rule="evenodd" d="M9.65 1.847 12 3.695l2.35-1.848 5.27 3.042-.427 2.959 2.775 1.11v6.084l-2.776 1.11.427 2.96-5.27 3.041-2.348-1.848-2.35 1.848-5.268-3.042.426-2.958-2.777-1.11V8.957l2.776-1.11-.426-2.96zM6.012 5.68l.45 3.122-2.929 1.171v4.054l2.93 1.172-.45 3.12 3.51 2.028 2.479-1.95 2.478 1.95 3.51-2.027-.45-3.122 2.929-1.171V9.973l-2.927-1.17.45-3.123-3.511-2.027L12 5.604l-2.479-1.95z" clip-rule="evenodd"/></svg>