<svg xmlns="http://www.w3.org/2000/svg" fill="none" viewBox="0 0 24 24"><path fill="#000" fill-rule="evenodd" d="M12 10.31a3.666 3.666 0 0 0-3.662 3.662A3.665 3.665 0 0 0 12 17.633a3.666 3.666 0 0 0 3.662-3.661A3.666 3.666 0 0 0 12 10.31" clip-rule="evenodd"/><path fill="#000" fill-rule="evenodd" d="M22.154 13.542c-2.134-4.491-5.93-7.173-10.151-7.175h-.005C7.776 6.369 3.98 9.05 1.847 13.542l-.429.903 1.807.859.43-.904C5.446 10.623 8.566 8.368 12 8.367c3.432 0 6.551 2.256 8.346 6.033l.43.904 1.805-.86z" clip-rule="evenodd"/></svg>