<svg xmlns="http://www.w3.org/2000/svg" fill="none" viewBox="0 0 24 24"><path fill="#000" fill-rule="evenodd" d="M22.154 13.292c-2.134-4.49-5.93-7.173-10.151-7.175h-.005C7.776 6.12 3.98 8.801 1.847 13.292l-.429.903 1.807.86.43-.905C5.446 10.373 8.566 8.118 12 8.117c3.432.001 6.551 2.256 8.346 6.033l.43.904 1.805-.859z" clip-rule="evenodd" opacity=".4"/><path fill="#000" fill-rule="evenodd" d="M11.999 10.06a3.666 3.666 0 0 0-3.661 3.662 3.665 3.665 0 0 0 3.66 3.661 3.666 3.666 0 0 0 3.663-3.66 3.666 3.666 0 0 0-3.662-3.663" clip-rule="evenodd"/></svg>