<svg xmlns="http://www.w3.org/2000/svg" fill="none" viewBox="0 0 24 24"><path fill="#000" fill-rule="evenodd" d="M11.846 11.31a2.41 2.41 0 1 0 0 4.822 2.41 2.41 0 0 0 0-4.822m-3.911 2.412a3.91 3.91 0 1 1 7.821-.002 3.91 3.91 0 0 1-7.821.002M1.92 13.4c2.054-4.327 5.766-7.032 9.925-7.033h.004v1.5h-.004m.002 0c3.454 0 6.706 2.248 8.572 6.176l.322.678 1.355-.644-.322-.678c-2.055-4.326-5.766-7.03-9.925-7.032m-.002 1.5c-3.455 0-6.707 2.248-8.573 6.176l-.322.678-1.355-.644.322-.678" clip-rule="evenodd"/></svg>