<svg xmlns="http://www.w3.org/2000/svg" fill="none" viewBox="0 0 24 24"><path fill="#000" fill-rule="evenodd" d="M12 9.6c-1.345 0-2.439 1.076-2.439 2.4 0 .392.106.764.286 1.101l3.272-3.22A2.45 2.45 0 0 0 12 9.6m7.385-5.889a.74.74 0 0 1 1.035 0 .71.71 0 0 1 0 1.019L4.615 20.288a.736.736 0 0 1-1.035 0 .71.71 0 0 1 0-1.018l5.196-5.115A3.75 3.75 0 0 1 8.098 12c0-2.119 1.75-3.841 3.902-3.841.787 0 1.553.238 2.19.665l2.034-2.001c-2.868-1.837-6.365-1.68-9.097.45-1.443 1.117-2.682 2.747-3.595 4.728.406.885.878 1.7 1.404 2.43a.713.713 0 0 1-.172 1.003.74.74 0 0 1-.424.134.73.73 0 0 1-.597-.303 16 16 0 0 1-1.684-2.982.7.7 0 0 1 .001-.569C3.081 9.387 4.52 7.46 6.221 6.142c3.298-2.569 7.63-2.696 11.056-.356zm2.555 8.003a16 16 0 0 0-1.893-3.25.74.74 0 0 0-1.024-.143.713.713 0 0 0-.145 1.009c.597.78 1.131 1.677 1.59 2.67-1.876 4.066-5.023 6.483-8.468 6.483a7.4 7.4 0 0 1-2.306-.371.735.735 0 0 0-.925.456.72.72 0 0 0 .462.911 8.9 8.9 0 0 0 2.769.445c4.127 0 7.843-2.856 9.94-7.639a.7.7 0 0 0 0-.57m-7.55.714a2.41 2.41 0 0 1-1.951 1.924.723.723 0 0 0-.59.839.73.73 0 0 0 .85.58c1.589-.285 2.848-1.525 3.132-3.089a.72.72 0 0 0-.591-.836.733.733 0 0 0-.85.582" clip-rule="evenodd"/></svg>