<svg xmlns="http://www.w3.org/2000/svg" fill="none" viewBox="0 0 24 24"><path fill="#000" fill-rule="evenodd" d="M11.99 3.882H12a8.86 8.86 0 0 1 4 .964l-3.258 3.289A4.5 4.5 0 0 0 12 8.066c-2.156 0-3.902 1.762-3.902 3.938 0 .256.029.512.068.748l-3.61 3.643c-.976-1.142-1.824-2.521-2.497-4.105a.75.75 0 0 1 0-.581c2.087-4.903 5.804-7.827 9.931-7.827m6.44 2.668c1.414 1.3 2.614 3.052 3.512 5.159a.75.75 0 0 1 0 .58c-2.088 4.903-5.805 7.837-9.942 7.837h-.01c-1.883 0-3.688-.62-5.278-1.752l3.093-3.121c.624.422 1.385.68 2.195.68 2.146 0 3.893-1.763 3.893-3.929a4 4 0 0 0-.674-2.215z" clip-rule="evenodd" opacity=".4"/><path fill="#000" fill-rule="evenodd" d="m18.43 6.55 1.775-1.792a.73.73 0 0 0 0-1.044.73.73 0 0 0-1.034 0l-.917.926c-.01.02-.03.039-.049.059-.01.02-.03.039-.049.059l-.868.877-3.093 3.12L3.727 19.32l-.03.039a.74.74 0 0 0 .088.926.7.7 0 0 0 .518.216c.185 0 .37-.069.517-.216L15.22 9.79zM12 14.456c1.337 0 2.43-1.103 2.43-2.452 0-.413-.098-.807-.274-1.142l-3.288 3.318a2.4 2.4 0 0 0 1.132.276" clip-rule="evenodd"/></svg>