<svg xmlns="http://www.w3.org/2000/svg" fill="none" viewBox="0 0 24 24"><path fill="#000" fill-rule="evenodd" d="M22.565 12.08H1.435c-.41 0-.75.34-.75.75s.34.75.75.75h.62c.04.64.09 1.26.19 1.8v.04c.63 3.76 2.6 5.71 6.38 6.34.04.01.09.01.13.01.36 0 .67-.26.74-.63a.76.76 0 0 0-.62-.86c-3.19-.53-4.63-1.98-5.15-5.15-.01-.02-.01-.03-.01-.05-.08-.45-.12-.96-.16-1.5h2.1c.31 3.82 2.11 5.22 6.45 5.22s6.14-1.4 6.45-5.22h1.88c-.03.55-.08 1.08-.16 1.55v.04c-.53 3.15-1.98 4.58-5.15 5.11-.41.07-.68.46-.61.86.06.37.37.63.73.63.05 0 .09 0 .13-.01 3.8-.63 5.77-2.6 6.39-6.39v-.04c.09-.53.14-1.13.18-1.75h.62a.749.749 0 1 0 0-1.5" clip-rule="evenodd"/><path fill="#000" fill-rule="evenodd" d="M5.695 10.58h12.81c-.4-3.49-2.23-4.78-6.4-4.78s-6 1.29-6.41 4.78M2.86 9.49q.062.01.122.01a.75.75 0 0 0 .739-.629c.515-3.144 2.008-4.636 5.15-5.15a.75.75 0 1 0-.241-1.48c-3.797.62-5.767 2.591-6.39 6.388a.75.75 0 0 0 .62.861m12.27-5.77c3.144.515 4.636 2.007 5.15 5.15a.749.749 0 1 0 1.48-.242c-.621-3.797-2.591-5.767-6.388-6.388a.75.75 0 1 0-.242 1.48" clip-rule="evenodd" opacity=".4"/></svg>