<svg xmlns="http://www.w3.org/2000/svg" fill="none" viewBox="0 0 24 24"><path fill="#000" fill-rule="evenodd" d="M.7 12.8a.75.75 0 0 1 .75-.75h21.132a.75.75 0 0 1 0 1.5H1.45a.75.75 0 0 1-.75-.75m8.806-9.971a.75.75 0 0 1-.619.861c-1.643.27-2.777.794-3.567 1.584S4.005 7.198 3.736 8.841a.75.75 0 1 1-1.48-.242c.3-1.837.92-3.303 2.004-4.386C5.342 3.13 6.808 2.511 8.645 2.21a.75.75 0 0 1 .861.619" clip-rule="evenodd"/><path fill="#000" fill-rule="evenodd" d="M2.768 12.054a.75.75 0 0 1 .767.733 16.4 16.4 0 0 0 .201 2.312c.27 1.643.794 2.775 1.584 3.563s1.924 1.314 3.57 1.588a.75.75 0 1 1-.247 1.48c-1.835-.306-3.3-.925-4.383-2.007-1.073-1.07-1.691-2.516-1.995-4.327l-.01-.048a18 18 0 0 1-.22-2.527.75.75 0 0 1 .733-.767m18.493 0a.75.75 0 0 1 .733.767 18 18 0 0 1-.217 2.52c-.302 1.837-.922 3.3-2.005 4.382s-2.548 1.7-4.383 2.007a.75.75 0 0 1-.247-1.48c1.645-.274 2.78-.8 3.57-1.588.782-.781 1.305-1.898 1.577-3.517l.006-.044q.17-1.019.2-2.314a.75.75 0 0 1 .766-.733m-6.735-9.225a.75.75 0 0 1 .861-.62c1.837.302 3.303.921 4.386 2.004s1.703 2.55 2.003 4.386a.75.75 0 1 1-1.48.242c-.27-1.643-.794-2.777-1.584-3.567s-1.924-1.315-3.567-1.584a.75.75 0 0 1-.619-.861" clip-rule="evenodd"/></svg>