<svg xmlns="http://www.w3.org/2000/svg" fill="none" viewBox="0 0 24 24"><path fill="#000" fill-rule="evenodd" d="M9.189 3.747A.754.754 0 0 0 8.428 3h-.001l-1.63.001c-2.19.002-3.973 1.752-3.973 3.902v1.859c0 .412.34.747.76.747s.763-.335.763-.747v-1.86c0-1.326 1.1-2.406 2.452-2.408h1.629a.753.753 0 0 0 .76-.747M17.194 3H15.6a.754.754 0 0 0-.761.748c0 .411.34.745.76.745h1.594c1.357 0 2.46 1.082 2.46 2.413v1.856c0 .412.342.748.762.748a.754.754 0 0 0 .76-.748V6.906C21.177 4.752 19.392 3 17.195 3M9.239 6.743h5.523c.605 0 1.186.238 1.61.663.425.428.662 1.004.66 1.603v1.245a.28.28 0 0 1-.273.269H7.24a.28.28 0 0 1-.27-.269V9.01c-.01-1.24 1.006-2.254 2.27-2.266" clip-rule="evenodd" opacity=".4"/><path fill="#000" d="M22.239 12.041H1.762a.755.755 0 0 0-.762.747c0 .412.342.746.762.746h1.061v3.563c0 2.15 1.784 3.9 3.975 3.902L8.427 21a.755.755 0 0 0 .762-.747.754.754 0 0 0-.761-.747H6.8c-1.353-.002-2.454-1.082-2.454-2.409v-3.563h2.623v.991c-.01 1.24 1.005 2.254 2.269 2.266h5.524c1.265-.012 2.28-1.026 2.27-2.266v-.991h2.623v3.56c0 1.33-1.104 2.412-2.461 2.412h-1.593a.754.754 0 0 0-.762.747c0 .413.341.747.762.747h1.593c2.196 0 3.983-1.751 3.983-3.907v-3.56h1.062c.42 0 .761-.333.761-.745a.754.754 0 0 0-.761-.747"/></svg>