<svg xmlns="http://www.w3.org/2000/svg" fill="none" viewBox="0 0 24 24"><path fill="#000" fill-rule="evenodd" d="M22.75 13.955h-21a.75.75 0 0 1 0-1.5h21a.75.75 0 0 1 0 1.5m-1.87-4.21a.75.75 0 0 1-.75-.75V7.481A2.986 2.986 0 0 0 17.147 4.5h-1.205a.75.75 0 0 1 0-1.5h1.205a4.49 4.49 0 0 1 4.483 4.481v1.514a.75.75 0 0 1-.75.75m-17.26 0a.75.75 0 0 1-.75-.75V7.481A4.49 4.49 0 0 1 7.353 3H8.59a.75.75 0 0 1 0 1.5H7.353A2.986 2.986 0 0 0 4.37 7.481v1.514a.75.75 0 0 1-.75.75" clip-rule="evenodd"/><path fill="#000" fill-rule="evenodd" d="M17.147 21.76h-1.205a.75.75 0 0 1 0-1.5h1.205a2.986 2.986 0 0 0 2.983-2.981v-4.075a.75.75 0 0 1 1.5 0v4.075a4.49 4.49 0 0 1-4.483 4.482m-8.558-.001H7.353a4.49 4.49 0 0 1-4.483-4.48v-4.075a.75.75 0 0 1 1.5 0v4.075a2.986 2.986 0 0 0 2.983 2.982h1.236a.75.75 0 0 1 0 1.5" clip-rule="evenodd"/></svg>