<svg xmlns="http://www.w3.org/2000/svg" fill="none" viewBox="0 0 24 24"><path fill="#000" d="M5.844 9.533c.356.421 3.547 4.12 6.167 4.12 2.623 0 5.782-3.702 6.133-4.124a.75.75 0 1 0-1.152-.96c-1.156 1.385-3.53 3.583-4.98 3.583-1.453 0-3.85-2.2-5.02-3.586a.75.75 0 0 0-1.147.967"/><path fill="#000" fill-rule="evenodd" d="M1.727 12c0 7.285 2.689 9.867 10.273 9.867 7.585 0 10.274-2.582 10.274-9.867S19.584 2.133 12 2.133 1.727 4.715 1.727 12m1.5 0c0-6.412 2.05-8.367 8.773-8.367 6.724 0 8.774 1.955 8.774 8.367s-2.05 8.367-8.774 8.367S3.227 18.412 3.227 12" clip-rule="evenodd"/></svg>