<svg xmlns="http://www.w3.org/2000/svg" fill="none" viewBox="0 0 24 24"><path fill="#000" fill-rule="evenodd" d="M6.219 13.813a3.974 3.974 0 0 0-3.97 3.969 3.973 3.973 0 0 0 3.97 3.968 3.973 3.973 0 0 0 3.969-3.968 3.974 3.974 0 0 0-3.97-3.97m11.563.001a3.974 3.974 0 0 0-3.969 3.969 3.973 3.973 0 0 0 3.97 3.968 3.973 3.973 0 0 0 3.968-3.968 3.974 3.974 0 0 0-3.969-3.97M15.969 6.22a3.974 3.974 0 0 0-3.97-3.97 3.973 3.973 0 0 0-3.967 3.97A3.973 3.973 0 0 0 12 10.187a3.973 3.973 0 0 0 3.969-3.969" clip-rule="evenodd"/></svg>