<svg xmlns="http://www.w3.org/2000/svg" fill="none" viewBox="0 0 24 24"><path fill="#000" fill-rule="evenodd" d="M6.219 13.813a3.974 3.974 0 0 0-3.97 3.969 3.973 3.973 0 0 0 3.97 3.968 3.973 3.973 0 0 0 3.969-3.968 3.974 3.974 0 0 0-3.97-3.969m11.563 0a3.974 3.974 0 0 0-3.969 3.969 3.973 3.973 0 0 0 3.97 3.968 3.973 3.973 0 0 0 3.968-3.968 3.974 3.974 0 0 0-3.969-3.969" clip-rule="evenodd"/><path fill="#000" fill-rule="evenodd" d="M15.969 6.219a3.974 3.974 0 0 0-3.97-3.969 3.973 3.973 0 0 0-3.968 3.969A3.973 3.973 0 0 0 12 10.188a3.974 3.974 0 0 0 3.97-3.969" clip-rule="evenodd" opacity=".4"/></svg>