<svg xmlns="http://www.w3.org/2000/svg" fill="none" viewBox="0 0 24 24"><path fill="#000" fill-rule="evenodd" d="M6.219 15.063a2.72 2.72 0 1 0 0 5.438 2.72 2.72 0 0 0 0-5.439M2 17.78a4.219 4.219 0 1 1 8.438 0 4.219 4.219 0 0 1-8.438 0m15.781-2.717a2.72 2.72 0 1 0 .001 5.438 2.72 2.72 0 0 0 0-5.439m-4.218 2.718a4.219 4.219 0 1 1 8.437 0 4.219 4.219 0 0 1-8.437 0M12 3.5a2.719 2.719 0 1 0 0 5.438A2.719 2.719 0 0 0 12 3.5M7.781 6.219a4.22 4.22 0 1 1 8.438 0 4.22 4.22 0 0 1-8.438 0" clip-rule="evenodd"/></svg>