<svg xmlns="http://www.w3.org/2000/svg" fill="none" viewBox="0 0 24 24"><path fill="#000" fill-rule="evenodd" d="M10.704 3.519c-.67 0-1.24.466-1.4 1.094h5.382a1.45 1.45 0 0 0-1.4-1.094zm5.503 1.094h1.981C20.29 4.613 22 6.344 22 8.47c0 0-.06.9-.08 2.154a.33.33 0 0 1-.13.255c-.48.355-.92.65-.96.67-1.661 1.113-3.591 1.897-5.647 2.287a.32.32 0 0 1-.335-.163 3.3 3.3 0 0 0-2.853-1.649 3.35 3.35 0 0 0-2.872 1.643.32.32 0 0 1-.333.16 15.5 15.5 0 0 1-5.62-2.269l-.96-.668a.29.29 0 0 1-.13-.243C2.05 10.132 2 8.471 2 8.471c0-2.127 1.71-3.858 3.812-3.858h1.97C7.974 3.144 9.205 2 10.705 2h2.582c1.5 0 2.731 1.144 2.921 2.613m5.453 8.202-.04.02c-2.021 1.357-4.452 2.259-7.004 2.633a.75.75 0 0 1-.82-.546 1.816 1.816 0 0 0-1.781-1.378h-.03c-.85 0-1.56.547-1.78 1.378a.75.75 0 0 1-.821.546c-2.552-.374-4.983-1.276-7.004-2.633-.01-.01-.11-.07-.19-.02-.09.05-.09.172-.09.172l.07 5.165C2.17 20.279 3.87 22 5.972 22h12.046c2.101 0 3.802-1.721 3.802-3.848l.08-5.165s0-.121-.09-.172c-.05-.03-.11-.02-.15 0m-8.915 4.243c0 .426-.33.76-.75.76a.754.754 0 0 1-.75-.76v-1.306c0-.415.34-.76.75-.76.42 0 .75.345.75.76z" clip-rule="evenodd"/></svg>