<svg xmlns="http://www.w3.org/2000/svg" fill="none" viewBox="0 0 24 24"><path fill="#000" fill-rule="evenodd" d="M11.995 17.427a.75.75 0 0 1-.75-.75V14.14a.75.75 0 0 1 1.5 0v2.537a.75.75 0 0 1-.75.75" clip-rule="evenodd"/><mask id="a" width="20" height="11" x="2" y="4" maskUnits="userSpaceOnUse" style="mask-type:luminance"><path fill="#fff" fill-rule="evenodd" d="M2 4.58h19.99v10.311H2z" clip-rule="evenodd"/></mask><g mask="url(#a)"><path fill="#000" fill-rule="evenodd" d="M3.5 11.393c2.376 1.291 5.372 1.998 8.49 1.998 3.124 0 6.123-.707 8.5-1.998V8.391a2.307 2.307 0 0 0-2.3-2.31H5.81a2.31 2.31 0 0 0-2.31 2.3zm8.49 3.498c-3.545 0-6.962-.858-9.619-2.414a.75.75 0 0 1-.37-.647V8.381a3.81 3.81 0 0 1 3.81-3.8h12.38c2.095 0 3.8 1.708 3.8 3.81v3.44a.75.75 0 0 1-.372.646c-2.657 1.556-6.077 2.414-9.629 2.414" clip-rule="evenodd"/></g><mask id="b" width="10" height="5" x="7" y="2" maskUnits="userSpaceOnUse" style="mask-type:luminance"><path fill="#fff" fill-rule="evenodd" d="M7.745 2h8.5v4.076h-8.5z" clip-rule="evenodd"/></mask><g mask="url(#b)"><path fill="#000" fill-rule="evenodd" d="M15.495 6.076a.75.75 0 0 1-.75-.75V4.96c0-.805-.655-1.46-1.46-1.46h-2.58c-.805 0-1.46.655-1.46 1.46v.366a.75.75 0 0 1-1.5 0V4.96A2.964 2.964 0 0 1 10.705 2h2.58a2.964 2.964 0 0 1 2.96 2.96v.366a.75.75 0 0 1-.75.75" clip-rule="evenodd"/></g><path fill="#000" fill-rule="evenodd" d="M17.795 21.74h-11.6a4.01 4.01 0 0 1-3.98-3.69l-.19-2.51a.75.75 0 0 1 .693-.805c.415-.015.773.278.805.692l.189 2.508a2.503 2.503 0 0 0 2.483 2.305h11.6a2.5 2.5 0 0 0 2.483-2.305l.19-2.508c.032-.414.399-.708.805-.692a.75.75 0 0 1 .69.805l-.19 2.51a4.01 4.01 0 0 1-3.978 3.69" clip-rule="evenodd"/></svg>