<svg xmlns="http://www.w3.org/2000/svg" fill="none" viewBox="0 0 24 24"><path stroke="#000" stroke-linecap="round" stroke-linejoin="round" stroke-width="1.5" d="M11.995 16.677V14.14"/><path stroke="#000" stroke-linecap="round" stroke-linejoin="round" stroke-width="1.5" d="M18.19 5.33c1.69 0 3.05 1.37 3.05 3.06v3.44c-2.46 1.44-5.71 2.31-9.25 2.31s-6.78-.87-9.24-2.31V8.38c0-1.69 1.37-3.05 3.06-3.05z" clip-rule="evenodd"/><path stroke="#000" stroke-linecap="round" stroke-linejoin="round" stroke-width="1.5" d="M15.495 5.326V4.96c0-1.22-.99-2.21-2.21-2.21h-2.58c-1.22 0-2.21.99-2.21 2.21v.366M2.774 15.483l.19 2.509a3.24 3.24 0 0 0 3.231 2.998h11.6a3.24 3.24 0 0 0 3.231-2.998l.19-2.509"/></svg>