<svg xmlns="http://www.w3.org/2000/svg" fill="none" viewBox="0 0 24 24"><path fill="#000" fill-rule="evenodd" d="M12 1.763C4.44 1.763 1.763 4.441 1.763 12S4.44 22.237 12 22.237c7.558 0 10.237-2.678 10.237-10.237S19.557 1.763 12 1.763" clip-rule="evenodd" opacity=".4"/><path fill="#000" d="M16.479 17.668a.75.75 0 0 0 .75-.75V13.76a.75.75 0 0 0-1.5 0v3.157c0 .414.336.75.75.75M12 17.668a.75.75 0 0 0 .75-.75V7.02a.75.75 0 1 0-1.5 0v9.898c0 .414.336.75.75.75m-4.554 0a.75.75 0 0 0 .75-.75v-6.694a.75.75 0 0 0-1.5 0v6.694c0 .414.336.75.75.75"/></svg>