<svg xmlns="http://www.w3.org/2000/svg" fill="none" viewBox="0 0 24 24"><path fill="#000" fill-rule="evenodd" d="M7.483 9.511a.75.75 0 0 1 .75.75v6.694a.75.75 0 0 1-1.5 0V10.26a.75.75 0 0 1 .75-.75m4.554-3.203a.75.75 0 0 1 .75.75v9.898a.75.75 0 0 1-1.5 0V7.057a.75.75 0 0 1 .75-.75m4.479 6.741a.75.75 0 0 1 .75.75v3.157a.75.75 0 1 1-1.5 0v-3.157a.75.75 0 0 1 .75-.75" clip-rule="evenodd"/><path fill="#000" fill-rule="evenodd" d="M4.96 4.96c-1.299 1.3-1.91 3.467-1.91 7.077s.611 5.777 1.91 7.076c1.3 1.3 3.467 1.91 7.077 1.91s5.777-.61 7.076-1.91c1.3-1.299 1.91-3.467 1.91-7.076 0-3.61-.61-5.777-1.91-7.076-1.299-1.3-3.467-1.911-7.076-1.911-3.61 0-5.777.611-7.076 1.91M3.9 3.9c1.744-1.744 4.444-2.35 8.137-2.35 3.692 0 6.393.606 8.137 2.35s2.35 4.444 2.35 8.137c0 3.692-.606 6.393-2.35 8.137s-4.444 2.35-8.137 2.35-6.393-.606-8.137-2.35-2.35-4.444-2.35-8.137S2.156 5.644 3.9 3.9" clip-rule="evenodd"/></svg>