<svg xmlns="http://www.w3.org/2000/svg" fill="none" viewBox="0 0 24 24"><path fill="#000" fill-rule="evenodd" d="M13.946 12.89a.73.73 0 0 0 1.04 0 .74.74 0 0 0 .009-1.05l-2.841-2.88a.77.77 0 0 0-.515-.22.77.77 0 0 0-.525.22l-2.832 2.88a.75.75 0 0 0 0 1.05.73.73 0 0 0 1.04 0l1.574-1.6v4.83a.737.737 0 1 0 1.475 0v-4.83zm5.382-3.864c.233-.003.486-.006.717-.006.247 0 .455.2.455.45v8.04c0 2.48-2 4.49-4.455 4.49H8.173C5.59 22 3.5 19.89 3.5 17.29V6.51C3.5 4.03 5.49 2 7.965 2h5.288c.247 0 .455.21.455.46v3.22c0 1.83 1.485 3.33 3.307 3.34q.624 0 1.11.006l.682.004c.14 0 .324-.002.521-.004m.277-1.46c-.814.003-1.773 0-2.463-.007-1.095 0-1.997-.911-1.997-2.017V2.906c0-.431.517-.645.813-.334l2.916 3.061 1.071 1.126a.477.477 0 0 1-.34.807" clip-rule="evenodd"/></svg>