<svg xmlns="http://www.w3.org/2000/svg" fill="none" viewBox="0 0 24 24"><path fill="#000" fill-rule="evenodd" d="m15.241 2.245 5.05 5.312a.76.76 0 0 1 .209.523v9.251c0 2.532-2.045 4.669-4.466 4.669H8.07c-2.563 0-4.57-2.05-4.57-4.669V14.81c0-.417.335-.756.748-.756.412 0 .747.339.747.755v2.523c0 1.8 1.321 3.159 3.075 3.159h7.964c1.61 0 2.97-1.447 2.97-3.158V8.382l-3.817-4.015v1.317c0 1.01.815 1.835 1.816 1.837.412.001.746.34.745.757a.75.75 0 0 1-.747.753H17c-1.824-.004-3.308-1.505-3.308-3.347V3.522H8.07c-1.667 0-3.075 1.374-3.075 3v4.182a.75.75 0 0 1-.747.755.75.75 0 0 1-.748-.755V6.522c0-2.445 2.093-4.51 4.57-4.51h6.312q.014 0 .027-.006.015-.005.03-.006.018 0 .033.006.012.005.025.006h.205c.203 0 .398.084.54.233m-2.878 13.864a.75.75 0 0 1-.747.755.75.75 0 0 1-.748-.755v-4.79l-1.552 1.576a.743.743 0 0 1-1.058.002.76.76 0 0 1-.002-1.069l2.83-2.87a.746.746 0 0 1 1.059 0l2.83 2.87a.76.76 0 0 1-.002 1.069.746.746 0 0 1-1.058-.002l-1.552-1.576z" clip-rule="evenodd"/></svg>