<svg xmlns="http://www.w3.org/2000/svg" fill="none" viewBox="0 0 24 24"><mask id="a" width="18" height="20" x="3" y="2" maskUnits="userSpaceOnUse" style="mask-type:luminance"><path fill="#fff" fill-rule="evenodd" d="M3 2.012h17.052v19.853H3z" clip-rule="evenodd"/></mask><g mask="url(#a)"><path fill="#000" fill-rule="evenodd" d="M7.573 3.512a3.087 3.087 0 0 0-3.072 2.997v10.719a3.064 3.064 0 0 0 2.99 3.138h8.082a3.097 3.097 0 0 0 2.98-3.133V8.34l-4.635-4.828zm.012 18.354H7.46a4.56 4.56 0 0 1-4.458-4.654V6.49c.06-2.481 2.107-4.48 4.57-4.48h6.667c.203 0 .398.084.54.23l5.066 5.278a.75.75 0 0 1 .208.519v9.19a4.594 4.594 0 0 1-4.453 4.638z" clip-rule="evenodd"/></g><path fill="#000" fill-rule="evenodd" d="M19.298 8.984h-2.754a3.33 3.33 0 0 1-3.318-3.325V2.75a.75.75 0 0 1 1.5 0v2.91c0 1.003.816 1.821 1.82 1.824h2.752a.75.75 0 0 1 0 1.5M11.142 16.7a.75.75 0 0 1-.75-.75V9.91a.75.75 0 0 1 1.5 0v6.04a.75.75 0 0 1-.75.75" clip-rule="evenodd"/><path fill="#000" fill-rule="evenodd" d="M8.797 13.015a.749.749 0 0 1-.531-1.279l2.344-2.357a.77.77 0 0 1 1.063 0l2.346 2.357a.75.75 0 0 1-1.063 1.057l-1.814-1.821-1.814 1.822a.74.74 0 0 1-.531.22" clip-rule="evenodd"/></svg>