<svg xmlns="http://www.w3.org/2000/svg" fill="none" viewBox="0 0 24 24"><path stroke="#000" stroke-linecap="round" stroke-linejoin="round" stroke-width="1.5" d="M14.736 2.762H8.084c-2.059 0-3.834 1.669-3.834 3.729v10.737c0 2.176 1.658 3.887 3.834 3.887h7.988c2.06 0 3.73-1.827 3.73-3.887v-9.19z" clip-rule="evenodd"/><path stroke="#000" stroke-linecap="round" stroke-linejoin="round" stroke-width="1.5" d="M14.474 2.75v2.91a2.575 2.575 0 0 0 2.569 2.574c1.316.003 2.663.004 2.754-.002"/><path fill="#000" fill-rule="evenodd" d="M12.172 8.911a.75.75 0 0 0-1.063 0L8.27 11.762a.75.75 0 1 0 1.063 1.058l1.557-1.564v4.758a.75.75 0 0 0 1.5 0v-4.757l1.557 1.563a.75.75 0 1 0 1.063-1.058z" clip-rule="evenodd" opacity=".4"/></svg>