<svg xmlns="http://www.w3.org/2000/svg" fill="none" viewBox="0 0 24 24"><path fill="#000" fill-rule="evenodd" d="M11.75 4.5a.47.47 0 0 0-.434.263L9.49 8.414A1.98 1.98 0 0 1 8 9.484l-4.088.589a.47.47 0 0 0-.39.323.44.44 0 0 0 .12.465l2.957 2.84c.47.453.685 1.106.573 1.745l-.696 4.01a.45.45 0 0 0 .184.447.47.47 0 0 0 .517.039l3.655-1.895a2 2 0 0 1 1.836 0l3.654 1.894a.48.48 0 0 0 .519-.038.45.45 0 0 0 .184-.447l-.698-4.01a1.95 1.95 0 0 1 .573-1.745l2.956-2.84a.44.44 0 0 0 .12-.465.46.46 0 0 0-.388-.323L15.5 9.484a1.98 1.98 0 0 1-1.49-1.071l-1.827-3.65a.47.47 0 0 0-.433-.263m-4.803 17c-.413 0-.823-.13-1.174-.386a1.95 1.95 0 0 1-.774-1.915l.696-4.01a.46.46 0 0 0-.135-.406l-2.956-2.84a1.94 1.94 0 0 1-.51-2.006 1.96 1.96 0 0 1 1.604-1.348L7.786 8a.48.48 0 0 0 .362-.257l1.827-3.652A1.97 1.97 0 0 1 11.75 3c.758 0 1.438.418 1.775 1.091l1.828 3.651a.48.48 0 0 0 .36.258l4.089.589a1.96 1.96 0 0 1 1.603 1.348 1.94 1.94 0 0 1-.51 2.006l-2.956 2.84a.45.45 0 0 0-.134.405l.697 4.011a1.95 1.95 0 0 1-.776 1.915 1.97 1.97 0 0 1-2.095.158l-3.653-1.893a.5.5 0 0 0-.457 0l-3.653 1.894a2 2 0 0 1-.921.227" clip-rule="evenodd"/></svg>