<svg xmlns="http://www.w3.org/2000/svg" fill="none" viewBox="0 0 24 24"><path fill="#000" fill-rule="evenodd" d="m9.376 20.028 8.787-11.363c.477-.612.647-1.32.488-2.042-.138-.656-.541-1.28-1.146-1.752L16.03 3.699c-1.284-1.021-2.876-.914-3.789.258l-.986 1.28a.38.38 0 0 0 .063.526l2.547 2.042c.17.162.297.377.33.635a.945.945 0 0 1-.818 1.042.85.85 0 0 1-.647-.182l-2.621-2.086a.313.313 0 0 0-.425.054L3.455 15.33a2.13 2.13 0 0 0-.403 1.795l.796 3.451a.4.4 0 0 0 .392.312l3.502-.043a2.1 2.1 0 0 0 1.634-.817m4.904-1.075h5.71c.557 0 1.01.46 1.01 1.024S20.547 21 19.99 21h-5.71c-.557 0-1.01-.458-1.01-1.023s.453-1.024 1.01-1.024" clip-rule="evenodd"/></svg>