<svg xmlns="http://www.w3.org/2000/svg" fill="none" viewBox="0 0 24 24"><path fill="#000" fill-rule="evenodd" d="M17.622 4.888c.63.5 1.062 1.157 1.213 1.852.168.776-.018 1.563-.523 2.214L9.702 20.06c-.436.562-1.09.89-1.798.899L4.582 21h-.01a.78.78 0 0 1-.759-.61l-.752-3.269a2.35 2.35 0 0 1 .434-1.979l1.13-1.458a.77.77 0 0 1 1.094-.134.793.793 0 0 1 .132 1.106l-1.13 1.458a.77.77 0 0 0-.142.65l.61 2.653 2.695-.034a.76.76 0 0 0 .59-.295l8.611-11.105q.33-.427.228-.907c-.074-.337-.305-.674-.652-.948l-1.444-1.146c-.559-.44-1.347-.667-1.885.029l-1.138 1.466L14 7.94c.335.271.39.768.12 1.106a.77.77 0 0 1-1.095.123l-1.792-1.452-2.946 3.8a.77.77 0 0 1-1.095.133.795.795 0 0 1-.131-1.106l5.044-6.506c.979-1.264 2.693-1.388 4.073-.295zm-4.026 14.537h6.625c.43 0 .779.353.779.787a.784.784 0 0 1-.78.788h-6.624a.783.783 0 0 1-.779-.788c0-.434.348-.787.78-.787" clip-rule="evenodd"/></svg>