<svg xmlns="http://www.w3.org/2000/svg" fill="none" viewBox="0 0 24 24"><path fill="#000" fill-rule="evenodd" d="M19.899 11.999c0 .776.463 1.558 1.496 1.558a.5.5 0 0 1 .5.5c0 5.295-.451 6.969-9.895 6.969s-9.895-1.674-9.895-6.969c0-.277.223-.5.5-.5.473 0 .849-.158 1.118-.47.24-.278.377-.675.377-1.088 0-.774-.462-1.557-1.495-1.557a.5.5 0 0 1-.5-.5c0-5.293.451-6.968 9.895-6.968s9.895 1.675 9.895 6.968a.5.5 0 0 1-.5.5c-1.033 0-1.496.783-1.496 1.557m-8.9-2.581c.171-.361.444-.818 1-.818.557 0 .83.457 1.002.818.046.096.088.195.129.288l.002.005q.06.14.117.264c.082.173.157.297.237.373.056.052.164.096.357.121.13.017.267.023.417.03l.22.011c.221.014.471.039.683.125a.79.79 0 0 1 .496.548.85.85 0 0 1-.124.702c-.12.182-.298.33-.459.455l-.14.106c-.115.088-.22.167-.313.254-.127.118-.196.218-.22.315-.026.111-.016.25.023.428q.029.13.07.273l.012.046q.035.121.067.246c.048.194.089.416.058.63a.85.85 0 0 1-.375.599c-.478.329-.964.091-1.312-.11l-.203-.121a5 5 0 0 0-.321-.185c-.167-.085-.303-.13-.422-.13s-.255.045-.422.13a5 5 0 0 0-.321.185q-.095.059-.203.121c-.348.201-.834.44-1.312.11a.85.85 0 0 1-.375-.599c-.03-.214.01-.436.059-.63q.03-.125.066-.246l.013-.046q.04-.143.07-.273c.038-.177.048-.317.021-.428-.023-.097-.092-.197-.219-.315a4 4 0 0 0-.314-.254l-.14-.106c-.16-.124-.338-.273-.459-.455a.85.85 0 0 1-.123-.702.79.79 0 0 1 .496-.548c.212-.086.461-.111.684-.125l.22-.01c.149-.008.286-.014.416-.031.193-.025.301-.069.357-.12.08-.077.155-.2.237-.374q.058-.124.117-.264l.002-.005c.04-.093.083-.192.129-.288" clip-rule="evenodd"/></svg>