<svg xmlns="http://www.w3.org/2000/svg" fill="none" viewBox="0 0 24 24"><path stroke="#000" stroke-linecap="round" stroke-linejoin="round" stroke-width="1.5" d="M11.331 3.475c-8.726.082-8.726 1.814-8.726 6.466 2.661 0 2.661 4.114 0 4.114 0 4.768 0 6.47 9.395 6.47s9.395-1.702 9.395-6.47c-2.661 0-2.661-4.114 0-4.114 0-4.313 0-6.117-6.956-6.421"/><path stroke="#000" stroke-linecap="round" stroke-linejoin="round" stroke-width="1.5" d="M13.897 12.838c.141-.586 1.278-.82 1.103-1.503s-1.439-.243-1.846-.628c-.406-.385-.47-1.475-1.154-1.475s-.748 1.09-1.154 1.475c-.407.385-1.67-.055-1.846.628-.175.684.962.917 1.103 1.503.14.586-.554 1.41.04 1.822.593.409 1.232-.518 1.857-.518s1.264.927 1.858.518"/></svg>