<svg xmlns="http://www.w3.org/2000/svg" fill="none" viewBox="0 0 24 24"><path fill="#000" fill-rule="evenodd" d="M19.899 11.999c0 .776.463 1.558 1.496 1.558a.5.5 0 0 1 .5.5c0 5.295-.451 6.969-9.895 6.969s-9.895-1.674-9.895-6.969c0-.277.223-.5.5-.5.473 0 .849-.158 1.118-.47.24-.278.377-.675.377-1.088 0-.774-.462-1.557-1.495-1.557a.5.5 0 0 1-.5-.5c0-5.293.451-6.968 9.895-6.968s9.895 1.675 9.895 6.968a.5.5 0 0 1-.5.5c-1.033 0-1.496.783-1.496 1.557" clip-rule="evenodd" opacity=".4"/><path fill="#000" d="M10.998 9.418c.172-.36.445-.818 1.002-.818s.83.457 1 .818c.046.096.09.195.13.288l.002.005q.06.14.117.264c.082.174.157.297.237.373.055.053.164.096.356.121.131.018.268.024.417.03l.22.012c.222.013.472.038.684.124a.79.79 0 0 1 .495.548.85.85 0 0 1-.123.702c-.12.183-.298.331-.459.455l-.14.107c-.115.087-.22.166-.314.253-.127.118-.196.218-.219.315-.027.111-.017.25.022.428q.03.13.07.273l.013.046q.034.121.066.247c.048.194.09.415.059.63a.85.85 0 0 1-.375.598c-.478.33-.965.092-1.312-.11l-.203-.12v-.001a5 5 0 0 0-.322-.185c-.166-.085-.303-.13-.421-.13-.12 0-.255.045-.422.13-.11.056-.211.118-.321.185q-.096.06-.203.121c-.348.202-.834.44-1.312.11a.85.85 0 0 1-.375-.598c-.031-.215.01-.436.058-.63q.032-.126.066-.246l.013-.047a5 5 0 0 0 .07-.272c.039-.178.049-.318.022-.43-.023-.096-.092-.196-.22-.314-.093-.087-.198-.166-.313-.253l-.14-.107c-.16-.124-.338-.272-.459-.455a.85.85 0 0 1-.123-.702.79.79 0 0 1 .495-.548c.212-.086.462-.11.684-.124q.115-.007.22-.011a6 6 0 0 0 .417-.03c.192-.026.3-.07.356-.122.08-.076.155-.2.237-.373q.058-.124.118-.264l.002-.005a10 10 0 0 1 .128-.288"/></svg>