<svg xmlns="http://www.w3.org/2000/svg" fill="none" viewBox="0 0 24 24"><path fill="#000" fill-rule="evenodd" d="M9.718 15.279c.25.172.5.236.736.236.473 0 .893-.255 1.16-.417.12-.074.322-.196.378-.206.072.01.264.126.386.2l.011.006c.4.244 1.145.696 1.896.18.797-.552.55-1.44.431-1.87v-.003a3 3 0 0 0-.107-.342c.036-.056.194-.176.3-.255.363-.274 1.041-.787.818-1.658-.239-.931-1.194-.975-1.707-.998h-.01c-.14-.006-.348-.015-.335.016-.049-.054-.135-.254-.192-.387v-.002c-.197-.454-.561-1.295-1.482-1.295-.923 0-1.287.844-1.482 1.298l-.02.046a3 3 0 0 1-.14.295 3 3 0 0 1-.34.028q-.019 0-.037.002c-.513.022-1.468.066-1.708.997-.222.871.456 1.383.82 1.658l.02.016c.103.077.241.18.258.18.007.069-.047.265-.084.397v.004l-.002.003c-.12.43-.365 1.318.432 1.87m3.448-1.463c-.31-.19-.698-.424-1.165-.424s-.854.235-1.165.424l-.021.012-.106.064.023-.083c.09-.322.202-.723.101-1.145-.117-.487-.489-.79-.783-1.014.418-.018.937-.043 1.314-.399.262-.248.406-.582.532-.875.03-.067.067-.154.105-.234a6 6 0 0 1 .104.234c.127.293.271.627.535.878.375.354.894.378 1.311.396-.293.223-.666.527-.783 1.015-.1.42.012.822.102 1.144l.023.083-.105-.063z" clip-rule="evenodd"/><path fill="#000" fill-rule="evenodd" d="M1.855 14.057c0 5.365.491 7.22 10.145 7.22s10.145-1.855 10.145-7.22a.75.75 0 0 0-.75-.75c-.919 0-1.246-.705-1.246-1.308s.327-1.306 1.246-1.306a.75.75 0 0 0 .75-.75c0-5.364-.491-7.22-10.145-7.22S1.855 4.58 1.855 9.944c0 .414.336.75.75.75.919 0 1.246.704 1.246 1.306s-.327 1.307-1.246 1.307a.75.75 0 0 0-.75.75M12 19.777c-8.218 0-8.624-.994-8.644-5.06 1.313-.334 1.995-1.532 1.995-2.718 0-1.187-.682-2.384-1.995-2.717.02-4.066.426-5.058 8.644-5.058s8.624.992 8.644 5.058c-1.313.333-1.995 1.53-1.995 2.717 0 1.186.682 2.384 1.995 2.717-.02 4.068-.426 5.06-8.644 5.06" clip-rule="evenodd"/></svg>