<svg xmlns="http://www.w3.org/2000/svg" fill="none" viewBox="0 0 24 24"><path stroke="#000" stroke-linecap="round" stroke-linejoin="round" stroke-width="1.5" d="M8.929 20.062c-1.74-.297-2.934-.95-2.934-2.24 0-1.962 2.749-3.67 6.006-3.67 3.239 0 6.006 1.692 6.006 3.653s-2.75 2.47-6.006 2.47m-.733-16.549a3.85 3.85 0 0 0-3.117 3.78 3.837 3.837 0 0 0 3.823 3.849H12a3.85 3.85 0 0 0 2.02-7.126m4.37 6.069a2.901 2.901 0 0 0-.167-5.643m.747 8.796c1.754 0 3.252 1.19 3.252 2.251 0 .625-.517 1.306-1.3 1.49M5.611 10.298a2.901 2.901 0 0 1 .165-5.643m-.746 8.796c-1.754 0-3.252 1.19-3.252 2.251 0 .625.517 1.306 1.302 1.49"/></svg>