<svg xmlns="http://www.w3.org/2000/svg" fill="none" viewBox="0 0 24 24"><path fill="#000" fill-rule="evenodd" d="M11.973 12.14h.026a4.605 4.605 0 0 0 4.6-4.599c0-2.537-2.063-4.6-4.6-4.6a4.605 4.605 0 0 0-4.6 4.598 4.594 4.594 0 0 0 4.574 4.601M8.899 7.541c0-1.709 1.39-3.1 3.1-3.1a3.104 3.104 0 0 1 3.1 3.1A3.103 3.103 0 0 1 12 10.64h-.024A3.09 3.09 0 0 1 8.9 7.541M5.243 17.857c0 3.202 5.085 3.202 6.756 3.202s6.756 0 6.756-3.219c0-2.427-3.03-4.403-6.756-4.403s-6.756 1.982-6.756 4.42m1.5 0c0-1.378 2.248-2.92 5.256-2.92s5.256 1.533 5.256 2.903c0 1.421-2.859 1.72-5.256 1.72s-5.256-.296-5.256-1.703" clip-rule="evenodd"/><path fill="#000" d="M18.39 11.083a.751.751 0 0 1-.194-1.475 2.15 2.15 0 0 0 1.592-2.077c0-1.017-.72-1.903-1.714-2.105a.75.75 0 0 1-.585-.886.756.756 0 0 1 .885-.585 3.66 3.66 0 0 1 2.914 3.576c0 1.65-1.112 3.1-2.704 3.527a.8.8 0 0 1-.194.025m1.801 6.317a.75.75 0 0 0 .902.557c1.071-.252 1.88-1.207 1.88-2.22 0-1.57-1.907-3-4.002-3a.75.75 0 0 0 0 1.5c1.47 0 2.502.972 2.502 1.5 0 .247-.25.65-.724.76a.75.75 0 0 0-.558.902m-14.58-6.316a.8.8 0 0 1-.193-.025A3.655 3.655 0 0 1 2.711 7.53a3.66 3.66 0 0 1 2.915-3.576.756.756 0 0 1 .885.585.75.75 0 0 1-.585.886A2.15 2.15 0 0 0 4.211 7.53c0 .972.655 1.826 1.593 2.077a.752.752 0 0 1-.193 1.475m-2.704 6.875a.75.75 0 1 0 .344-1.46c-.473-.11-.724-.513-.724-.76 0-.528 1.032-1.5 2.502-1.5a.75.75 0 0 0 0-1.5c-2.095 0-4.002 1.43-4.002 3 0 1.013.809 1.97 1.88 2.22"/></svg>