<svg xmlns="http://www.w3.org/2000/svg" fill="none" viewBox="0 0 24 24"><path fill="#000" fill-rule="evenodd" d="m16.635 13.851-2.945 1.695a9.3 9.3 0 0 1-3.382-2.15 8.2 8.2 0 0 1-1.976-3.195l1.7-2.951-3.699-5.08-.39.23C4.361 3.328 3.2 4.489 2.291 6.052l-.058.159C1.72 8.955 3.29 12.999 6.14 16.276c3.09 3.552 7.101 5.554 11.084 5.554q.27 0 .54-.012l.12-.005.102-.058c1.602-.898 2.766-2.062 3.663-3.664l.215-.385z" clip-rule="evenodd" opacity=".4"/><path fill="#000" fill-rule="evenodd" d="m15.786 10.567 2.426-2.426 2.427 2.426 1.06-1.06-2.426-2.426L21.7 4.655l-1.06-1.06-2.427 2.425-2.426-2.426-1.06 1.061 2.426 2.426-2.427 2.425z" clip-rule="evenodd"/></svg>