<svg xmlns="http://www.w3.org/2000/svg" fill="none" viewBox="0 0 24 24"><path fill="#000" fill-rule="evenodd" d="M8.841 3.179a4.9 4.9 0 0 1 3.48-1.429 4.904 4.904 0 0 1 4.902 4.904v.75h-1.5v-.75a3.404 3.404 0 0 0-3.404-3.404h-.003a3.404 3.404 0 0 0-3.419 3.404v.75h-1.5v-.75c0-1.304.52-2.555 1.444-3.475m5.535 7.055h1.544v1.5h-1.544zm-5.607 0h1.544v1.5H8.769z" clip-rule="evenodd"/><path fill="#000" fill-rule="evenodd" d="M2.443 22.25h19.114l-.98-16.135H3.424zM4.835 7.615h14.331l.798 13.135H4.037z" clip-rule="evenodd"/></svg>