<svg xmlns="http://www.w3.org/2000/svg" fill="none" viewBox="0 0 24 24"><path fill="#000" fill-rule="evenodd" d="M7.637 3.395c-2.577 0-4.242 1.767-4.242 4.493v8.214c0 .765.142 1.448.385 2.04l.538-.656c.584-.71 1.433-1.746 1.44-1.752.691-.79 1.99-1.968 3.695-1.255.374.155.706.368 1.012.563l.088.056c.573.383.91.563 1.26.533.145-.02.281-.063.41-.143.487-.3 1.749-2.087 2.126-2.622l.104-.147c1.09-1.42 2.77-1.8 4.17-.96.188.112 1.535 1.053 1.981 1.431V7.888c0-2.726-1.665-4.493-4.25-4.493zM16.353 2C19.73 2 22 4.362 22 7.888v8.214c0 .09-.009.172-.018.255a3 3 0 0 0-.017.177l-.004.11-.007.145q-.003.03-.01.056l-.009.055a7 7 0 0 1-.155.905q-.025.108-.055.214l-.005.015q-.119.423-.287.808l-.061.128-.042.084c-.122.245-.254.48-.407.698a2 2 0 0 1-.088.117l-.06.075a5 5 0 0 1-.513.582 2 2 0 0 1-.118.101l-.076.062a5 5 0 0 1-.607.461q-.071.044-.147.08-.05.023-.097.05a5 5 0 0 1-.687.332q-.088.033-.183.055l-.132.036-.064.02a5 5 0 0 1-.668.175c-.135.024-.279.033-.422.042l-.187.013q-.098.008-.196.021a3 3 0 0 1-.324.026H7.637c-.376 0-.735-.038-1.082-.095l-.037-.006c-1.353-.233-2.476-.886-3.263-1.87q-.007 0-.01-.01l-.008-.01C2.447 19.013 2 17.674 2 16.102V7.888C2 4.362 4.27 2 7.637 2zM11 8.515C11 9.87 9.866 11 8.505 11a2.52 2.52 0 0 1-2.446-2.006A2.4 2.4 0 0 1 6 8.469 2.47 2.47 0 0 1 8.479 6c.697 0 1.33.293 1.782.761.454.452.739 1.075.739 1.754" clip-rule="evenodd"/></svg>