<svg xmlns="http://www.w3.org/2000/svg" fill="none" viewBox="0 0 24 24"><path fill="#000" fill-rule="evenodd" d="M10.974 5.241h-.5a8.23 8.23 0 0 0-4.587 1.391 8.23 8.23 0 0 0-3.04 3.704 8.2 8.2 0 0 0-.469 4.77 8.2 8.2 0 0 0 2.26 4.225 8.2 8.2 0 0 0 4.224 2.26q.805.16 1.615.16a8.2 8.2 0 0 0 3.155-.63 8.2 8.2 0 0 0 3.704-3.04 8.23 8.23 0 0 0 1.39-4.586v-.5h-7.752z" clip-rule="evenodd"/><path fill="#000" fill-rule="evenodd" d="M19.364 4.667a8.2 8.2 0 0 0-5.836-2.417h-.5v8.753h8.754v-.5a8.2 8.2 0 0 0-2.418-5.836" clip-rule="evenodd"/></svg>