<svg xmlns="http://www.w3.org/2000/svg" fill="none" viewBox="0 0 24 24"><path fill="#000" fill-rule="evenodd" d="M12.326 2.21a.82.82 0 0 1 .588-.21c4.57.138 8.39 3.456 9.083 7.89a.2.2 0 0 1 0 .08.78.78 0 0 1-.197.576.8.8 0 0 1-.555.269l-7.68.506a.92.92 0 0 1-.693-.23.88.88 0 0 1-.293-.658l-.517-7.544v-.124a.8.8 0 0 1 .264-.555M11.8 13.294l6.63-.41h.071c.286.005.558.121.757.323s.308.473.303.753c-.263 3.822-3.065 7.015-6.878 7.838s-7.723-.923-9.595-4.284a8.2 8.2 0 0 1-1.024-3.136 6 6 0 0 1-.063-.987C2.014 9.327 4.907 5.82 8.956 4.96c.49-.092.982.152 1.196.595.105.16.133.354.145.545q.105 1.61.214 3.2.094 1.368.184 2.732c-.003.214.03.427.1.63.162.4.566.654 1.005.632" clip-rule="evenodd"/></svg>