<svg xmlns="http://www.w3.org/2000/svg" fill="none" viewBox="0 0 24 24"><path fill="#000" fill-rule="evenodd" d="M21.989 9.937c-.687-4.193-4.272-7.312-8.547-7.437-.428-.01-.84.158-1.14.462a1.47 1.47 0 0 0-.412 1.115l.439 6.54a1.6 1.6 0 0 0 1.595 1.463h.105l6.575-.436c.395-.022.764-.2 1.026-.495.261-.294.394-.68.367-1.072v-.14zm-8.065.575-.438-6.427c3.44.139 6.32 2.634 6.925 6zm2.875 4.476a.807.807 0 0 1 .982-.548.8.8 0 0 1 .495.362c.11.182.14.4.084.604a8.27 8.27 0 0 1-4.024 5.06 8.35 8.35 0 0 1-7.825.119 8.25 8.25 0 0 1-4.447-6.398 5 5 0 0 1-.061-.966C1.998 9.299 4.766 5.914 8.63 5.113a.8.8 0 1 1 .316 1.568c-3.12.659-5.347 3.398-5.34 6.566q-.01.371.045.74c.384 3.162 2.963 5.615 6.16 5.859s6.123-1.79 6.988-4.858" clip-rule="evenodd"/></svg>