<svg xmlns="http://www.w3.org/2000/svg" fill="none" viewBox="0 0 24 24"><path fill="#000" fill-rule="evenodd" d="M8.982 6.304a.4.4 0 0 0-.096.011c-2.97.731-5.386 3.95-5.386 7.174 0 4.055 3.3 7.355 7.358 7.355 3.656 0 6.712-2.605 7.267-6.195.003-.03.017-.116-.064-.213a.44.44 0 0 0-.332-.146c-1.412 0-2.488.033-3.33.057-2.035.06-2.877.084-3.71-.534-1.254-.929-1.36-2.524-1.36-7.219a.26.26 0 0 0-.108-.21.4.4 0 0 0-.239-.08m1.876 16.04C5.973 22.345 2 18.373 2 13.489c0-3.871 2.928-7.743 6.527-8.63a1.91 1.91 0 0 1 1.62.346c.434.34.682.847.682 1.39 0 4.385.148 5.565.753 6.014.397.293.941.29 2.774.24.853-.026 1.943-.058 3.373-.058.57 0 1.107.245 1.47.67.338.394.486.91.409 1.418-.669 4.325-4.349 7.467-8.75 7.467" clip-rule="evenodd"/><mask id="a" width="11" height="11" x="12" y="1" maskUnits="userSpaceOnUse" style="mask-type:luminance"><path fill="#fff" fill-rule="evenodd" d="M12.474 1h10.42v10.29h-10.42z" clip-rule="evenodd"/></mask><g mask="url(#a)"><path fill="#000" fill-rule="evenodd" d="M14.01 2.502c-.11 2.519.054 5.773.13 7.062a.14.14 0 0 0 .136.137c1.028.059 4.57.223 7.117-.152.006-1.404-.955-3.308-2.402-4.754-1.484-1.482-3.24-2.293-4.958-2.293zm3.305 8.788a56 56 0 0 1-3.126-.091 1.645 1.645 0 0 1-1.546-1.548c-.078-1.322-.247-4.681-.127-7.28a1.425 1.425 0 0 1 1.389-1.368c2.137-.062 4.342.93 6.146 2.73 1.758 1.758 2.874 4.067 2.842 5.884a1.44 1.44 0 0 1-1.223 1.406c-1.358.205-2.948.267-4.355.267" clip-rule="evenodd"/></g></svg>