<svg xmlns="http://www.w3.org/2000/svg" fill="none" viewBox="0 0 24 24"><path fill="#000" fill-rule="evenodd" d="M15.791 12.75H3.75a.75.75 0 0 1 0-1.5h12.041a.75.75 0 0 1 0 1.5" clip-rule="evenodd"/><path fill="#000" fill-rule="evenodd" d="M12.863 15.665a.749.749 0 0 1-.529-1.281L14.728 12l-2.394-2.385a.749.749 0 1 1 1.058-1.062l2.93 2.916a.746.746 0 0 1 0 1.062l-2.93 2.915a.75.75 0 0 1-.529.219" clip-rule="evenodd"/><path fill="#000" fill-rule="evenodd" d="M17.042 22h-4.885a4.43 4.43 0 0 1-4.424-4.425v-.942a.75.75 0 0 1 1.5 0v.942a2.93 2.93 0 0 0 2.924 2.925h4.885a2.94 2.94 0 0 0 2.936-2.936V6.425A2.93 2.93 0 0 0 17.053 3.5h-4.885a2.94 2.94 0 0 0-2.935 2.934v.933a.75.75 0 0 1-1.5 0v-.933A4.44 4.44 0 0 1 12.168 2h4.885a4.43 4.43 0 0 1 4.425 4.425v11.139A4.44 4.44 0 0 1 17.042 22" clip-rule="evenodd"/></svg>