<svg xmlns="http://www.w3.org/2000/svg" fill="none" viewBox="0 0 24 24"><path fill="#000" fill-rule="evenodd" d="M9.057 17.24c0 .399.311.723.695.723s.694-.324.694-.722v-3.586a.74.74 0 0 0-.188-.494L4.532 6.793a.56.56 0 0 1-.142-.374V4.995c0-.3.236-.547.526-.547h2.78c.383 0 .695-.324.695-.724S8.079 3 7.696 3h-2.78C3.86 3 3 3.895 3 4.995v1.424c0 .51.184.993.517 1.365l5.54 6.157zm.143 3.347c.118.26.37.413.631.413a.7.7 0 0 0 .293-.067l3.888-1.863a.72.72 0 0 0 .402-.648v-4.58l6.01-6.081A2 2 0 0 0 21 6.352V4.974C21 3.886 20.14 3 19.083 3h-8.009a.706.706 0 0 0-.695.716c0 .396.312.716.695.716h8.009c.29 0 .527.244.527.542v1.378a.55.55 0 0 1-.158.386l-6.22 6.293a.73.73 0 0 0-.208.51v4.424l-3.486 1.67a.727.727 0 0 0-.338.951" clip-rule="evenodd"/></svg>