<svg xmlns="http://www.w3.org/2000/svg" fill="none" viewBox="0 0 24 24"><path fill="#000" fill-rule="evenodd" d="M14.157 10.903h.895l4.368 7.327-.558.73H5.386l-.462-.76 2.69-4.98h.742l2.938 1.482zm.354 2.022-2.774 3.681L8.4 14.922 7.03 17.46h10.186zM8.507 6.941a1.17 1.17 0 1 0 0 2.34 1.17 1.17 0 0 0 0-2.34m-2.67 1.171a2.67 2.67 0 0 1 2.67-2.67h.001a2.67 2.67 0 1 1-2.671 2.67" clip-rule="evenodd"/><path fill="#000" fill-rule="evenodd" d="M2 22V2h20v20zm1.5-1.5h17v-17h-17z" clip-rule="evenodd"/></svg>