<svg xmlns="http://www.w3.org/2000/svg" fill="none" viewBox="0 0 24 24"><path fill="#000" fill-rule="evenodd" d="M2.242 9.817A9.99 9.99 0 0 1 11.996 2a9.7 9.7 0 0 1 2.175.246 9.97 9.97 0 0 1 6.283 4.41 10 10 0 0 1 1.293 7.574.78.78 0 1 1-1.508-.387 8.41 8.41 0 0 0-5.474-9.794A8.397 8.397 0 0 0 4.44 8.423a8.416 8.416 0 0 0 3.21 10.753 8.394 8.394 0 0 0 11.027-2.014.78.78 0 0 1 1.21.957A9.98 9.98 0 0 1 7.741 21.05a10 10 0 0 1-5.5-11.233m9.89 4.6a.78.78 0 0 1 .303-1.004l.587-.29.982-3.143-3.069.966-1.403 4.486a.772.772 0 1 1-1.473-.465l1.526-4.881a.78.78 0 0 1 .508-.5l4.876-1.528a.67.67 0 0 1 .456 0 .763.763 0 0 1 .508.965l-1.56 4.89a.77.77 0 0 1-.395.466l-.877.439a.78.78 0 0 1-.969-.4" clip-rule="evenodd"/></svg>