<svg xmlns="http://www.w3.org/2000/svg" fill="none" viewBox="0 0 24 24"><path fill="#000" fill-rule="evenodd" d="m11.211 11.212-1.047 3.347 3.346-1.048 1.048-3.347zm-2.19 5.24a.75.75 0 0 1-.716-.973l1.592-5.09a.75.75 0 0 1 .491-.491l5.09-1.593a.748.748 0 0 1 .94.939l-1.593 5.089a.75.75 0 0 1-.492.492l-5.089 1.593a.8.8 0 0 1-.224.034" clip-rule="evenodd"/><mask id="a" width="21" height="21" x="2" y="2" maskUnits="userSpaceOnUse" style="mask-type:luminance"><path fill="#fff" fill-rule="evenodd" d="M2 2h20.722v20.722H2z" clip-rule="evenodd"/></mask><g mask="url(#a)"><path fill="#000" fill-rule="evenodd" d="M12.36 3.5c-4.885 0-8.86 3.976-8.86 8.861s3.975 8.861 8.86 8.861c4.887 0 8.862-3.975 8.862-8.861 0-4.885-3.975-8.861-8.861-8.861m0 19.222C6.649 22.722 2 18.074 2 12.361S6.648 2 12.36 2c5.714 0 10.362 4.648 10.362 10.361S18.074 22.722 12.36 22.722" clip-rule="evenodd"/></g></svg>