<svg xmlns="http://www.w3.org/2000/svg" fill="none" viewBox="0 0 24 24"><path fill="#000" fill-rule="evenodd" d="M3.575 2h11.312l5.537 5.766V22H3.575zm1.5 1.5v17h13.85V8.37L14.247 3.5z" clip-rule="evenodd"/><path fill="#000" fill-rule="evenodd" d="M14.843 2.555V7.9h5.107v1.5h-6.607V2.555zm-4.729 7.176v9.346h1.5V9.731z" clip-rule="evenodd"/><path fill="#000" fill-rule="evenodd" d="M11.614 10.481c0 1.846-1.609 3.337-3.337 3.337h-.75v-1.5h.75c.932 0 1.837-.851 1.837-1.837v-.75h1.5z" clip-rule="evenodd"/><path fill="#000" fill-rule="evenodd" d="M10.114 10.481c0 1.846 1.61 3.337 3.337 3.337h.75v-1.5h-.75c-.932 0-1.837-.851-1.837-1.837v-.75h-1.5z" clip-rule="evenodd"/></svg>