<svg xmlns="http://www.w3.org/2000/svg" fill="none" viewBox="0 0 24 24"><path fill="#000" fill-rule="evenodd" d="m22.583 6.98-1.807-.858-.43.903c-1.337 2.814-3.41 4.78-5.8 5.602l-.201.057a7.8 7.8 0 0 1-2.346.373c-3.432 0-6.552-2.255-8.346-6.032l-.429-.903-1.807.858.43.903a14.6 14.6 0 0 0 2.172 3.337l-2.213 2.214 1.414 1.414 2.226-2.228a10.8 10.8 0 0 0 2.918 1.738l-.86 2.962 1.92.558.865-2.975q.84.152 1.71.154H12q.832-.002 1.635-.139l.86 2.96 1.92-.558-.853-2.936a10.8 10.8 0 0 0 2.949-1.726l2.189 2.19 1.415-1.414-2.172-2.172a14.5 14.5 0 0 0 2.21-3.38z" clip-rule="evenodd"/></svg>