<svg xmlns="http://www.w3.org/2000/svg" fill="none" viewBox="0 0 24 24"><path fill="#000" fill-rule="evenodd" d="m18.63 9.887 3.525 3.525-1.414 1.414-3.526-3.525zm-13.26 0-3.524 3.525 1.414 1.414 3.525-3.525zm9.684 2.583 1.402 4.83-1.921.558-1.402-4.83zm-6.108 0L7.544 17.3l1.92.558 1.403-4.83z" clip-rule="evenodd" opacity=".4"/><path fill="#000" fill-rule="evenodd" d="M22.154 7.905c-2.134 4.49-5.93 7.173-10.151 7.175h-.005c-4.223-.002-8.018-2.684-10.152-7.175l-.429-.903 1.807-.86.43.905C5.446 10.824 8.566 13.079 12 13.08c3.432-.001 6.551-2.256 8.346-6.033l.43-.904 1.805.859z" clip-rule="evenodd"/></svg>