<svg xmlns="http://www.w3.org/2000/svg" fill="none" viewBox="0 0 24 24"><path fill="#000" fill-rule="evenodd" d="M2.073 7.729c2.055 4.326 5.766 7.03 9.925 7.032h.004v-1.5h-.004m.002 0c3.455 0 6.707-2.248 8.573-6.176l.321-.677 1.355.643-.322.678c-2.055 4.326-5.766 7.03-9.925 7.032m-.002-1.5c-3.455 0-6.707-2.248-8.573-6.176l-.321-.677-1.355.643.322.678" clip-rule="evenodd"/><path fill="#000" fill-rule="evenodd" d="m18.59 10.215 3.172 3.172-1.061 1.06-3.172-3.171zm-13.259 0L2.16 13.387l1.061 1.06 3.172-3.171zm9.513 2.539 1.262 4.35-1.44.418-1.263-4.35zm-5.767 0-1.263 4.35 1.44.419 1.263-4.35z" clip-rule="evenodd"/></svg>