<svg xmlns="http://www.w3.org/2000/svg" fill="none" viewBox="0 0 24 24"><path fill="#000" fill-rule="evenodd" d="M12 9.588A2.415 2.415 0 0 0 9.588 12 2.415 2.415 0 0 0 12 14.412 2.415 2.415 0 0 0 14.412 12 2.415 2.415 0 0 0 12 9.588" clip-rule="evenodd"/><path fill="#000" fill-rule="evenodd" d="M12 15.912A3.917 3.917 0 0 1 8.088 12 3.917 3.917 0 0 1 12 8.088 3.917 3.917 0 0 1 15.912 12 3.917 3.917 0 0 1 12 15.912m0-11.714c-5.402 0-9.752 4.268-9.752 7.802s4.35 7.802 9.752 7.802 9.752-4.268 9.752-7.802S17.402 4.198 12 4.198" clip-rule="evenodd"/></svg>