<svg xmlns="http://www.w3.org/2000/svg" fill="none" viewBox="0 0 24 24"><path fill="#000" fill-rule="evenodd" d="M12.002 9.64a2.412 2.412 0 1 0 0 4.824 2.412 2.412 0 0 0 0-4.824M8.09 12.052a3.912 3.912 0 1 1 7.824 0 3.912 3.912 0 0 1-7.824 0" clip-rule="evenodd"/><path fill="#000" fill-rule="evenodd" d="M4.976 6.598C6.77 5.081 9.25 4 12.002 4s5.232 1.08 7.026 2.597c1.775 1.5 2.976 3.517 2.976 5.455s-1.2 3.955-2.976 5.455c-1.794 1.517-4.275 2.597-7.026 2.597s-5.232-1.081-7.026-2.598C3.2 16.006 2 13.989 2 12.052S3.201 8.1 4.976 6.598m.968 1.146C4.37 9.074 3.5 10.709 3.5 12.052c0 1.344.87 2.978 2.444 4.308 1.554 1.314 3.7 2.244 6.058 2.244 2.359 0 4.504-.929 6.058-2.243 1.574-1.33 2.444-2.964 2.444-4.309s-.87-2.98-2.444-4.31C16.506 6.43 14.36 5.5 12.002 5.5s-4.504.93-6.058 2.244" clip-rule="evenodd"/></svg>