<svg xmlns="http://www.w3.org/2000/svg" fill="none" viewBox="0 0 24 24"><path fill="#000" fill-rule="evenodd" d="M14.109 14.544a.75.75 0 0 1-1.5 0V9.255a.75.75 0 0 1 1.5 0zm7.391-.994c-1.049 0-1.518-.778-1.518-1.551 0-.771.469-1.55 1.518-1.55a.5.5 0 0 0 .5-.5c0-4.855-.405-6.653-7.891-6.911v3.217a.75.75 0 0 1-1.5 0V3.007C12.403 3.006 12.216 3 12 3 2.455 3 2 4.67 2 9.949a.5.5 0 0 0 .5.5c1.049 0 1.518.779 1.518 1.55 0 .41-.138.805-.381 1.081-.273.312-.655.47-1.137.47a.5.5 0 0 0-.5.5C2 19.33 2.455 21 12 21c.216 0 .403-.005.609-.007v-3.449a.75.75 0 0 1 1.5 0v3.418C21.595 20.704 22 18.906 22 14.05a.5.5 0 0 0-.5-.5" clip-rule="evenodd"/></svg>