<svg xmlns="http://www.w3.org/2000/svg" fill="none" viewBox="0 0 24 24"><path fill="#000" fill-rule="evenodd" d="M13.352 7.005a.75.75 0 0 1-.743-.75V3.007q-.139 0-.271-.003Q12.175 3 12 3C2.455 3 2 4.67 2 9.949a.5.5 0 0 0 .5.5c1.049 0 1.518.779 1.518 1.55 0 .41-.138.805-.381 1.081-.273.312-.655.47-1.137.47a.5.5 0 0 0-.5.5C2 19.33 2.455 21 12 21a23 23 0 0 0 .609-.007v-3.449a.75.75 0 0 1 .743-.75v-1.5a.75.75 0 0 1-.743-.75V9.255a.75.75 0 0 1 .743-.75z" clip-rule="evenodd"/><path fill="#000" d="M13.353 16.794h.006a.75.75 0 0 1 .75.75v3.418C21.595 20.704 22 18.906 22 14.05a.5.5 0 0 0-.5-.5c-1.049 0-1.518-.778-1.518-1.551 0-.771.47-1.55 1.518-1.55a.5.5 0 0 0 .5-.5c0-4.855-.405-6.653-7.89-6.91v3.216a.75.75 0 0 1-.75.75h-.008v1.5h.007a.75.75 0 0 1 .75.75v5.289a.75.75 0 0 1-.75.75h-.007z" opacity=".4"/></svg>