<svg xmlns="http://www.w3.org/2000/svg" fill="none" viewBox="0 0 24 24"><path fill="#000" fill-rule="evenodd" d="M13.36 2.85a.75.75 0 0 1 .75.75v2.655a.75.75 0 0 1-1.5 0V3.6a.75.75 0 0 1 .75-.75m0 13.944a.75.75 0 0 1 .75.75v2.22a.75.75 0 0 1-1.5 0v-2.22a.75.75 0 0 1 .75-.75m0-8.289a.75.75 0 0 1 .75.75v5.289a.75.75 0 0 1-1.5 0V9.255a.75.75 0 0 1 .75-.75" clip-rule="evenodd"/><path fill="#000" fill-rule="evenodd" d="M6.379 3.1c1.4-.244 3.232-.35 5.621-.35s4.221.106 5.621.35c1.395.244 2.438.637 3.18 1.273.764.655 1.12 1.493 1.289 2.43.16.894.16 1.948.16 3.092v.054a.75.75 0 0 1-.75.75c-.465 0-.76.169-.949.384-.201.23-.32.56-.32.916 0 .357.119.687.32.917.188.215.484.384.949.384a.75.75 0 0 1 .75.75v.054c0 1.145 0 2.198-.16 3.092-.168.938-.525 1.775-1.29 2.431-.74.636-1.785 1.029-3.179 1.273-1.4.244-3.232.35-5.621.35s-4.221-.106-5.621-.35c-1.394-.244-2.438-.637-3.18-1.273-.764-.655-1.12-1.493-1.289-2.431-.16-.894-.16-1.947-.16-3.092v-.054a.75.75 0 0 1 .75-.75c.465 0 .76-.169.949-.384.201-.23.32-.56.32-.917 0-.356-.119-.686-.32-.916-.188-.215-.484-.384-.949-.384a.75.75 0 0 1-.75-.75v-.054c0-1.144 0-2.198.16-3.091.169-.938.525-1.776 1.29-2.431.74-.636 1.785-1.03 3.179-1.273M3.25 9.29c.54.136.99.42 1.327.806.472.539.69 1.234.69 1.903 0 .67-.218 1.365-.69 1.904a2.6 2.6 0 0 1-1.327.807c.005.895.027 1.616.136 2.221.128.717.366 1.195.789 1.557.446.383 1.183.71 2.46.934 1.273.222 3.003.328 5.364.328s4.091-.106 5.363-.328c1.278-.223 2.015-.551 2.461-.934.423-.362.66-.84.79-1.557.108-.605.13-1.326.135-2.221a2.6 2.6 0 0 1-1.327-.807c-.471-.539-.69-1.234-.69-1.904s.219-1.364.69-1.903a2.6 2.6 0 0 1 1.327-.807c-.005-.895-.027-1.615-.136-2.22-.128-.717-.366-1.195-.789-1.557-.446-.383-1.183-.71-2.46-.934C16.09 4.356 14.36 4.25 12 4.25s-4.091.106-5.363.328c-1.278.223-2.015.551-2.461.934-.423.362-.66.84-.79 1.557-.108.605-.13 1.325-.135 2.22" clip-rule="evenodd"/></svg>