<svg xmlns="http://www.w3.org/2000/svg" fill="none" viewBox="0 0 24 24"><path fill="#000" fill-rule="evenodd" d="M16.452 2.735V3.77C19.461 4.062 21 5.725 21 8.714v8.27C21 20.312 19.104 22 15.374 22H8.626C4.896 22 3 20.31 3 16.985v-8.27c0-1.99.678-3.415 2.07-4.246a.69.69 0 0 1 .732-.027.71.71 0 0 1 .35.655.71.71 0 0 1-.422.61c-.921.548-1.356 1.504-1.356 3.007v.266H17.06c.38 0 .687.313.687.699a.693.693 0 0 1-.687.698H4.374v6.608c0 2.538 1.235 3.59 4.252 3.609h6.748c2.974 0 4.243-1.08 4.243-3.618v-8.27c0-2.212-.965-3.282-3.165-3.538v.672a.7.7 0 0 1-.715.606.7.7 0 0 1-.667-.66V2.674a.7.7 0 0 1 .222-.49.68.68 0 0 1 .5-.182.71.71 0 0 1 .66.734M8.71 6.293a.68.68 0 0 1-.492.201.693.693 0 0 1-.67-.707V2.735a.7.7 0 0 1 .692-.629.7.7 0 0 1 .691.63v.963h3.93c.38 0 .688.313.688.699a.693.693 0 0 1-.687.699H8.913v.699a.7.7 0 0 1-.204.497m7.482 6.322c-.48 0-.87.396-.87.885 0 .488.39.884.87.884s.87-.396.87-.884a.9.9 0 0 0-.258-.629.86.86 0 0 0-.62-.256zm-5.043.885c0-.489.39-.885.87-.885s.869.396.869.885c0 .488-.39.884-.87.884a.877.877 0 0 1-.87-.884m-3.296-.885c-.48 0-.87.396-.87.885 0 .488.39.884.87.884s.87-.396.87-.884a.9.9 0 0 0-.258-.629.86.86 0 0 0-.62-.256zm7.47 4.467c0-.489.39-.884.87-.884h-.01a.86.86 0 0 1 .621.255.9.9 0 0 1 .258.629c0 .489-.39.885-.87.885a.877.877 0 0 1-.87-.885m-3.305-.884c-.48 0-.87.395-.87.884s.39.885.87.885.87-.396.87-.885a.877.877 0 0 0-.87-.884m-5.034.884c0-.489.389-.884.87-.884h-.01a.86.86 0 0 1 .621.255.9.9 0 0 1 .258.629c0 .489-.39.885-.87.885a.877.877 0 0 1-.87-.885" clip-rule="evenodd"/></svg>