<svg xmlns="http://www.w3.org/2000/svg" fill="none" viewBox="0 0 24 24"><path fill="#000" fill-rule="evenodd" d="M3 16.87V9.257h18v7.674C21 20.07 19.024 22 15.863 22H8.127C4.996 22 3 20.03 3 16.87m4.96-2.46a.82.82 0 0 1-.85-.799c0-.46.355-.84.81-.861.444 0 .81.351.82.8a.82.82 0 0 1-.78.86m4.06 0a.82.82 0 0 1-.85-.799c0-.46.356-.84.81-.861.445 0 .81.351.82.8a.82.82 0 0 1-.78.86m4.03 3.68a.847.847 0 0 1-.82-.85.83.83 0 0 1 .81-.849h.01c.465 0 .84.38.84.849 0 .47-.375.85-.84.85m-4.88-.85c.02.46.395.821.85.8a.82.82 0 0 0 .78-.859.817.817 0 0 0-.82-.801.855.855 0 0 0-.81.86m-4.07 0c.02.46.395.821.85.8a.82.82 0 0 0 .78-.859.817.817 0 0 0-.82-.801.855.855 0 0 0-.81.86m8.14-3.639c0-.46.356-.83.81-.84.445 0 .8.359.82.8a.82.82 0 0 1-.79.849.814.814 0 0 1-.84-.799z" clip-rule="evenodd"/><path fill="#000" d="M3.003 9.257c.013-.587.063-1.752.156-2.127.474-2.11 2.084-3.45 4.386-3.64h8.911c2.282.2 3.912 1.55 4.386 3.64.092.365.142 1.539.155 2.127z" opacity=".4"/><path fill="#000" d="M8.305 6.59c.435 0 .76-.329.76-.77V2.771A.75.75 0 0 0 8.306 2c-.435 0-.76.33-.76.771V5.82c0 .441.325.77.76.77m7.389 0c.425 0 .76-.329.76-.77V2.771a.754.754 0 0 0-.76-.771c-.435 0-.76.33-.76.771V5.82c0 .441.325.77.76.77"/></svg>