<svg xmlns="http://www.w3.org/2000/svg" fill="none" viewBox="0 0 24 24"><path fill="#000" fill-rule="evenodd" d="M20.667 9.904H2.842a.75.75 0 0 1 0-1.5h17.824a.75.75 0 0 1 0 1.5m-4.465 3.906a.754.754 0 0 1-.754-.75c0-.414.331-.75.745-.75h.01a.75.75 0 0 1 0 1.5m-4.438 0a.754.754 0 0 1-.754-.75c0-.414.33-.75.745-.75h.009a.75.75 0 0 1 0 1.5m-4.447 0a.755.755 0 0 1-.755-.75c0-.414.332-.75.746-.75h.009a.75.75 0 0 1 0 1.5m8.884 3.886a.754.754 0 0 1-.754-.75c0-.414.331-.75.745-.75h.01a.75.75 0 0 1 0 1.5m-4.438 0a.754.754 0 0 1-.754-.75c0-.414.33-.75.745-.75h.009a.75.75 0 0 1 0 1.5m-4.447 0a.755.755 0 0 1-.755-.75c0-.414.332-.75.746-.75h.009a.75.75 0 0 1 0 1.5m8.477-11.905a.75.75 0 0 1-.75-.75V1.75a.75.75 0 0 1 1.5 0v3.291a.75.75 0 0 1-.75.75m-8.079 0a.75.75 0 0 1-.75-.75V1.75a.75.75 0 0 1 1.5 0v3.291a.75.75 0 0 1-.75.75" clip-rule="evenodd"/><mask id="a" width="20" height="21" x="2" y="2" maskUnits="userSpaceOnUse" style="mask-type:luminance"><path fill="#fff" fill-rule="evenodd" d="M2 2.58h19.5V22.5H2z" clip-rule="evenodd"/></mask><g mask="url(#a)"><path fill="#000" fill-rule="evenodd" d="M7.521 4.08C4.928 4.08 3.5 5.461 3.5 7.972v9.05C3.5 19.587 4.928 21 7.521 21h8.458C18.572 21 20 19.614 20 17.098V7.973c.004-1.235-.328-2.195-.987-2.855-.678-.68-1.723-1.039-3.025-1.039zm8.458 18.42H7.521C4.116 22.5 2 20.401 2 17.022V7.973C2 4.645 4.116 2.58 7.521 2.58h8.467c1.709 0 3.122.512 4.087 1.48.937.94 1.43 2.293 1.425 3.916v9.123c0 3.332-2.116 5.402-5.521 5.402" clip-rule="evenodd"/></g></svg>