<svg xmlns="http://www.w3.org/2000/svg" fill="none" viewBox="0 0 24 24"><path stroke="#000" stroke-linecap="round" stroke-linejoin="round" stroke-width="1.5" d="M3.093 9.404h17.824" opacity=".4"/><path fill="#000" fill-rule="evenodd" d="M6.808 13.31a.75.75 0 0 1 .75-.75h.01a.75.75 0 0 1 0 1.5h-.01a.75.75 0 0 1-.75-.75m5.197-.75a.75.75 0 0 0 0 1.5h.009a.75.75 0 1 0 0-1.5zm4.437 0a.75.75 0 0 0 0 1.5h.01a.75.75 0 0 0 0-1.5zm0 3.886a.75.75 0 0 0 0 1.5h.01a.75.75 0 0 0 0-1.5zm-5.187.75a.75.75 0 0 1 .75-.75h.009a.75.75 0 1 1 0 1.5h-.01a.75.75 0 0 1-.75-.75m-3.697-.75a.75.75 0 0 0 0 1.5h.01a.75.75 0 0 0 0-1.5z" clip-rule="evenodd" opacity=".4"/><path stroke="#000" stroke-linecap="round" stroke-linejoin="round" stroke-width="1.5" d="M16.044 2v3.29M7.965 2v3.29"/><path stroke="#000" stroke-linecap="round" stroke-linejoin="round" stroke-width="1.5" d="M16.238 3.58H7.771C4.834 3.58 3 5.214 3 8.221v9.05C3 20.326 4.834 22 7.771 22h8.458C19.175 22 21 20.355 21 17.347V8.222c.01-3.007-1.816-4.643-4.762-4.643" clip-rule="evenodd"/></svg>