<svg xmlns="http://www.w3.org/2000/svg" fill="none" viewBox="0 0 24 24"><mask id="a" width="21" height="21" x="2" y="2" maskUnits="userSpaceOnUse" style="mask-type:luminance"><path fill="#fff" fill-rule="evenodd" d="M2 2h20.697v20.669H2z" clip-rule="evenodd"/></mask><g mask="url(#a)"><path fill="#000" fill-rule="evenodd" d="M7.643 3.5C4.739 3.5 3.5 4.976 3.5 8.433v7.799c0 3.184 1.758 4.937 4.95 4.937h7.782c3.184 0 4.937-1.753 4.937-4.937v-.003l.027-4.965c0-3.399-1.166-4.724-4.16-4.724h-2.83a3.05 3.05 0 0 1-2.425-1.212l-.914-1.214A1.54 1.54 0 0 0 9.643 3.5zm8.589 19.169H8.45c-3.978 0-6.45-2.467-6.45-6.437V8.433C2 4.164 3.899 2 7.643 2h2a3.05 3.05 0 0 1 2.425 1.214l.91 1.212c.29.384.749.613 1.229.614h2.828c3.863 0 5.662 1.979 5.662 6.228l-.028 4.967c-.002 3.968-2.468 6.434-6.437 6.434" clip-rule="evenodd"/></g><path fill="#000" fill-rule="evenodd" d="M16.716 15.713H7.98a.75.75 0 0 1 0-1.5h8.735a.75.75 0 0 1 0 1.5" clip-rule="evenodd"/></svg>