<svg xmlns="http://www.w3.org/2000/svg" fill="none" viewBox="0 0 24 24"><path fill="#000" fill-rule="evenodd" d="M15.722 14.369c0 .945.88 1.715 1.96 1.716h4.573v-3.431h-4.574c-1.08 0-1.959.77-1.959 1.715" clip-rule="evenodd" opacity=".4"/><path fill="#000" fill-rule="evenodd" d="M1.744 21.87V5.344h1.5v.007h15.13v-.007h1.5v.007h2.381v5.802h-4.574c-1.907 0-3.459 1.443-3.459 3.216.002 1.772 1.553 3.214 3.46 3.215h4.573v4.29H1.995v-.004zM6.31 11.169h6.933v-1.5H6.31z" clip-rule="evenodd"/><path fill="#000" d="M19.873 5.344V2.126L1.744 2.125v3.22h1.5v-1.72l15.13.001v1.718z" opacity=".4"/></svg>