<svg xmlns="http://www.w3.org/2000/svg" fill="none" viewBox="0 0 24 24"><path fill="#000" fill-rule="evenodd" d="M17.01 8.674a2.99 2.99 0 0 1-2.99-2.98V3.652l5.282 5.022zm3.695.176c0-.04 0-.07-.01-.11-.03-.18-.06-.36-.09-.53a.5.5 0 0 0-.15-.28l-5.67-5.4a.46.46 0 0 0-.27-.13l-.53-.06c-.03-.01-.07-.01-.1-.01-.58-.05-1.22-.08-1.89-.08-6.56 0-8.89 2.55-8.89 9.75 0 7.19 2.33 9.75 8.89 9.75 6.57 0 8.9-2.56 8.9-9.75 0-1.2-.06-2.24-.19-3.15" clip-rule="evenodd" opacity=".4"/><path fill="#000" d="M12.99 13.584a.749.749 0 0 0 .531-1.279L11.177 9.95a.747.747 0 0 0-1.064 0l-2.345 2.355a.75.75 0 0 0 1.063 1.059l1.064-1.07v4.225a.75.75 0 0 0 1.5 0v-4.224l1.064 1.069c.146.147.338.22.53.22"/></svg>