<svg xmlns="http://www.w3.org/2000/svg" fill="none" viewBox="0 0 24 24"><path fill="#000" fill-rule="evenodd" d="m12.154 16.64 2.841-2.87a.75.75 0 0 0-.01-1.06.73.73 0 0 0-1.04 0l-1.574 1.6V9.49a.737.737 0 1 0-1.475 0v4.82l-1.574-1.6a.73.73 0 0 0-1.04 0 .76.76 0 0 0 0 1.06l2.832 2.87a.77.77 0 0 0 .525.22.77.77 0 0 0 .515-.22m7.174-7.614c.233-.003.486-.006.717-.006.257 0 .455.2.455.45v8.04c0 2.48-2 4.49-4.455 4.49H8.173C5.59 22 3.5 19.89 3.5 17.29V6.51C3.5 4.03 5.49 2 7.965 2h5.288c.247 0 .455.21.455.46v3.22c0 1.83 1.485 3.33 3.307 3.34q.628 0 1.12.006.38.004.672.004c.14 0 .324-.002.521-.004m.277-1.46c-.813.003-1.773 0-2.463-.007-1.095 0-1.997-.91-1.997-2.017V2.906c0-.43.518-.645.813-.334l2.916 3.062 1.071 1.125a.477.477 0 0 1-.34.807" clip-rule="evenodd"/></svg>