<svg xmlns="http://www.w3.org/2000/svg" fill="none" viewBox="0 0 24 24"><path fill="#000" fill-rule="evenodd" d="M12.002 4c4.136.002 7.851 2.886 9.938 7.714.08.183.08.39 0 .573a17 17 0 0 1-.822 1.654.733.733 0 0 1-.997.277.726.726 0 0 1-.278-.99c.222-.391.432-.804.625-1.228C18.601 7.896 15.453 5.456 12 5.455 8.546 5.456 5.398 7.896 3.531 12c1.867 4.104 5.015 6.545 8.47 6.545 2.007 0 3.944-.831 5.601-2.404a.736.736 0 0 1 1.034.025.72.72 0 0 1-.024 1.026C16.679 19.028 14.394 20 12.002 20h-.004c-4.136-.002-7.85-2.885-9.939-7.713a.72.72 0 0 1 0-.573C4.147 6.886 7.862 4.002 11.997 4zM10.75 14.079a2.44 2.44 0 0 0 1.25.343A2.43 2.43 0 0 0 14.437 12 2.43 2.43 0 0 0 12 9.58 2.43 2.43 0 0 0 9.564 12a.73.73 0 0 1-.732.727A.73.73 0 0 1 8.1 12c0-2.137 1.75-3.876 3.9-3.876S15.899 9.863 15.899 12s-1.75 3.876-3.9 3.876a3.9 3.9 0 0 1-2.003-.552.723.723 0 0 1-.25-.998.73.73 0 0 1 1.003-.247" clip-rule="evenodd"/></svg>