<svg xmlns="http://www.w3.org/2000/svg" fill="none" viewBox="0 0 24 24"><path fill="#000" fill-rule="evenodd" d="M17.737 6.046c1.707 1.318 3.16 3.249 4.205 5.663a.73.73 0 0 1 0 .572C19.854 17.111 16.137 20 12 20h-.01c-4.127 0-7.844-2.89-9.931-7.719a.73.73 0 0 1 0-.572C4.146 6.88 7.863 4 11.99 4H12c2.068 0 4.03.718 5.737 2.046M8.097 12c0 2.133 1.747 3.87 3.903 3.87 2.146 0 3.893-1.737 3.893-3.87A3.89 3.89 0 0 0 12 8.121c-2.156 0-3.902 1.736-3.902 3.879" clip-rule="evenodd" opacity=".4"/><path fill="#000" d="M14.431 11.997a2.43 2.43 0 0 1-2.43 2.415c-1.346 0-2.438-1.087-2.438-2.415 0-.165.02-.32.049-.474h.048a1.997 1.997 0 0 0 2-1.921c.108-.019.225-.03.342-.03a2.43 2.43 0 0 1 2.429 2.425"/></svg>