<svg xmlns="http://www.w3.org/2000/svg" fill="none" viewBox="0 0 24 24"><path fill="#000" fill-rule="evenodd" d="M12 9.641a2.414 2.414 0 0 0-2.411 2.412 2.413 2.413 0 0 0 2.41 2.41 2.414 2.414 0 0 0 2.413-2.41A2.415 2.415 0 0 0 12 9.641m0 6.322a3.915 3.915 0 0 1-3.911-3.91 3.916 3.916 0 0 1 3.91-3.912 3.917 3.917 0 0 1 3.913 3.912A3.915 3.915 0 0 1 12 15.963" clip-rule="evenodd"/><mask id="a" width="20" height="17" x="2" y="4" maskUnits="userSpaceOnUse" style="mask-type:luminance"><path fill="#fff" fill-rule="evenodd" d="M2 4h20v16.105H2z" clip-rule="evenodd"/></mask><g mask="url(#a)"><path fill="#000" fill-rule="evenodd" d="M3.57 12.053c1.86 4.108 4.993 6.552 8.43 6.552s6.57-2.443 8.43-6.552C18.57 7.945 15.437 5.502 12 5.5s-6.57 2.444-8.43 6.552m8.432 8.052h-.005c-4.136-.003-7.85-2.902-9.936-7.757a.75.75 0 0 1 0-.591C4.147 6.903 7.862 4.004 11.997 4h.006c4.136.003 7.85 2.902 9.936 7.756a.74.74 0 0 1 0 .591c-2.085 4.855-5.8 7.754-9.936 7.757z" clip-rule="evenodd"/></g></svg>