<svg xmlns="http://www.w3.org/2000/svg" fill="none" viewBox="0 0 24 24"><path fill="#000" fill-rule="evenodd" d="M8.764 10.806a3.237 3.237 0 1 1 6.473 0 3.237 3.237 0 0 1-6.473 0M12 9.07a1.737 1.737 0 1 0 0 3.473 1.737 1.737 0 0 0 0-3.474" clip-rule="evenodd"/><path fill="#000" fill-rule="evenodd" d="M12 3.5c-3.68 0-6.826 3.328-6.71 7.074.083 2.672 1.785 5.162 3.59 7.049a23.4 23.4 0 0 0 3.125 2.717 22.5 22.5 0 0 0 3.116-2.674c1.802-1.867 3.506-4.358 3.59-7.092C18.824 6.828 15.678 3.5 12 3.5m0 17.75-.41.628-.002-.001-.006-.004-.018-.012-.067-.045-.244-.17a25 25 0 0 1-3.456-2.987c-1.878-1.96-3.906-4.797-4.006-8.038C3.65 6.062 7.439 2 12 2c4.56 0 8.349 4.061 8.21 8.62-.101 3.3-2.128 6.136-4.01 8.086a24 24 0 0 1-3.46 2.95 14 14 0 0 1-.312.21l-.018.011-.006.003-.001.002zm0 0 .402.633-.407.259-.405-.264z" clip-rule="evenodd"/></svg>