<svg xmlns="http://www.w3.org/2000/svg" fill="none" viewBox="0 0 24 24"><path fill="#000" fill-rule="evenodd" d="M20.152 7.591a3.05 3.05 0 0 1 1.14 2.348l-.01 7.974a3.92 3.92 0 0 1-3.921 3.922h-1.74a1.905 1.905 0 0 1-1.904-1.896v-3.6a.504.504 0 0 0-.504-.504h-2.609a.504.504 0 0 0-.504.513v1.374a.783.783 0 0 1-1.565 0v-1.374a2.08 2.08 0 0 1 2.078-2.078h2.609a2.08 2.08 0 0 1 2.07 2.078v3.591c0 .183.147.33.33.33h1.782a2.35 2.35 0 0 0 2.348-2.347V9.957a1.47 1.47 0 0 0-.556-1.13l-6.009-4.792a2.05 2.05 0 0 0-2.609 0l-1.93 1.443a.798.798 0 0 1-.93-1.295L9.621 2.8a3.61 3.61 0 0 1 4.522 0zm-13.73 12.67h4v.017a.783.783 0 1 1 0 1.566h-4A3.93 3.93 0 0 1 2.5 17.922V9.957a3.03 3.03 0 0 1 1.174-2.348l.722-.54A.783.783 0 0 1 5.3 8.314l-.704.522a1.47 1.47 0 0 0-.53 1.122v7.956a2.365 2.365 0 0 0 2.356 2.348" clip-rule="evenodd"/></svg>