<svg xmlns="http://www.w3.org/2000/svg" fill="none" viewBox="0 0 24 24"><path fill="#000" fill-rule="evenodd" d="M8.156 15.45a.75.75 0 0 1 .75-.75h5.4a.75.75 0 0 1 0 1.5h-5.4a.75.75 0 0 1-.75-.75m-.001-4.011a.75.75 0 0 1 .75-.75h3.356a.75.75 0 1 1 0 1.5H8.905a.75.75 0 0 1-.75-.75" clip-rule="evenodd"/><path fill="#000" fill-rule="evenodd" d="M4.93 4.272C6.463 2.582 8.839 2 12.04 2c.927 0 1.781.051 2.552.157a.75.75 0 0 1 .415.2l5.67 5.4a.75.75 0 0 1 .22.41c.201 1.107.293 2.384.293 3.833 0 3.5-.519 6.065-2.032 7.732C17.624 21.42 15.245 22 12.04 22c-3.201 0-5.577-.58-7.11-2.269C3.42 18.065 2.9 15.5 2.9 12c0-3.495.519-6.06 2.03-7.728M6.043 5.28C4.932 6.505 4.4 8.565 4.4 12c0 3.44.531 5.5 1.642 6.723C7.132 19.925 8.95 20.5 12.04 20.5c3.094 0 4.916-.575 6.007-1.777C19.16 17.5 19.69 15.44 19.69 12c0-1.282-.075-2.386-.227-3.328l-5.312-5.06A18 18 0 0 0 12.04 3.5c-3.088 0-4.908.577-5.998 1.78" clip-rule="evenodd"/><path fill="#000" fill-rule="evenodd" d="M13.934 2.083a.75.75 0 0 1 .75.75v2.66a2.613 2.613 0 0 0 2.614 2.614h2.951a.75.75 0 0 1 0 1.5H17.3a4.113 4.113 0 0 1-4.115-4.113V2.833a.75.75 0 0 1 .75-.75" clip-rule="evenodd"/></svg>