<svg xmlns="http://www.w3.org/2000/svg" fill="none" viewBox="0 0 24 24"><path fill="#000" fill-rule="evenodd" d="m15.241 2.245 5.05 5.311a.76.76 0 0 1 .209.524v9.364c0 2.511-2.003 4.556-4.466 4.556H8.07c-2.606 0-4.57-1.96-4.57-4.556V14.92c0-.417.335-.755.748-.755.412 0 .747.338.747.755v2.523c0 1.764 1.293 3.046 3.075 3.046h7.964c1.639 0 2.97-1.367 2.97-3.046v-9.06l-3.817-4.014v1.317a1.83 1.83 0 0 0 1.816 1.836c.412.001.746.34.745.757a.75.75 0 0 1-.747.753H17c-1.824-.004-3.308-1.505-3.308-3.346V3.522H8.07c-1.667 0-3.075 1.373-3.075 3v4.294a.75.75 0 0 1-.747.755.75.75 0 0 1-.748-.755V6.521c0-2.444 2.093-4.509 4.57-4.509h6.312l.025-.006A.1.1 0 0 1 14.44 2q.017 0 .032.006.012.005.025.006h.205c.203 0 .398.084.54.233m-.232 11.582a.75.75 0 0 1-.748.755H9.375a.75.75 0 0 1-.747-.755.75.75 0 0 1 .747-.755h4.886c.413 0 .748.338.748.755" clip-rule="evenodd"/></svg>