<svg xmlns="http://www.w3.org/2000/svg" fill="none" viewBox="0 0 24 24"><path fill="#000" fill-rule="evenodd" d="M7.572 3.512A3.086 3.086 0 0 0 4.5 6.509v10.83a2.97 2.97 0 0 0 2.912 3.028l.148-.001h8.012a3.03 3.03 0 0 0 2.979-3.025v-9l-4.635-4.83H7.572m-.173 18.355A4.47 4.47 0 0 1 3 17.327V6.49c.057-2.481 2.105-4.48 4.568-4.48h6.667c.204 0 .399.084.54.23l5.067 5.28a.75.75 0 0 1 .209.519v9.3a4.533 4.533 0 0 1-4.471 4.526z" clip-rule="evenodd"/><path fill="#000" fill-rule="evenodd" d="M19.297 8.984h-2.754a3.33 3.33 0 0 1-3.32-3.325V2.75a.75.75 0 0 1 1.5 0v2.91a1.83 1.83 0 0 0 1.822 1.824h2.752a.75.75 0 0 1 0 1.5m-5.504 5.513h-4.9a.75.75 0 0 1 0-1.5h4.9a.75.75 0 0 1 0 1.5" clip-rule="evenodd"/></svg>