<svg xmlns="http://www.w3.org/2000/svg" fill="none" viewBox="0 0 24 24"><path fill="#000" fill-rule="evenodd" d="M2 12C2 6.485 6.486 2 12 2s10 4.485 10 10-4.486 10-10 10a9.94 9.94 0 0 1-7.927-3.902.727.727 0 1 1 1.152-.888A8.5 8.5 0 0 0 12 20.546c4.712 0 8.546-3.833 8.546-8.546S16.712 3.454 12 3.454 3.454 7.288 3.454 12q0 .659.098 1.299a.728.728 0 0 1-1.437.22A10 10 0 0 1 2 11.999m10-4.546a.75.75 0 0 0-.75.75v4.42a.75.75 0 0 0 1.5 0v-4.42a.75.75 0 0 0-.75-.75m.01 7.592H12a.746.746 0 0 0-.745.75c0 .414.341.75.755.75a.75.75 0 0 0 0-1.5" clip-rule="evenodd"/></svg>