<svg xmlns="http://www.w3.org/2000/svg" fill="none" viewBox="0 0 24 24"><path fill="#000" fill-rule="evenodd" d="M21.247 15.809c-2.638-3.2-3.953-2.913-5.399-2.21-1 .486-1.865.908-4.11-1.34-2.247-2.247-1.826-3.11-1.34-4.108.705-1.447.991-2.765-2.212-5.402-.763-.625-1.595-.865-2.46-.697-1.834.343-3.129 2.383-3.127 2.383C1.787 5.57.675 8.987 7.842 16.155 12.556 20.868 15.647 22 17.523 22c.977 0 1.623-.305 1.997-.575.021-.012 2.08-1.287 2.426-3.155.162-.87-.073-1.697-.699-2.461" clip-rule="evenodd"/></svg>