<svg xmlns="http://www.w3.org/2000/svg" fill="none" viewBox="0 0 24 24"><path fill="#000" fill-rule="evenodd" d="M8.532 2.937a6.89 6.89 0 0 1 7.034.058C17.71 4.327 19.012 6.705 19 9.26c-.05 2.54-1.447 4.929-3.193 6.775a18.7 18.7 0 0 1-3.358 2.82 1.2 1.2 0 0 1-.408.144.8.8 0 0 1-.39-.119 18.5 18.5 0 0 1-4.839-4.547A9.3 9.3 0 0 1 5 9.134c-.001-2.562 1.347-4.928 3.532-6.197m1.262 7.258a2.38 2.38 0 0 0 2.198 1.497 2.34 2.34 0 0 0 1.683-.701c.446-.454.696-1.07.694-1.713a2.42 2.42 0 0 0-1.462-2.243 2.35 2.35 0 0 0-2.594.52 2.46 2.46 0 0 0-.519 2.64" clip-rule="evenodd"/><ellipse cx="12" cy="21" fill="#000" opacity=".4" rx="5" ry="1"/></svg>