<svg xmlns="http://www.w3.org/2000/svg" fill="none" viewBox="0 0 24 24"><path fill="#000" d="M20.785 3.22a.75.75 0 0 1 1.133.976l-.073.084-6 6a.75.75 0 0 1-1.133-.976l.073-.084z"/><path fill="#000" d="M14.785 3.22a.75.75 0 0 1 .976-.073l.084.073 6 6a.75.75 0 0 1-.976 1.133l-.084-.073-6-6a.75.75 0 0 1 0-1.06"/><path fill="#000" fill-rule="evenodd" d="m2.471 3.83.073-.076C4.47 1.826 5.726 1.315 7.065 2.085c.386.222.747.532 1.238 1.03l1.506 1.563c.832.908 1.022 1.778.75 2.798l-.037.135-.041.135-.202.59c-.43 1.325-.25 2.073 1.283 3.606 1.595 1.594 2.339 1.725 3.766 1.226l.255-.088.307-.1.135-.038c1.084-.289 2-.058 2.97.912l1.214 1.173.358.351c.396.404.657.724.85 1.063.766 1.338.255 2.593-1.728 4.568l-.189.192c-.296.285-.573.49-.979.682-.682.324-1.488.446-2.424.316-2.308-.321-5.235-2.142-8.943-5.849a52 52 0 0 1-.867-.888l-.537-.573C.72 9.424.276 6.067 2.338 3.962zm4.618.192c-.326-.32-.563-.516-.771-.636-.462-.266-.96-.154-1.882.64l-.29.259-.155.145-.333.324-.03.037-.225.227c-.544.556-.802 1.234-.58 2.401.365 1.915 2.034 4.513 5.392 7.87 3.499 3.498 6.165 5.157 8.088 5.424 1.122.156 1.694-.115 2.277-.713l.445-.449q.312-.326.537-.597l.205-.259c.525-.698.573-1.118.349-1.51a3 3 0 0 0-.39-.513l-.246-.26-.145-.145-1.531-1.478c-.512-.472-.862-.539-1.393-.397l-.153.044-.634.215c-1.84.594-3.168.306-5.123-1.648C8.477 10.979 8.24 9.627 8.918 7.68l.043-.125.12-.363.06-.231c.105-.503-.015-.854-.556-1.394l-.074-.075z" clip-rule="evenodd"/></svg>