<svg xmlns="http://www.w3.org/2000/svg" fill="none" viewBox="0 0 24 24"><path fill="#000" fill-rule="evenodd" d="M2 12C2 6.485 6.486 2 12 2s10 4.485 10 10-4.486 10-10 10a9.94 9.94 0 0 1-7.927-3.902.727.727 0 0 1 1.152-.888A8.5 8.5 0 0 0 12 20.546c4.712 0 8.546-3.833 8.546-8.546S16.712 3.454 12 3.454 3.455 7.288 3.455 12q0 .659.097 1.299a.728.728 0 0 1-1.437.22A10 10 0 0 1 2 11.999m8.934-4.163a.728.728 0 1 1 1.454 0v4.446l3.424 2.042a.727.727 0 0 1-.744 1.25l-3.78-2.255a.73.73 0 0 1-.354-.625z" clip-rule="evenodd"/></svg>