<svg xmlns="http://www.w3.org/2000/svg" fill="none" viewBox="0 0 24 24"><path fill="#000" fill-rule="evenodd" d="M12 3.5c-4.687 0-8.5 3.813-8.5 8.5s3.813 8.5 8.5 8.5 8.5-3.813 8.5-8.5-3.813-8.5-8.5-8.5M12 22C6.486 22 2 17.514 2 12S6.486 2 12 2s10 4.486 10 10-4.486 10-10 10" clip-rule="evenodd"/><path fill="#000" fill-rule="evenodd" d="M15.431 15.693a.76.76 0 0 1-.384-.105l-3.77-2.25a.76.76 0 0 1-.366-.644V7.845a.75.75 0 0 1 1.5 0v4.423l3.405 2.03a.752.752 0 0 1-.385 1.395" clip-rule="evenodd"/></svg>