<svg xmlns="http://www.w3.org/2000/svg" fill="none" viewBox="0 0 24 24"><path stroke="#000" stroke-linecap="round" stroke-linejoin="round" stroke-width="1.5" d="M16.335 2.75h-8.67c-3.02 0-4.914 2.14-4.914 5.166v8.168c0 3.027 1.884 5.166 4.915 5.166h8.668c3.03 0 4.917-2.139 4.917-5.166V7.916c0-3.027-1.886-5.166-4.916-5.166" clip-rule="evenodd"/><path fill="#000" d="M7.52 13.198a1.199 1.199 0 0 1 0-2.395 1.199 1.199 0 0 1 0 2.395m4.48 0a1.199 1.199 0 0 1 0-2.395 1.199 1.199 0 0 1 0 2.395m4.48 0a1.199 1.199 0 0 1 0-2.395 1.199 1.199 0 0 1 0 2.395" opacity=".4"/></svg>