<svg xmlns="http://www.w3.org/2000/svg" fill="none" viewBox="0 0 24 24"><path stroke="#000" stroke-linecap="square" stroke-width="1.5" d="M11.982 20.575c-2.398.005-4.645-.443-6.554-1.606.948-2.999 3.52-4.387 6.554-4.379 3.03-.008 5.606 1.384 6.553 4.379-1.019.621-2.134 1.038-3.317 1.291m-8.623-6.52c-2.125-.005-3.931.97-4.595 3.07q.545.33 1.137.556m14.269-3.626c2.124-.005 3.93.97 4.594 3.07a7 7 0 0 1-1.225.589M12.733 3.425a4.1 4.1 0 1 1-3.39.913m8.063 1.529a2.88 2.88 0 0 1 0 5.76M6.595 5.867a2.88 2.88 0 1 0 0 5.76"/></svg>