<svg xmlns="http://www.w3.org/2000/svg" fill="none" viewBox="0 0 24 24"><path fill="#000" fill-rule="evenodd" d="M16.041 11.248a3.5 3.5 0 0 0 1.717.446 3.56 3.56 0 0 0 3.556-3.557 3.556 3.556 0 0 0-3.556-3.547c-.389 0-.759.067-1.11.18.512.826.806 1.802.806 2.836a5.33 5.33 0 0 1-1.413 3.642m-9.797.446c.626 0 1.204-.161 1.717-.446a5.33 5.33 0 0 1-1.414-3.642c0-1.033.294-2.01.807-2.835a3.6 3.6 0 0 0-1.11-.181 3.557 3.557 0 0 0-3.557 3.547 3.56 3.56 0 0 0 3.557 3.557" clip-rule="evenodd"/><path fill="#000" fill-rule="evenodd" d="M12 12.119a4.513 4.513 0 0 0 4.51-4.509A4.513 4.513 0 0 0 12 3.104 4.513 4.513 0 0 0 7.493 7.61 4.513 4.513 0 0 0 12 12.118" clip-rule="evenodd"/><g fill="#000" fill-rule="evenodd" clip-rule="evenodd" opacity=".4"><path d="M23.097 16.569c-.73-2.286-2.665-3.594-5.32-3.594h-.02c-1.081-.01-2.048.208-2.864.625 2.277.731 3.965 2.353 4.742 4.648 1.233-.171 2.305-.55 3.253-1.129l.313-.199zM9.06 13.582c-.797-.398-1.736-.607-2.798-.607h-.038c-2.655 0-4.59 1.309-5.31 3.594l-.115.35.313.2c.901.55 1.964.92 3.15 1.11.786-2.304 2.503-3.936 4.798-4.647"/><path d="M11.966 14.104h-.046c-3.414 0-5.903 1.678-6.829 4.607l-.112.354.317.194c1.808 1.101 3.968 1.637 6.603 1.637h.085c2.637 0 4.798-.536 6.606-1.637l.318-.195-.112-.354c-.927-2.929-3.415-4.607-6.83-4.607"/></g></svg>