<svg xmlns="http://www.w3.org/2000/svg" fill="none" viewBox="0 0 24 24"><path stroke="#000" stroke-linecap="square" stroke-width="1.5" d="M11.982 14.623c3.03-.008 5.606 1.384 6.553 4.378-1.909 1.164-4.156 1.612-6.553 1.606-2.398.006-4.645-.442-6.554-1.606.948-2.998 3.52-4.386 6.554-4.378Zm-5.387-.85c-2.125-.005-3.931.97-4.595 3.07a7.4 7.4 0 0 0 2.362.913m13.044-3.983c2.124-.005 3.93.97 4.594 3.07a7.4 7.4 0 0 1-2.361.913"/><circle cx="12" cy="7.491" r="4.098" stroke="#000" stroke-linecap="square" stroke-width="1.5"/><path stroke="#000" stroke-linecap="square" stroke-width="1.5" d="M16.483 6.05a2.88 2.88 0 1 1-1.07 4.809M7.25 5.975Q6.935 5.9 6.596 5.9a2.88 2.88 0 1 0 1.826 5.107"/></svg>