<svg xmlns="http://www.w3.org/2000/svg" fill="none" viewBox="0 0 24 24"><path fill="#000" fill-rule="evenodd" d="M7.47 6.588a4.532 4.532 0 0 1 9.061.02v3.031a.75.75 0 1 1-1.5 0V6.605a3.031 3.031 0 0 0-6.062-.014v3.048a.75.75 0 0 1-1.5 0z" clip-rule="evenodd"/><path fill="#000" fill-rule="evenodd" d="M4.646 8.467C6.199 7.25 8.607 6.816 12 6.816s5.801.435 7.354 1.65c1.59 1.246 2.165 3.206 2.165 5.909s-.574 4.663-2.165 5.908c-1.553 1.215-3.961 1.65-7.354 1.65s-5.801-.435-7.354-1.65c-1.591-1.245-2.165-3.206-2.165-5.908s.574-4.663 2.165-5.908" clip-rule="evenodd" opacity=".4"/></svg>