<svg xmlns="http://www.w3.org/2000/svg" fill="none" viewBox="0 0 24 24"><path fill="#000" d="M14.892 12.104h.046c.414 0 .727-.336.727-.75s-.359-.75-.773-.75a.75.75 0 0 0 0 1.5m-5.785 0h-.046a.75.75 0 0 1 0-1.5c.414 0 .773.336.773.75s-.313.75-.727.75"/><path fill="#000" fill-rule="evenodd" d="M6.955 6.267A5.03 5.03 0 0 1 8.422 3.25c.962-.954 2.26-1.435 3.592-1.469a5.076 5.076 0 0 1 5.032 4.488c1.785.426 3.033 1.141 3.82 2.168 1.06 1.385 1.248 3.269.576 5.762-1.5 5.563-2.458 8.022-9.442 8.022s-7.942-2.46-9.442-8.022c-.673-2.493-.484-4.377.576-5.762.787-1.027 2.035-1.742 3.821-2.169m8.52-.283a3.56 3.56 0 0 0-3.481-2.704c-.951 0-1.843.366-2.516 1.034a3.55 3.55 0 0 0-.952 1.67c1.021-.133 2.176-.198 3.474-.198s2.454.065 3.475.198M4.325 9.35C5.388 7.96 7.898 7.286 12 7.286c4.101 0 6.611.675 7.674 2.063.758.988.862 2.447.32 4.458C18.6 18.977 18.13 20.72 12 20.72s-6.6-1.742-7.994-6.913c-.543-2.011-.439-3.47.32-4.458" clip-rule="evenodd"/></svg>