<svg xmlns="http://www.w3.org/2000/svg" fill="none" viewBox="0 0 24 24"><path fill="#000" d="M3.71 11.34h8.479a.71.71 0 0 1 0 1.422H3.71a.71.71 0 0 1 0-1.421" opacity=".4"/><mask id="a" width="10" height="12" x="11" y="6" maskUnits="userSpaceOnUse" style="mask-type:luminance"><path fill="#fff" fill-rule="evenodd" d="M11.479 17.5V6.603h8.939V17.5z" clip-rule="evenodd"/></mask><g mask="url(#a)"><path fill="#000" d="M12.189 6.603c.133 0 .263.037.379.109l7.518 4.738a.712.712 0 0 1 0 1.203l-7.518 4.738a.71.71 0 0 1-1.09-.602V7.314a.71.71 0 0 1 .711-.71"/></g></svg>