<svg xmlns="http://www.w3.org/2000/svg" fill="none" viewBox="0 0 24 24"><path fill="#000" fill-rule="evenodd" d="M12.7 13.5H3.75a.75.75 0 0 1 0-1.5h8.95a.75.75 0 0 1 0 1.5" clip-rule="evenodd"/><mask id="a" width="11" height="12" x="11" y="7" maskUnits="userSpaceOnUse" style="mask-type:luminance"><path fill="#fff" fill-rule="evenodd" d="M11.95 7h9.437v11.501H11.95z" clip-rule="evenodd"/></mask><g mask="url(#a)"><path fill="#000" fill-rule="evenodd" d="M13.45 9.109v7.283l5.78-3.641zm-.75 9.393a.75.75 0 0 1-.75-.75V7.75a.748.748 0 0 1 1.15-.635l7.937 5a.75.75 0 0 1 0 1.27l-7.938 5a.74.74 0 0 1-.399.117" clip-rule="evenodd"/></g></svg>