<svg xmlns="http://www.w3.org/2000/svg" fill="none" viewBox="0 0 24 24"><path fill="#000" fill-rule="evenodd" d="M7.546 3.278c.166.12.434.395.434.395 1.04.976 2.608 3.4 3.111 4.631.01 0 .31.732.32 1.08v.046c0 .534-.298 1.033-.777 1.288-.198.105-.68.203-.912.25-.076.016-.126.026-.129.029-.686.105-1.738.173-2.893.173-1.212 0-2.31-.068-2.985-.197-.012 0-.629-.127-.835-.209a1.5 1.5 0 0 1-.71-.65 1.6 1.6 0 0 1-.17-.73c.01-.267.183-.766.262-.963.503-1.3 2.15-3.784 3.157-4.736.104-.106.223-.217.306-.294l.094-.09c.251-.196.56-.301.893-.301.296 0 .593.093.834.278m10.683 6.884a.94.94 0 0 1-.934.948.94.94 0 0 1-.934-.948l-.258-4.58a1.2 1.2 0 0 1 1.192-1.207c.657 0 1.19.54 1.19 1.208zm2.89 3.074c.298.128.55.36.71.65q.172.347.171.731c-.01.266-.183.766-.263.963-.502 1.3-2.15 3.783-3.155 4.736-.103.103-.22.212-.303.29l-.098.092c-.253.197-.56.302-.892.302a1.36 1.36 0 0 1-.835-.28c-.166-.118-.434-.393-.434-.393-1.042-.974-2.608-3.401-3.111-4.632-.012 0-.31-.73-.32-1.078v-.046c0-.535.297-1.034.777-1.29.198-.103.678-.201.91-.25.078-.015.128-.025.13-.028.687-.105 1.739-.174 2.894-.174 1.212 0 2.31.07 2.985.197.011 0 .629.128.835.21M6.707 12.89a.94.94 0 0 0-.934.948l-.258 4.58a1.2 1.2 0 0 0 1.192 1.207c.657 0 1.19-.54 1.19-1.208l-.257-4.579a.94.94 0 0 0-.933-.947" clip-rule="evenodd"/></svg>