<svg xmlns="http://www.w3.org/2000/svg" fill="none" viewBox="0 0 24 24"><path fill="#000" fill-rule="evenodd" d="M6.533 17.452c0 .46.369.834.824.834a.83.83 0 0 0 .824-.834v-11.6l2.624 2.665a.816.816 0 0 0 1.165.002.84.84 0 0 0 .002-1.179L7.94 3.245a.82.82 0 0 0-.898-.182.83.83 0 0 0-.51.77zm-3.209-8.69a.82.82 0 0 1-.581-.243.84.84 0 0 1-.002-1.178l1.604-1.63a.82.82 0 0 1 1.165-.003.84.84 0 0 1 .003 1.18L3.908 8.517a.8.8 0 0 1-.584.245M16.86 20.937a.81.81 0 0 0 .898-.183l3.45-3.506a.84.84 0 0 0-.002-1.179.82.82 0 0 0-1.165.002l-2.043 2.077V6.546a.83.83 0 0 0-.824-.833.83.83 0 0 0-.824.833v13.62c0 .338.201.642.51.77m-2.698-2.65a.816.816 0 0 0 1.165.003.84.84 0 0 0 .004-1.178l-1.604-1.63a.82.82 0 0 0-1.166-.003.84.84 0 0 0-.003 1.18z" clip-rule="evenodd"/></svg>