<svg xmlns="http://www.w3.org/2000/svg" fill="none" viewBox="0 0 24 24"><path fill="#000" d="M16.84 5.796a.75.75 0 0 1 .743.649l.007.101v13.618a.75.75 0 0 1-1.494.102l-.006-.102V6.546a.75.75 0 0 1 .75-.75"/><path fill="#000" d="M20.386 15.539a.75.75 0 0 1 1.135.974l-.072.084-4.078 4.097a.75.75 0 0 1-.979.073l-.084-.073-4.078-4.097a.75.75 0 0 1 .98-1.13l.083.072L16.84 19.1zM6.911 3.083a.75.75 0 0 1 .743.648l.007.102V17.45a.75.75 0 0 1-1.493.101l-.007-.101V3.833a.75.75 0 0 1 .75-.75"/><path fill="#000" d="M6.38 3.303a.75.75 0 0 1 .979-.073l.084.073L11.52 7.4a.75.75 0 0 1-.98 1.13l-.084-.072L6.91 4.895 3.364 8.458a.75.75 0 0 1-.976.075l-.085-.072a.75.75 0 0 1-.074-.977l.072-.084z"/></svg>