<svg xmlns="http://www.w3.org/2000/svg" fill="none" viewBox="0 0 24 24"><path fill="#000" fill-rule="evenodd" d="M14.61 1.756a.744.744 0 0 0-.827.662.75.75 0 0 0 .662.828 7.18 7.18 0 0 1 6.378 6.371.75.75 0 1 0 1.49-.168 8.67 8.67 0 0 0-7.702-7.693" clip-rule="evenodd"/><path fill="#000" fill-rule="evenodd" d="M17.292 9.688a.75.75 0 0 0 1.473-.287 5.16 5.16 0 0 0-4.094-4.093.75.75 0 0 0-.285 1.473 3.66 3.66 0 0 1 2.905 2.907m-1.765 4.16c-.998.486-1.862.908-4.11-1.34-2.245-2.246-1.825-3.11-1.338-4.108.705-1.448.99-2.765-2.212-5.402C7.1 2.373 6.27 2.133 5.404 2.3c-1.833.343-3.128 2.383-3.126 2.383C1.466 5.82.354 9.236 7.52 16.404c4.714 4.715 7.806 5.846 9.682 5.846.976 0 1.623-.306 1.997-.575.02-.012 2.078-1.287 2.426-3.156.162-.87-.074-1.696-.7-2.461-2.636-3.2-3.953-2.915-5.4-2.21" clip-rule="evenodd"/></svg>