<svg xmlns="http://www.w3.org/2000/svg" fill="none" viewBox="0 0 24 24"><path fill="#000" fill-rule="evenodd" d="M8.138 2h7.715C19.067 2 20.991 3.951 21 7.21v9.58c0 3.26-1.916 5.21-5.138 5.21h-2.856a.73.73 0 0 1-.644-.729.73.73 0 0 1 .644-.728h2.847c2.456 0 3.693-1.263 3.693-3.753V7.21c0-2.49-1.237-3.753-3.693-3.753H8.138c-2.456 0-3.701 1.263-3.701 3.753v9.58c0 2.49 1.245 3.753 3.7 3.753a.73.73 0 0 1 .644.729.73.73 0 0 1-.643.728C4.925 22 3 20.049 3 16.79V7.21C3 3.943 4.925 2 8.138 2m.252 6.499h2.743a.73.73 0 0 0 .644-.729.73.73 0 0 0-.643-.728H8.39a.73.73 0 0 0-.643.728.73.73 0 0 0 .643.729m7.202 4.23h-7.21A.73.73 0 0 1 7.738 12a.73.73 0 0 1 .644-.729h7.21a.72.72 0 0 1 .692.34.74.74 0 0 1 0 .778.72.72 0 0 1-.692.34m0 4.23h-7.21a.72.72 0 0 1-.714-.725c0-.4.32-.724.714-.724h7.21a.72.72 0 0 1 .714.724c0 .4-.32.724-.714.724" clip-rule="evenodd"/></svg>