<svg xmlns="http://www.w3.org/2000/svg" fill="none" viewBox="0 0 24 24"><path fill="#000" fill-rule="evenodd" d="M15.716 16.974h-7.22a.75.75 0 0 1 0-1.5h7.22a.75.75 0 0 1 0 1.5m0-4.187h-7.22a.75.75 0 0 1 0-1.5h7.22a.75.75 0 0 1 0 1.5M11.25 8.61H8.497a.75.75 0 0 1 0-1.5h2.755a.75.75 0 0 1 0 1.5" clip-rule="evenodd"/><mask id="a" width="19" height="20" x="3" y="2" maskUnits="userSpaceOnUse" style="mask-type:luminance"><path fill="#fff" fill-rule="evenodd" d="M3 2h18.165v19.91H3z" clip-rule="evenodd"/></mask><g mask="url(#a)"><path fill="#000" fill-rule="evenodd" d="m15.909 3.5-7.69.004C5.893 3.518 4.5 4.958 4.5 7.357v9.196c0 2.415 1.406 3.857 3.757 3.857l7.689-.003c2.328-.014 3.72-1.456 3.72-3.854V7.357c0-2.415-1.404-3.857-3.756-3.857M8.257 21.91C5.113 21.91 3 19.757 3 16.553V7.357c0-3.233 2.047-5.334 5.215-5.353L15.908 2c3.145 0 5.257 2.153 5.257 5.357v9.196c0 3.232-2.047 5.334-5.215 5.354z" clip-rule="evenodd"/></g></svg>