<svg xmlns="http://www.w3.org/2000/svg" fill="none" viewBox="0 0 24 24"><path fill="#000" fill-rule="evenodd" d="M12 2.501h-.271c-3.047-.01-5.259 0-6.753.404C3.287 3.363 2.5 4.38 2.5 6.101c0 2.138 1.926 3.776 3.789 5.36h.001c1.642 1.394 3.193 2.713 3.193 4.138 0 3.425 0 5.9 2.517 5.902z" clip-rule="evenodd"/><path fill="#000" d="m12.003 21.501-.003-19h.268c3.056.001 5.26 0 6.755.404 1.689.458 2.477 1.474 2.477 3.196 0 2.138-1.927 3.776-3.79 5.36-1.643 1.394-3.193 2.713-3.193 4.138 0 3.426 0 5.902-2.514 5.902" opacity=".4"/></svg>