<svg xmlns="http://www.w3.org/2000/svg" fill="none" viewBox="0 0 24 24"><path fill="#000" fill-rule="evenodd" d="M3.946 13.075c-.59-.59-.59-1.55 0-2.15l.72-.721c.57-.57.88-1.32.88-2.121v-1.03c0-.83.68-1.51 1.51-1.51h1.03c.8 0 1.55-.311 2.12-.881l.72-.72a1.53 1.53 0 0 1 2.13-.02l.02.02a.75.75 0 1 0 .93-1.17 3.01 3.01 0 0 0-4.14.11l-.72.72c-.28.28-.66.44-1.06.44h-1.03c-1.66 0-3.01 1.35-3.01 3.01v1.031c0 .4-.16.78-.44 1.06l-.73.73a3.02 3.02 0 0 0 .01 4.263c.15.149.34.219.53.219s.39-.08.53-.22a.756.756 0 0 0 0-1.06m16.449-3.929.718.719A3 3 0 0 1 22 11.99a3 3 0 0 1-.876 2.133l-.73.73a1.53 1.53 0 0 0-.44 1.065v1.027a3.015 3.015 0 0 1-3.01 3.012.75.75 0 0 1 0-1.5c.834 0 1.51-.679 1.51-1.512v-1.029a3 3 0 0 1 .878-2.122l.72-.721a1.51 1.51 0 0 0 .002-2.146l-.721-.721a3 3 0 0 1-.878-2.124v-1.03a1.51 1.51 0 0 0-1.511-1.51.75.75 0 0 1 0-1.501c1.66 0 3.01 1.35 3.01 3.012V8.08c.002.401.158.78.44 1.065m-8.396 11.356c.41.015.786-.157 1.072-.447a.75.75 0 0 1 1.061-.003.753.753 0 0 1 .002 1.063A3 3 0 0 1 12 22a3 3 0 0 1-2.123-.874l-.73-.73a1.5 1.5 0 0 0-1.065-.44H7.055a3.014 3.014 0 0 1-3.01-3.01.75.75 0 0 1 1.5 0c0 .833.676 1.51 1.51 1.51h1.028a3 3 0 0 1 2.122.876l.721.722c.292.292.671.448 1.073.448m-3.1-6.463A.75.75 0 0 0 9.96 15.1l5.14-5.142a.75.75 0 0 0-1.06-1.061zm.522-5.464a.869.869 0 1 1-.002 1.738.869.869 0 0 1 .002-1.738m5.149 5.129a.869.869 0 1 1-.002 1.737.869.869 0 0 1 .002-1.737" clip-rule="evenodd"/></svg>