<svg xmlns="http://www.w3.org/2000/svg" fill="none" viewBox="0 0 24 24"><path fill="#000" d="M12 21.998a3 3 0 0 1-2.125-.875l-.73-.73a1.5 1.5 0 0 0-1.064-.439H7.054a3.015 3.015 0 0 1-3.01-3.01v-1.029a1.5 1.5 0 0 0-.44-1.065l-.719-.717a3.015 3.015 0 0 1-.01-4.257l.73-.73c.281-.284.437-.663.438-1.065V7.055a3.015 3.015 0 0 1 3.011-3.012h1.028c.401 0 .78-.156 1.064-.44l.72-.718a3.014 3.014 0 0 1 4.256-.01l.73.73a1.5 1.5 0 0 0 1.063.438h1.028a3.015 3.015 0 0 1 3.011 3.012v1.027c.001.401.157.78.44 1.065l.718.718c.57.566.884 1.32.887 2.125.002.8-.306 1.553-.867 2.122l-.029.03-.71.71a1.5 1.5 0 0 0-.439 1.064v1.027a3.015 3.015 0 0 1-3.01 3.011h-1.029c-.4.001-.78.157-1.064.44l-.719.718c-.586.59-1.36.886-2.133.886" opacity=".4"/><path fill="#000" fill-rule="evenodd" d="M10.043 10.05a.86.86 0 0 1-.616.255.9.9 0 0 1-.615-.255.88.88 0 0 1-.26-.62c0-.218.092-.442.254-.615a.8.8 0 0 1 .3-.194.86.86 0 0 1 .942.193q.128.129.193.275a.8.8 0 0 1 .07.34.84.84 0 0 1-.268.622m5.148-1.24a.88.88 0 0 0-1.238 0l-5.14 5.14a.877.877 0 0 0 .62 1.494.87.87 0 0 0 .617-.256l5.14-5.14a.877.877 0 0 0 0-1.238m-.285 4.954a.885.885 0 0 0-.964.194 1.2 1.2 0 0 0-.18.27.85.85 0 0 0-.06.342.85.85 0 0 0 .25.622.9.9 0 0 0 .625.253c.222 0 .44-.09.619-.257a.87.87 0 0 0 .246-.618.86.86 0 0 0-.247-.62.8.8 0 0 0-.29-.186" clip-rule="evenodd"/></svg>