<svg xmlns="http://www.w3.org/2000/svg" fill="none" viewBox="0 0 24 24"><path stroke="#000" stroke-linecap="round" stroke-linejoin="round" stroke-width="1.5" d="M4.795 7.056a2.26 2.26 0 0 1 2.26-2.262h1.03c.597 0 1.169-.237 1.593-.657l.719-.72a2.26 2.26 0 0 1 3.199-.009v.001l.01.008.72.72a2.26 2.26 0 0 0 1.593.657h1.028a2.26 2.26 0 0 1 2.262 2.262v1.027c0 .597.236 1.17.657 1.594l.72.72c.886.881.89 2.313.01 3.199l-.001.001-.01.009-.72.72a2.26 2.26 0 0 0-.656 1.592v1.029a2.26 2.26 0 0 1-2.261 2.261h-1.031a2.26 2.26 0 0 0-1.593.658l-.72.719a2.26 2.26 0 0 1-3.2.009l-.01-.009-.718-.719a2.26 2.26 0 0 0-1.593-.658H7.056a2.26 2.26 0 0 1-2.261-2.261v-1.031c0-.597-.237-1.169-.658-1.592l-.72-.72a2.26 2.26 0 0 1-.008-3.2l.009-.009.719-.72c.42-.424.658-.996.658-1.594zm4.637 7.516 5.14-5.14"/><path stroke="#000" stroke-linecap="round" stroke-linejoin="round" stroke-width="2" d="M14.496 14.5h.008m-5.008-5h.008"/></svg>