<svg xmlns="http://www.w3.org/2000/svg" fill="none" viewBox="0 0 24 24"><mask id="a" width="21" height="21" x="2" y="2" maskUnits="userSpaceOnUse" style="mask-type:luminance"><path fill="#fff" fill-rule="evenodd" d="M2 2h20.003v20.001H2z" clip-rule="evenodd"/></mask><g mask="url(#a)"><path fill="#000" fill-rule="evenodd" d="M10.945 20.076c.59.575 1.54.569 2.126-.02l.722-.72a3.03 3.03 0 0 1 2.123-.878h1.03c.834 0 1.512-.678 1.512-1.511v-1.03c0-.8.31-1.553.876-2.12l.72-.722a1.51 1.51 0 0 0 .002-2.146l-.721-.723a3 3 0 0 1-.877-2.123V7.056c0-.834-.678-1.512-1.512-1.512h-1.028a3 3 0 0 1-2.121-.874l-.722-.723a1.52 1.52 0 0 0-2.147-.001l-.72.72a3 3 0 0 1-2.124.878h-1.03a1.514 1.514 0 0 0-1.51 1.512V8.08c0 .8-.311 1.554-.875 2.122l-.71.71-.021.021a1.513 1.513 0 0 0 .007 2.138l.722.722c.566.567.877 1.32.877 2.121v1.032c0 .832.677 1.51 1.51 1.51h1.028a3 3 0 0 1 2.122.877l.72.72zM11.999 22a3 3 0 0 1-2.145-.896l-.71-.71a1.5 1.5 0 0 0-1.063-.437H7.055a3.014 3.014 0 0 1-3.011-3.011v-1.031a1.5 1.5 0 0 0-.44-1.064l-.718-.718A3.015 3.015 0 0 1 2.851 9.9l.027-.027.728-.73c.28-.283.438-.662.438-1.063V7.056c0-1.66 1.35-3.011 3.01-3.012h1.03a1.5 1.5 0 0 0 1.066-.44l.715-.717a3.014 3.014 0 0 1 4.259-.011l.73.73a1.5 1.5 0 0 0 1.064.438h1.028a3.015 3.015 0 0 1 3.012 3.012v1.027c0 .4.156.78.439 1.065l.718.719c.569.564.885 1.32.888 2.124a3 3 0 0 1-.875 2.133l-.733.731a1.5 1.5 0 0 0-.437 1.063v1.029a3.015 3.015 0 0 1-3.011 3.01h-1.031c-.396 0-.783.16-1.064.44l-.718.718a3 3 0 0 1-2.135.887" clip-rule="evenodd"/></g><path fill="#000" fill-rule="evenodd" d="M9.43 15.322a.749.749 0 0 1-.53-1.28L14.04 8.9a.75.75 0 1 1 1.061 1.06l-5.14 5.14a.74.74 0 0 1-.53.22m5.072.18a1.003 1.003 0 0 1-1.005-1c0-.554.443-1 .996-1h.01a1 1 0 1 1 0 2m-5.001-5a1.003 1.003 0 0 1-1.005-1c0-.554.443-1 .996-1h.01a1 1 0 1 1 0 2" clip-rule="evenodd"/></svg>