<svg xmlns="http://www.w3.org/2000/svg" fill="none" viewBox="0 0 24 24"><path fill="#000" fill-rule="evenodd" d="m3.289 4.088.072-.076C5.29 2.084 6.544 1.574 7.883 2.344c.385.221.746.531 1.238 1.03l1.506 1.562c.832.908 1.021 1.779.75 2.799l-.037.135-.042.134-.201.59c-.431 1.326-.251 2.073 1.283 3.606 1.594 1.595 2.339 1.725 3.766 1.226l.254-.088.308-.1.134-.037c1.084-.29 2-.059 2.971.912l1.214 1.172.357.352c.396.404.658.724.851 1.062.766 1.339.254 2.593-1.729 4.569l-.188.19a3.5 3.5 0 0 1-.98.684c-.681.323-1.487.446-2.424.315-2.307-.32-5.234-2.141-8.942-5.849a52 52 0 0 1-.868-.888l-.537-.572C1.537 9.683 1.094 6.326 3.155 4.22zm4.617.193c-.325-.321-.562-.517-.77-.637-.462-.265-.96-.153-1.883.64l-.29.26-.155.145-.332.323-.03.038-.225.226c-.544.556-.802 1.235-.58 2.402.365 1.915 2.033 4.513 5.391 7.87 3.5 3.498 6.165 5.156 8.089 5.424 1.121.156 1.693-.116 2.277-.714l.444-.448q.313-.328.538-.597l.205-.26c.525-.698.573-1.117.348-1.51a3 3 0 0 0-.39-.513l-.245-.259-.145-.145-1.532-1.479c-.511-.472-.861-.539-1.392-.397l-.153.044-.635.215c-1.84.595-3.167.306-5.122-1.648-2.025-2.024-2.262-3.376-1.584-5.322l.044-.125.12-.362.06-.232c.104-.503-.016-.853-.556-1.394l-.075-.075z" clip-rule="evenodd"/></svg>