<svg xmlns="http://www.w3.org/2000/svg" fill="none" viewBox="0 0 24 24"><path fill="#000" fill-rule="evenodd" d="m19.06 10.158-.212-.374C15.862 4.474 14.006 2.5 12 2.5S8.138 4.474 5.152 9.784l-.21.374c-1.074 1.882-3.304 5.797-2.89 8.133C2.54 21.054 5.385 21.5 12 21.5s9.461-.446 9.948-3.209c.414-2.336-1.816-6.251-2.888-8.133" clip-rule="evenodd" opacity=".4"/><path fill="#000" d="M11.25 15.895c0 .414.34.75.755.75a.75.75 0 0 0 0-1.5h-.01a.746.746 0 0 0-.744.75M12 7.75a.75.75 0 0 0-.75.75v3.895a.75.75 0 0 0 1.5 0V8.5a.75.75 0 0 0-.75-.75"/></svg>