<svg xmlns="http://www.w3.org/2000/svg" fill="none" viewBox="0 0 24 24"><path fill="#000" fill-rule="evenodd" d="M12.75 13.94v4.037h-1.5V13.94z" clip-rule="evenodd"/><path fill="#000" fill-rule="evenodd" d="M2.005 5.13h19.99v7.68l-.371.217c-2.589 1.515-5.973 2.413-9.63 2.413-3.656 0-7.03-.898-9.618-2.413l-.371-.217zm1.5 1.5v5.312c2.285 1.241 5.245 1.998 8.49 1.998s6.214-.757 8.5-1.998V6.63z" clip-rule="evenodd"/><path fill="#000" fill-rule="evenodd" d="M9.007 2.55h5.986l1.493 3.452-1.376.595-1.103-2.547H9.993L8.89 6.597l-1.377-.595zM3.503 14.418l.19 5.532h16.614l.19-5.532 1.499.051-.24 6.981H2.244l-.24-6.98z" clip-rule="evenodd"/></svg>