<svg xmlns="http://www.w3.org/2000/svg" fill="none" viewBox="0 0 24 24"><path fill="#000" fill-rule="evenodd" d="m9.658 15.195-1.06-1.061 5.535-5.535 1.06 1.061zm5.166-.373h-1.5l-.008-1.5h1.508zm-4.353-5.853v1.5h-1.5l-.006-1.5zm11.081 2.633a6.52 6.52 0 0 1-2.516-6.074l.09-.653-.654.09a6.53 6.53 0 0 1-6.074-2.517L12 1.923l-.399.525a6.52 6.52 0 0 1-6.074 2.517l-.653-.09.09.653a6.52 6.52 0 0 1-2.516 6.074L1.923 12l.525.399a6.52 6.52 0 0 1 2.516 6.074l-.09.653.653-.09a6.53 6.53 0 0 1 6.074 2.516l.4.525.397-.525a6.53 6.53 0 0 1 6.074-2.516l.654.09-.09-.653a6.52 6.52 0 0 1 2.516-6.074l.525-.399z" clip-rule="evenodd"/></svg>