<svg xmlns="http://www.w3.org/2000/svg" fill="none" viewBox="0 0 24 24"><path stroke="#000" stroke-linecap="square" stroke-linejoin="round" stroke-width="1.5" d="m9.658 14.134 4.475-4.475m-.067 4.413h.008M9.715 9.72h.007"/><path stroke="#000" stroke-linecap="square" stroke-width="1.5" d="M4.884 14.659a7 7 0 0 0-2.134-2.66 7.01 7.01 0 0 0 2.71-6.54A7.01 7.01 0 0 0 12 2.75a7.01 7.01 0 0 0 6.541 2.71 7 7 0 0 0 .468 3.638M21.25 12a7.01 7.01 0 0 0-2.71 6.541 7.01 7.01 0 0 0-6.54 2.71 7.01 7.01 0 0 0-6.541-2.71"/></svg>