<svg xmlns="http://www.w3.org/2000/svg" fill="none" viewBox="0 0 24 24"><path fill="#000" fill-rule="evenodd" d="M21.552 11.602a6.52 6.52 0 0 1-2.516-6.074l.09-.653-.654.09a6.53 6.53 0 0 1-6.074-2.517L12 1.923l-.399.525a6.52 6.52 0 0 1-6.074 2.517l-.653-.09.09.653a6.52 6.52 0 0 1-2.516 6.074L1.923 12l.525.399a6.52 6.52 0 0 1 2.516 6.074l-.09.653.653-.09a6.53 6.53 0 0 1 6.074 2.516l.4.525.397-.525a6.53 6.53 0 0 1 6.074-2.516l.654.09-.09-.653a6.52 6.52 0 0 1 2.516-6.074l.525-.399z" clip-rule="evenodd" opacity=".4"/><path fill="#000" d="m8.597 14.134 1.061 1.06 5.535-5.534-1.06-1.061zm4.727.688h1.5v-1.5h-1.508zm-2.853-4.353v-1.5H8.965l.006 1.5z"/></svg>