<svg xmlns="http://www.w3.org/2000/svg" fill="none" viewBox="0 0 24 24"><path stroke="#000" stroke-linecap="square" stroke-linejoin="round" stroke-width="1.5" d="m9.658 14.134 4.475-4.475m-.067 4.413h.008M9.715 9.719h.007"/><path stroke="#000" stroke-linecap="square" stroke-width="1.5" d="M12 2.75a7.01 7.01 0 0 0 6.54 2.71A7.01 7.01 0 0 0 21.25 12a7.01 7.01 0 0 0-2.71 6.54A7.01 7.01 0 0 0 12 21.25a7.01 7.01 0 0 0-6.54-2.71A7.01 7.01 0 0 0 2.75 12a7.01 7.01 0 0 0 2.71-6.54A7.01 7.01 0 0 0 12 2.75Z"/></svg>