<svg xmlns="http://www.w3.org/2000/svg" fill="none" viewBox="0 0 24 24"><path fill="#000" fill-rule="evenodd" d="m15.194 9.66-5.536 5.535-1.06-1.061 5.535-5.535zm-1.878 3.662h1.508v1.5h-1.508zM8.965 8.969h1.507v1.5H8.965z" clip-rule="evenodd"/><path fill="#000" fill-rule="evenodd" d="m12 1.509.598.788a6.26 6.26 0 0 0 5.84 2.42l.98-.135-.134.98a6.26 6.26 0 0 0 2.42 5.84l.787.598-.788.598a6.26 6.26 0 0 0-2.42 5.84l.136.98-.98-.134a6.26 6.26 0 0 0-5.841 2.42L12 22.49l-.598-.788a6.26 6.26 0 0 0-5.84-2.42l-.98.136.134-.98a6.26 6.26 0 0 0-2.42-5.841L1.51 12l.788-.598a6.26 6.26 0 0 0 2.42-5.84l-.135-.98.98.134a6.26 6.26 0 0 0 5.84-2.42zM6.273 6.273A7.76 7.76 0 0 1 3.901 12a7.76 7.76 0 0 1 2.372 5.727A7.76 7.76 0 0 1 12 20.099a7.76 7.76 0 0 1 5.727-2.372A7.76 7.76 0 0 1 20.099 12a7.76 7.76 0 0 1-2.372-5.727A7.76 7.76 0 0 1 12 3.901a7.76 7.76 0 0 1-5.727 2.372" clip-rule="evenodd"/></svg>