<svg xmlns="http://www.w3.org/2000/svg" fill="none" viewBox="0 0 24 24"><path fill="#000" fill-rule="evenodd" d="M17.44 6.236c.04.07.11.12.2.12 2.4 0 4.36 1.958 4.36 4.355v5.934A4.37 4.37 0 0 1 17.64 21H6.36A4.36 4.36 0 0 1 2 16.645V10.71a4.36 4.36 0 0 1 4.36-4.355c.08 0 .16-.04.19-.12l.06-.12.106-.222a98 98 0 0 1 .714-1.486C7.89 3.51 8.67 3.01 9.64 3h4.71c.97.01 1.76.51 2.22 1.408.157.315.397.822.629 1.31l.141.299zm-.73 3.836c0 .5.4.9.9.9s.91-.4.91-.9-.41-.909-.91-.909-.9.41-.9.91m-6.44 1.548c.47-.47 1.08-.719 1.73-.719s1.26.25 1.72.71.71 1.068.71 1.717A2.44 2.44 0 0 1 12 15.756c-.65 0-1.26-.25-1.72-.71a2.4 2.4 0 0 1-.71-1.717v-.01c-.01-.63.24-1.24.7-1.699m4.5 4.485a3.9 3.9 0 0 1-2.77 1.15 3.92 3.92 0 0 1-3.93-3.926 3.87 3.87 0 0 1 1.14-2.767A3.92 3.92 0 0 1 12 9.402c1.05 0 2.04.41 2.78 1.15a3.94 3.94 0 0 1 1.15 2.777 3.96 3.96 0 0 1-1.16 2.776" clip-rule="evenodd"/></svg>