<svg xmlns="http://www.w3.org/2000/svg" fill="none" viewBox="0 0 24 24"><path fill="#000" fill-rule="evenodd" d="M17.638 6.355c-.082 0-.157-.047-.228-.196a83 83 0 0 0-.841-1.75c-.458-.902-1.244-1.402-2.221-1.409H9.646c-.97.007-1.757.507-2.215 1.41a80 80 0 0 0-.817 1.7l-.059.125a.21.21 0 0 1-.192.12A4.365 4.365 0 0 0 2 10.713v5.93A4.365 4.365 0 0 0 6.363 21h.745a.75.75 0 1 0 0-1.498h-.745a2.864 2.864 0 0 1-2.863-2.86v-5.93a2.864 2.864 0 0 1 2.863-2.858 1.72 1.72 0 0 0 1.548-.98l.059-.124c.273-.58.601-1.273.799-1.663.205-.404.48-.586.884-.589h4.689c.41.003.684.185.889.588s.545 1.124.859 1.789a1.72 1.72 0 0 0 1.548.979 2.864 2.864 0 0 1 2.862 2.859v5.93a2.864 2.864 0 0 1-2.862 2.859H10.58a.75.75 0 1 0 0 1.498h7.058A4.365 4.365 0 0 0 22 16.643v-5.93a4.365 4.365 0 0 0-4.362-4.358m-5.637 10.9a3.9 3.9 0 0 0 2.788-1.166 3.85 3.85 0 0 0 1.14-2.762 3.9 3.9 0 0 0-1.154-2.779A3.9 3.9 0 0 0 12 9.396h-.002a3.8 3.8 0 0 0-.855.095.748.748 0 1 0 .327 1.46q.26-.056.529-.056a2.4 2.4 0 0 1 1.714.713c.462.461.716 1.07.715 1.724a2.38 2.38 0 0 1-.704 1.701 2.42 2.42 0 0 1-1.724.723h-.002a2.4 2.4 0 0 1-1.716-.716 2.41 2.41 0 0 1-.596-2.452.75.75 0 0 0-1.43-.454 3.9 3.9 0 0 0-.185 1.185A3.9 3.9 0 0 0 9.22 16.1a3.9 3.9 0 0 0 2.777 1.155zm5.98-6.503c-.07.07-.15.13-.24.17a.7.7 0 0 1-.29.05.747.747 0 0 1-.75-.75c0-.09.02-.19.06-.278.04-.09.1-.18.16-.25.07-.06.16-.12.25-.16a.8.8 0 0 1 .57 0c.09.04.18.1.24.16.07.07.13.16.17.25a.72.72 0 0 1-.17.808" clip-rule="evenodd"/></svg>