<svg xmlns="http://www.w3.org/2000/svg" fill="none" viewBox="0 0 24 24"><path fill="#000" fill-rule="evenodd" d="M7.194 4.831c.402-.73.84-1.218 1.488-1.477 1.19-.472 5.448-.472 6.636 0 .648.259 1.086.747 1.488 1.477l.452.867.028.046.039.052c.206.225.55.36.778.36A3.897 3.897 0 0 1 22 10.052v5.795a4.97 4.97 0 0 1-4.97 4.97H6.97A4.97 4.97 0 0 1 2 15.847v-5.795a3.897 3.897 0 0 1 3.897-3.896c.227 0 .572-.136.779-.36l.016-.02.051-.079zm8.298.724c-.25-.454-.476-.706-.73-.807l-.118-.04c-1.03-.29-4.61-.277-5.407.04-.253.1-.48.353-.729.807l-.385.744-.094.171c-.08.132-.158.243-.249.341-.506.55-1.256.845-1.883.845l-.164.006a2.397 2.397 0 0 0-2.233 2.39v5.795a3.47 3.47 0 0 0 3.47 3.47h10.06a3.47 3.47 0 0 0 3.47-3.47v-5.795a2.397 2.397 0 0 0-2.397-2.396l-.174-.007a2.7 2.7 0 0 1-1.71-.839 2 2 0 0 1-.287-.41l-.116-.218z" clip-rule="evenodd"/><path fill="#000" d="M17.505 8.5a1 1 0 0 1 .116 1.993l-.116.007a1 1 0 0 1-.126-1.993z"/><path fill="#000" fill-rule="evenodd" d="M8.07 13.128a3.929 3.929 0 1 1 7.858 0 3.929 3.929 0 0 1-7.857 0m6.359 0a2.429 2.429 0 1 0-4.857 0 2.429 2.429 0 0 0 4.857 0" clip-rule="evenodd"/></svg>