<svg xmlns="http://www.w3.org/2000/svg" fill="none" viewBox="0 0 24 24"><path stroke="#000" stroke-linecap="round" stroke-linejoin="round" stroke-width="1.5" d="M15.04 4.051c1.01.402 1.32 1.802 1.732 2.252.413.45 1.004.603 1.331.603a3.147 3.147 0 0 1 3.147 3.146v5.795a4.22 4.22 0 0 1-4.22 4.22H6.97a4.22 4.22 0 0 1-4.22-4.22v-5.795a3.147 3.147 0 0 1 3.147-3.146c.326 0 .917-.153 1.331-.603s.721-1.85 1.731-2.252 5.071-.402 6.081 0" clip-rule="evenodd"/><path stroke="#000" stroke-linecap="round" stroke-linejoin="round" stroke-width="2" d="M17.496 9.5h.009"/><path stroke="#000" stroke-linecap="round" stroke-linejoin="round" stroke-width="1.5" d="M15.179 13.128a3.179 3.179 0 1 0-6.357 0 3.179 3.179 0 0 0 6.357 0" clip-rule="evenodd"/></svg>