<svg xmlns="http://www.w3.org/2000/svg" fill="none" viewBox="0 0 24 24"><path fill="#000" fill-rule="evenodd" d="M5.062 8.938A6.94 6.94 0 0 1 12 2v1.5a5.44 5.44 0 0 0-5.438 5.438v4.888l-1.613 1.635v1.646H19.05v-1.646l-1.613-1.635V8.938h1.5v4.273l1.613 1.634v3.762H3.45v-3.762l1.612-1.634z" clip-rule="evenodd"/><path fill="#000" fill-rule="evenodd" d="M8.084 18.083v-.226h1.5v.226a2.417 2.417 0 0 0 4.833 0v-.226h1.5v.226a3.917 3.917 0 1 1-7.833 0M16.338 3.23a1.595 1.595 0 1 0 0 3.189 1.595 1.595 0 0 0 0-3.19m-3.095 1.594a3.095 3.095 0 1 1 6.19 0 3.095 3.095 0 0 1-6.19 0" clip-rule="evenodd"/></svg>