<svg xmlns="http://www.w3.org/2000/svg" fill="none" viewBox="0 0 24 24"><path fill="#000" fill-rule="evenodd" d="M15.101 9.96 9.96 15.101a.747.747 0 0 1-1.06 0 .75.75 0 0 1 0-1.061l5.14-5.141a.75.75 0 1 1 1.061 1.061m-.597 5.29a.755.755 0 0 1-.755-.75c0-.414.332-.75.747-.75h.008a.75.75 0 0 1 0 1.5m-5.008-6.5h.008a.75.75 0 0 1 0 1.5.755.755 0 0 1-.755-.75c0-.414.332-.75.747-.75M12 2.25c-7.198 0-9.75 2.552-9.75 9.75s2.552 9.75 9.75 9.75 9.75-2.552 9.75-9.75S19.199 2.25 12 2.25" clip-rule="evenodd"/></svg>