<svg xmlns="http://www.w3.org/2000/svg" fill="none" viewBox="0 0 24 24"><path fill="#000" fill-rule="evenodd" d="M12 2.25c-7.198 0-9.75 2.552-9.75 9.75s2.552 9.75 9.75 9.75 9.75-2.552 9.75-9.75S19.199 2.25 12 2.25" clip-rule="evenodd" opacity=".4"/><path fill="#000" d="m9.96 15.1 5.14-5.14a.75.75 0 1 0-1.06-1.061l-5.14 5.14a.75.75 0 0 0 1.06 1.062m3.788-.601c0 .414.341.75.755.75a.75.75 0 0 0 0-1.5h-.008a.747.747 0 0 0-.747.75M9.503 8.75h-.008a.747.747 0 0 0-.747.75c0 .414.341.75.755.75a.75.75 0 0 0 0-1.5"/></svg>