<svg xmlns="http://www.w3.org/2000/svg" fill="none" viewBox="0 0 24 24"><path fill="#000" fill-rule="evenodd" d="M13.616 2.66a.734.734 0 0 1 .815-.654c4.004.447 7.115 3.576 7.564 7.608a.74.74 0 0 1-.732.825.74.74 0 0 1-.731-.659c-.373-3.338-2.948-5.93-6.264-6.3a.74.74 0 0 1-.652-.82m-9.78 2.962c-.505.7-.47 1.598.073 2.8a.744.744 0 0 1-.365.982.734.734 0 0 1-.975-.368c-.772-1.708-.759-3.134.043-4.236.169-.287 2.038-2.702 3.787-2.586.505.041.969.28 1.405.708.462.454 2.41 2.838 2.566 3.596.168.811-.194 1.445-.458 1.908-.26.457-.351.652-.262.898.658 1.62 1.673 2.942 3.008 3.902.331.24.408.702.171 1.036a.734.734 0 0 1-1.027.172c-1.565-1.126-2.751-2.665-3.527-4.577-.34-.945.064-1.653.36-2.17.222-.388.344-.62.292-.866-.137-.357-1.574-2.27-2.152-2.837-.18-.177-.347-.28-.472-.29-.662-.031-2.14 1.384-2.467 1.928m11.27 8.565c.55-.348 1.304-.822 2.261-.623.751.156 3.118 2.117 3.57 2.584.425.437.662.904.702 1.389.064 1.82-2.36 3.725-2.637 3.885-.53.384-1.149.578-1.845.578-.693 0-1.463-.192-2.297-.581-3.207-1.344-8.058-5.692-10.784-9.683a.745.745 0 0 1 .189-1.031.734.734 0 0 1 1.024.191c2.546 3.726 7.201 7.923 10.164 9.165 1.2.56 2.092.594 2.755.115.516-.316 1.987-1.787 1.96-2.552-.008-.09-.11-.26-.284-.44-.566-.583-2.463-2.029-2.86-2.18-.316-.063-.638.125-1.134.438l-.255.16a.735.735 0 0 1-1.01-.253.745.745 0 0 1 .25-1.019zm1.956-4.339a.74.74 0 0 0 .864.587c.4-.078.66-.469.582-.87a5.08 5.08 0 0 0-4.018-4.046.75.75 0 0 0-.865.586.743.743 0 0 0 .583.87 3.61 3.61 0 0 1 2.854 2.873" clip-rule="evenodd"/></svg>