<svg xmlns="http://www.w3.org/2000/svg" fill="none" viewBox="0 0 24 24"><mask id="a" width="9" height="9" x="14" y="2" maskUnits="userSpaceOnUse" style="mask-type:luminance"><path fill="#fff" fill-rule="evenodd" d="M14.354 2h8.539v8.533h-8.539z" clip-rule="evenodd"/></mask><g mask="url(#a)"><path fill="#000" fill-rule="evenodd" d="M22.143 10.533a.75.75 0 0 1-.744-.666 7.18 7.18 0 0 0-6.378-6.37.75.75 0 0 1-.662-.829.743.743 0 0 1 .828-.662A8.67 8.67 0 0 1 22.889 9.7a.75.75 0 0 1-.746.834" clip-rule="evenodd"/></g><path fill="#000" fill-rule="evenodd" d="M18.603 10.544a.75.75 0 0 1-.735-.606A3.66 3.66 0 0 0 14.96 7.03a.75.75 0 1 1 .286-1.472A5.15 5.15 0 0 1 19.34 9.65a.75.75 0 0 1-.737.894M3.289 4.088l.072-.076C5.29 2.084 6.544 1.574 7.883 2.344c.385.221.746.531 1.238 1.03l1.506 1.562c.832.908 1.021 1.779.75 2.799l-.037.135-.042.134-.201.59c-.431 1.326-.251 2.073 1.283 3.606 1.594 1.595 2.339 1.725 3.766 1.226l.254-.088.308-.1.134-.037c1.084-.29 2-.059 2.971.912l1.214 1.172.357.352c.396.404.658.724.851 1.062.766 1.339.254 2.593-1.729 4.569l-.188.19a3.5 3.5 0 0 1-.98.684c-.681.323-1.487.446-2.424.315-2.307-.32-5.234-2.141-8.942-5.849a52 52 0 0 1-.868-.888l-.537-.572C1.537 9.683 1.094 6.326 3.155 4.22zm4.617.193c-.325-.321-.562-.517-.77-.637-.462-.265-.96-.153-1.883.64l-.29.26-.155.145-.332.323-.03.038-.225.226c-.544.556-.802 1.235-.58 2.402.365 1.915 2.033 4.513 5.391 7.87 3.5 3.498 6.165 5.156 8.089 5.424 1.121.156 1.693-.116 2.277-.714l.444-.448q.313-.328.538-.597l.205-.26c.525-.698.573-1.117.348-1.51a3 3 0 0 0-.39-.513l-.245-.259-.145-.145-1.532-1.479c-.511-.472-.861-.539-1.392-.397l-.153.044-.635.215c-1.84.595-3.167.306-5.122-1.648-2.025-2.024-2.262-3.376-1.584-5.322l.044-.125.12-.362.06-.232c.104-.503-.016-.853-.556-1.394l-.075-.075z" clip-rule="evenodd"/></svg>