<svg xmlns="http://www.w3.org/2000/svg" fill="none" viewBox="0 0 24 24"><path stroke="#000" stroke-linecap="square" stroke-width="1.5" d="M13.245 7.254h5.642"/><path stroke="#000" stroke-linecap="square" stroke-width="1.5" d="M9.26 7.194a2.62 2.62 0 0 0-2.63-2.611A2.62 2.62 0 0 0 4 7.193a2.62 2.62 0 0 0 2.63 2.612 2.62 2.62 0 0 0 2.63-2.611Z" clip-rule="evenodd"/><path stroke="#000" stroke-linecap="square" stroke-width="1.5" d="M10.755 16.867H5.113"/><path stroke="#000" stroke-linecap="square" stroke-width="1.5" d="M14.74 16.806a2.62 2.62 0 0 1 2.63-2.612A2.62 2.62 0 0 1 20 16.806a2.62 2.62 0 0 1-2.63 2.613 2.62 2.62 0 0 1-2.63-2.613Z" clip-rule="evenodd"/></svg>