<svg xmlns="http://www.w3.org/2000/svg" fill="none" viewBox="0 0 24 24"><path fill="#000" fill-rule="evenodd" d="M8.495 6.504h11.142v1.5H8.495z" clip-rule="evenodd"/><path fill="#000" fill-rule="evenodd" d="M3.25 7.194c0-1.861 1.519-3.361 3.38-3.361 1.862 0 3.38 1.5 3.38 3.36 0 1.862-1.518 3.362-3.38 3.362s-3.38-1.5-3.38-3.361m3.38-1.861a1.87 1.87 0 0 0-1.88 1.86 1.87 1.87 0 0 0 1.88 1.862 1.87 1.87 0 0 0 1.88-1.861 1.87 1.87 0 0 0-1.88-1.861m8.875 10.784H4.363v1.5h11.142z" clip-rule="evenodd"/><path fill="#000" fill-rule="evenodd" d="M20.75 16.806c0-1.861-1.519-3.361-3.38-3.361-1.862 0-3.38 1.5-3.38 3.361s1.518 3.362 3.38 3.362 3.38-1.5 3.38-3.362m-3.38-1.861a1.87 1.87 0 0 1 1.88 1.861 1.87 1.87 0 0 1-1.88 1.862 1.87 1.87 0 0 1-1.88-1.862 1.87 1.87 0 0 1 1.88-1.861" clip-rule="evenodd"/></svg>