<svg xmlns="http://www.w3.org/2000/svg" fill="none" viewBox="0 0 24 24"><path fill="#000" fill-rule="evenodd" d="M4.93 4.272C6.464 2.582 8.839 2 12.04 2c.927 0 1.782.051 2.552.157a.75.75 0 0 1 .415.2l5.67 5.4a.75.75 0 0 1 .221.41c.2 1.107.292 2.384.292 3.833 0 3.5-.519 6.065-2.032 7.732C17.624 21.42 15.246 22 12.04 22c-3.2 0-5.577-.58-7.109-2.269C3.419 18.065 2.901 15.5 2.901 12c0-3.495.518-6.06 2.03-7.728M6.043 5.28C4.932 6.505 4.4 8.565 4.4 12c0 3.44.531 5.5 1.642 6.723 1.09 1.202 2.91 1.777 5.998 1.777 3.095 0 4.916-.575 6.008-1.777C19.158 17.5 19.69 15.44 19.69 12c0-1.282-.075-2.386-.227-3.328l-5.312-5.06a18 18 0 0 0-2.11-.112c-3.09 0-4.908.577-5.999 1.78" clip-rule="evenodd"/><path fill="#000" fill-rule="evenodd" d="M13.934 2.083a.75.75 0 0 1 .75.75v2.66a2.613 2.613 0 0 0 2.614 2.614h2.951a.75.75 0 0 1 0 1.5H17.3a4.113 4.113 0 0 1-4.115-4.113V2.833a.75.75 0 0 1 .75-.75M8.662 12.98a.75.75 0 0 1 .75-.75h4.9a.75.75 0 0 1 0 1.5h-4.9a.75.75 0 0 1-.75-.75" clip-rule="evenodd"/><path fill="#000" fill-rule="evenodd" d="M11.863 9.78a.75.75 0 0 1 .75.75v4.9a.75.75 0 1 1-1.5 0v-4.9a.75.75 0 0 1 .75-.75" clip-rule="evenodd"/></svg>