<svg xmlns="http://www.w3.org/2000/svg" fill="none" viewBox="0 0 24 24"><path fill="#000" fill-rule="evenodd" d="M5.304 5.304C4.08 6.527 3.5 8.574 3.5 12c0 3.427.58 5.473 1.804 6.696C6.527 19.92 8.573 20.5 12 20.5s5.473-.58 6.696-1.804C19.919 17.473 20.5 15.427 20.5 12s-.581-5.473-1.804-6.696S15.426 3.5 12 3.5c-3.427 0-5.473.581-6.696 1.804m-1.061-1.06C5.911 2.575 8.49 2 12 2s6.089.576 7.756 2.243C21.425 5.911 22 8.49 22 12s-.576 6.09-2.244 7.757C18.09 21.425 15.51 22 12 22s-6.09-.575-7.757-2.243C2.575 18.089 2 15.51 2 12s.575-6.089 2.243-7.757" clip-rule="evenodd"/><path fill="#000" fill-rule="evenodd" d="M12 7.355a.75.75 0 0 1 .75.75V12a.75.75 0 0 1-1.5 0V8.105a.75.75 0 0 1 .75-.75m-.755 8.145a.75.75 0 0 1 .75-.75h.01a.75.75 0 0 1 0 1.5h-.01a.75.75 0 0 1-.75-.75" clip-rule="evenodd"/></svg>