<svg xmlns="http://www.w3.org/2000/svg" fill="none" viewBox="0 0 24 24"><path fill="#000" fill-rule="evenodd" d="M17.18 4.41c0-1.33 1.08-2.41 2.41-2.41S22 3.08 22 4.41s-1.08 2.41-2.41 2.41-2.41-1.08-2.41-2.41m-3.85 10.35 2.89-3.73-.04.02c.16-.22.19-.5.08-.75a.74.74 0 0 0-.61-.44.77.77 0 0 0-.7.31l-2.42 3.13-2.77-2.18a.8.8 0 0 0-.57-.16.78.78 0 0 0-.5.3l-2.96 3.85-.06.09a.75.75 0 0 0 .21.95c.14.09.29.15.46.15.23.01.45-.11.59-.3l2.51-3.23 2.85 2.14.09.06c.32.17.72.09.95-.21m2.12-10.98q-.06.375-.06.75c0 2.25 1.82 4.07 4.06 4.07.25 0 .49-.03.74-.07v8.07c0 3.39-2 5.4-5.4 5.4H7.4C4 22 2 19.99 2 16.6V9.2c0-3.4 2-5.42 5.4-5.42z" clip-rule="evenodd"/></svg>