<svg xmlns="http://www.w3.org/2000/svg" fill="none" viewBox="0 0 24 24"><path fill="#000" fill-rule="evenodd" d="M19.402 7.185c1.051 0 2-.632 2.401-1.602a2.59 2.59 0 0 0-.567-2.827A2.6 2.6 0 0 0 18.4 2.2a2.592 2.592 0 0 0 1 4.985m0-3.703a1.121 1.121 0 1 1-1.123 1.12c0-.619.503-1.12 1.123-1.12M3.476 15.995c0 2.927 1.617 4.532 4.543 4.532a.75.75 0 0 1 .742.741.74.74 0 0 1-.742.732C4.307 22 2 19.698 2 15.995V8.79c0-3.712 2.307-6.014 6.019-6.014h6.504a.74.74 0 0 1 .734.74.73.73 0 0 1-.743.733H8.02c-2.926 0-4.543 1.613-4.543 4.541zm10.393-1.923a.8.8 0 0 1-.495.283.74.74 0 0 1-.539-.16l-2.713-2.124-2.44 3.165a.734.734 0 0 1-1.033.15.74.74 0 0 1-.133-1.031l2.89-3.757a.743.743 0 0 1 1.043-.132l2.713 2.125 2.386-3.042a.735.735 0 0 1 .953-.05.73.73 0 0 1 .196.931zm6.69-5.282a.733.733 0 0 0-.733.732v6.473c-.027 2.927-1.644 4.532-4.57 4.532h-2.951a.75.75 0 0 0-.742.741.74.74 0 0 0 .742.732h2.952c3.712 0 6.027-2.302 6.027-6.005V9.522c0-.4-.323-.727-.725-.732" clip-rule="evenodd"/></svg>