<svg xmlns="http://www.w3.org/2000/svg" fill="none" viewBox="0 0 24 24"><path fill="#000" fill-rule="evenodd" d="M7.641 22h8.717C19.732 22 22 19.632 22 16.107v-1.415a.7.7 0 0 0-.263-.545c-.219-.175-.444-.37-.675-.57l-.009-.008-.007-.006c-1.234-1.067-2.77-2.393-4.698-1.944-1.397.324-2.114 1.382-2.746 2.315l-.004.005-.001.002c-.42.62-.815 1.205-1.368 1.546-.543.338-1.189.097-2.113-.307l-.157-.07c-1.686-.734-3.069-.523-4.23.647a.7.7 0 0 0 .004.987.696.696 0 0 0 .986-.004c.747-.753 1.525-.855 2.683-.349l.154.067h.002c.93.407 2.2.962 3.405.216.807-.5 1.307-1.238 1.79-1.952.56-.827 1.044-1.542 1.911-1.743 1.24-.287 2.375.694 3.474 1.644l.002.002.049.042q.21.184.415.355v1.085c0 2.733-1.667 4.497-4.246 4.497H7.641c-2.579 0-4.246-1.764-4.246-4.497V7.893c0-2.733 1.667-4.497 4.246-4.497h8.718c2.58 0 4.245 1.764 4.245 4.497v2.37a.699.699 0 0 0 1.396 0v-2.37C22 4.368 19.733 2 16.36 2H7.64C4.266 2 2 4.368 2 7.893v8.214C2 19.632 4.266 22 7.64 22m1.213-10.66a2.56 2.56 0 0 1-2.558-2.56 2.56 2.56 0 0 1 2.558-2.558 2.56 2.56 0 0 1 2.558 2.558 2.56 2.56 0 0 1-2.558 2.56m0-3.722c-.641 0-1.163.521-1.163 1.162a1.164 1.164 0 0 0 2.326 0c0-.64-.521-1.162-1.163-1.162" clip-rule="evenodd"/></svg>