<svg xmlns="http://www.w3.org/2000/svg" fill="none" viewBox="0 0 24 24"><mask id="a" width="20" height="20" x="2" y="2" maskUnits="userSpaceOnUse" style="mask-type:luminance"><path fill="#fff" fill-rule="evenodd" d="M2 2h19.953v19.954H2z" clip-rule="evenodd"/></mask><g mask="url(#a)"><path fill="#000" fill-rule="evenodd" d="M7.651 3.5c-2.52 0-4.15 1.729-4.15 4.404v8.146c0 2.676 1.63 4.404 4.15 4.404h8.646c2.525 0 4.156-1.728 4.156-4.404V7.904c.002-1.363-.414-2.501-1.202-3.29-.728-.729-1.747-1.114-2.949-1.114zm8.646 18.454H7.651c-3.38 0-5.65-2.373-5.65-5.904V7.904C2 4.373 4.27 2 7.65 2h8.651c1.608 0 2.995.537 4.01 1.554 1.061 1.062 1.643 2.607 1.641 4.351v8.145c0 3.531-2.273 5.904-5.656 5.904" clip-rule="evenodd"/></g><path fill="#000" fill-rule="evenodd" d="M8.856 7.69a1.096 1.096 0 1 0 .003 2.192 1.096 1.096 0 0 0-.003-2.192m.001 3.69a2.6 2.6 0 0 1-2.596-2.594A2.6 2.6 0 0 1 8.857 6.19a2.6 2.6 0 0 1 2.596 2.595 2.6 2.6 0 0 1-2.596 2.596m-5.108 8.73a.75.75 0 0 1-.653-1.117c.06-.108 1.495-2.645 3.074-3.945 1.252-1.03 2.6-.464 3.686-.007.639.27 1.243.523 1.823.523.532 0 1.199-.94 1.789-1.769.819-1.156 1.749-2.464 3.11-2.464 2.17 0 4.044 1.936 5.05 2.976l.117.12a.75.75 0 0 1-.016 1.061.75.75 0 0 1-1.06-.016l-.118-.122c-.852-.88-2.438-2.519-3.972-2.519-.588 0-1.278.973-1.89 1.832-.837 1.18-1.704 2.401-3.01 2.401-.883 0-1.692-.34-2.405-.64-1.134-.479-1.648-.632-2.151-.218-1.364 1.124-2.706 3.498-2.72 3.521a.75.75 0 0 1-.654.383" clip-rule="evenodd"/></svg>