<svg xmlns="http://www.w3.org/2000/svg" fill="none" viewBox="0 0 24 24"><path stroke="#000" stroke-linecap="round" stroke-linejoin="round" stroke-width="1.5" d="M11.961 16.517v-2.628m9.129-2.411-.03.02c-2.421 1.493-5.62 2.394-9.103 2.394-3.484 0-6.673-.901-9.094-2.393l-.03-.022" opacity=".4"/><path stroke="#000" stroke-linecap="round" stroke-linejoin="round" stroke-width="1.5" d="M2.75 13.35c0-6.151 2.303-8.202 9.211-8.202 6.91 0 9.211 2.05 9.211 8.203s-2.302 8.203-9.21 8.203S2.75 19.503 2.75 13.35" clip-rule="evenodd"/><path stroke="#000" stroke-linecap="round" stroke-linejoin="round" stroke-width="1.5" d="M15.224 5.37v-.63c0-1.265-.923-2.29-2.06-2.29h-2.405c-1.137 0-2.06 1.025-2.06 2.29v.63" opacity=".4"/></svg>