<svg xmlns="http://www.w3.org/2000/svg" fill="none" viewBox="0 0 24 24"><path fill="#000" d="M16.62 22H7.38c-2.69 0-4.88-2.169-4.88-4.835v-5.33C2.5 9.17 4.69 7 7.38 7h9.24c2.69 0 4.88 2.169 4.88 4.835v5.33C21.5 19.83 19.31 22 16.62 22" opacity=".4"/><path fill="#000" d="M15.755 10a.734.734 0 0 1-.745-.722V6.357c0-1.606-1.346-2.912-3.001-2.912a3.13 3.13 0 0 0-2.13.843 2.85 2.85 0 0 0-.89 2.055v2.935a.734.734 0 0 1-.744.722.734.734 0 0 1-.745-.722V6.357a4.27 4.27 0 0 1 1.33-3.094c.85-.82 1.95-1.231 3.182-1.263C14.485 2 16.5 3.954 16.5 6.357v2.92a.734.734 0 0 1-.745.723"/></svg>