<svg xmlns="http://www.w3.org/2000/svg" fill="none" viewBox="0 0 24 24"><mask id="a" width="10" height="9" x="7" y="2" maskUnits="userSpaceOnUse" style="mask-type:luminance"><path fill="#fff" fill-rule="evenodd" d="M7.21 2h9.063v8.306H7.21z" clip-rule="evenodd"/></mask><g mask="url(#a)"><path fill="#000" fill-rule="evenodd" d="M15.523 10.306a.75.75 0 0 1-.75-.75V6.524A3.026 3.026 0 0 0 11.75 3.5c-.811.028-1.571.308-2.145.876a3 3 0 0 0-.895 2.133v3.047a.75.75 0 0 1-1.5 0V6.524A4.5 4.5 0 0 1 8.55 3.31c.858-.85 2.01-1.275 3.204-1.31a4.527 4.527 0 0 1 4.519 4.524v3.032a.75.75 0 0 1-.75.75" clip-rule="evenodd"/></g><mask id="b" width="20" height="16" x="2" y="6" maskUnits="userSpaceOnUse" style="mask-type:luminance"><path fill="#fff" fill-rule="evenodd" d="M2 6.475h19.5V22H2z" clip-rule="evenodd"/></mask><g mask="url(#b)"><path fill="#000" fill-rule="evenodd" d="M7.008 7.975A3.51 3.51 0 0 0 3.5 11.48v5.516A3.51 3.51 0 0 0 7.008 20.5h9.484A3.51 3.51 0 0 0 20 16.996V11.48a3.51 3.51 0 0 0-3.508-3.505zM16.492 22H7.008A5.01 5.01 0 0 1 2 16.996V11.48a5.01 5.01 0 0 1 5.008-5.005h9.484A5.01 5.01 0 0 1 21.5 11.48v5.516A5.01 5.01 0 0 1 16.492 22" clip-rule="evenodd"/></g></svg>