<svg xmlns="http://www.w3.org/2000/svg" fill="none" viewBox="0 0 24 24"><path fill="#000" fill-rule="evenodd" d="M10.485 16.244H4.012a1 1 0 1 0 0 2h6.473a1 1 0 1 0 0-2m9.504-10.489h-6.471a1 1 0 1 0 0 2h6.47a1 1 0 1 0 0-2" clip-rule="evenodd" opacity=".4"/><path fill="#000" fill-rule="evenodd" d="M17.267 14.024c-2.318 0-3.222.903-3.222 3.222s.904 3.222 3.222 3.222c2.32 0 3.222-.904 3.222-3.222 0-2.32-.903-3.222-3.222-3.222M6.734 9.977c2.319 0 3.222-.903 3.222-3.223 0-2.318-.903-3.221-3.222-3.221s-3.222.903-3.222 3.22c0 2.32.903 3.224 3.222 3.224" clip-rule="evenodd"/></svg>