<svg xmlns="http://www.w3.org/2000/svg" fill="none" viewBox="0 0 24 24"><path fill="#000" fill-rule="evenodd" d="M3.261 17.245a.75.75 0 0 1 .75-.75h6.473a.75.75 0 0 1 0 1.5H4.01a.75.75 0 0 1-.75-.75m11.35-2.656c.648-.648 1.595-.815 2.657-.815s2.009.167 2.656.815.816 1.594.816 2.656-.168 2.01-.816 2.657-1.594.815-2.656.815-2.009-.167-2.656-.815-.816-1.594-.816-2.657.168-2.009.816-2.657m1.061 1.06c-.203.203-.376.617-.376 1.597 0 .979.173 1.393.376 1.596s.617.375 1.596.375 1.393-.172 1.596-.375.376-.617.376-1.596-.173-1.394-.376-1.597c-.203-.202-.617-.375-1.596-.375s-1.393.173-1.596.375m-2.905-8.892a.75.75 0 0 1 .75-.75h6.471a.75.75 0 0 1 0 1.5h-6.471a.75.75 0 0 1-.75-.75M4.076 4.098c.648-.648 1.595-.815 2.658-.815s2.009.167 2.656.815.816 1.594.816 2.657-.168 2.009-.816 2.657c-.648.647-1.594.814-2.656.814s-2.01-.167-2.658-.814c-.648-.648-.815-1.595-.815-2.657s.168-2.01.815-2.657m1.06 1.06c-.202.204-.375.618-.375 1.597s.173 1.393.376 1.596.617.375 1.597.375c.979 0 1.393-.172 1.596-.375s.375-.617.375-1.596-.172-1.393-.375-1.596-.618-.376-1.596-.376c-.98 0-1.394.173-1.597.376" clip-rule="evenodd"/></svg>