<svg xmlns="http://www.w3.org/2000/svg" fill="none" viewBox="0 0 24 24"><path fill="#000" fill-rule="evenodd" d="M21.887 10.481A10 10 0 0 1 22 12c0 5.514-4.485 10-10 10S2 17.514 2 12 6.486 2 12 2a9.94 9.94 0 0 1 7.927 3.902.728.728 0 0 1-1.152.888A8.49 8.49 0 0 0 12 3.454c-4.713 0-8.547 3.833-8.547 8.546S7.287 20.545 12 20.545c4.711 0 8.546-3.833 8.546-8.545a8.6 8.6 0 0 0-.099-1.299.728.728 0 0 1 1.439-.22m-12.68 1.518c0-.199.078-.39.22-.53l3.486-3.472a.75.75 0 1 1 1.06 1.062L11.018 12l2.953 2.94a.75.75 0 1 1-1.059 1.063L9.427 12.53a.74.74 0 0 1-.22-.53" clip-rule="evenodd"/></svg>