<svg xmlns="http://www.w3.org/2000/svg" fill="none" viewBox="0 0 24 24"><path fill="#000" fill-rule="evenodd" d="M12 3.5c-4.687 0-8.5 3.813-8.5 8.5s3.813 8.5 8.5 8.5 8.5-3.813 8.5-8.5-3.813-8.5-8.5-8.5M12 22C6.486 22 2 17.514 2 12S6.486 2 12 2s10 4.486 10 10-4.486 10-10 10" clip-rule="evenodd"/><path fill="#000" fill-rule="evenodd" d="M13.442 16.22a.75.75 0 0 1-.529-.218l-3.487-3.47a.75.75 0 0 1 0-1.063l3.487-3.471a.749.749 0 1 1 1.058 1.063L11.02 12l2.952 2.94a.749.749 0 0 1-.529 1.28" clip-rule="evenodd"/></svg>