<svg xmlns="http://www.w3.org/2000/svg" fill="none" viewBox="0 0 24 24"><path fill="#000" fill-rule="evenodd" d="M19.826 11.31a4.06 4.06 0 0 1 .674 2.05l-.027.184a4.14 4.14 0 0 1-.94 2.754 4.9 4.9 0 0 1-3.123 1.54 40.7 40.7 0 0 1-8.872 0 4.83 4.83 0 0 1-3.07-1.54 4.08 4.08 0 0 1-.967-2.736v-.123a4.2 4.2 0 0 1 .728-2.103l.07-.088c.445-.5.751-1.107.888-1.76V7.675a.764.764 0 0 1 1.464.159v1.812a.5.5 0 0 1 0 .097 5.26 5.26 0 0 1-1.225 2.446 2.53 2.53 0 0 0-.39 1.25v.193c-.02.623.188 1.233.586 1.716a3.32 3.32 0 0 0 2.076.986c2.854.308 5.733.308 8.588 0a3.33 3.33 0 0 0 2.12-1.03 2.55 2.55 0 0 0 .56-1.663v-.202a2.6 2.6 0 0 0-.382-1.259 5.27 5.27 0 0 1-1.296-2.446.5.5 0 0 1 0-.097V7.816c-.257-2.657-2.927-4.303-5.252-4.303a5.76 5.76 0 0 0-2.821.73.77.77 0 0 1-.777.006.755.755 0 0 1 .032-1.325A7.25 7.25 0 0 1 11.965 2c3.07 0 6.512 2.165 6.903 5.64v1.813c.133.654.439 1.261.887 1.76q.04.045.07.096m-7.574 9.12c.52-.077.99-.358 1.301-.78h.01a.77.77 0 0 1 1.077-.1.755.755 0 0 1 .102 1.069A3.56 3.56 0 0 1 11.956 22a3.56 3.56 0 0 1-2.777-1.381.755.755 0 0 1 .102-1.07.77.77 0 0 1 1.078.102q.18.236.417.413a2 2 0 0 0 1.476.367" clip-rule="evenodd"/></svg>