<svg xmlns="http://www.w3.org/2000/svg" fill="none" viewBox="0 0 24 24"><mask id="a" width="10" height="14" x="2" y="2" maskUnits="userSpaceOnUse" style="mask-type:luminance"><path fill="#fff" fill-rule="evenodd" d="M2 2h9.295v13.104H2z" clip-rule="evenodd"/></mask><g mask="url(#a)"><path fill="#000" fill-rule="evenodd" d="M6.725 15.105a.75.75 0 0 1-.562-.255C.821 8.799 1.587 5.665 3.171 4.1c.016-.02.071-.074.088-.092C4.663 2.583 5.623 2 6.56 2h.03c1.11.014 1.895.853 2.89 1.916q.364.393.803.843c1.43 1.46 1.024 2.647.697 3.601-.236.691-.442 1.29-.068 2.14a.75.75 0 1 1-1.373.604c-.609-1.389-.245-2.453.022-3.23.29-.843.434-1.266-.348-2.063q-.453-.463-.83-.87c-.779-.834-1.343-1.436-1.813-1.44h-.008c-.467 0-1.198.51-2.234 1.56l.003-.003c.002 0-.045.05-.106.11-2.142 2.115 1 6.353 3.062 8.69a.75.75 0 0 1-.562 1.246" clip-rule="evenodd"/></g><path fill="#000" fill-rule="evenodd" d="M17.963 22.817c-2.291 0-5.23-1.739-8.737-5.172a.75.75 0 1 1 1.049-1.072c4.059 3.973 6.43 4.801 7.753 4.743.965-.02 1.42-.509 1.64-.743q.09-.097.145-.145c.993-1.016 1.494-1.764 1.488-2.248-.007-.493-.602-1.07-1.426-1.872a49 49 0 0 1-.842-.83c-.767-.783-1.147-.647-1.982-.345-1.028.37-2.438.88-4.485-.804a.75.75 0 0 1-.104-1.055.75.75 0 0 1 1.055-.103c1.39 1.138 2.11.878 3.026.55.894-.322 2.119-.76 3.56.704.29.296.565.562.817.808 1.043 1.013 1.866 1.813 1.88 2.93.013.951-.556 1.924-1.958 3.356l-.096.098.048-.049c-.303.324-1.137 1.213-2.732 1.248z" clip-rule="evenodd"/><path fill="#000" fill-rule="evenodd" d="M4.64 22.4a.75.75 0 0 1-.547-1.263l15-16a.75.75 0 0 1 1.094 1.026l-15 16a.75.75 0 0 1-.548.236" clip-rule="evenodd"/></svg>