<svg xmlns="http://www.w3.org/2000/svg" fill="none" viewBox="0 0 24 24"><path fill="#000" fill-rule="evenodd" d="M10.482 2.114A10 10 0 0 1 12 2c5.514 0 10 4.486 10 10s-4.486 10-10 10S2 17.514 2 12a9.94 9.94 0 0 1 3.901-7.927.728.728 0 0 1 .888 1.153A8.49 8.49 0 0 0 3.454 12c0 4.712 3.833 8.546 8.547 8.546 4.711 0 8.545-3.834 8.545-8.546S16.712 3.454 12 3.454a8.6 8.6 0 0 0-1.3.098.728.728 0 0 1-.22-1.438M12 14.794a.75.75 0 0 1-.531-.22l-3.471-3.487a.75.75 0 1 1 1.062-1.059L12 12.981l2.94-2.953a.75.75 0 1 1 1.063 1.06l-3.472 3.485a.74.74 0 0 1-.531.221" clip-rule="evenodd"/></svg>