<svg xmlns="http://www.w3.org/2000/svg" fill="none" viewBox="0 0 24 24"><path fill="#000" fill-rule="evenodd" d="M12 3.5c-4.687 0-8.5 3.813-8.5 8.5s3.813 8.5 8.5 8.5 8.5-3.813 8.5-8.5-3.813-8.5-8.5-8.5M12 22C6.486 22 2 17.514 2 12S6.486 2 12 2s10 4.486 10 10-4.486 10-10 10" clip-rule="evenodd"/><path fill="#000" fill-rule="evenodd" d="M12 14.794a.75.75 0 0 1-.531-.221l-3.47-3.486a.75.75 0 1 1 1.062-1.06L12 12.983l2.94-2.954a.75.75 0 1 1 1.063 1.059l-3.472 3.486a.75.75 0 0 1-.531.22" clip-rule="evenodd"/></svg>