<svg xmlns="http://www.w3.org/2000/svg" fill="none" viewBox="0 0 24 24"><path stroke="#000" stroke-linecap="square" stroke-width="1.5" d="M5.973 20.515a10.8 10.8 0 0 1-3.223-1.29c.979-3.093 3.633-4.526 6.764-4.518 3.128-.008 5.787 1.428 6.764 4.519-1.97 1.2-4.29 1.664-6.764 1.658"/><path stroke="#000" stroke-linecap="square" stroke-width="1.5" d="M18.812 17.946a8.3 8.3 0 0 0 2.438-.978c-.746-2.361-2.777-3.457-5.165-3.451-1.504-.004-2.864.428-3.852 1.337M9.514 3.116a4.237 4.237 0 1 1-3.85 2.467"/><path stroke="#000" stroke-linecap="square" stroke-width="1.5" d="M13.714 5.67a3.24 3.24 0 1 1 2.346 5.479"/></svg>