<svg xmlns="http://www.w3.org/2000/svg" fill="none" viewBox="0 0 24 24"><path fill="#000" fill-rule="evenodd" d="M9.481 3.866a3.495 3.495 0 1 0-.001 6.99 3.495 3.495 0 0 0 .001-6.99M4.485 7.36a4.995 4.995 0 1 1 9.99.001 4.995 4.995 0 0 1-9.99 0" clip-rule="evenodd"/><path fill="#000" fill-rule="evenodd" d="M16.06 5.416c-.733 0-1.39.315-1.848.819l-.503.555-1.112-1.007.504-.556a3.991 3.991 0 1 1-.396 4.845l-.407-.63 1.26-.814.407.63a2.491 2.491 0 1 0 2.095-3.842M3.673 18.887c1.703.888 3.683 1.252 5.84 1.247h.003c2.156.005 4.136-.36 5.839-1.247-.984-2.319-3.161-3.437-5.839-3.43h-.004c-2.681-.007-4.855 1.108-5.839 3.43m5.841-4.93c-3.37-.008-6.378 1.56-7.48 5.043l-.176.56.502.306c2.123 1.295 4.59 1.774 7.154 1.768 2.564.006 5.031-.473 7.155-1.768l.502-.306-.178-.56c-1.1-3.48-4.112-5.051-7.479-5.043" clip-rule="evenodd"/><path fill="#000" fill-rule="evenodd" d="M16.083 14.266c-1.364-.004-2.526.387-3.343 1.14l-.551.507-1.016-1.104.552-.508c1.159-1.066 2.717-1.539 4.36-1.535 2.628-.006 5.011 1.226 5.88 3.975l.178.56-.502.306c-1.658 1.01-3.578 1.38-5.557 1.376l-.75-.002.003-1.5.75.002c1.564.003 2.993-.25 4.227-.857-.746-1.59-2.296-2.365-4.227-2.36z" clip-rule="evenodd"/></svg>