<svg xmlns="http://www.w3.org/2000/svg" fill="none" viewBox="0 0 24 24"><path fill="#000" fill-rule="evenodd" d="M21.375 11.516a12.37 12.37 0 0 1-8.891-8.891L12 .746l-.484 1.878a12.37 12.37 0 0 1-8.89 8.89L.747 12l1.877.486a12.37 12.37 0 0 1 8.891 8.89L12 23.253l.484-1.878a12.37 12.37 0 0 1 8.891-8.89l1.877-.486z" clip-rule="evenodd"/><path fill="#000" fill-rule="evenodd" d="M18.751 7.747c0-1.162 1.274-2.5 2.5-2.5-1.18 0-2.5-1.35-2.5-2.497 0 1.147-1.308 2.498-2.498 2.498 1.145 0 2.498 1.33 2.498 2.499" clip-rule="evenodd"/></svg>