<svg xmlns="http://www.w3.org/2000/svg" fill="none" viewBox="0 0 24 24"><path fill="#000" fill-rule="evenodd" d="M21.375 11.516a12.37 12.37 0 0 1-8.891-8.891L12 .748l-.484 1.877a12.37 12.37 0 0 1-8.89 8.89L.747 12l1.877.485a12.37 12.37 0 0 1 8.891 8.89L12 23.253l.484-1.878a12.37 12.37 0 0 1 8.891-8.89L23.252 12z" clip-rule="evenodd" opacity=".4"/><path fill="#000" fill-rule="evenodd" d="M18.75 7.747c0-1.162 1.275-2.499 2.5-2.499-1.18 0-2.5-1.351-2.5-2.498 0 1.147-1.307 2.498-2.497 2.498 1.145 0 2.498 1.33 2.498 2.499" clip-rule="evenodd"/></svg>