<svg xmlns="http://www.w3.org/2000/svg" fill="none" viewBox="0 0 24 24"><path fill="#000" fill-rule="evenodd" d="M11.229 2.678a17 17 0 0 1-.567 1.616 12.2 12.2 0 0 1-5.037 5.693 13.3 13.3 0 0 1-2.698 1.164l-.375.109v1.458l.143.036c.362.094 1.283.423 1.718.615a13 13 0 0 1 2.712 1.649c.474.378 1.461 1.365 1.84 1.839a12.3 12.3 0 0 1 2.07 3.832c.111.343.215.658.231.7l.03.076.708-.01.71-.008.16-.52a12.3 12.3 0 0 1 2.129-4.037c.384-.483 1.2-1.312 1.709-1.739a12.2 12.2 0 0 1 3.01-1.845c.348-.149 1.27-.47 1.583-.552l.143-.037v-1.461l-.226-.06c-.408-.11-1.19-.39-1.65-.593A12.2 12.2 0 0 1 13.22 4.03c-.145-.357-.418-1.172-.465-1.386l-.023-.11h-1.467zm7.493.381c-.029.21-.204.61-.383.873-.445.655-1.081 1.103-1.8 1.267-.09.021-.078.029.139.084.462.119.907.395 1.304.808.38.396.606.778.718 1.214.055.215.063.229.083.138.063-.284.175-.577.311-.81.2-.343.737-.885 1.067-1.076.258-.149.688-.307.84-.309.125-.001.044-.048-.14-.081-.485-.088-1.175-.57-1.58-1.103-.179-.236-.43-.746-.465-.942q-.057-.328-.094-.063m-6.538 2.349a14 14 0 0 0 .415.795c1.344 2.376 3.41 4.335 5.807 5.506.289.141.526.264.527.274s-.212.122-.474.251c-2.733 1.344-5.025 3.665-6.298 6.376l-.162.346-.234-.473a12 12 0 0 0-.89-1.542 13.3 13.3 0 0 0-3.833-3.833 11.5 11.5 0 0 0-1.552-.894l-.464-.226.382-.182c2.714-1.29 4.993-3.549 6.34-6.283A5 5 0 0 1 12 5.049c.01 0 .093.162.185.359" clip-rule="evenodd"/></svg>