<svg xmlns="http://www.w3.org/2000/svg" fill="none" viewBox="0 0 24 24"><path fill="#000" fill-rule="evenodd" d="M12 2.25c-7.199 0-9.75 2.551-9.75 9.75s2.551 9.75 9.75 9.75 9.75-2.552 9.75-9.75S19.199 2.25 12 2.25" clip-rule="evenodd" opacity=".4"/><path fill="#000" d="M14.21 13.9a1.003 1.003 0 0 0 2.003 0 1 1 0 0 0-1-1h-.009a.995.995 0 0 0-.995 1m-2.999-4a1.003 1.003 0 0 0 2.003 0 1 1 0 0 0-1-1h-.009a.995.995 0 0 0-.995 1m-3.009 4c0 .553.453 1 1.005 1a1 1 0 1 0 0-2h-.009a.996.996 0 0 0-.996 1"/></svg>