<svg xmlns="http://www.w3.org/2000/svg" fill="none" viewBox="0 0 24 24"><path fill="#000" fill-rule="evenodd" d="M12.75 16.36v5.89h-1.5v-5.89z" clip-rule="evenodd"/><path fill="#000" fill-rule="evenodd" d="M15.47 22.25H8.53v-1.5h6.94zm5.785-15.39v5.89h-1.5V6.86zm-17.01 0v5.89h-1.5V6.86zM12 3.25a3.546 3.546 0 0 0-3.535 3.555v6A3.545 3.545 0 0 0 12 16.36a3.544 3.544 0 0 0 3.536-3.554v-6A3.545 3.545 0 0 0 12 3.25M6.965 6.805C6.965 4.017 9.216 1.75 12 1.75c2.786 0 5.036 2.267 5.036 5.055v6c0 2.79-2.25 5.055-5.036 5.055-2.783 0-5.035-2.266-5.035-5.054z" clip-rule="evenodd"/></svg>