<svg xmlns="http://www.w3.org/2000/svg" fill="none" viewBox="0 0 24 24"><path stroke="#000" stroke-linecap="round" stroke-linejoin="round" stroke-width="1.5" d="M2.75 12c0 6.937 2.313 9.25 9.25 9.25s9.25-2.313 9.25-9.25S18.937 2.75 12 2.75 2.75 5.063 2.75 12" clip-rule="evenodd"/><path stroke="#000" stroke-linecap="round" stroke-linejoin="round" stroke-width="1.5" d="M10.599 8.784a1.76 1.76 0 1 1-3.521.001 1.76 1.76 0 0 1 3.52 0" clip-rule="evenodd" opacity=".4"/><path stroke="#000" stroke-linecap="round" stroke-linejoin="round" stroke-width="1.5" d="M21.12 14.666c-.88-.906-2.127-2.737-4.416-2.737s-2.339 4.038-4.675 4.038c-2.337 0-3.278-1.37-4.8-.655-1.523.715-2.763 3.561-2.763 3.561" opacity=".4"/></svg>