<svg xmlns="http://www.w3.org/2000/svg" fill="none" viewBox="0 0 24 24"><path fill="#000" fill-rule="evenodd" d="M17.01 14.601a.75.75 0 0 0 .75-.75V12a.75.75 0 0 0-.75-.75h-5.69A2.6 2.6 0 0 0 8.84 9.4 2.604 2.604 0 0 0 6.239 12a2.604 2.604 0 0 0 2.6 2.602 2.6 2.6 0 0 0 2.479-1.852h2.112v1.102a.75.75 0 0 0 1.5 0V12.75h1.33v1.102c0 .414.336.75.75.75M7.667 2h8.669C19.723 2 22 4.377 22 7.916v8.167C22 19.623 19.723 22 16.334 22H7.666C4.276 22 2 19.622 2 16.083V7.916C2 4.377 4.277 2 7.666 2m.073 10c0-.608.495-1.102 1.102-1.102s1.102.494 1.102 1.102a1.103 1.103 0 0 1-2.204 0" clip-rule="evenodd"/></svg>