<svg xmlns="http://www.w3.org/2000/svg" fill="none" viewBox="0 0 24 24"><mask id="a" width="20" height="20" x="2" y="2" maskUnits="userSpaceOnUse" style="mask-type:luminance"><path fill="#fff" fill-rule="evenodd" d="M2 2h20v20H2z" clip-rule="evenodd"/></mask><g mask="url(#a)"><path fill="#000" fill-rule="evenodd" d="M7.664 3.5C5.135 3.5 3.5 5.233 3.5 7.916v8.168c0 2.683 1.635 4.416 4.164 4.416h8.668c2.532 0 4.168-1.733 4.168-4.416V7.916c0-2.683-1.636-4.416-4.166-4.416zM16.332 22H7.664C4.276 22 2 19.622 2 16.084V7.916C2 4.378 4.276 2 7.664 2h8.67C19.723 2 22 4.378 22 7.916v8.168C22 19.622 19.723 22 16.332 22" clip-rule="evenodd"/></g><path fill="#000" fill-rule="evenodd" d="M8.839 10.898a1.103 1.103 0 0 0-.002 2.204c.607 0 1.102-.494 1.102-1.102 0-.607-.494-1.1-1.1-1.102m-.002 3.704A2.605 2.605 0 0 1 6.235 12a2.605 2.605 0 0 1 2.602-2.602A2.605 2.605 0 0 1 11.439 12a2.605 2.605 0 0 1-2.602 2.602" clip-rule="evenodd"/><path fill="#000" fill-rule="evenodd" d="M17.01 14.603a.75.75 0 0 1-.75-.75v-1.104h-5.568a.75.75 0 1 1 0-1.5h6.318a.75.75 0 0 1 .75.75v1.853a.75.75 0 0 1-.75.75" clip-rule="evenodd"/><path fill="#000" fill-rule="evenodd" d="M14.182 14.603a.75.75 0 0 1-.75-.75v-1.854a.75.75 0 0 1 1.5 0v1.853a.75.75 0 0 1-.75.75" clip-rule="evenodd"/></svg>