<svg xmlns="http://www.w3.org/2000/svg" fill="none" viewBox="0 0 24 24"><path fill="#000" fill-rule="evenodd" d="M14.46 4.082v3.739h-1.5V4.082zm0 12.496v3.372h-1.5v-3.372zm0-7.358v5.959h-1.5v-5.96z" clip-rule="evenodd"/><path fill="#000" fill-rule="evenodd" d="M2 3.85h20v6.912h-.75c-.71 0-1.263.56-1.263 1.24 0 .677.553 1.237 1.263 1.237H22v6.911H2v-6.91h.75c.71 0 1.263-.56 1.263-1.239 0-.64-.513-1.161-1.263-1.161H2zm1.5 1.5v4.086c1.139.3 2.013 1.275 2.013 2.565A2.74 2.74 0 0 1 3.5 14.638v4.012h17v-4.012A2.74 2.74 0 0 1 18.487 12c0-1.264.854-2.315 2.013-2.637V5.35z" clip-rule="evenodd"/></svg>