<svg xmlns="http://www.w3.org/2000/svg" fill="none" viewBox="0 0 24 24"><path fill="#000" fill-rule="evenodd" d="M2 12C2 6.485 6.486 2 12 2s10 4.485 10 10-4.486 10-10 10a9.94 9.94 0 0 1-7.927-3.902.727.727 0 0 1 1.152-.888A8.5 8.5 0 0 0 12 20.546c4.712 0 8.545-3.833 8.545-8.546S16.712 3.454 12 3.454 3.454 7.288 3.454 12q0 .659.098 1.299a.728.728 0 0 1-1.438.22A10 10 0 0 1 2 11.999m5.52-1.196c.661 0 1.198.537 1.198 1.196a1.199 1.199 0 0 1-2.396 0c0-.66.538-1.196 1.198-1.196m4.48 0c.66 0 1.198.537 1.198 1.196a1.2 1.2 0 0 1-2.396 0c0-.66.537-1.196 1.198-1.196M17.677 12a1.198 1.198 0 0 0-2.396 0 1.2 1.2 0 0 0 2.396 0" clip-rule="evenodd"/></svg>