<svg xmlns="http://www.w3.org/2000/svg" fill="none" viewBox="0 0 24 24"><path fill="#000" d="M22 12c0 5.524-4.477 10-10 10S2 17.524 2 12C2 6.478 6.477 2 12 2s10 4.478 10 10" opacity=".4"/><path fill="#000" fill-rule="evenodd" d="M7.521 10.804c-.66 0-1.198.537-1.198 1.195a1.2 1.2 0 0 0 1.198 1.198A1.2 1.2 0 0 0 8.72 12c0-.66-.537-1.197-1.198-1.197m4.48 0c-.662 0-1.199.537-1.199 1.195a1.2 1.2 0 0 0 1.197 1.2A1.2 1.2 0 0 0 13.198 12c0-.66-.537-1.197-1.198-1.197m3.28 1.195a1.198 1.198 0 0 1 2.397 0 1.2 1.2 0 0 1-1.198 1.198A1.2 1.2 0 0 1 15.282 12" clip-rule="evenodd"/></svg>