<svg xmlns="http://www.w3.org/2000/svg" fill="none" viewBox="0 0 24 24"><path fill="#000" fill-rule="evenodd" d="M12 3.5c-4.687 0-8.5 3.813-8.5 8.5s3.813 8.5 8.5 8.5 8.5-3.813 8.5-8.5-3.813-8.5-8.5-8.5M12 22C6.486 22 2 17.514 2 12S6.486 2 12 2s10 4.486 10 10-4.486 10-10 10" clip-rule="evenodd"/><path fill="#000" fill-rule="evenodd" d="M15.948 13.014a1.003 1.003 0 0 1-1.005-1c0-.553.443-1 .995-1h.01a1 1 0 1 1 0 2m-4.01 0a1.003 1.003 0 0 1-1.004-1c0-.553.442-1 .995-1h.01a1 1 0 1 1 0 2m-4.009 0a1.003 1.003 0 0 1-1.005-1c0-.553.443-1 .996-1h.009a1 1 0 1 1 0 2" clip-rule="evenodd"/></svg>