<svg xmlns="http://www.w3.org/2000/svg" fill="none" viewBox="0 0 24 24"><path fill="#000" fill-rule="evenodd" d="M18.964 5.85c1.32.6 2.15 1.85 2.35 3.52.08.63.06 1.3-.03 1.97-.28 2.01-1.25 4.02-2.54 5.03-.98.76-2.23 1.13-3.5 1.3-.77.11-1.55.14-2.28.14-.26 0-.52 0-.77-.01-1.84-.05-4.18-.26-5.87-1.46-2.27-1.61-2.01-5.029-1.78-8.058V8.28l.009-.114c.077-.988.15-1.928.121-2.766.04-1.25-1.26-1.5-1.41-1.52a.76.76 0 0 1-.62-.86c.07-.4.45-.67.85-.62.94.14 2.69.94 2.68 2.94l.002.15a.353.353 0 0 0 .367.344c1.927-.088 3.844-.176 5.771-.244 1.08-.04 2.15-.07 3.23-.09q.135-.001.265-.005.131-.005.265-.005l.037-.001c.9-.03 1.906-.063 2.853.361m-6.08 5.04h2.77a.749.749 0 1 0 0-1.5h-2.77c-.41 0-.75.34-.75.75s.34.75.75.75" clip-rule="evenodd"/><path fill="#000" d="M7.148 19.017a1.296 1.296 0 0 0 0 2.589 1.296 1.296 0 0 0 0-2.589m10.331 0a1.295 1.295 0 1 0 .001 2.59 1.295 1.295 0 0 0-.001-2.59"/></svg>