<svg xmlns="http://www.w3.org/2000/svg" fill="none" viewBox="0 0 24 24"><path stroke="#000" stroke-linecap="round" stroke-linejoin="round" stroke-width="1.5" d="M9.007 6.642c2.31-.109 5.478-.375 6.551-.389 1.025-.013 2.135-.147 3.098.286 3.303 1.487 1.91 7.462-.373 9.236-1.59 1.236-4.135 1.328-6.066 1.278-1.792-.045-3.954-.25-5.462-1.324-2.599-1.851-1.24-6.895-1.326-10.344.051-1.93-2.044-2.243-2.044-2.243m9.5 7h2.773"/><path fill="#000" fill-rule="evenodd" d="M7.149 19.769a.545.545 0 1 1-.001 1.089.545.545 0 0 1 .001-1.09" clip-rule="evenodd"/><path stroke="#000" stroke-linecap="round" stroke-linejoin="round" stroke-width="1.5" d="M7.149 19.769a.545.545 0 1 1-.001 1.089.545.545 0 0 1 .001-1.09" clip-rule="evenodd"/><path fill="#000" fill-rule="evenodd" d="M17.48 19.769a.545.545 0 1 1 0 1.09.545.545 0 0 1 0-1.09" clip-rule="evenodd"/><path stroke="#000" stroke-linecap="round" stroke-linejoin="round" stroke-width="1.5" d="M17.48 19.769a.545.545 0 1 1 0 1.09.545.545 0 0 1 0-1.09" clip-rule="evenodd"/></svg>