<svg xmlns="http://www.w3.org/2000/svg" fill="none" viewBox="0 0 24 24"><path fill="#000" fill-rule="evenodd" d="M16.391 11.645c-.986 1.694-2.634 2.738-4.313 2.738h-.142c-1.654 0-3.302-1.044-4.288-2.738l-.378-.648 1.297-.755.377.648c.57.98 1.656 2.044 3.063 1.992 1.417.044 2.518-1.012 3.088-1.992l.377-.648 1.296.755zm1.05-8.275c-2.098-.676-4.007-.113-5.44 1.585-1.436-1.698-3.345-2.26-5.442-1.585-2.646.853-4.297 3.245-4.309 6.241-.025 5.134 4.916 9.156 9.548 11.207l.203.09.203-.09c4.631-2.052 9.571-6.074 9.546-11.208-.012-2.996-1.663-5.387-4.31-6.24" clip-rule="evenodd"/></svg>