<svg xmlns="http://www.w3.org/2000/svg" fill="none" viewBox="0 0 24 24"><path fill="#000" fill-rule="evenodd" d="M17.44 3.37c-2.097-.676-4.006-.113-5.44 1.585-1.435-1.698-3.344-2.26-5.44-1.585-2.647.853-4.298 3.245-4.31 6.241-.025 5.134 4.916 9.156 9.548 11.207l.203.09.203-.09c4.631-2.052 9.571-6.074 9.546-11.208-.012-2.996-1.663-5.387-4.31-6.24" clip-rule="evenodd" opacity=".4"/><path fill="#000" d="M12.078 14.384c1.679 0 3.327-1.044 4.313-2.738l.377-.648-1.296-.755-.377.648c-.57.98-1.671 2.036-3.088 1.992-1.407.052-2.493-1.013-3.063-1.992l-.377-.648-1.297.755.378.648c.986 1.694 2.633 2.738 4.288 2.738z"/></svg>