<svg xmlns="http://www.w3.org/2000/svg" fill="none" viewBox="0 0 24 24"><path fill="#000" fill-rule="evenodd" d="M14.988 2.768c0-.422.343-.765.765-.765C19.608 2 22 4.392 22 8.243v7.504C22 19.607 19.608 22 15.756 22h-7.5C4.393 22 2 19.608 2 15.747v-7.5C2 4.41 4.393 2 8.253 2h2.569c.417 0 .756.339.756.756v.009h-.017a.765.765 0 0 1-.764.765H8.253C5.2 3.53 3.53 5.2 3.53 8.244v7.5c0 3.046 1.68 4.726 4.723 4.726h7.5c3.034 0 4.714-1.68 4.714-4.723v-7.5c0-3.043-1.68-4.714-4.714-4.714a.766.766 0 0 1-.765-.765M11.25 7.914v6.356l-2.467-2.477a.749.749 0 1 0-1.062 1.058l3.748 3.764v.001a.74.74 0 0 0 .529.22H12q.01 0 .019-.003.007-.003.016-.004a.8.8 0 0 0 .25-.051.8.8 0 0 0 .22-.144l.011-.008q.008-.003.013-.009a.74.74 0 0 0 .22-.531V7.914a.75.75 0 0 0-1.5 0M15 14.136l1.279-1.284a.75.75 0 0 0-.002-1.062.75.75 0 0 0-1.06.003l-1.278 1.284A.751.751 0 0 0 15 14.136" clip-rule="evenodd"/></svg>