<svg xmlns="http://www.w3.org/2000/svg" fill="none" viewBox="0 0 24 24"><path fill="#000" fill-rule="evenodd" d="M19.202 4.329a1.8 1.8 0 0 1 1.248 1.697l.05 6.638a8.24 8.24 0 0 1-2.073 5.492c-.614.706-1.41 1.304-2.416 1.844l-3.573 1.912a.75.75 0 0 1-.352.088.8.8 0 0 1-.363-.088L8.12 20.049c-1.016-.53-1.812-1.118-2.436-1.814a8.22 8.22 0 0 1-2.143-5.472l-.04-6.64c-.01-.765.493-1.45 1.227-1.706l6.613-2.313a1.87 1.87 0 0 1 1.228 0zm-4.781 9.758a.726.726 0 0 0 0-1.04l-1.359-1.325 1.359-1.322a.727.727 0 0 0 0-1.04.774.774 0 0 0-1.067 0l-1.359 1.324-1.359-1.325a.774.774 0 0 0-1.067 0 .727.727 0 0 0 0 1.04l1.36 1.323-1.36 1.325a.726.726 0 0 0 0 1.04.76.76 0 0 0 .534.214.72.72 0 0 0 .533-.214l1.36-1.324 1.358 1.324c.15.147.342.214.533.214a.74.74 0 0 0 .534-.214" clip-rule="evenodd"/></svg>