<svg xmlns="http://www.w3.org/2000/svg" fill="none" viewBox="0 0 24 24"><path fill="#000" fill-rule="evenodd" d="m12.614 2.1 6.644 2.267A1.81 1.81 0 0 1 20.5 6.071v6.641a8.24 8.24 0 0 1-2.105 5.483c-.623.697-1.42 1.296-2.438 1.832l-3.59 1.885a.79.79 0 0 1-.72 0l-3.598-1.886c-1.02-.537-1.819-1.136-2.44-1.83A8.24 8.24 0 0 1 3.5 12.708c0-.406.34-.736.757-.736.418 0 .758.33.758.736 0 1.662.617 3.268 1.738 4.524.499.56 1.159 1.05 2.016 1.5l3.237 1.696 3.23-1.696c.855-.449 1.514-.939 2.015-1.5a6.8 6.8 0 0 0 1.735-4.52v-6.64a.335.335 0 0 0-.23-.316L12.115 3.49a.36.36 0 0 0-.228 0L5.244 5.756a.33.33 0 0 0-.23.315v1.9a.747.747 0 0 1-.757.737.75.75 0 0 1-.757-.737v-1.9c0-.766.5-1.45 1.243-1.704l6.642-2.266a1.93 1.93 0 0 1 1.23 0M10.09 14.38a.77.77 0 0 1-.535-.217.72.72 0 0 1 0-1.04l1.361-1.322-1.361-1.324a.72.72 0 0 1 0-1.04.773.773 0 0 1 1.07 0l1.361 1.324 1.362-1.324a.773.773 0 0 1 1.07 0 .72.72 0 0 1 0 1.04l-1.361 1.324 1.361 1.322a.72.72 0 0 1 0 1.04.77.77 0 0 1-.535.216.76.76 0 0 1-.535-.216l-1.362-1.322-1.361 1.322a.77.77 0 0 1-.535.216" clip-rule="evenodd"/></svg>