<svg xmlns="http://www.w3.org/2000/svg" fill="none" viewBox="0 0 24 24"><path stroke="#000" stroke-linecap="round" stroke-linejoin="round" stroke-width="1.5" d="M18.865 5.124c.437.153.729.565.729 1.028v6.773c0 1.893-.689 3.7-1.903 5.1-.612.705-1.384 1.254-2.205 1.698l-3.558 1.922-3.564-1.923c-.823-.444-1.596-.992-2.208-1.698A7.78 7.78 0 0 1 4.25 12.92V6.15c0-.462.292-.874.729-1.027l6.582-2.313a1.1 1.1 0 0 1 .722 0z" clip-rule="evenodd"/><path fill="#000" fill-rule="evenodd" d="M10.573 9.558a.75.75 0 0 0-1.06 1.06l1.348 1.35-1.348 1.348a.75.75 0 0 0 1.06 1.06l1.35-1.348 1.348 1.349a.75.75 0 0 0 1.06-1.061l-1.348-1.349 1.348-1.348a.75.75 0 0 0-1.06-1.061l-1.349 1.349z" clip-rule="evenodd" opacity=".4"/></svg>