<svg xmlns="http://www.w3.org/2000/svg" fill="none" viewBox="0 0 24 24"><path fill="#000" fill-rule="evenodd" d="m12.87 4.17 1.639 1.642a.747.747 0 0 0 1.06.002.75.75 0 0 0 .002-1.06l-2.92-2.929a.77.77 0 0 0-1.062 0l-2.92 2.928a.75.75 0 0 0 1.062 1.06l1.639-1.644v2.988a38 38 0 0 1 1.5 0zm3.53 3.117c-1.12-.08-2.3-.12-3.53-.13v7.24c0 .41-.34.75-.75.75s-.75-.34-.75-.75v-7.24c-1.21.01-2.47.06-3.77.13h-.02c-4.03.37-5.33 2.2-5.33 7.5 0 7.6 2.85 7.6 9.75 7.6s9.75 0 9.75-7.6c0-5.3-1.3-7.13-5.35-7.5" clip-rule="evenodd"/></svg>