<svg xmlns="http://www.w3.org/2000/svg" fill="none" viewBox="0 0 24 24"><path fill="#000" fill-rule="evenodd" d="M14.94 12.48h-.047a1 1 0 0 1 0-2c.554 0 1.023.457 1.023 1 0 .56-.429 1-.977 1M8.48 6.377a3.55 3.55 0 0 1 3.513-2.971h.017a3.57 3.57 0 0 1 3.51 2.97A26 26 0 0 0 12 6.162c-1.329 0-2.488.077-3.52.216m.628 6.103h-.046a1.001 1.001 0 0 1 0-2c.555 0 1.023.457 1.023 1 0 .56-.429 1-.977 1m11.56-3.767c-.74-.965-1.937-1.635-3.619-2.05-.165-2.647-2.35-4.757-5.036-4.757h-.023a5.04 5.04 0 0 0-3.568 1.469c-.888.88-1.389 2.035-1.47 3.289-1.683.413-2.879 1.083-3.619 2.049-1.01 1.319-1.185 3.132-.534 5.544 1.503 5.576 2.385 7.838 9.201 7.838 6.815 0 7.697-2.262 9.201-7.838.65-2.412.476-4.225-.534-5.544" clip-rule="evenodd"/></svg>