<svg xmlns="http://www.w3.org/2000/svg" fill="none" viewBox="0 0 24 24"><path fill="#000" d="M14.893 12.48h.046c.548 0 .977-.44.977-1 0-.542-.469-1-1.023-1a1 1 0 0 0 0 2m-5.831 0h.046c.548 0 .977-.44.977-1 0-.542-.468-1-1.023-1a1.001 1.001 0 0 0 0 2"/><path fill="#000" d="M15.52 6.376c.926.13 1.796.324 2.547.59l.026.01c1.145.412 1.998.985 2.574 1.736 1.01 1.32 1.184 3.132.534 5.544-1.504 5.576-2.386 7.838-9.2 7.838-6.817 0-7.699-2.262-9.202-7.838-.65-2.412-.476-4.225.534-5.544.647-.844 1.643-1.462 3.007-1.88l.005.003c1.118-.352 2.955-.609 4.945-.667q.347-.008.71-.008c1.33 0 2.488.077 3.52.216" opacity=".4"/><path fill="#000" d="M15.52 6.376c.88.124 3.694.82 1.53.288-.166-2.648-2.35-4.758-5.037-4.758h-.023a5.04 5.04 0 0 0-3.568 1.469c-.888.88-1.389 2.035-1.47 3.289l1.528-.287a3.55 3.55 0 0 1 3.513-2.971h.017a3.57 3.57 0 0 1 3.51 2.97"/></svg>