<svg xmlns="http://www.w3.org/2000/svg" fill="none" viewBox="0 0 24 24"><path fill="#000" fill-rule="evenodd" d="M7.438 6.42a4.532 4.532 0 0 1 9.062.02v.001l-.75-.001h.75v3.032a.75.75 0 1 1-1.5 0V6.438a3.031 3.031 0 0 0-6.062-.014v3.048a.75.75 0 1 1-1.5 0z" clip-rule="evenodd"/><path fill="#000" fill-rule="evenodd" d="M5.385 9.283c-1.137.89-1.685 2.361-1.685 4.924s.548 4.034 1.685 4.924c1.194.934 3.218 1.384 6.584 1.384s5.39-.45 6.584-1.384c1.137-.89 1.685-2.36 1.685-4.924 0-2.563-.548-4.034-1.685-4.924-1.194-.934-3.219-1.385-6.584-1.385-3.366 0-5.39.45-6.584 1.385m-.924-1.18c1.624-1.272 4.11-1.705 7.508-1.705s5.884.433 7.508 1.704c1.682 1.316 2.261 3.375 2.261 6.105s-.58 4.789-2.26 6.105c-1.625 1.271-4.11 1.703-7.509 1.703s-5.884-.432-7.508-1.703C2.779 18.996 2.2 16.938 2.2 14.207c0-2.73.58-4.789 2.26-6.105" clip-rule="evenodd"/></svg>