<svg xmlns="http://www.w3.org/2000/svg" fill="none" viewBox="0 0 24 24"><path stroke="#000" stroke-linecap="round" stroke-linejoin="round" stroke-width="1.5" d="M12 9.5a2.5 2.5 0 1 1 0 5 2.5 2.5 0 0 1 0-5" clip-rule="evenodd"/><path stroke="#000" stroke-linecap="round" stroke-linejoin="round" stroke-width="1.5" d="M20.168 7.25a2.464 2.464 0 0 0-3.38-.911c-1.028.597-2.314-.15-2.314-1.347A2.484 2.484 0 0 0 12 2.5v0a2.484 2.484 0 0 0-2.475 2.492c0 1.196-1.285 1.944-2.313 1.347a2.465 2.465 0 0 0-3.38.911 2.5 2.5 0 0 0 .906 3.404c1.027.599 1.027 2.093 0 2.692a2.5 2.5 0 0 0-.906 3.404 2.465 2.465 0 0 0 3.379.913h.001c1.028-.6 2.313.149 2.313 1.345v0A2.484 2.484 0 0 0 12 21.5v0a2.484 2.484 0 0 0 2.474-2.492v0c0-1.196 1.286-1.944 2.314-1.345a2.465 2.465 0 0 0 3.38-.913 2.5 2.5 0 0 0-.905-3.404h-.001c-1.028-.599-1.028-2.093 0-2.692a2.5 2.5 0 0 0 .906-3.404" clip-rule="evenodd"/></svg>