<svg xmlns="http://www.w3.org/2000/svg" fill="none" viewBox="0 0 24 24"><path fill="#000" fill-rule="evenodd" d="M3.5 13.949a.74.74 0 0 1-.75.731.74.74 0 0 1-.75-.731V6.714C2 4.391 3.938 2.5 6.322 2.5h4.746c2.388 0 4.33 1.895 4.33 4.225v.884a.74.74 0 0 1-.75.73.74.74 0 0 1-.75-.73v-.884c0-1.524-1.27-2.762-2.83-2.762H6.322C4.765 3.963 3.5 5.198 3.5 6.714zm10.399 2.443c0-.404.336-.732.75-.732.413 0 .75.328.75.732v.894c0 2.323-1.939 4.214-4.322 4.214H6.33C3.943 21.5 2 19.605 2 17.275a.74.74 0 0 1 .75-.73.74.74 0 0 1 .75.73c0 1.524 1.27 2.762 2.83 2.762h4.747c1.556 0 2.822-1.234 2.822-2.751zm8.044-4.671a.75.75 0 0 0-.693-.453H9.55a.743.743 0 0 0-.752.732c0 .404.337.732.751.732h9.886l-1.56 1.514a.72.72 0 0 0-.002 1.035.763.763 0 0 0 1.06.002l2.847-2.764a.72.72 0 0 0 .163-.798m-2.821-1.06a.76.76 0 0 1-.528-.212l-.718-.693a.72.72 0 0 1-.005-1.033.76.76 0 0 1 1.06-.006l.718.692a.72.72 0 0 1 .006 1.034.76.76 0 0 1-.533.218" clip-rule="evenodd"/></svg>