<svg xmlns="http://www.w3.org/2000/svg" fill="none" viewBox="0 0 24 24"><path fill="#000" fill-rule="evenodd" d="M16.665 2.01a5.32 5.32 0 0 1 3.926 1.39 5.38 5.38 0 0 1 1.399 3.936v9.33a5.37 5.37 0 0 1-1.389 3.936 5.35 5.35 0 0 1-3.936 1.389h-9.33A5.33 5.33 0 0 1 3.399 20.6a5.33 5.33 0 0 1-1.389-3.936v-9.33A5.33 5.33 0 0 1 3.4 3.399 5.33 5.33 0 0 1 7.335 2.01zm-5.684 14.835 6.723-6.743c.61-.62.61-1.618 0-2.228l-1.298-1.298a1.58 1.58 0 0 0-2.238 0l-.67.679c-.1.1-.1.27 0 .37 0 0 1.589 1.578 1.619 1.618.11.12.18.28.18.46a.66.66 0 0 1-.66.659c-.17 0-.33-.07-.44-.18L12.53 8.524a.217.217 0 0 0-.3 0l-4.765 4.765c-.33.33-.52.769-.53 1.238l-.06 2.368c0 .13.04.25.13.34s.21.14.34.14h2.347c.48 0 .94-.19 1.29-.53" clip-rule="evenodd"/></svg>