<svg xmlns="http://www.w3.org/2000/svg" fill="none" viewBox="0 0 24 24"><path fill="#000" fill-rule="evenodd" d="m7.353 12.194-.093 3.71a.74.74 0 0 0 .737.754h3.686c.766 0 1.488-.298 2.03-.84l7.385-7.372A3.05 3.05 0 0 0 22 6.27c0-.82-.32-1.594-.902-2.175L19.9 2.9a3.087 3.087 0 0 0-4.358 0l-7.35 7.338a2.86 2.86 0 0 0-.84 1.956m1.474.037c.01-.359.155-.698.41-.952l5.701-5.693 1.873 1.872a.74.74 0 0 0 1.044 0 .737.737 0 0 0 0-1.042L15.98 4.545l.605-.604a1.61 1.61 0 0 1 2.272 0l1.197 1.196a1.604 1.604 0 0 1 0 2.268l-7.384 7.372a1.4 1.4 0 0 1-.988.408H8.754zm-6.089.212c.407 0 .738-.33.738-.736V7.938c0-2.69 1.641-4.428 4.182-4.428h3.677a.737.737 0 1 0 0-1.472H7.659C4.274 2.038 2 4.408 2 7.938v3.769c0 .406.33.736.738.736m18.52-1.033a.736.736 0 0 0-.737.736V16.1c0 2.69-1.642 4.427-4.185 4.427H7.658c-2.54 0-4.182-1.737-4.182-4.427A.737.737 0 0 0 2 16.1C2 19.629 4.274 22 7.658 22h8.678c3.386 0 5.66-2.371 5.66-5.9v-3.954a.737.737 0 0 0-.737-.736" clip-rule="evenodd"/></svg>