<svg xmlns="http://www.w3.org/2000/svg" fill="none" viewBox="0 0 24 24"><path fill="#000" fill-rule="evenodd" d="M16.577 22.369H7.753C4.312 22.369 2 19.954 2 16.359V8.047c0-3.594 2.312-6.01 5.753-6.01h3.739a.75.75 0 0 1 0 1.5H7.753c-2.584 0-4.253 1.77-4.253 4.51v8.314c0 2.739 1.669 4.509 4.253 4.509h8.824c2.584 0 4.254-1.77 4.254-4.51v-4.027a.75.75 0 0 1 1.5 0v4.028c0 3.594-2.313 6.009-5.754 6.009" clip-rule="evenodd"/><path fill="#000" fill-rule="evenodd" d="M8.868 15.428h2.977c.38 0 .736-.147 1.005-.416l7.509-7.509c.308-.308.478-.718.478-1.154 0-.437-.17-.848-.478-1.156l-1.217-1.217a1.64 1.64 0 0 0-2.311 0L9.358 11.45a1.4 1.4 0 0 0-.415.968zm2.977 1.5H8.099a.75.75 0 0 1-.75-.769l.094-3.779a2.9 2.9 0 0 1 .854-1.992l7.474-7.473a3.14 3.14 0 0 1 4.43 0l1.218 1.217c.593.592.919 1.38.918 2.217 0 .838-.326 1.624-.918 2.215l-7.51 7.51a2.9 2.9 0 0 1-2.064.854" clip-rule="evenodd"/><path fill="#000" fill-rule="evenodd" d="M19.73 9.917a.74.74 0 0 1-.53-.22L14.636 5.13a.75.75 0 0 1 1.06-1.061l4.566 4.567a.749.749 0 0 1-.53 1.28" clip-rule="evenodd"/></svg>