<svg xmlns="http://www.w3.org/2000/svg" fill="none" viewBox="0 0 24 24"><path stroke="#000" stroke-linecap="round" stroke-linejoin="round" stroke-width="1.5" d="M13.85 4.25v2.42m0 11.09v2.024m0-5.459V9.504"/><path stroke="#000" stroke-linecap="round" stroke-linejoin="round" stroke-width="1.5" d="M18.702 20C20.524 20 22 18.543 22 16.743v-2.592A2.16 2.16 0 0 1 19.823 12c0-1.19.971-2.15 2.177-2.15l-.001-2.594c0-1.8-1.477-3.257-3.298-3.257H5.3C3.478 4 2 5.457 2 7.257v2.678c1.206 0 2.177.875 2.177 2.066s-.971 2.15-2.177 2.15v2.592C2 18.543 3.476 20 5.298 20z" clip-rule="evenodd"/></svg>