<svg xmlns="http://www.w3.org/2000/svg" fill="none" viewBox="0 0 24 24"><path fill="#000" fill-rule="evenodd" d="m6.328 8.347.603 7.172c.044.552.495.966 1.046.966h10.917c.52 0 .966-.388 1.04-.903l.95-6.559a.6.6 0 0 0-.112-.438.58.58 0 0 0-.388-.23c-.21.007-8.882-.005-14.056-.008m1.647 9.638a2.56 2.56 0 0 1-2.54-2.343L4.52 4.748l-1.507-.26A.75.75 0 0 1 2.4 3.62a.76.76 0 0 1 .867-.61l2.08.36c.335.058.59.336.619.676l.235 2.801c14.276.006 14.322.013 14.39.021a2.08 2.08 0 0 1 1.382.82c.334.447.474.998.394 1.55l-.95 6.558a2.56 2.56 0 0 1-2.522 2.19H7.975" clip-rule="evenodd"/><path fill="#000" fill-rule="evenodd" d="M17.288 12.044h-2.772a.75.75 0 1 1 0-1.5h2.772a.75.75 0 0 1 0 1.5m-9.743 8.658a.543.543 0 1 1 0 1.089.544.544 0 1 1 0-1.09" clip-rule="evenodd"/><mask id="a" width="3" height="2" x="6" y="20" maskUnits="userSpaceOnUse" style="mask-type:luminance"><path fill="#fff" fill-rule="evenodd" d="M6.999 21.245a.545.545 0 1 0 1.09.003.545.545 0 0 0-1.09-.003" clip-rule="evenodd"/></mask><g mask="url(#a)"><path fill="#000" fill-rule="evenodd" d="M2 26.79h11.089V15.701H2z" clip-rule="evenodd"/></g><path fill="#000" fill-rule="evenodd" d="M7.544 21.04a.205.205 0 0 0-.205.206c0 .227.41.227.41 0a.206.206 0 0 0-.205-.205m0 1.5a1.296 1.296 0 0 1 0-2.588 1.296 1.296 0 0 1 0 2.589m11.281-1.84a.544.544 0 1 1 .002 1.088.544.544 0 0 1-.002-1.088" clip-rule="evenodd"/><mask id="b" width="2" height="2" x="18" y="20" maskUnits="userSpaceOnUse" style="mask-type:luminance"><path fill="#fff" fill-rule="evenodd" d="M18.28 21.245a.545.545 0 1 0 1.09.003.545.545 0 0 0-1.09-.003" clip-rule="evenodd"/></mask><g mask="url(#b)"><path fill="#000" fill-rule="evenodd" d="M13.28 26.79h11.09V15.701H13.28z" clip-rule="evenodd"/></g><path fill="#000" fill-rule="evenodd" d="M18.824 21.04a.205.205 0 0 0-.204.206c0 .229.41.227.41 0a.206.206 0 0 0-.206-.205m0 1.5a1.296 1.296 0 0 1 0-2.588c.715 0 1.296.58 1.296 1.294s-.581 1.295-1.296 1.295" clip-rule="evenodd"/></svg>