<svg xmlns="http://www.w3.org/2000/svg" fill="none" viewBox="0 0 24 24"><path stroke="#000" stroke-linecap="round" stroke-linejoin="round" stroke-width="1.5" d="M7.422 19.82a.766.766 0 0 1 0 1.53.764.764 0 1 1 0-1.53m11.253 0a.766.766 0 1 1-.002 1.532.766.766 0 0 1 .002-1.532" clip-rule="evenodd" opacity=".4"/><path stroke="#000" stroke-linecap="round" stroke-linejoin="round" stroke-width="1.5" d="m2.75 3.25 2.08.36.963 11.473a1.8 1.8 0 0 0 1.797 1.653h10.912c.896 0 1.656-.658 1.785-1.546l.949-6.558a1.34 1.34 0 0 0-1.327-1.533H5.164"/><path stroke="#000" stroke-linecap="round" stroke-linejoin="round" stroke-width="1.5" d="M14.125 10.795h2.773" opacity=".4"/></svg>