<svg xmlns="http://www.w3.org/2000/svg" fill="none" viewBox="0 0 24 24"><path fill="#000" fill-rule="evenodd" d="M21.76 9.942h-2.045V7.937h-1.5v2.005H16.17v1.5h2.045v2.005h1.5v-2.005h2.045zM9.904 14.337H9.85c-3.747 0-6.477 1.84-7.493 5.054l-.118.374.334.204c1.958 1.194 4.399 1.799 7.257 1.799h.094c2.897 0 5.27-.59 7.256-1.8l.334-.203-.118-.374c-1.015-3.213-3.746-5.054-7.493-5.054m-.026-2.228a4.943 4.943 0 0 0 4.938-4.938 4.944 4.944 0 0 0-4.938-4.94 4.944 4.944 0 0 0-4.938 4.94 4.943 4.943 0 0 0 4.938 4.938" clip-rule="evenodd"/></svg>