<svg xmlns="http://www.w3.org/2000/svg" fill="none" viewBox="0 0 24 24"><path fill="#000" fill-rule="evenodd" d="M19.793 7.919v5.51h-1.5v-5.51z" clip-rule="evenodd"/><path fill="#000" fill-rule="evenodd" d="M16.248 9.924h5.59v1.5h-5.59zM9.921 3.5a3.67 3.67 0 1 0-.002 7.34 3.67 3.67 0 0 0 .002-7.34M4.75 7.17a5.17 5.17 0 1 1 10.34 0 5.17 5.17 0 0 1-10.34 0m-.916 12.015c1.784.937 3.86 1.32 6.12 1.315h.003c2.258.006 4.335-.378 6.119-1.315-1.025-2.446-3.311-3.623-6.12-3.616h-.003c-2.811-.007-5.094 1.167-6.119 3.616m6.121-5.116c-3.5-.009-6.616 1.62-7.758 5.23l-.177.56.502.306C4.726 21.508 7.289 22.006 9.955 22c2.666.006 5.229-.492 7.433-1.835l.502-.306-.177-.56c-1.14-3.607-4.262-5.238-7.758-5.23" clip-rule="evenodd"/></svg>