<svg xmlns="http://www.w3.org/2000/svg" fill="none" viewBox="0 0 24 24"><path fill="#000" fill-rule="evenodd" d="M6.604 13.082a.75.75 0 0 1 .75.75 4.636 4.636 0 0 0 9.272 0 .75.75 0 0 1 1.5 0 6.136 6.136 0 0 1-12.272 0 .75.75 0 0 1 .75-.75m-.75-4.484a6.136 6.136 0 0 1 12.272 0v2.142a.75.75 0 1 1-1.5 0V8.598a4.635 4.635 0 1 0-9.272 0v2.142a.75.75 0 1 1-1.5 0z" clip-rule="evenodd"/><path fill="#000" fill-rule="evenodd" d="M11.99 18.468a.75.75 0 0 1 .75.75v2.045a.75.75 0 0 1-1.5 0v-2.045a.75.75 0 0 1 .75-.75m-7.528-4.636a.75.75 0 0 1 .75-.75h13.556a.75.75 0 0 1 0 1.5H5.212a.75.75 0 0 1-.75-.75m5.285-3.38a.75.75 0 0 1 .75-.75h2.985a.75.75 0 1 1 0 1.5h-2.985a.75.75 0 0 1-.75-.75m.991-2.77a.75.75 0 0 1 .75-.75h1.003a.75.75 0 0 1 0 1.5h-1.003a.75.75 0 0 1-.75-.75" clip-rule="evenodd"/></svg>