<svg xmlns="http://www.w3.org/2000/svg" fill="none" viewBox="0 0 24 24"><path fill="#000" fill-rule="evenodd" d="M13.52 21.886A10 10 0 0 1 12 22C6.487 22 2 17.514 2 12S6.486 2 12 2s10 4.486 10 10a9.94 9.94 0 0 1-3.901 7.927.728.728 0 0 1-.889-1.153A8.49 8.49 0 0 0 20.548 12c0-4.712-3.834-8.546-8.546-8.546-4.713 0-8.546 3.834-8.546 8.546s3.833 8.546 8.546 8.546a8.6 8.6 0 0 0 1.299-.098.728.728 0 0 1 .22 1.438M12 9.206c.2 0 .39.079.531.22l3.471 3.487a.75.75 0 1 1-1.062 1.059L12 11.019l-2.94 2.953a.75.75 0 1 1-1.063-1.06l3.472-3.485A.74.74 0 0 1 12 9.206" clip-rule="evenodd"/></svg>