<svg xmlns="http://www.w3.org/2000/svg" fill="none" viewBox="0 0 24 24"><path fill="#000" fill-rule="evenodd" d="M12 3.5c-4.687 0-8.5 3.813-8.5 8.5s3.813 8.5 8.5 8.5 8.5-3.813 8.5-8.5-3.813-8.5-8.5-8.5M12 22C6.486 22 2 17.514 2 12S6.486 2 12 2s10 4.486 10 10-4.486 10-10 10" clip-rule="evenodd"/><path fill="#000" fill-rule="evenodd" d="M15.472 14.192a.74.74 0 0 1-.531-.22L12 11.017 9.06 13.97a.75.75 0 0 1-1.062-1.058l3.47-3.487a.77.77 0 0 1 1.064 0l3.47 3.487a.75.75 0 0 1-.53 1.28" clip-rule="evenodd"/></svg>