<svg xmlns="http://www.w3.org/2000/svg" fill="none" viewBox="0 0 24 24"><path fill="#000" fill-rule="evenodd" d="M8.058 7.354c0-2.16 1.768-3.917 3.942-3.917s3.942 1.757 3.942 3.917c0 2.159-1.768 3.916-3.942 3.916S8.058 9.513 8.058 7.354m-1.446 0c0 2.95 2.417 5.353 5.388 5.353s5.387-2.402 5.387-5.353C17.387 4.402 14.97 2 12 2S6.612 4.402 6.612 7.354m4.366 14.631Q11.48 22 12 22c3.435 0 8-.381 8-3.67 0-3.69-6.022-3.69-8-3.69-3.434 0-8 .38-8 3.67 0 .985.46 2.314 2.657 3.053a.72.72 0 0 0 .916-.45.716.716 0 0 0-.453-.909c-1.502-.506-1.675-1.209-1.675-1.694 0-1.483 2.206-2.235 6.555-2.235s6.555.76 6.555 2.255c0 1.482-2.206 2.233-6.555 2.233q-.499 0-.981-.013c-.386.003-.73.301-.742.697a.717.717 0 0 0 .7.738" clip-rule="evenodd"/></svg>