<svg xmlns="http://www.w3.org/2000/svg" fill="none" viewBox="0 0 24 24"><path fill="#000" fill-rule="evenodd" d="M11.889 12.619h.032a5.314 5.314 0 0 0 5.309-5.31A5.315 5.315 0 0 0 11.92 2a5.316 5.316 0 0 0-5.31 5.308 5.3 5.3 0 0 0 5.279 5.312M8.038 7.31a3.887 3.887 0 0 1 3.883-3.881A3.886 3.886 0 0 1 15.8 7.31a3.886 3.886 0 0 1-3.88 3.882h-.03A3.873 3.873 0 0 1 8.039 7.31M4 18.173c0 3.697 5.962 3.697 7.92 3.697 3.4 0 7.92-.38 7.92-3.677 0-3.697-5.96-3.697-7.92-3.697-3.4 0-7.92.381-7.92 3.677m1.5 0c0-1.445 2.16-2.177 6.42-2.177s6.42.74 6.42 2.197c0 1.445-2.16 2.177-6.42 2.177s-6.42-.739-6.42-2.197" clip-rule="evenodd"/></svg>