<svg xmlns="http://www.w3.org/2000/svg" fill="none" viewBox="0 0 24 24"><path fill="#000" fill-rule="evenodd" d="M15.81 8.745c-1.046-.243-2.307-.354-3.81-.354s-2.764.11-3.81.354V7.313a3.79 3.79 0 0 1 3.76-3.746c1.03-.028 1.982.372 2.71 1.083a3.78 3.78 0 0 1 1.15 2.67zm-3.06 7.699a.75.75 0 0 1-1.5 0v-2.221a.75.75 0 0 1 1.5 0zm4.56-7.186V7.312a5.27 5.27 0 0 0-1.603-3.736c-1.015-.99-2.37-1.481-3.777-1.51a5.286 5.286 0 0 0-5.24 5.236v1.957c-2.034.97-2.85 2.82-2.85 5.903 0 5 2.136 6.771 8.16 6.771 6.025 0 8.16-1.771 8.16-6.771 0-3.083-.816-4.935-2.85-5.904" clip-rule="evenodd"/></svg>