<svg xmlns="http://www.w3.org/2000/svg" fill="none" viewBox="0 0 24 24"><path fill="#000" d="M8.937 8.6q.06-.01.122-.018c.145-.018.338-.044.57-.076A22 22 0 0 1 12 8.391c6.024 0 8.16 1.772 8.16 6.77 0 5-2.136 6.773-8.16 6.773s-8.16-1.772-8.16-6.772c0-2.701.627-4.457 2.15-5.502a8.8 8.8 0 0 1 2.557-.992q.19-.038.39-.069" opacity=".4"/><path fill="#000" d="M8.189 8.744V7.312a3.79 3.79 0 0 1 3.76-3.746c1.03-.028 1.982.372 2.71 1.083a3.78 3.78 0 0 1 1.15 2.671v1.424q.84.194 1.5.508v-1.94a5.27 5.27 0 0 0-1.603-3.737c-1.015-.99-2.37-1.48-3.777-1.509a5.286 5.286 0 0 0-5.24 5.235v1.957zm4.561 7.7a.75.75 0 0 1-1.5 0v-2.221a.75.75 0 0 1 1.5 0z"/></svg>