<svg xmlns="http://www.w3.org/2000/svg" fill="none" viewBox="0 0 24 24"><path fill="#000" fill-rule="evenodd" d="M11.487 2.25c-5.376 0-9.75 4.374-9.75 9.75s4.374 9.75 9.75 9.75 9.75-4.374 9.75-9.75-4.374-9.75-9.75-9.75" clip-rule="evenodd" opacity=".4"/><path fill="#000" fill-rule="evenodd" d="m22.263 5.825-.647.38c-2.982 1.746-5.288 4.048-6.852 5.924a29 29 0 0 0-1.767 2.35 20 20 0 0 0-.552.868l-.025.044-.006.01v.002l-.216.38h-.872l-.223-.335-.002-.004-.01-.016-.049-.07a16 16 0 0 0-.923-1.18c-.628-.729-1.485-1.587-2.44-2.191l-.635-.401.802-1.268.634.4c1.133.717 2.101 1.7 2.775 2.48q.245.285.44.53l.057-.086a30 30 0 0 1 1.86-2.474c1.634-1.96 4.067-4.396 7.246-6.258l.647-.38z" clip-rule="evenodd"/></svg>