<svg xmlns="http://www.w3.org/2000/svg" fill="none" viewBox="0 0 24 24"><path fill="#000" fill-rule="evenodd" d="m22.555 5.73-.647.38c-2.982 1.746-5.288 4.048-6.852 5.924a29 29 0 0 0-1.767 2.35 20 20 0 0 0-.552.868l-.026.045-.005.01-.001.001-.215.381h-.873l-.222-.336-.002-.003-.011-.017-.048-.07a16 16 0 0 0-.923-1.18c-.629-.728-1.485-1.587-2.441-2.19l-.634-.402.802-1.267.634.4c1.133.717 2.101 1.699 2.775 2.48q.244.284.44.53l.057-.086a30 30 0 0 1 1.86-2.474c1.634-1.96 4.067-4.397 7.246-6.259l.647-.379z" clip-rule="evenodd"/><path fill="#000" fill-rule="evenodd" d="M1.721 12c0-5.523 4.477-10 10-10s10 4.477 10 10-4.477 10-10 10-10-4.477-10-10m10-8.5a8.5 8.5 0 1 0 0 17 8.5 8.5 0 0 0 0-17" clip-rule="evenodd"/></svg>