<svg xmlns="http://www.w3.org/2000/svg" fill="none" viewBox="0 0 24 24"><path fill="#000" fill-rule="evenodd" d="M6.56 4.394c1.162-1.497 2.962-2.63 5.436-2.63s4.274 1.133 5.436 2.63c1.143 1.474 1.675 3.305 1.675 4.79 0 .426-.013.742-.023.982l-.005.14c-.01.258-.008.382.012.505.045.28.188.624.76 1.883l.016.038c.412 1.063.32 2.04-.17 2.868-.47.79-1.257 1.372-2.108 1.797-1.702.85-3.953 1.215-5.593 1.215s-3.89-.366-5.593-1.215c-.851-.425-1.639-1.007-2.107-1.797-.491-.828-.583-1.806-.17-2.868l.016-.038c.571-1.26.714-1.604.76-1.884a2.5 2.5 0 0 0 .012-.505l-.006-.139a22 22 0 0 1-.023-.982c0-1.485.532-3.316 1.675-4.79m1.186.92c-.93 1.197-1.36 2.7-1.36 3.87a21 21 0 0 0 .027 1.065c.01.266.015.52-.03.8-.085.524-.342 1.09-.856 2.223l-.01.022c-.25.652-.17 1.14.069 1.541.263.444.767.861 1.486 1.22 1.44.718 3.445 1.057 4.924 1.057s3.485-.34 4.923-1.057c.72-.359 1.224-.776 1.487-1.22.238-.402.318-.889.07-1.541l-.01-.022c-.514-1.133-.771-1.7-.856-2.222a4 4 0 0 1-.03-.8l.006-.15c.01-.24.021-.523.021-.916 0-1.17-.431-2.673-1.36-3.87-.911-1.175-2.292-2.05-4.25-2.05-1.96 0-3.341.875-4.251 2.05m1.44 14.639a.75.75 0 0 1 1.06.06c1.005 1.125 2.502 1.115 3.501-.001a.75.75 0 1 1 1.118 1c-1.59 1.776-4.13 1.8-5.738 0a.75.75 0 0 1 .06-1.06" clip-rule="evenodd"/></svg>