<svg xmlns="http://www.w3.org/2000/svg" fill="none" viewBox="0 0 24 24"><path fill="#000" fill-rule="evenodd" d="M18.696 18.696C19.92 17.473 20.5 15.426 20.5 12c0-3.427-.58-5.473-1.804-6.696C17.473 4.08 15.427 3.5 12 3.5s-5.473.58-6.696 1.804C4.081 6.527 3.5 8.573 3.5 12s.581 5.473 1.804 6.696S8.574 20.5 12 20.5c3.427 0 5.473-.581 6.696-1.804m1.06 1.06C18.09 21.425 15.51 22 12 22s-6.089-.576-7.756-2.243C2.576 18.089 2 15.51 2 12s.576-6.09 2.244-7.757C5.91 2.575 8.49 2 12 2s6.09.575 7.757 2.243C21.425 5.911 22 8.49 22 12s-.575 6.089-2.243 7.757" clip-rule="evenodd"/><path fill="#000" fill-rule="evenodd" d="M12 16.645a.75.75 0 0 1-.75-.75V12a.75.75 0 0 1 1.5 0v3.895a.75.75 0 0 1-.75.75m.755-8.145a.75.75 0 0 1-.75.75h-.01a.75.75 0 0 1 0-1.5h.01a.75.75 0 0 1 .75.75" clip-rule="evenodd"/></svg>