<svg xmlns="http://www.w3.org/2000/svg" fill="none" viewBox="0 0 24 24"><path fill="#000" fill-rule="evenodd" d="M4.128 2h15.744C21.048 2 22 2.981 22 4.192v1.532c0 .587-.23 1.152-.637 1.563l-6.505 6.58a.6.6 0 0 1-.423.177l-5.446-.017a.6.6 0 0 1-.437-.195L2.575 7.257A2.23 2.23 0 0 1 2 5.757V4.194C2 2.983 2.952 2 4.128 2M9.28 15.824l4.855.015a.56.56 0 0 1 .547.565v2.731a.8.8 0 0 1-.453.725l-4.406 2.069a.76.76 0 0 1-.739-.055.8.8 0 0 1-.355-.67V16.39c0-.312.247-.566.551-.565" clip-rule="evenodd"/></svg>