<svg xmlns="http://www.w3.org/2000/svg" fill="none" viewBox="0 0 24 24"><path fill="#000" fill-rule="evenodd" d="M11.728 21.914a.77.77 0 0 0 .717-.004l3.568-1.907c1.011-.54 1.804-1.143 2.422-1.845a8.24 8.24 0 0 0 2.065-5.495l-.043-6.641a1.81 1.81 0 0 0-1.249-1.695L12.571 2.1a1.9 1.9 0 0 0-1.23.006L4.728 4.413A1.81 1.81 0 0 0 3.5 6.124l.042 6.636a8.25 8.25 0 0 0 2.139 5.474c.624.692 1.423 1.286 2.446 1.816zm-.944-7.805a.76.76 0 0 0 .535.212.76.76 0 0 0 .533-.219l3.899-3.844a.72.72 0 0 0-.006-1.04.77.77 0 0 0-1.068.007l-3.369 3.32-1.38-1.326a.77.77 0 0 0-1.067.007.72.72 0 0 0 .007 1.04z" clip-rule="evenodd"/></svg>