<svg xmlns="http://www.w3.org/2000/svg" fill="none" viewBox="0 0 24 24"><path fill="#000" fill-rule="evenodd" d="M19.134 12.803H4.866a.75.75 0 0 0 0 1.5h1.015a6.176 6.176 0 0 0 5.369 5.369v1.703a.75.75 0 0 0 1.5 0v-1.703a6.175 6.175 0 0 0 5.369-5.37h1.015a.75.75 0 0 0 0-1.5" clip-rule="evenodd"/><path fill="#000" fill-rule="evenodd" d="M6.33 10.798h11.339a.5.5 0 0 0 .5-.5V8.044a6.176 6.176 0 0 0-6.17-6.169 6.177 6.177 0 0 0-6.17 6.17v2.253a.5.5 0 0 0 .5.5" clip-rule="evenodd" opacity=".4"/></svg>