<svg xmlns="http://www.w3.org/2000/svg" fill="none" viewBox="0 0 24 24"><path fill="#000" fill-rule="evenodd" d="M6.365 12.928a.75.75 0 0 1 .75.75 4.919 4.919 0 1 0 9.839 0 .75.75 0 0 1 1.5 0 6.42 6.42 0 0 1-12.84 0 .75.75 0 0 1 .75-.75m-.749-4.759a6.42 6.42 0 0 1 6.419-6.419 6.42 6.42 0 0 1 6.42 6.419v2.254a.75.75 0 1 1-1.5 0V8.169a4.92 4.92 0 0 0-9.84 0v2.254a.75.75 0 0 1-1.5 0z" clip-rule="evenodd"/><path fill="#000" fill-rule="evenodd" d="M12.034 18.598a.75.75 0 0 1 .75.75V21.5a.75.75 0 0 1-1.5 0v-2.152a.75.75 0 0 1 .75-.75m-7.884-4.92a.75.75 0 0 1 .75-.75h14.268a.75.75 0 0 1 0 1.5H4.9a.75.75 0 0 1-.75-.75" clip-rule="evenodd"/></svg>