<svg xmlns="http://www.w3.org/2000/svg" fill="none" viewBox="0 0 24 24"><path fill="#000" fill-rule="evenodd" d="m15.72 10.222-3.897 3.899a.75.75 0 0 1-1.061 0L8.87 12.226a.75.75 0 1 1 1.06-1.06l1.363 1.364 3.367-3.37a.75.75 0 1 1 1.06 1.062m3.968-5.396c-.606-.607-3.934-2.753-7.688-2.753-3.756 0-7.082 2.146-7.688 2.753-.581.582-.572 1.035-.528 3.549a216 216 0 0 1 .044 4.326c0 6.52 5.322 9.226 8.172 9.226 2.849 0 8.172-2.706 8.172-9.226 0-1.92.025-3.308.044-4.327.045-2.514.053-2.966-.528-3.548" clip-rule="evenodd"/></svg>