<svg xmlns="http://www.w3.org/2000/svg" fill="none" viewBox="0 0 24 24"><path fill="#000" fill-rule="evenodd" d="M19.688 4.825c-.606-.607-3.934-2.753-7.688-2.753-3.756 0-7.082 2.146-7.688 2.753-.581.582-.572 1.035-.528 3.55a216 216 0 0 1 .044 4.326c0 6.52 5.322 9.226 8.172 9.226 2.849 0 8.172-2.706 8.172-9.226 0-1.92.025-3.309.044-4.328.045-2.514.053-2.966-.528-3.548" clip-rule="evenodd" opacity=".4"/><path fill="#000" d="m11.823 14.12 3.898-3.899a.75.75 0 1 0-1.061-1.06l-3.367 3.368-1.362-1.364a.749.749 0 1 0-1.061 1.061l1.892 1.894a.75.75 0 0 0 1.061 0"/></svg>