<svg xmlns="http://www.w3.org/2000/svg" fill="none" viewBox="0 0 24 24"><path fill="#000" fill-rule="evenodd" d="M11.86 13.138h.027c2.52 0 4.569-2.05 4.569-4.569A4.574 4.574 0 0 0 11.886 4 4.573 4.573 0 0 0 7.32 8.566a4.52 4.52 0 0 0 1.322 3.226 4.52 4.52 0 0 0 3.219 1.346M8.819 8.569A3.07 3.07 0 0 1 11.887 5.5a3.073 3.073 0 0 1 3.069 3.069 3.07 3.07 0 0 1-3.07 3.069h-.024a3.04 3.04 0 0 1-2.157-.903 3.03 3.03 0 0 1-.886-2.166" clip-rule="evenodd"/><path fill="#000" d="M17.145 11.5a.75.75 0 0 0 .846.64 3.64 3.64 0 0 0 3.12-3.584 3.61 3.61 0 0 0-3.035-3.576.75.75 0 0 0-.244 1.48 2.115 2.115 0 0 1 1.779 2.094 2.13 2.13 0 0 1-1.827 2.1.75.75 0 0 0-.64.847m3.016 6.547a.75.75 0 0 0 .968.434c1.43-.545 1.644-1.538 1.644-2.082 0-.89-.509-2.029-2.932-2.392a.755.755 0 0 0-.854.63.75.75 0 0 0 .631.854c1.098.164 1.655.47 1.655.908 0 .137 0 .422-.678.68a.75.75 0 0 0-.434.968"/><path fill="#000" fill-rule="evenodd" d="M11.887 20.79c-1.66 0-6.71 0-6.71-3.194 0-3.182 5.05-3.182 6.71-3.182 1.659 0 6.708 0 6.708 3.199 0 3.178-4.873 3.178-6.708 3.178m0-4.876c-2.376 0-5.21.292-5.21 1.682 0 1.4 2.834 1.695 5.21 1.695s5.208-.291 5.208-1.678c0-1.404-2.832-1.7-5.208-1.7" clip-rule="evenodd"/><path fill="#000" d="M5.886 12.147a1 1 0 0 1-.104-.008 3.64 3.64 0 0 1-3.12-3.582A3.61 3.61 0 0 1 5.699 4.98a.75.75 0 0 1 .244 1.48 2.116 2.116 0 0 0-1.78 2.096 2.13 2.13 0 0 0 1.827 2.098.75.75 0 0 1-.103 1.493m-3.242 6.335a.75.75 0 0 0 .534-1.402c-.679-.259-.679-.543-.679-.68 0-.438.557-.744 1.655-.908a.75.75 0 0 0 .631-.854.755.755 0 0 0-.853-.63C1.51 14.371 1 15.51 1 16.4c0 .543.214 1.536 1.645 2.082"/></svg>