<svg xmlns="http://www.w3.org/2000/svg" fill="none" viewBox="0 0 24 24"><path stroke="#000" stroke-linecap="round" stroke-linejoin="round" stroke-width="1.5" d="M17.888 10.897a2.875 2.875 0 0 0 2.472-2.841 2.875 2.875 0 0 0-2.406-2.836m1.775 9.03c1.35.203 2.294.675 2.294 1.65 0 .672-.445 1.108-1.163 1.382" opacity=".4"/><path stroke="#000" stroke-linecap="round" stroke-linejoin="round" stroke-width="1.5" d="M11.887 14.664c-3.214 0-5.96.487-5.96 2.432s2.729 2.445 5.96 2.445c3.214 0 5.958-.482 5.958-2.428s-2.727-2.45-5.958-2.45m0-2.775a3.819 3.819 0 1 0-3.82-3.819 3.804 3.804 0 0 0 3.792 3.819z" clip-rule="evenodd"/><path stroke="#000" stroke-linecap="round" stroke-linejoin="round" stroke-width="1.5" d="M5.885 10.897a2.875 2.875 0 0 1-2.472-2.841A2.875 2.875 0 0 1 5.819 5.22m-1.775 9.03c-1.351.203-2.294.675-2.294 1.65 0 .672.444 1.108 1.162 1.382" opacity=".4"/></svg>