<svg xmlns="http://www.w3.org/2000/svg" fill="none" viewBox="0 0 24 24"><path fill="#000" fill-rule="evenodd" d="M9.78 15.663c.216.214.48.293.76.293.363 0 .752-.131 1.092-.272.8-.332 4.533-2.385 4.533-3.827 0-1.42-3.653-3.434-4.587-3.82-.378-.157-1.262-.521-1.797.013-.153.153-.615.619-.628 3.785-.013 3.187.47 3.67.628 3.828m1.037-1.263c-.22-1.034-.217-3.964.003-5.061.998.345 3.276 1.847 3.787 2.52-.513.698-2.82 2.23-3.79 2.54" clip-rule="evenodd"/><path fill="#000" fill-rule="evenodd" d="M2 12c0 7.383 2.617 10 10 10s10-2.617 10-10S19.383 2 12 2 2 4.617 2 12m1.5 0c0-6.514 1.986-8.5 8.5-8.5s8.5 1.986 8.5 8.5-1.986 8.5-8.5 8.5-8.5-1.986-8.5-8.5" clip-rule="evenodd"/></svg>