<svg xmlns="http://www.w3.org/2000/svg" fill="none" viewBox="0 0 24 24"><path fill="#000" fill-rule="evenodd" d="M15.903 16.699h1.603v-1.5h-1.604zm-1.767-3.482h1.605v-1.5h-1.604zm-2.883 1.714h-1.86v1.823h-1.5v-1.823H6.03v-1.5h1.862v-1.824h1.5v1.824h1.86zm4.51-8.138H12.75v-.348c-.008-1.519-1.266-2.759-2.81-2.764H8.91a.57.57 0 0 1-.582-.556v-.75h-1.5v.75c0 1.133.935 2.056 2.083 2.056h1.026c.72.002 1.31.573 1.313 1.268v.344H8.238c-4.09 0-7.416 3.327-7.416 7.416s3.326 7.416 7.416 7.416h7.525c4.09 0 7.416-3.327 7.416-7.416s-3.326-7.416-7.416-7.416" clip-rule="evenodd"/></svg>