<svg xmlns="http://www.w3.org/2000/svg" fill="none" viewBox="0 0 24 24"><path fill="#000" d="M12.75 6.793h3.012c4.09 0 7.416 3.327 7.416 7.416s-3.326 7.416-7.416 7.416H8.238c-4.09 0-7.416-3.327-7.416-7.416s3.326-7.416 7.416-7.416z" opacity=".4"/><path fill="#000" d="M12.75 6.793v-.348c-.006-1.519-1.265-2.759-2.81-2.764H8.913a.57.57 0 0 1-.583-.556v-.75h-1.5v.75c0 1.133.935 2.056 2.083 2.056h1.026c.72.002 1.31.573 1.313 1.268v.344zm-1.497 8.137h-1.86v1.824h-1.5V14.93H6.03v-1.5h1.862v-1.824h1.5v1.824h1.86zm4.487-1.713h-1.604v-1.5h1.605zm1.767 3.482h-1.605v-1.5h1.604z"/></svg>