<svg xmlns="http://www.w3.org/2000/svg" fill="none" viewBox="0 0 24 24"><path fill="#000" fill-rule="evenodd" d="M9.392 11.482v5.148h-1.5v-5.148z" clip-rule="evenodd"/><path fill="#000" fill-rule="evenodd" d="M6.03 13.306h5.222v1.5H6.03zm8.106-1.713h1.604v1.5h-1.604zm1.766 3.482h1.604v1.5h-1.604zM8.328 2.25V3a.57.57 0 0 0 .583.556h1.031c1.534.005 2.8 1.226 2.808 2.765v1.46h-1.5V6.326c-.004-.686-.576-1.267-1.312-1.27H8.911C7.775 5.056 6.828 4.15 6.828 3v-.75z" clip-rule="evenodd"/><path fill="#000" fill-rule="evenodd" d="M8.237 21.75a7.666 7.666 0 1 1 0-15.332h7.525a7.666 7.666 0 1 1 0 15.332zm-6.166-7.666a6.166 6.166 0 0 0 6.166 6.166h7.525a6.166 6.166 0 1 0 0-12.332H8.237a6.166 6.166 0 0 0-6.166 6.166" clip-rule="evenodd"/></svg>