<svg xmlns="http://www.w3.org/2000/svg" fill="none" viewBox="0 0 24 24"><path fill="#000" fill-rule="evenodd" d="m20.378 10.03.083.746 1.491-.168-.084-.745a8.67 8.67 0 0 0-7.702-7.694l-.746-.083-.165 1.491.745.083a7.18 7.18 0 0 1 6.378 6.37" clip-rule="evenodd"/><path fill="#000" fill-rule="evenodd" d="m16.847 10.1.144.736 1.472-.286-.143-.736a5.155 5.155 0 0 0-4.093-4.093l-.736-.143-.287 1.472.736.143a3.66 3.66 0 0 1 2.907 2.908m-3.245 5.529c-.52-.18-2.015-.784-3.382-2.15a8.2 8.2 0 0 1-1.975-3.195l1.699-2.951-3.698-5.08-.391.23c-1.582.928-2.742 2.088-3.651 3.65l-.06.16c-.512 2.746 1.059 6.79 3.908 10.066 3.09 3.553 7.102 5.555 11.084 5.555q.27 0 .54-.012l.119-.005.103-.06c1.602-.896 2.767-2.06 3.663-3.662l.215-.385-5.228-3.855z" clip-rule="evenodd"/></svg>