<svg xmlns="http://www.w3.org/2000/svg" fill="none" viewBox="0 0 24 24"><path fill="#000" fill-rule="evenodd" d="M13.602 15.63c-.52-.18-2.016-.784-3.383-2.15a8.2 8.2 0 0 1-1.975-3.195l1.7-2.951-3.699-5.08-.39.23c-1.583.928-2.743 2.088-3.652 3.65l-.059.16C1.63 9.04 3.201 13.084 6.05 16.36c3.09 3.553 7.103 5.555 11.084 5.555q.27 0 .54-.012l.12-.005.102-.06c1.602-.896 2.767-2.06 3.663-3.662l.215-.385-5.227-3.855z" clip-rule="evenodd" opacity=".4"/><path fill="#000" fill-rule="evenodd" d="m20.378 10.03.083.746 1.49-.168-.083-.745a8.67 8.67 0 0 0-7.702-7.694l-.746-.083-.165 1.491.745.083a7.18 7.18 0 0 1 6.378 6.37" clip-rule="evenodd"/><path fill="#000" fill-rule="evenodd" d="m16.847 10.1.144.737 1.472-.286-.143-.736a5.155 5.155 0 0 0-4.093-4.093l-.736-.143-.287 1.472.736.143a3.66 3.66 0 0 1 2.907 2.907" clip-rule="evenodd"/></svg>