<svg xmlns="http://www.w3.org/2000/svg" fill="none" viewBox="0 0 24 24"><path fill="#000" fill-rule="evenodd" d="m13.584 1.922.746.083a8.72 8.72 0 0 1 7.702 7.693l.084.746-1.49.167-.084-.745a7.22 7.22 0 0 0-6.378-6.37l-.745-.083z" clip-rule="evenodd"/><path fill="#000" fill-rule="evenodd" d="m13.654 5.414.736.143a5.18 5.18 0 0 1 4.093 4.093l.144.736-1.473.287-.143-.737a3.68 3.68 0 0 0-2.907-2.907l-.736-.143zM6.478 1.76l3.927 5.394-1.725 2.995c.061.181.16.441.307.751.3.632.794 1.459 1.574 2.238a9.2 9.2 0 0 0 2.373 1.702c.333.167.613.28.806.351l2.987-1.72 5.538 4.084-.323.577c-.925 1.654-2.107 2.835-3.76 3.76l-.155.087-.177.008c-4.879.223-9.074-2.43-11.897-5.713-1.416-1.648-2.511-3.479-3.192-5.241-.677-1.75-.97-3.496-.698-4.95l.023-.126.066-.112c.934-1.607 2.141-2.804 3.74-3.742zm7.345 14.25-.2.723-.003-.002-.008-.002-.025-.007a5 5 0 0 1-.364-.123 10 10 0 0 1-.959-.417A10.7 10.7 0 0 1 9.5 14.2a9.6 9.6 0 0 1-1.869-2.656 9 9 0 0 1-.375-.924 6 6 0 0 1-.108-.353l-.006-.024-.002-.008v-.003c0-.001 0-.002.729-.176l-.73.174-.069-.29 1.55-2.69-2.542-3.49a8.5 8.5 0 0 0-2.562 2.725c-.164 1.064.046 2.463.644 4.008.615 1.593 1.618 3.278 2.93 4.804 2.598 3.021 6.316 5.323 10.514 5.2 1.137-.664 1.989-1.463 2.688-2.532l-3.666-2.703-2.7 1.554-.302-.082z" clip-rule="evenodd"/></svg>