<svg xmlns="http://www.w3.org/2000/svg" fill="none" viewBox="0 0 24 24"><path fill="#000" d="M20.29 12.66h-8.48a.71.71 0 0 1 0-1.422h8.478a.71.71 0 0 1 0 1.421" opacity=".4"/><mask id="a" width="10" height="12" x="3" y="6" maskUnits="userSpaceOnUse" style="mask-type:luminance"><path fill="#fff" fill-rule="evenodd" d="M12.522 6.5v10.897h-8.94V6.5z" clip-rule="evenodd"/></mask><g mask="url(#a)"><path fill="#000" d="M11.811 17.397a.7.7 0 0 1-.379-.109L3.914 12.55a.712.712 0 0 1 0-1.203l7.518-4.738a.71.71 0 0 1 .722-.02.71.71 0 0 1 .367.622v9.475a.71.71 0 0 1-.71.71"/></g></svg>