<svg xmlns="http://www.w3.org/2000/svg" fill="none" viewBox="0 0 24 24"><path fill="#000" fill-rule="evenodd" d="M12.3 13.5h8.95a.75.75 0 0 0 0-1.5H12.3a.75.75 0 0 0 0 1.5" clip-rule="evenodd"/><mask id="a" width="11" height="12" x="3" y="7" maskUnits="userSpaceOnUse" style="mask-type:luminance"><path fill="#fff" fill-rule="evenodd" d="M13.05 7H3.613v11.501h9.437z" clip-rule="evenodd"/></mask><g mask="url(#a)"><path fill="#000" fill-rule="evenodd" d="M11.55 9.109v7.283L5.77 12.75zm.75 9.393a.75.75 0 0 0 .75-.75V7.75a.748.748 0 0 0-1.15-.635l-7.937 5a.75.75 0 0 0 0 1.27l7.938 5c.12.078.26.117.399.117" clip-rule="evenodd"/></g></svg>