<svg xmlns="http://www.w3.org/2000/svg" fill="none" viewBox="0 0 24 24"><path stroke="#000" stroke-linecap="round" stroke-linejoin="round" stroke-width="1.5" d="M8.162 3.787c.29-.081-.004-.001.318-.061 1.012-.188 2.18-.274 3.52-.274q.967 0 1.816.061M12 22c-6.956 0-9.275-2.318-9.275-9.274 0-4.127.816-6.622 2.933-7.968m10.362-.927c3.863.9 5.255 3.505 5.255 8.895 0 5.856-1.644 8.425-6.315 9.091M3 9.274h18.008m-4.605 3.937h.01m-4.409 0h.01m-4.418 0h.01m8.797 3.852h.01m-4.409 0h.01m-4.418 0h.01M16.008 2v3.262M8 2v3.262"/></svg>