<svg xmlns="http://www.w3.org/2000/svg" fill="none" viewBox="0 0 24 24"><path fill="#000" fill-rule="evenodd" d="M21.62 10.15H2.38a22 22 0 0 0-.154 2.702c0 7.215 2.558 9.773 9.774 9.773 7.217 0 9.775-2.558 9.775-9.773 0-.99-.053-1.882-.155-2.702" clip-rule="evenodd" opacity=".4"/><path fill="#000" d="M15.659 13.337c0 .414.34.75.754.75a.75.75 0 0 0 0-1.5h-.01a.746.746 0 0 0-.744.75m0 3.853c0 .414.34.75.754.75a.75.75 0 0 0 0-1.5h-.01a.745.745 0 0 0-.744.75m-4.4-3.853c0 .414.34.75.755.75a.75.75 0 0 0 0-1.5h-.01a.747.747 0 0 0-.745.75m0 3.853c0 .414.34.75.755.75a.75.75 0 0 0 0-1.5h-.01a.746.746 0 0 0-.745.75M6.85 13.337c0 .414.342.75.756.75a.75.75 0 0 0 0-1.5h-.01a.747.747 0 0 0-.745.75M6.85 17.19c0 .414.342.75.756.75a.75.75 0 0 0 0-1.5h-.01a.746.746 0 0 0-.745.75"/><path fill="#000" fill-rule="evenodd" d="M16.953 3.728V2.125a.75.75 0 0 0-1.5 0v3.263c0 .26.141.48.343.613a.73.73 0 0 1-.408.137.75.75 0 0 1-.75-.75V3.222A22 22 0 0 0 12 3.077a20.6 20.6 0 0 0-3.054.205V2.125a.75.75 0 0 0-1.5 0v3.263c0 .26.141.48.343.613a.73.73 0 0 1-.408.137.75.75 0 0 1-.75-.75v-1.53c-2.134.823-3.386 2.354-3.978 4.792h18.695c-.628-2.586-2.016-4.138-4.394-4.922" clip-rule="evenodd"/></svg>