<svg xmlns="http://www.w3.org/2000/svg" fill="none" viewBox="0 0 24 24"><path fill="#000" fill-rule="evenodd" d="M5.309 6.06c-1.227 1.227-1.81 3.28-1.81 6.716s.583 5.488 1.81 6.715S8.588 21.3 12.024 21.3s5.489-.583 6.716-1.81c1.226-1.226 1.809-3.278 1.809-6.714s-.583-5.489-1.81-6.716c-1.226-1.226-3.279-1.808-6.715-1.808s-5.488.582-6.715 1.808M4.249 5c1.67-1.672 4.256-2.248 7.775-2.248S18.128 3.328 19.8 5c1.672 1.671 2.249 4.256 2.249 7.776s-.577 6.104-2.249 7.776c-1.672 1.67-4.257 2.248-7.776 2.248s-6.104-.577-7.776-2.249C2.577 18.88 2 16.295 2 12.776S2.577 6.67 4.248 5" clip-rule="evenodd"/><path fill="#000" fill-rule="evenodd" d="M2.275 9.324a.75.75 0 0 1 .75-.75h18.008a.75.75 0 1 1 0 1.5H3.025a.75.75 0 0 1-.75-.75m13.404 3.937a.75.75 0 0 1 .75-.75h.009a.75.75 0 0 1 0 1.5h-.01a.75.75 0 0 1-.75-.75m-4.398 0a.75.75 0 0 1 .75-.75h.008a.75.75 0 0 1 0 1.5h-.009a.75.75 0 0 1-.75-.75m-4.408 0a.75.75 0 0 1 .75-.75h.01a.75.75 0 0 1 0 1.5h-.01a.75.75 0 0 1-.75-.75m8.808 3.852a.75.75 0 0 1 .75-.75h.009a.75.75 0 0 1 0 1.5h-.01a.75.75 0 0 1-.75-.75m-4.398 0a.75.75 0 0 1 .75-.75h.008a.75.75 0 0 1 0 1.5h-.009a.75.75 0 0 1-.75-.75m-4.408 0a.75.75 0 0 1 .75-.75h.01a.75.75 0 0 1 0 1.5h-.01a.75.75 0 0 1-.75-.75M16.033 1.3a.75.75 0 0 1 .75.75v3.262a.75.75 0 0 1-1.5 0V2.05a.75.75 0 0 1 .75-.75m-8.008 0a.75.75 0 0 1 .75.75v3.262a.75.75 0 0 1-1.5 0V2.05a.75.75 0 0 1 .75-.75" clip-rule="evenodd"/></svg>