<svg xmlns="http://www.w3.org/2000/svg" fill="none" viewBox="0 0 24 24"><path fill="#000" fill-rule="evenodd" d="M8.548 11.771a.773.773 0 0 1 1.089.002l1.593 1.592V3.266c0-.423.345-.766.77-.766a.77.77 0 0 1 .77.766v11.955c0 .31-.187.59-.476.709a.78.78 0 0 1-.84-.167l-2.908-2.908a.764.764 0 0 1 .002-1.084m5.092 1.82a.764.764 0 0 1-.006-1.084l.727-.732a.773.773 0 0 1 1.09-.006.763.763 0 0 1 .005 1.084l-.728.733a.77.77 0 0 1-1.088.005M7.217 20.7c0-.442-.345-.8-.77-.8-1.603 0-2.907-1.356-2.907-3.022V11.81c0-1.66 1.3-3.01 2.897-3.01h.941c.425 0 .77-.36.77-.801s-.345-.8-.77-.8h-.941C3.99 7.198 2 9.266 2 11.808v5.068c0 2.55 1.995 4.624 4.447 4.624.425 0 .77-.36.77-.801M22 11.821v5.067c0 2.542-1.99 4.612-4.437 4.612H9.949c-.425 0-.769-.36-.769-.8 0-.443.344-.802.77-.802h7.613c1.597 0 2.897-1.35 2.897-3.01V11.82c0-1.667-1.304-3.022-2.907-3.022h-.93c-.426 0-.77-.358-.77-.8s.344-.801.77-.801h.93C20.005 7.198 22 9.272 22 11.82" clip-rule="evenodd"/></svg>