<svg xmlns="http://www.w3.org/2000/svg" fill="none" viewBox="0 0 24 24"><path fill="#000" fill-rule="evenodd" d="M12.001 16.541a.75.75 0 0 1-.75-.75V3.751a.75.75 0 0 1 1.5 0v12.04a.75.75 0 0 1-.75.75" clip-rule="evenodd"/><path fill="#000" fill-rule="evenodd" d="M12.001 16.541a.75.75 0 0 1-.53-.22l-2.917-2.928a.751.751 0 0 1 1.062-1.059l2.385 2.395 2.385-2.395a.749.749 0 1 1 1.062 1.06l-2.916 2.926a.75.75 0 0 1-.53.221" clip-rule="evenodd"/><mask id="a" width="20" height="15" x="2" y="7" maskUnits="userSpaceOnUse" style="mask-type:luminance"><path fill="#fff" fill-rule="evenodd" d="M2 7.733h20v13.744H2z" clip-rule="evenodd"/></mask><g mask="url(#a)"><path fill="#000" fill-rule="evenodd" d="M17.575 21.477H6.435A4.44 4.44 0 0 1 2 17.042v-4.885a4.43 4.43 0 0 1 4.426-4.424h.941a.75.75 0 0 1 0 1.5h-.94A2.93 2.93 0 0 0 3.5 12.157v4.885a2.94 2.94 0 0 0 2.935 2.935h11.14a2.93 2.93 0 0 0 2.925-2.925v-4.884a2.94 2.94 0 0 0-2.934-2.935h-.932a.75.75 0 0 1 0-1.5h.932A4.44 4.44 0 0 1 22 12.168v4.884a4.43 4.43 0 0 1-4.425 4.425" clip-rule="evenodd"/></g></svg>