<svg xmlns="http://www.w3.org/2000/svg" fill="none" viewBox="0 0 24 24"><path fill="#000" d="M8.24 8.71V7.366C8.25 5.37 9.925 3.74 11.998 3.74c1.585 0 3.008.984 3.526 2.456a.906.906 0 0 0 1.138.537.85.85 0 0 0 .508-.438.84.84 0 0 0 .04-.666C16.44 3.462 14.347 2 11.979 2 8.95 2 6.481 4.416 6.461 7.387v1.524z" opacity=".4"/><path fill="#000" fill-rule="evenodd" d="M7.769 8.711h8.462c2.358 0 4.269 1.87 4.269 4.176v4.938C20.5 20.13 18.589 22 16.231 22H7.77c-2.36 0-4.27-1.87-4.27-4.175v-4.938c0-2.306 1.911-4.176 4.269-4.176m4.226 8.617a.88.88 0 0 0 .894-.874v-2.207a.88.88 0 0 0-.894-.864.875.875 0 0 0-.884.864v2.207c0 .487.396.874.884.874" clip-rule="evenodd"/></svg>