<svg xmlns="http://www.w3.org/2000/svg" fill="none" viewBox="0 0 24 24"><path stroke="#000" stroke-linecap="round" stroke-linejoin="round" stroke-width="1.5" d="M15.438 12.498a3.146 3.146 0 1 0-6.291 0 3.146 3.146 0 0 0 6.291 0" clip-rule="evenodd" opacity=".4"/><path stroke="#000" stroke-linecap="round" stroke-linejoin="round" stroke-width="1.5" d="M12.293 20.2c8.045 0 9.003-2.41 9.003-7.633 0-3.662-.485-5.62-3.534-6.463a1.9 1.9 0 0 1-.842-.533c-.407-.446-.703-1.813-1.684-2.227-.981-.412-4.921-.393-5.887 0-.964.395-1.278 1.781-1.684 2.227a1.9 1.9 0 0 1-.842.533c-3.05.843-3.534 2.801-3.534 6.462 0 5.224.958 7.634 9.003 7.634" clip-rule="evenodd"/><path stroke="#000" stroke-linecap="round" stroke-linejoin="round" stroke-width="1.5" d="M17.205 9h.009" opacity=".4"/></svg>