<svg xmlns="http://www.w3.org/2000/svg" fill="none" viewBox="0 0 24 24"><path fill="#000" fill-rule="evenodd" d="m16.237 8.69-4.959 4.962-2.952-2.957 1.062-1.06 1.891 1.895 3.897-3.9z" clip-rule="evenodd"/><path fill="#000" fill-rule="evenodd" d="M3.383 2.25h17.236v9.8c0 3.625-2.181 6.06-4.246 7.546a16 16 0 0 1-4.049 2.088l-.075.024-.021.007-.006.002h-.003L12.001 21l-.218.718-.003-.001-.007-.002-.021-.007a7 7 0 0 1-.345-.118 16 16 0 0 1-3.779-1.993c-2.064-1.487-4.245-3.922-4.245-7.547zM12 21l-.218.718.218.066.217-.066zm0-.79.082-.03a14.4 14.4 0 0 0 3.413-1.8c1.87-1.347 3.623-3.387 3.623-6.33v-8.3H4.883v8.3c0 2.943 1.753 4.983 3.622 6.33a14.4 14.4 0 0 0 3.496 1.83" clip-rule="evenodd"/></svg>