<svg xmlns="http://www.w3.org/2000/svg" fill="none" viewBox="0 0 24 24"><path fill="#000" fill-rule="evenodd" d="M20.075 5.774h-4.141c-.041-.654-.222-1.576-.873-2.324-.688-.79-1.718-1.193-3.062-1.193S9.626 2.66 8.938 3.45c-.65.748-.833 1.67-.874 2.324H3.925a.75.75 0 0 0 0 1.5h16.15a.75.75 0 0 0 0-1.5" clip-rule="evenodd"/><path fill="#000" fill-rule="evenodd" d="M19.099 9.598a.5.5 0 0 0-.5-.5H5.403a.5.5 0 0 0-.5.5c0 .997-.018 1.926-.035 2.787-.074 3.749-.123 6.226 1.392 7.77 1.076 1.098 2.843 1.588 5.73 1.588 2.89 0 4.66-.491 5.739-1.59 1.522-1.552 1.474-4.041 1.403-7.811-.016-.85-.033-1.764-.033-2.744" clip-rule="evenodd" opacity=".4"/></svg>