<svg xmlns="http://www.w3.org/2000/svg" fill="none" viewBox="0 0 24 24"><path fill="#000" fill-rule="evenodd" d="M7.812 5.775c.043-.695.24-1.687.937-2.488.737-.85 1.831-1.28 3.25-1.28s2.513.43 3.251 1.28c.697.8.894 1.793.937 2.488h3.889a.75.75 0 0 1 0 1.5H3.925a.75.75 0 0 1 0-1.5zm6.872 0c-.038-.452-.17-1.054-.572-1.511-.44-.502-1.15-.756-2.113-.756-.96 0-1.672.254-2.113.756-.401.457-.534 1.059-.572 1.51z" clip-rule="evenodd"/><path fill="#000" d="M11.989 21.992c-2.959 0-4.781-.513-5.907-1.66-1.588-1.62-1.536-4.273-1.464-7.945v-.007c.017-.86.035-1.787.035-2.783a.75.75 0 0 1 1.5 0c0 1.006-.018 1.943-.036 2.813-.067 3.433-.111 5.7 1.036 6.87.81.827 2.347 1.212 4.836 1.212 2.494 0 4.034-.387 4.848-1.216 1.154-1.177 1.111-3.457 1.046-6.91l-.002-.097c-.015-.828-.032-1.72-.032-2.672a.75.75 0 0 1 1.5 0c0 .98.017 1.891.034 2.74v.008c.07 3.69.119 6.358-1.476 7.982-1.129 1.151-2.955 1.665-5.918 1.665"/></svg>