<svg xmlns="http://www.w3.org/2000/svg" fill="none" viewBox="0 0 24 24"><path fill="#000" fill-rule="evenodd" d="M19.25 6.158c-.364-.32-.777-.682-1.269-1.137-.223-.18-.467-.386-.726-.604-1.46-1.231-3.46-2.917-5.283-2.917-1.802 0-3.673 1.592-5.176 2.871-.278.236-.538.458-.803.673-.466.432-.879.795-1.243 1.116-2.387 2.101-2.836 2.652-2.836 7.553C1.914 22.5 4.455 22.5 12 22.5c7.544 0 10.086 0 10.086-8.787 0-4.902-.449-5.453-2.837-7.555" clip-rule="evenodd" opacity=".4"/><path fill="#000" d="M9.093 16.885h5.815a.75.75 0 0 0 0-1.5H9.093a.75.75 0 0 0 0 1.5"/></svg>