<svg xmlns="http://www.w3.org/2000/svg" fill="none" viewBox="0 0 24 24"><path fill="#000" fill-rule="evenodd" d="M19.427 4.576a10.43 10.43 0 0 0-7.424-3.073 10.43 10.43 0 0 0-7.424 3.073C1.477 7.679.63 12.441 2.456 16.375c.033.162-.056.821-.12 1.303-.242 1.806-.366 3.132.247 3.746.612.613 1.937.489 3.743.246.482-.064 1.149-.15 1.253-.139 1.406.651 2.909.966 4.4.966a10.53 10.53 0 0 0 7.448-3.07c4.093-4.095 4.094-10.757 0-14.851" clip-rule="evenodd" opacity=".4"/><path fill="#000" d="M14.946 12.416c0 .553.453 1 1.005 1a1 1 0 1 0 0-2h-.01a.996.996 0 0 0-.996 1m-4.008 0a1.003 1.003 0 0 0 2.005 0 1 1 0 0 0-1-1h-.01a.996.996 0 0 0-.995 1m-4.009 0a1.003 1.003 0 0 0 2.004 0 1 1 0 0 0-1-1h-.009a.995.995 0 0 0-.995 1"/></svg>