<svg xmlns="http://www.w3.org/2000/svg" fill="none" viewBox="0 0 24 24"><path fill="#000" fill-rule="evenodd" d="M14.94 12.413a1 1 0 0 1 1-1h.008a1 1 0 0 1 0 2h-.008a1 1 0 0 1-1-1m-4.01 0a1 1 0 0 1 1-1h.01a1 1 0 1 1 0 2h-.01a1 1 0 0 1-1-1m-4.009 0a1 1 0 0 1 1-1h.01a1 1 0 1 1 0 2h-.01a1 1 0 0 1-1-1" clip-rule="evenodd"/><path fill="#000" fill-rule="evenodd" d="M18.54 5.457c-3.608-3.61-9.47-3.61-13.08 0a9.26 9.26 0 0 0-1.853 10.441l.015.035c.092.23.09.489.086.636a7 7 0 0 1-.05.612c-.024.204-.055.43-.085.658l-.007.048c-.033.247-.067.502-.096.757-.06.516-.098.999-.081 1.385.008.192.03.335.056.433l.023.07.07.023q.145.042.433.056c.386.017.869-.02 1.385-.08q.385-.046.757-.097l.048-.006c.228-.031.454-.061.658-.085a7 7 0 0 1 .612-.05c.147-.005.407-.007.636.085l.034.015c3.428 1.586 7.615.973 10.44-1.853 3.609-3.61 3.616-9.467 0-13.083m1.061-1.06C15.407.2 8.594.2 4.4 4.397 1.136 7.66.415 12.485 2.209 16.447v.08a6 6 0 0 1-.042.48q-.034.287-.082.637l-.005.043c-.034.247-.07.514-.1.784-.062.532-.112 1.113-.09 1.623.011.256.041.52.109.765.065.24.182.516.404.738.223.223.5.339.738.405.245.067.51.097.765.108.51.022 1.091-.028 1.623-.09.27-.03.537-.066.784-.1l.043-.005q.35-.048.636-.082.307-.036.481-.041h.079c3.963 1.793 8.786 1.073 12.05-2.192 4.193-4.194 4.202-11.001 0-15.203" clip-rule="evenodd"/></svg>