<svg xmlns="http://www.w3.org/2000/svg" fill="none" viewBox="0 0 24 24"><path fill="#000" fill-rule="evenodd" d="m14.477 4.442 7.269 12.615c.16.377.23.683.25 1.001a2.76 2.76 0 0 1-.73 2.021 2.84 2.84 0 0 1-1.95.921H4.68c-.31-.019-.62-.09-.91-.198-1.45-.585-2.15-2.23-1.56-3.656L9.53 4.433a2.73 2.73 0 0 1 1.099-1.08 2.85 2.85 0 0 1 3.85 1.09m-1.61 8.314c0 .475-.39.873-.87.873a.885.885 0 0 1-.88-.873V9.952c0-.476.4-.862.88-.862s.87.386.87.862zm-.87 4.262a.884.884 0 0 1-.88-.872c0-.477.4-.873.88-.873s.87.387.87.862c0 .485-.39.883-.87.883" clip-rule="evenodd"/></svg>