<svg xmlns="http://www.w3.org/2000/svg" fill="none" viewBox="0 0 24 24"><path fill="#000" fill-rule="evenodd" d="M21.75 17.186q.024.044.043.09c.12.294.187.603.204.919a2.8 2.8 0 0 1-.725 2.04 2.8 2.8 0 0 1-1.956.932H8.56a.75.75 0 0 1 0-1.5h10.72c.315-.017.641-.171.88-.436a1.32 1.32 0 0 0 .26-1.35L13.17 5.195a1.334 1.334 0 0 0-1.812-.528c-.219.12-.398.3-.519.519L3.583 17.882c-.117.318-.109.663.023.976.138.327.395.58.724.714q.21.085.432.097a.75.75 0 0 1-.038 1.499l-.038-.001a2.8 2.8 0 0 1-.922-.205 2.8 2.8 0 0 1-1.539-1.52 2.8 2.8 0 0 1-.015-2.166 1 1 0 0 1 .043-.09L9.53 4.45a2.83 2.83 0 0 1 4.947.009zM12 13.598a.75.75 0 0 0 .75-.75v-2.827a.75.75 0 0 0-1.5 0v2.827c0 .414.336.75.75.75m0 3.42a.75.75 0 0 0 .75-.75v-.01a.746.746 0 0 0-.75-.744.755.755 0 0 0-.75.755c0 .414.336.75.75.75" clip-rule="evenodd"/></svg>