<svg xmlns="http://www.w3.org/2000/svg" fill="none" viewBox="0 0 24 24"><path fill="#000" fill-rule="evenodd" d="M4.113 4.763c-.214.262-.363.66-.363 1.338 0 .686.32 1.368.922 2.104.604.739 1.424 1.449 2.306 2.198l.138.118c.817.694 1.68 1.428 2.344 2.196.7.811 1.274 1.768 1.274 2.883 0 1.743.008 2.97.229 3.775.104.382.236.58.362.687.115.098.305.188.679.188.373 0 .562-.09.676-.187.126-.107.257-.305.36-.687.22-.806.227-2.033.227-3.777 0-1.114.574-2.07 1.274-2.882.663-.768 1.527-1.502 2.344-2.196l.138-.118c.881-.75 1.701-1.46 2.305-2.198.602-.736.922-1.418.922-2.104 0-.678-.15-1.076-.363-1.338-.22-.268-.593-.498-1.247-.667-.657-.17-1.523-.26-2.644-.305-1.053-.041-2.288-.041-3.733-.041h-.527c-1.445 0-2.68 0-3.733.041-1.12.045-1.987.135-2.644.305-.653.17-1.026.399-1.246.667m7.61-2.513h.553c1.432 0 2.695 0 3.78.042 1.148.046 2.144.14 2.96.352.82.212 1.534.561 2.031 1.17.503.614.703 1.391.703 2.287 0 1.177-.553 2.19-1.26 3.054-.705.86-1.631 1.656-2.495 2.391l-.103.087c-.849.722-1.63 1.387-2.216 2.064-.609.706-.909 1.32-.909 1.903v.095c0 1.612 0 3.048-.279 4.075-.148.543-.395 1.06-.835 1.434-.452.386-1.018.546-1.65.546s-1.197-.16-1.65-.545c-.44-.375-.688-.89-.837-1.434-.282-1.032-.282-2.477-.282-4.098V15.6c0-.583-.3-1.197-.91-1.902-.584-.678-1.366-1.343-2.216-2.065l-.102-.087c-.864-.735-1.79-1.53-2.495-2.391C2.803 8.29 2.25 7.278 2.25 6.1c0-.896.2-1.673.703-2.288.497-.608 1.21-.957 2.03-1.169.817-.212 1.813-.306 2.961-.352 1.084-.042 2.348-.042 3.78-.042" clip-rule="evenodd"/></svg>