<svg xmlns="http://www.w3.org/2000/svg" fill="none" viewBox="0 0 24 24"><path fill="#000" d="M11.25 4.158v.75h1.5v-.75zM12.75 2v-.75h-1.5V2zm6.309 11.26v-.75h-1.5v.75zm.894 5.281v.75h1.427l-.81-1.175zm-15.905 0-.618-.426-.81 1.176h1.428zm13.445-8.937.115.741 1.482-.23-.115-.741zM12.75 4.158V2h-1.5v2.158zm4.808 9.102c0 2.038.62 4.029 1.776 5.707l1.235-.851a8.56 8.56 0 0 1-1.511-4.856zm2.394 4.531H4.048v1.5h15.905zM4.665 18.967a10.05 10.05 0 0 0 1.777-5.707h-1.5a8.55 8.55 0 0 1-1.512 4.855zm1.777-5.707v-2.793h-1.5v2.793zm0-2.793A5.56 5.56 0 0 1 12 4.908v-1.5c-3.9 0-7.06 3.16-7.06 7.059zM12 4.908a5.56 5.56 0 0 1 5.492 4.696l1.482-.23A7.06 7.06 0 0 0 12 3.408z"/><path stroke="#000" stroke-linecap="square" stroke-width="1.5" d="M15.23 18.541v.23a3.23 3.23 0 0 1-6.457 0v-.23"/></svg>