<svg xmlns="http://www.w3.org/2000/svg" fill="none" viewBox="0 0 24 24"><path fill="#000" d="M9.553 18.691A2.473 2.473 0 0 0 12 20.876a2.474 2.474 0 0 0 2.449-2.185h1.501c-.154 2.055-1.858 3.685-3.95 3.685s-3.796-1.63-3.95-3.685zM12.75 3.265v-1.64h-1.5v1.64z"/><path fill="#000" d="m9.552 18.691-.002-.024h4.902l-.002.024h1.5l.002-.024h4.952l-.54-.785a8.77 8.77 0 0 1-1.556-4.996v-2.794c0-3.5-2.656-6.39-6.057-6.765v-.062h-1.5v.062c-3.403.375-6.06 3.264-6.06 6.765v2.794a8.76 8.76 0 0 1-1.555 4.996l-.54.784H8.05l.001.025z" opacity=".4"/></svg>