<svg xmlns="http://www.w3.org/2000/svg" fill="none" viewBox="0 0 24 24"><path fill="#000" fill-rule="evenodd" d="M11.25 3.448V2h1.5v1.448a7.06 7.06 0 0 1 6.308 7.019v2.793c0 1.734.527 3.428 1.512 4.855l.81 1.176H2.62l.81-1.176a8.55 8.55 0 0 0 1.512-4.855v-2.793a7.06 7.06 0 0 1 6.309-7.02m.75 1.46a5.56 5.56 0 0 0-5.559 5.559v2.793c0 1.58-.372 3.132-1.079 4.531h13.275a10.05 10.05 0 0 1-1.079-4.53v-2.794A5.56 5.56 0 0 0 12 4.908" clip-rule="evenodd"/><path fill="#000" fill-rule="evenodd" d="M8.022 18.771v-.23h1.5v.23a2.479 2.479 0 1 0 4.957 0v-.23h1.5v.23a3.979 3.979 0 1 1-7.957 0" clip-rule="evenodd"/></svg>