<svg xmlns="http://www.w3.org/2000/svg" fill="none" viewBox="0 0 24 24"><path fill="#000" fill-rule="evenodd" d="M12 2.25c-7.198 0-9.75 2.552-9.75 9.75s2.552 9.75 9.75 9.75 9.75-2.552 9.75-9.75S19.198 2.25 12 2.25" clip-rule="evenodd" opacity=".4"/><path fill="#000" d="M15.75 12.428a.749.749 0 0 0 .621-1.168c-.826-1.23-2.91-4.096-4.371-4.096S8.455 10.03 7.628 11.26a.75.75 0 1 0 1.244.837c.797-1.185 1.716-2.287 2.378-2.91v6.9a.75.75 0 0 0 1.5 0V9.193c.669.625 1.585 1.723 2.378 2.903a.75.75 0 0 0 .623.331"/></svg>