<svg xmlns="http://www.w3.org/2000/svg" fill="none" viewBox="0 0 24 24"><path fill="#000" fill-rule="evenodd" d="M2 3.85h20v6.912h-.75c-.71 0-1.263.56-1.263 1.239 0 .678.553 1.238 1.263 1.238H22v6.911H2v-6.91h.75c.71 0 1.263-.56 1.263-1.24 0-.64-.513-1.16-1.263-1.16H2zm1.5 1.5v4.086c1.139.3 2.013 1.274 2.013 2.565A2.74 2.74 0 0 1 3.5 14.638v4.012h17v-4.012A2.74 2.74 0 0 1 18.487 12 2.74 2.74 0 0 1 20.5 9.362V5.35z" clip-rule="evenodd"/><path fill="#000" fill-rule="evenodd" d="m12 7.066 1.474 2.795 3.114.54-2.203 2.265.45 3.129L12 14.4l-2.836 1.395.45-3.129L7.41 10.4l3.114-.539zm0 3.215-.493.933-1.04.18.736.756-.15 1.044.946-.465.947.465-.15-1.044.735-.757-1.04-.18z" clip-rule="evenodd"/></svg>