<svg xmlns="http://www.w3.org/2000/svg" fill="none" viewBox="0 0 24 24"><path fill="#000" fill-rule="evenodd" d="M19.504 2.077a1.94 1.94 0 0 1 1.93.506c.503.51.689 1.257.484 1.947l-1.249 4.202a.75.75 0 1 1-1.437-.432l1.249-4.203a.45.45 0 0 0-.112-.452.44.44 0 0 0-.448-.117L3.829 8.207a.44.44 0 0 0-.324.377.45.45 0 0 0 .213.45l3.386 2.084a.76.76 0 0 1 .248 1.039.75.75 0 0 1-1.03.25l-3.386-2.085a1.95 1.95 0 0 1-.918-1.94 1.94 1.94 0 0 1 1.395-1.627zM18.028 12.35c.12-.4.537-.628.934-.507.397.12.623.54.504.94l-2.322 7.814a1.93 1.93 0 0 1-1.624 1.387 1.92 1.92 0 0 1-1.918-.929l-4.1-6.79a.76.76 0 0 1 .11-.925l5.822-5.859a.746.746 0 0 1 1.06 0 .76.76 0 0 1 0 1.068l-5.404 5.44 3.794 6.282a.44.44 0 0 0 .445.216.44.44 0 0 0 .377-.322z" clip-rule="evenodd"/></svg>