<svg xmlns="http://www.w3.org/2000/svg" fill="none" viewBox="0 0 24 24"><path fill="#000" fill-rule="evenodd" d="M17.76 13.852a.75.75 0 0 1-1.5 0V12.75h-1.328v1.102a.75.75 0 0 1-1.5 0V12.75h-2.116a2.6 2.6 0 0 1-2.479 1.852A2.604 2.604 0 0 1 6.236 12a2.604 2.604 0 0 1 2.601-2.601 2.6 2.6 0 0 1 2.479 1.851h5.694a.75.75 0 0 1 .75.75zM12 2.25c-7.198 0-9.75 2.552-9.75 9.75s2.552 9.75 9.75 9.75 9.75-2.551 9.75-9.75S19.198 2.25 12 2.25" clip-rule="evenodd"/><path fill="#000" fill-rule="evenodd" d="M8.84 10.899c-.61 0-1.105.494-1.105 1.102a1.103 1.103 0 0 0 2.205 0c0-.607-.494-1.101-1.1-1.102" clip-rule="evenodd"/></svg>