<svg xmlns="http://www.w3.org/2000/svg" fill="none" viewBox="0 0 24 24"><path fill="#000" fill-rule="evenodd" d="M12 2.25c-7.198 0-9.75 2.552-9.75 9.75s2.552 9.75 9.75 9.75 9.75-2.551 9.75-9.75S19.198 2.25 12 2.25" clip-rule="evenodd" opacity=".4"/><path fill="#000" fill-rule="evenodd" d="M17.76 13.852a.75.75 0 0 1-1.5 0V12.75h-1.328v1.102a.75.75 0 0 1-1.5 0V12.75h-2.116a2.6 2.6 0 0 1-2.479 1.852A2.604 2.604 0 0 1 6.237 12a2.604 2.604 0 0 1 2.6-2.601 2.6 2.6 0 0 1 2.48 1.85h5.693a.75.75 0 0 1 .75.75zM7.735 12c0-.608.495-1.102 1.104-1.102A1.104 1.104 0 0 1 9.94 12a1.103 1.103 0 0 1-2.205 0" clip-rule="evenodd"/></svg>