<svg xmlns="http://www.w3.org/2000/svg" fill="none" viewBox="0 0 24 24"><path fill="#000" d="m21.756 20.607-3.438-3.361-.08-.123a.806.806 0 0 0-1.137 0c-2.921 2.68-7.423 2.826-10.519.34-3.096-2.485-3.826-6.83-1.706-10.153s6.432-4.593 10.077-2.968 5.49 5.642 4.314 9.386a.78.78 0 0 0 .182.771.82.82 0 0 0 .774.232.8.8 0 0 0 .593-.54c1.406-4.442-.718-9.223-5-11.25S6.381 2.251 3.69 6.085 1.575 15.102 5.05 18.28c3.474 3.177 8.8 3.396 12.535.515l3.044 2.975a.82.82 0 0 0 1.137 0 .784.784 0 0 0 0-1.12z"/></svg>