<svg xmlns="http://www.w3.org/2000/svg" fill="none" viewBox="0 0 24 24"><mask id="a" width="20" height="20" x="2" y="2" maskUnits="userSpaceOnUse" style="mask-type:luminance"><path fill="#fff" fill-rule="evenodd" d="M2 2h19.477v19.477H2z" clip-rule="evenodd"/></mask><g mask="url(#a)"><path fill="#000" fill-rule="evenodd" d="M11.739 3.5c-4.543 0-8.24 3.695-8.24 8.238s3.697 8.239 8.24 8.239c4.542 0 8.238-3.696 8.238-8.239S16.28 3.5 11.739 3.5m0 17.977c-5.37 0-9.74-4.369-9.74-9.739S6.37 2 11.74 2s9.738 4.368 9.738 9.738-4.368 9.739-9.738 9.739" clip-rule="evenodd"/></g><mask id="b" width="6" height="6" x="17" y="17" maskUnits="userSpaceOnUse" style="mask-type:luminance"><path fill="#fff" fill-rule="evenodd" d="M17.24 17.707h5.024v5.015H17.24z" clip-rule="evenodd"/></mask><g mask="url(#b)"><path fill="#000" fill-rule="evenodd" d="M21.514 22.722a.75.75 0 0 1-.53-.22L17.46 18.99a.75.75 0 0 1 1.06-1.063l3.524 3.515a.749.749 0 0 1-.53 1.28" clip-rule="evenodd"/></g></svg>