<svg xmlns="http://www.w3.org/2000/svg" fill="none" viewBox="0 0 24 24"><path fill="#000" fill-rule="evenodd" d="M15.444 6.445v.007l.048.44c.183 1.478.183 8.737 0 10.218l-.048.455c-.045.463-.092.943-.228 1.454C14.867 20.22 13.922 21 12.85 21h-.001q-.05-.002-.099-.001c-.594 0-1.238-.361-1.602-.674L7.378 17.2a.813.813 0 0 1-.115-1.132.784.784 0 0 1 1.115-.116l3.78 3.135c.238.202.55.327.633.3.39.03.757-.312.902-.807.096-.36.134-.754.175-1.168v-.005c.016-.166.032-.328.052-.495.164-1.334.164-8.492 0-9.822l-.05-.47-.001-.005c-.045-.426-.091-.865-.182-1.225-.14-.467-.512-.821-.856-.779-.148.005-.513.15-.738.345L8.38 8.046a.78.78 0 0 1-.502.182H5.77c-.664 0-.98.573-1.053 1.11-.178 1.453-.179 3.965 0 5.259a.805.805 0 0 1-.675.91.803.803 0 0 1-.894-.688c-.218-1.582-.176-4.269 0-5.692.202-1.482 1.28-2.508 2.622-2.508h1.825l3.484-2.899c.419-.362 1.182-.715 1.744-.72 1.062.018 2.035.754 2.388 1.957.13.5.182 1.001.233 1.487m2.58.64a.815.815 0 0 1 .198-1.121.785.785 0 0 1 1.102.2C20.406 7.746 21 9.816 21 12s-.595 4.255-1.675 5.835a.79.79 0 0 1-1.103.2.81.81 0 0 1-.197-1.12c.897-1.312 1.392-3.058 1.392-4.915s-.495-3.603-1.392-4.914" clip-rule="evenodd"/></svg>