<svg xmlns="http://www.w3.org/2000/svg" fill="none" viewBox="0 0 24 24"><mask id="a" width="13" height="16" x="3" y="5" maskUnits="userSpaceOnUse" style="mask-type:luminance"><path fill="#fff" fill-rule="evenodd" d="M3 5h12.02v15.502H3z" clip-rule="evenodd"/></mask><g mask="url(#a)"><path fill="#000" fill-rule="evenodd" d="M12.208 6.506c-.868 0-1.978.881-2.902 1.615-.889.705-1.591 1.263-2.291 1.315-.31.022-.576.032-.81.04-.747.025-.936.042-1.273.32-.442.363-.435 1.846-.431 2.731l.001.221v.004l-.001.221c-.004.886-.011 2.37.431 2.732.336.278.525.294 1.27.321.235.007.502.017.813.04.7.051 1.402.61 2.291 1.314 1.103.875 2.47 1.96 3.375 1.51.758-.658.839-2.4.839-6.14s-.081-5.48-.839-6.139a1.05 1.05 0 0 0-.473-.105m.01 13.996c-1.391 0-2.77-1.095-3.844-1.947-.485-.385-1.218-.967-1.471-.993a15 15 0 0 0-.754-.037c-.798-.029-1.429-.05-2.171-.662-.992-.817-.983-2.525-.977-3.897l.001-.216-.001-.216c-.006-1.372-.015-3.079.977-3.896.743-.612 1.375-.634 2.175-.66.218-.009.465-.017.752-.038.251-.027.984-.609 1.469-.994 1.398-1.11 3.315-2.628 5.1-1.61a1 1 0 0 1 .09.061c1.394 1.095 1.456 3.16 1.456 7.353 0 4.194-.062 6.26-1.456 7.355a1 1 0 0 1-.091.061 2.5 2.5 0 0 1-1.255.336" clip-rule="evenodd"/></g><path fill="#000" fill-rule="evenodd" d="M18.33 17.187a.75.75 0 0 1-.65-1.123 6.69 6.69 0 0 0 0-6.626.75.75 0 0 1 1.302-.746 8.19 8.19 0 0 1 0 8.118.75.75 0 0 1-.651.377" clip-rule="evenodd"/></svg>