<svg xmlns="http://www.w3.org/2000/svg" fill="none" viewBox="0 0 24 24"><path fill="#000" fill-rule="evenodd" d="M16.3 21.949h-3.32a.75.75 0 0 1 0-1.5h3.32c2.527 0 4.16-1.727 4.16-4.399V7.899c0-2.673-1.633-4.399-4.16-4.399H7.65C5.129 3.5 3.5 5.226 3.5 7.899v8.151c0 2.672 1.629 4.399 4.15 4.399h.721a.75.75 0 0 1 0 1.5H7.65C4.271 21.949 2 19.578 2 16.05V7.899C2 4.371 4.271 2 7.65 2h8.65c3.386 0 5.66 2.371 5.66 5.899v8.151c0 3.528-2.274 5.899-5.66 5.899M5.282 17.182a.75.75 0 0 1-.545-1.266l1.53-1.614c.407-.432.96-.67 1.555-.673.574.038 1.148.233 1.56.661l.882.898a.65.65 0 0 0 .518.204.68.68 0 0 0 .498-.249l2.229-2.712a2.44 2.44 0 0 1 1.782-.888 2.47 2.47 0 0 1 1.85.74l2.077 2.14a.75.75 0 0 1-1.078 1.045l-2.076-2.14a.9.9 0 0 0-.712-.286.93.93 0 0 0-.684.342l-2.23 2.712a2.2 2.2 0 0 1-1.59.795 2.24 2.24 0 0 1-1.655-.652l-.886-.904c-.13-.134-.296-.252-.48-.206a.65.65 0 0 0-.471.204l-1.53 1.615a.74.74 0 0 1-.544.234m3.278-5.544a2.506 2.506 0 0 1-2.504-2.504A2.506 2.506 0 0 1 8.56 6.63a2.506 2.506 0 0 1 2.503 2.504 2.506 2.506 0 0 1-2.503 2.504m0-3.508a1.005 1.005 0 1 0 .002 2.009 1.005 1.005 0 0 0-.002-2.01" clip-rule="evenodd"/></svg>