<svg xmlns="http://www.w3.org/2000/svg" fill="none" viewBox="0 0 24 24"><mask id="a" width="20" height="20" x="2" y="2" maskUnits="userSpaceOnUse" style="mask-type:luminance"><path fill="#fff" fill-rule="evenodd" d="M2 2h19.96v19.95H2z" clip-rule="evenodd"/></mask><g mask="url(#a)"><path fill="#000" fill-rule="evenodd" d="M7.65 3.5C5.13 3.5 3.5 5.227 3.5 7.899v8.152c0 2.673 1.63 4.399 4.15 4.399h8.65c2.527 0 4.16-1.726 4.16-4.399V7.899c0-2.672-1.633-4.399-4.16-4.399zm8.65 18.45H7.65C4.27 21.95 2 19.579 2 16.051V7.899C2 4.371 4.27 2 7.65 2h8.65c3.385 0 5.66 2.371 5.66 5.899v8.152c0 3.528-2.275 5.899-5.66 5.899" clip-rule="evenodd"/></g><path fill="#000" fill-rule="evenodd" d="M5.281 17.18a.748.748 0 0 1-.544-1.265l1.528-1.613a2.156 2.156 0 0 1 3.037-.09l.958.972c.267.27.701.275.97.01.1-.119 2.278-2.764 2.278-2.764a2.43 2.43 0 0 1 1.647-.875 2.45 2.45 0 0 1 1.784.545c.043.034.082.069 2.278 2.324a.75.75 0 1 1-1.074 1.046s-2.049-2.104-2.195-2.245a.92.92 0 0 0-.649-.178.93.93 0 0 0-.632.337c-2.324 2.82-2.352 2.846-2.39 2.883a2.184 2.184 0 0 1-3.086-.032s-.93-.944-.946-.962c-.23-.214-.643-.2-.89.06l-1.53 1.614a.75.75 0 0 1-.544.233m3.277-9.051a1.004 1.004 0 1 0 .002 2.009 1.004 1.004 0 0 0-.002-2.01m0 3.509a2.507 2.507 0 0 1-2.503-2.505 2.506 2.506 0 0 1 2.504-2.504 2.51 2.51 0 0 1 2.505 2.504 2.51 2.51 0 0 1-2.505 2.505" clip-rule="evenodd"/></svg>