<svg xmlns="http://www.w3.org/2000/svg" fill="none" viewBox="0 0 24 24"><path stroke="#000" stroke-linecap="round" stroke-linejoin="round" stroke-width="1.5" d="M21.21 7.9v8.15c0 3.02-1.89 5.15-4.91 5.15H7.65c-3.02 0-4.9-2.13-4.9-5.15V7.9c0-3.02 1.89-5.15 4.9-5.15h8.65c3.02 0 4.91 2.13 4.91 5.15" clip-rule="evenodd"/><path stroke="#000" stroke-linecap="round" stroke-linejoin="round" stroke-width="1.5" d="m5.281 16.43 1.528-1.612a1.4 1.4 0 0 1 1.98-.06l.937.952a1.434 1.434 0 0 0 2.027.02c.037-.036 2.334-2.822 2.334-2.822a1.687 1.687 0 0 1 2.375-.23c.048.04 2.218 2.268 2.218 2.268"/><path stroke="#000" stroke-linecap="round" stroke-linejoin="round" stroke-width="1.5" d="M10.313 9.133a1.754 1.754 0 1 1-3.508 0 1.754 1.754 0 0 1 3.508 0" clip-rule="evenodd"/></svg>