<svg xmlns="http://www.w3.org/2000/svg" fill="none" viewBox="0 0 24 24"><path fill="#000" fill-rule="evenodd" d="M17.327 3.75a2.923 2.923 0 1 0 0 5.847 2.923 2.923 0 0 0 0-5.847m-4.423 2.924a4.423 4.423 0 1 1 8.847 0 4.423 4.423 0 0 1-8.847 0M6.673 3.75a2.924 2.924 0 1 0 .002 5.848 2.924 2.924 0 0 0-.002-5.848M2.25 6.674a4.424 4.424 0 1 1 8.848 0 4.424 4.424 0 0 1-8.848 0m15.077 7.664a2.924 2.924 0 1 0 0 5.847 2.924 2.924 0 0 0 0-5.847m-4.423 2.924a4.424 4.424 0 1 1 8.847 0 4.424 4.424 0 0 1-8.847 0m-6.231-2.924a2.924 2.924 0 1 0 .002 5.848 2.924 2.924 0 0 0-.002-5.848M2.25 17.262a4.424 4.424 0 1 1 8.848 0 4.424 4.424 0 0 1-8.848 0" clip-rule="evenodd"/></svg>