<svg xmlns="http://www.w3.org/2000/svg" fill="none" viewBox="0 0 24 24"><path stroke="#000" stroke-linecap="round" stroke-linejoin="round" stroke-width="1.5" d="M21 6.674a3.674 3.674 0 1 1-7.348-.001 3.674 3.674 0 0 1 7.348 0" clip-rule="evenodd" opacity=".4"/><path stroke="#000" stroke-linecap="round" stroke-linejoin="round" stroke-width="1.5" d="M10.347 6.674a3.674 3.674 0 1 1-7.348 0 3.674 3.674 0 0 1 7.348 0M21 17.262a3.674 3.674 0 1 1-7.347-.001 3.674 3.674 0 0 1 7.347 0" clip-rule="evenodd"/><path stroke="#000" stroke-linecap="round" stroke-linejoin="round" stroke-width="1.5" d="M10.347 17.262a3.673 3.673 0 1 1-7.346 0 3.673 3.673 0 0 1 7.346 0" clip-rule="evenodd" opacity=".4"/></svg>