<svg xmlns="http://www.w3.org/2000/svg" fill="none" viewBox="0 0 24 24"><path fill="#000" d="M2.61 9.35a.75.75 0 0 0 1.013-.314c.61-1.158 1.723-2.744 2.656-3.399v11.568a.75.75 0 0 0 1.5 0V5.638c.934.655 2.054 2.242 2.667 3.399a.751.751 0 0 0 1.326-.702c-.397-.751-2.495-4.5-4.743-4.5s-4.337 3.75-4.732 4.5A.75.75 0 0 0 2.61 9.35m15.1 9.012V6.795a.75.75 0 0 0-1.5 0v11.568c-.935-.656-2.054-2.242-2.668-3.4a.75.75 0 0 0-1.325.701c.396.752 2.494 4.5 4.742 4.5 2.249 0 4.346-3.748 4.744-4.5a.75.75 0 1 0-1.326-.7c-.613 1.156-1.733 2.743-2.667 3.398"/></svg>