<svg xmlns="http://www.w3.org/2000/svg" fill="none" viewBox="0 0 24 24"><path fill="#000" fill-rule="evenodd" d="M19.688 4.826c-.607-.607-3.934-2.754-7.688-2.754S4.92 4.219 4.312 4.826c-.58.581-.573 1.034-.528 3.549.02 1.019.043 2.407.043 4.325 0 6.52 5.324 9.228 8.173 9.228s8.173-2.708 8.173-9.228c0-1.917.025-3.305.043-4.323.045-2.517.053-2.97-.528-3.551" clip-rule="evenodd" opacity=".4"/><path fill="#000" d="M14.41 14.177a.75.75 0 0 0 0-1.06l-1.35-1.35 1.35-1.348a.75.75 0 0 0-1.061-1.06l-1.35 1.348-1.348-1.349A.75.75 0 1 0 9.59 10.42l1.349 1.348-1.35 1.35a.75.75 0 1 0 1.062 1.06L12 12.828l1.349 1.35a.75.75 0 0 0 1.06 0"/></svg>