<svg xmlns="http://www.w3.org/2000/svg" fill="none" viewBox="0 0 24 24"><path fill="#000" fill-rule="evenodd" d="M8.926 16.39h5.386c.406 0 .743-.34.743-.75s-.337-.74-.743-.74H8.926a.743.743 0 0 0-.743.74c0 .41.337.75.743.75m3.346-6.49H8.926a.75.75 0 0 0-.743.75c0 .41.337.74.743.74h3.346c.406 0 .743-.33.743-.74s-.337-.75-.743-.75m7.066-.874c.233-.003.486-.006.716-.006.248 0 .446.2.446.45v8.04c0 2.48-1.99 4.49-4.445 4.49H8.173C5.6 22 3.5 19.89 3.5 17.29V6.51C3.5 4.03 5.5 2 7.965 2h5.288c.257 0 .455.21.455.46v3.22c0 1.83 1.495 3.33 3.307 3.34q.633 0 1.123.006.38.004.679.004c.14 0 .323-.002.521-.004m.273-1.46c-.814.003-1.773 0-2.463-.007-1.095 0-1.997-.911-1.997-2.017V2.906c0-.431.518-.645.814-.334l2.005 2.106 1.98 2.081a.477.477 0 0 1-.339.807" clip-rule="evenodd"/></svg>