<svg xmlns="http://www.w3.org/2000/svg" fill="none" viewBox="0 0 24 24"><path fill="#000" fill-rule="evenodd" d="m20.292 7.557-5.05-5.312a.74.74 0 0 0-.54-.233h-.205l-.025-.006A.1.1 0 0 0 14.44 2a.1.1 0 0 0-.033.006l-.025.006H8.07c-2.477 0-4.57 2.065-4.57 4.51v4.159c0 .416.335.755.748.755a.75.75 0 0 0 .747-.755V6.52c0-1.625 1.408-2.999 3.075-2.999h5.623v2.163c0 1.842 1.483 3.343 3.307 3.347a.75.75 0 0 0 .748-.753.75.75 0 0 0-.745-.757 1.83 1.83 0 0 1-1.815-1.837V4.369l3.817 4.014v8.925c0 1.695-1.388 3.182-2.97 3.182H8.07c-1.724 0-3.075-1.398-3.075-3.182v-2.523a.75.75 0 0 0-.747-.755.75.75 0 0 0-.748.755v2.523C3.5 19.94 5.508 22 8.07 22h7.965c2.42 0 4.465-2.148 4.465-4.692V8.08a.76.76 0 0 0-.208-.523M8.87 16.405h5.382a.75.75 0 0 0 .747-.755.75.75 0 0 0-.747-.755H8.87a.75.75 0 0 0-.748.755c0 .417.335.755.748.755m3.346-4.986H8.87a.75.75 0 0 1-.748-.755c0-.416.335-.755.748-.755h3.346c.413 0 .748.339.748.755a.75.75 0 0 1-.748.755" clip-rule="evenodd"/></svg>