<svg xmlns="http://www.w3.org/2000/svg" fill="none" viewBox="0 0 24 24"><mask id="a" width="18" height="20" x="3" y="2" maskUnits="userSpaceOnUse" style="mask-type:luminance"><path fill="#fff" fill-rule="evenodd" d="M3 2.012h17.053v19.853H3z" clip-rule="evenodd"/></mask><g mask="url(#a)"><path fill="#000" fill-rule="evenodd" d="M7.573 3.512a3.087 3.087 0 0 0-3.072 2.997v10.695a3.087 3.087 0 0 0 3.01 3.162h8.063a3.12 3.12 0 0 0 2.98-3.156V8.34l-4.636-4.828zm.012 18.354h-.109a4.585 4.585 0 0 1-4.475-4.678V6.49c.058-2.481 2.107-4.48 4.57-4.48h6.667c.204 0 .4.084.541.23l5.065 5.278a.75.75 0 0 1 .21.519v9.166a4.617 4.617 0 0 1-4.45 4.66z" clip-rule="evenodd"/></g><path fill="#000" fill-rule="evenodd" d="M19.299 8.984h-2.755a3.33 3.33 0 0 1-3.318-3.325V2.75a.75.75 0 0 1 1.5 0v2.91c0 1.003.816 1.821 1.82 1.824h2.753a.75.75 0 0 1 0 1.5m-5.51 7.124h-5.4a.75.75 0 0 1 0-1.5h5.4a.75.75 0 0 1 0 1.5m-2.045-3.752H8.388a.75.75 0 0 1 0-1.5h3.356a.75.75 0 0 1 0 1.5" clip-rule="evenodd"/></svg>