<svg xmlns="http://www.w3.org/2000/svg" fill="none" viewBox="0 0 24 24"><path fill="#000" d="M16.09 13.017a.75.75 0 0 1-1.238.848c-1.087-1.59-2.434-3.07-2.82-3.166-.447.097-1.794 1.577-2.884 3.166a.751.751 0 0 1-1.238-.848C8.888 11.59 10.718 9.2 12 9.2c1.285 0 3.114 2.39 4.09 3.816"/><path fill="#000" fill-rule="evenodd" d="M12 2c7.383 0 10 2.617 10 10s-2.617 10-10 10S2 19.383 2 12 4.617 2 12 2m0 1.5c-6.514 0-8.5 1.986-8.5 8.5s1.986 8.5 8.5 8.5 8.5-1.986 8.5-8.5-1.986-8.5-8.5-8.5" clip-rule="evenodd"/></svg>