<svg xmlns="http://www.w3.org/2000/svg" fill="none" viewBox="0 0 24 24"><path fill="#000" fill-rule="evenodd" d="M5.304 5.304C4.081 6.527 3.5 8.574 3.5 12c0 3.427.581 5.473 1.804 6.696S8.574 20.5 12 20.5c3.427 0 5.473-.58 6.696-1.804C19.919 17.473 20.5 15.427 20.5 12s-.581-5.473-1.804-6.696S15.426 3.5 12 3.5c-3.427 0-5.473.581-6.696 1.804m-1.06-1.06C5.91 2.575 8.49 2 12 2s6.089.576 7.757 2.243C21.424 5.911 22 8.49 22 12s-.576 6.09-2.243 7.757C18.089 21.425 15.51 22 12 22s-6.089-.575-7.757-2.243S2 15.51 2 12s.576-6.089 2.243-7.757" clip-rule="evenodd"/><path fill="#000" fill-rule="evenodd" d="M14.993 12a1 1 0 0 1 1-1h.01a1 1 0 1 1 0 2h-.01a1 1 0 0 1-1-1m-3.999 0a1 1 0 0 1 1-1h.01a1 1 0 1 1 0 2h-.01a1 1 0 0 1-1-1m-3.998 0a1 1 0 0 1 1-1h.009a1 1 0 1 1 0 2h-.01a1 1 0 0 1-1-1" clip-rule="evenodd"/></svg>