<svg xmlns="http://www.w3.org/2000/svg" fill="none" viewBox="0 0 24 24"><path fill="#000" fill-rule="evenodd" d="M18.906 5.12a9.66 9.66 0 0 0-6.876-2.845A9.66 9.66 0 0 0 5.152 5.12a9.66 9.66 0 0 0-2.85 6.884c.003 3.351-.048 9.195-.048 9.195l-.004.509.508-.005c.058 0 5.81-.052 9.06.02l.222.002a9.63 9.63 0 0 0 6.866-2.85c3.792-3.793 3.792-9.963 0-13.756" clip-rule="evenodd" opacity=".4"/><path fill="#000" d="M16.537 13.132H14.94v-1.5h1.598zm-3.734 0h-1.599v-1.5h1.6zm-3.733 0h-1.6v-1.5h1.6z"/></svg>