<svg xmlns="http://www.w3.org/2000/svg" fill="none" viewBox="0 0 24 24"><path fill="#000" fill-rule="evenodd" d="M18.018 6.004c-3.307-3.307-8.68-3.307-11.986 0a8.44 8.44 0 0 0-2.484 6c.001 1.68-.01 3.982-.023 5.862l-.017 2.378-.002.204H3.7c.594-.005 1.42-.009 2.35-.01 1.857-.005 4.134 0 5.79.036a8.44 8.44 0 0 0 6.178-2.482 8.48 8.48 0 0 0 0-11.988M2.75 21.204 2 21.198l.008-.966.017-2.375c.012-1.881.024-4.179.023-5.852a9.94 9.94 0 0 1 2.923-7.06m0 0C8.863 1.05 15.186 1.05 19.078 4.942c3.9 3.9 3.892 10.218 0 14.11a9.94 9.94 0 0 1-7.27 2.92c-1.637-.035-3.898-.04-5.755-.036a561 561 0 0 0-2.344.01l-.698.005-.253.002-.008-.75.007.75-.764.007.007-.763.75.006" clip-rule="evenodd"/><path fill="#000" fill-rule="evenodd" d="M7.466 11.63h1.599v1.5h-1.6zm3.734.001h1.6v1.5h-1.6zm3.735-.001h1.598v1.5h-1.599z" clip-rule="evenodd"/></svg>