<svg xmlns="http://www.w3.org/2000/svg" fill="none" viewBox="0 0 24 24"><path fill="#000" fill-rule="evenodd" d="M17.52 2.803a6.2 6.2 0 0 1 3.715 3.19 7.9 7.9 0 0 1 .336 5.96 12.5 12.5 0 0 1-2.965 4.765 24 24 0 0 1-2.815 2.472l-.053.045a.724.724 0 0 1-1.006-.198.75.75 0 0 1 .177-1.043 23 23 0 0 0 2.647-2.328 10.95 10.95 0 0 0 2.647-4.18 6.35 6.35 0 0 0-.3-4.8 4.78 4.78 0 0 0-2.85-2.445 5.04 5.04 0 0 0-4.615.818.73.73 0 0 1-.882 0 5.03 5.03 0 0 0-4.615-.818 4.78 4.78 0 0 0-2.876 2.436 6.4 6.4 0 0 0-.283 4.782A11 11 0 0 0 6.43 15.63a33 33 0 0 0 5.753 4.495c.264.186.38.524.288.837a.74.74 0 0 1-.694.538.7.7 0 0 1-.405-.126 34.3 34.3 0 0 1-5.992-4.683 12.4 12.4 0 0 1-2.973-4.764 7.95 7.95 0 0 1 .37-5.933 6.2 6.2 0 0 1 3.715-3.191 6.57 6.57 0 0 1 5.515.737 6.57 6.57 0 0 1 5.515-.737m-.723 6.885a1.97 1.97 0 0 0-1.359-1.797.76.76 0 0 1-.311-.877.74.74 0 0 1 .761-.517 3.47 3.47 0 0 1 2.374 3.012.75.75 0 0 1-.148.548.72.72 0 0 1-.488.278.744.744 0 0 1-.829-.647" clip-rule="evenodd"/></svg>