<svg xmlns="http://www.w3.org/2000/svg" fill="none" viewBox="0 0 24 24"><path fill="#000" fill-rule="evenodd" d="M8.942 6.874a2.71 2.71 0 0 1-2.65-.017l-.036-.035a.755.755 0 0 1-.252-1.054.795.795 0 0 1 1.08-.246c.163.094.35.145.539.15.291.011.575-.09.79-.283.214-.193.34-.46.352-.745C8.76 3.215 9.921 2.043 11.383 2h1.232c1.49 0 2.698 1.18 2.698 2.635a1 1 0 0 0 .144.527c.144.247.382.428.662.502s.58.036.831-.107c1.267-.673 2.851-.255 3.598.949a.77.77 0 0 1-.287 1.045.8.8 0 0 1-1.07-.272 1.11 1.11 0 0 0-1.494-.387 2.76 2.76 0 0 1-2.644-.028 2.63 2.63 0 0 1-1.35-2.22 1.05 1.05 0 0 0-.305-.775 1.1 1.1 0 0 0-.783-.323h-1.232a1.1 1.1 0 0 0-.786.323 1.06 1.06 0 0 0-.312.775 2.58 2.58 0 0 1-1.343 2.23m1.343 12.517a1.085 1.085 0 0 0 1.098 1.063l-.01.018c.28 0 .539.145.678.382.14.236.14.527 0 .764a.79.79 0 0 1-.677.382c-1.49 0-2.699-1.18-2.699-2.635a1 1 0 0 0-.144-.527 1.11 1.11 0 0 0-1.493-.395c-1.266.673-2.85.255-3.598-.949l-.61-1.044c-.69-1.237-.262-2.784.971-3.514.164-.093.3-.226.396-.386.18-.246.245-.554.178-.85a1.07 1.07 0 0 0-.529-.696c-1.233-.73-1.66-2.277-.971-3.513a.8.8 0 0 1 1.088-.21c.341.226.44.674.225 1.018a1.05 1.05 0 0 0 .405 1.449c.391.234.714.564.935.957.69 1.237.262 2.784-.971 3.514a1.05 1.05 0 0 0-.405 1.45l.62 1.044c.142.25.381.431.663.504s.582.03.83-.117a2.65 2.65 0 0 1 1.323-.343c1.49 0 2.698 1.18 2.698 2.635m9.904-6.464a1.07 1.07 0 0 1-.51-.649 1.04 1.04 0 0 1 .114-.81c.096-.159.232-.292.396-.386a.754.754 0 0 0 .27-1.045.81.81 0 0 0-1.062-.29c-1.233.73-1.66 2.277-.971 3.513.219.432.559.795.98 1.046.25.14.434.371.508.644.074.272.034.562-.112.805L19.19 16.8a1.093 1.093 0 0 1-1.493.386 2.76 2.76 0 0 0-2.648.031 2.63 2.63 0 0 0-1.346 2.227c.043.393.383.69.787.69a.785.785 0 0 0 .787-.69 1.05 1.05 0 0 1 .54-.933c.34-.192.761-.188 1.098.01 1.266.674 2.85.256 3.597-.948l.612-1.045c.755-1.247.337-2.856-.935-3.601m-8.195-4.225c-1.368 0-2.602.805-3.125 2.04a3.25 3.25 0 0 0 .737 3.6 3.44 3.44 0 0 0 3.689.711c1.263-.514 2.085-1.72 2.081-3.057 0-.876-.356-1.715-.99-2.333a3.42 3.42 0 0 0-2.392-.961m0 5.06c-.993 0-1.799-.787-1.799-1.758 0-.97.806-1.756 1.8-1.756.993 0 1.798.786 1.798 1.756s-.805 1.757-1.799 1.757" clip-rule="evenodd"/></svg>