<svg xmlns="http://www.w3.org/2000/svg" fill="none" viewBox="0 0 24 24"><mask id="a" width="20" height="21" x="2" y="2" maskUnits="userSpaceOnUse" style="mask-type:luminance"><path fill="#fff" fill-rule="evenodd" d="M2 2h19.285v20.722H2z" clip-rule="evenodd"/></mask><g mask="url(#a)"><path fill="#000" fill-rule="evenodd" d="M7.202 17.44a2.63 2.63 0 0 1 2.293 1.33c.226.381.351.826.355 1.28 0 .65.522 1.171 1.164 1.171h1.253c.64 0 1.161-.518 1.164-1.157a2.63 2.63 0 0 1 .777-1.881c.498-.498 1.194-.797 1.89-.777.456.01.895.134 1.282.354a1.17 1.17 0 0 0 1.59-.422l.664-1.107a1.157 1.157 0 0 0-.426-1.572 2.64 2.64 0 0 1-1.242-1.618 2.67 2.67 0 0 1 .271-2.018c.23-.4.567-.737.971-.97a1.166 1.166 0 0 0 .417-1.578l-.035-.069-.586-1.016a1.165 1.165 0 0 0-1.586-.429 2.62 2.62 0 0 1-2.006.277 2.63 2.63 0 0 1-1.622-1.227 2.55 2.55 0 0 1-.359-1.286 1.2 1.2 0 0 0-.329-.874 1.17 1.17 0 0 0-.835-.35h-1.253A1.153 1.153 0 0 0 9.86 4.658 2.677 2.677 0 0 1 7.197 7.3a2.6 2.6 0 0 1-1.299-.363 1.165 1.165 0 0 0-1.576.436l-.677 1.113a1.16 1.16 0 0 0 .432 1.57 2.67 2.67 0 0 1 1.33 2.307c0 .947-.51 1.83-1.332 2.306a1.155 1.155 0 0 0-.42 1.575l.63 1.088c.156.28.411.483.706.567.294.082.618.047.888-.104a2.6 2.6 0 0 1 1.323-.354m5.065 5.281h-1.253a2.666 2.666 0 0 1-2.664-2.663 1.1 1.1 0 0 0-.15-.532 1.16 1.16 0 0 0-.705-.547 1.16 1.16 0 0 0-.872.117 2.7 2.7 0 0 1-2.043.244 2.68 2.68 0 0 1-1.6-1.27l-.625-1.076a2.66 2.66 0 0 1 .97-3.626 1.164 1.164 0 0 0 0-2.015 2.67 2.67 0 0 1-.97-3.633l.677-1.113c.721-1.254 2.351-1.696 3.622-.966.173.103.361.155.552.157.623 0 1.144-.514 1.154-1.146a2.63 2.63 0 0 1 .772-1.87A2.64 2.64 0 0 1 11.014 2h1.253c.716 0 1.412.294 1.911.805.498.514.773 1.22.752 1.934.002.161.055.347.151.51a1.157 1.157 0 0 0 1.583.415 2.67 2.67 0 0 1 3.64.977l.623 1.08a1 1 0 0 1 .042.085 2.673 2.673 0 0 1-1.01 3.545 1.14 1.14 0 0 0-.424.422 1.17 1.17 0 0 0-.12.883c.08.3.271.548.54.702a2.67 2.67 0 0 1 1.241 1.617 2.67 2.67 0 0 1-.27 2.02l-.665 1.107a2.665 2.665 0 0 1-3.627.959 1.2 1.2 0 0 0-.558-.155h-.006c-.289 0-.586.123-.802.338a1.14 1.14 0 0 0-.337.82 2.67 2.67 0 0 1-2.664 2.657" clip-rule="evenodd"/></g><path fill="#000" fill-rule="evenodd" d="M11.645 10.475a1.887 1.887 0 1 0 1.886 1.887c0-1.04-.846-1.887-1.886-1.887m0 5.272a3.39 3.39 0 0 1-3.386-3.385 3.39 3.39 0 0 1 3.386-3.387 3.39 3.39 0 0 1 3.386 3.387 3.39 3.39 0 0 1-3.386 3.385" clip-rule="evenodd"/></svg>