<svg xmlns="http://www.w3.org/2000/svg" fill="none" viewBox="0 0 24 24"><path fill="#000" fill-rule="evenodd" d="M16.02 12.307c-1.13 0-2.2.23-3.1.61 3.16.92 5.39 3.11 5.44 5.66 1.64-.22 3.4-.83 3.4-2.53 0-2.03-2.63-3.74-5.74-3.74m-.03-1.44h.03c2.13 0 3.86-1.73 3.86-3.86a3.862 3.862 0 0 0-5.06-3.67 6.35 6.35 0 0 1 1.09 3.57c0 1.39-.45 2.68-1.21 3.73.4.15.84.23 1.29.23" clip-rule="evenodd"/><path fill="#000" fill-rule="evenodd" d="M9.549 13.946c-3.962 0-7.31 2.165-7.31 4.728 0 2.94 4.172 3.28 7.31 3.28 1.808 0 7.309 0 7.309-3.3 0-2.552-3.347-4.708-7.31-4.708m-.031-2.17h.03a4.87 4.87 0 0 0 4.865-4.864 4.87 4.87 0 0 0-4.865-4.865A4.87 4.87 0 0 0 4.684 6.91a4.8 4.8 0 0 0 1.407 3.432 4.82 4.82 0 0 0 3.426 1.433" clip-rule="evenodd"/></svg>