<svg xmlns="http://www.w3.org/2000/svg" fill="none" viewBox="0 0 24 24"><path stroke="#000" stroke-linecap="round" stroke-linejoin="round" stroke-width="1.5" d="M6.559 21.278c-2.202-.3-3.757-1.038-3.757-2.604 0-2.224 3.117-4.228 6.809-4.228 3.672 0 6.808 1.985 6.808 4.208s-3.117 2.799-6.808 2.799M6.565 3.785a4.35 4.35 0 0 0-1.32 3.126 4.35 4.35 0 0 0 4.334 4.364h.03a4.364 4.364 0 0 0 0-8.728m7.243 7.529a3.289 3.289 0 0 0-.187-6.397m.848 9.971c1.987 0 3.685 1.349 3.685 2.552 0 .709-.585 1.437-1.474 1.646"/></svg>