<svg xmlns="http://www.w3.org/2000/svg" fill="none" viewBox="0 0 24 24"><path stroke="#000" stroke-linecap="round" stroke-linejoin="round" stroke-width="1.5" d="M9.559 21.456c-3.672 0-6.81-.555-6.81-2.779s3.118-4.228 6.81-4.228c3.672 0 6.807 1.985 6.807 4.208s-3.115 2.8-6.807 2.8m0-10.179a4.364 4.364 0 1 0-4.364-4.365 4.35 4.35 0 0 0 4.333 4.365z" clip-rule="evenodd"/><path stroke="#000" stroke-linecap="round" stroke-linejoin="round" stroke-width="1.5" d="M16.801 10.079a3.289 3.289 0 0 0-.187-6.397m.846 9.972c1.989 0 3.687 1.348 3.687 2.55 0 .71-.585 1.438-1.475 1.646"/></svg>