<svg xmlns="http://www.w3.org/2000/svg" fill="none" viewBox="0 0 24 24"><path fill="#000" fill-rule="evenodd" d="M20.287 5.243c.39 0 .713.323.713.734v.38a.73.73 0 0 1-.713.734H3.714A.73.73 0 0 1 3 6.357v-.38c0-.411.324-.734.714-.734H6.63c.592 0 1.107-.421 1.24-1.015l.153-.682C8.261 2.617 9.041 2 9.935 2h4.13c.884 0 1.674.617 1.902 1.497l.163.73a1.28 1.28 0 0 0 1.241 1.016zm-1.481 13.891c.304-2.837.837-9.577.837-9.645a.75.75 0 0 0-.18-.558.73.73 0 0 0-.524-.234H5.07a.7.7 0 0 0-.524.234.8.8 0 0 0-.19.558l.053.647c.142 1.763.537 6.674.793 8.998.18 1.712 1.304 2.788 2.931 2.827 1.256.029 2.55.039 3.872.039 1.246 0 2.51-.01 3.805-.039 1.684-.029 2.806-1.086 2.997-2.827" clip-rule="evenodd"/></svg>