<svg xmlns="http://www.w3.org/2000/svg" fill="none" viewBox="0 0 24 24"><path fill="#000" fill-rule="evenodd" d="M9.046 5.497h11.24c.394 0 .714.327.714.73 0 .406-.32.733-.714.733H3.713A.72.72 0 0 1 3 6.228c0-.404.319-.731.713-.731h3.194a.904.904 0 0 0 .878-.737l.238-1.22C8.263 2.614 9.044 2 9.932 2h4.136c.888 0 1.668.614 1.898 1.494a.734.734 0 0 1-.504.897.71.71 0 0 1-.874-.518.54.54 0 0 0-.52-.409H9.932a.54.54 0 0 0-.52.409l-.227 1.173q-.05.236-.139.45m-.891 15c-.917-.02-1.436-.53-1.542-1.517-.307-2.823-.831-9.508-.836-9.575a.73.73 0 0 0-.769-.672.726.726 0 0 0-.653.788c.005.068.53 6.776.839 9.622.184 1.703 1.307 2.782 2.931 2.817h.015a.723.723 0 0 0 .714-.716.725.725 0 0 0-.7-.747M18.992 8.733a.73.73 0 0 0-.769.671c-.005.067-.534 6.77-.837 9.571-.108 1.008-.634 1.507-1.608 1.526l-.388.007c-1.237.022-1.812.033-3.195.028h-.002a.72.72 0 0 0-.713.728.723.723 0 0 0 .71.735l.731.001c1.02 0 1.426-.008 2.19-.023l.693-.014c1.691-.031 2.814-1.088 3.001-2.828.306-2.82.835-9.546.84-9.613a.727.727 0 0 0-.653-.789" clip-rule="evenodd"/></svg>