<svg xmlns="http://www.w3.org/2000/svg" fill="none" viewBox="0 0 24 24"><path fill="#000" d="M12.66 3.71v8.479a.71.71 0 0 1-1.422 0V3.71a.71.71 0 0 1 1.421 0" opacity=".4"/><mask id="a" width="12" height="10" x="6" y="11" maskUnits="userSpaceOnUse" style="mask-type:luminance"><path fill="#fff" fill-rule="evenodd" d="M6.5 11.479h10.897v8.939H6.5z" clip-rule="evenodd"/></mask><g mask="url(#a)"><path fill="#000" d="M17.397 12.19a.7.7 0 0 1-.109.378l-4.738 7.518a.712.712 0 0 1-1.203 0l-4.738-7.518a.71.71 0 0 1-.02-.722.71.71 0 0 1 .622-.367h9.475a.71.71 0 0 1 .71.71"/></g></svg>