<svg xmlns="http://www.w3.org/2000/svg" fill="none" viewBox="0 0 24 24"><path fill="#000" fill-rule="evenodd" d="M11.751 13.45a.75.75 0 0 1-.75-.75V3.75a.75.75 0 0 1 1.5 0v8.95a.75.75 0 0 1-.75.75" clip-rule="evenodd"/><mask id="a" width="12" height="11" x="6" y="11" maskUnits="userSpaceOnUse" style="mask-type:luminance"><path fill="#fff" fill-rule="evenodd" d="M6 11.95h11.502v9.437H6z" clip-rule="evenodd"/></mask><g mask="url(#a)"><path fill="#000" fill-rule="evenodd" d="m8.11 13.45 3.642 5.78 3.64-5.78zm3.642 7.937a.75.75 0 0 1-.635-.35l-5.001-7.938a.748.748 0 0 1 .635-1.149h10.002a.748.748 0 0 1 .634 1.15l-5.001 7.936a.75.75 0 0 1-.634.351" clip-rule="evenodd"/></g></svg>