<svg xmlns="http://www.w3.org/2000/svg" fill="none" viewBox="0 0 24 24"><path fill="#000" fill-rule="evenodd" d="M16.712 9.272a.75.75 0 0 1 .134 1.052l-2.93 3.78a.75.75 0 0 1-1.055.13l-2.818-2.212-2.532 3.29a.75.75 0 1 1-1.188-.915l2.993-3.89a.75.75 0 0 1 1.057-.132l2.82 2.214 2.467-3.183a.75.75 0 0 1 1.052-.134M19.667 3.1a1.171 1.171 0 1 0-.001 2.343 1.171 1.171 0 0 0 .001-2.343m-2.672 1.172a2.671 2.671 0 1 1 5.343-.001 2.671 2.671 0 0 1-5.343.001" clip-rule="evenodd"/><path fill="#000" fill-rule="evenodd" d="M5.003 5.607C3.78 6.83 3.2 8.877 3.2 12.303c0 3.427.581 5.473 1.804 6.696s3.27 1.804 6.697 1.804 5.473-.58 6.696-1.804c1.223-1.222 1.803-3.268 1.803-6.696 0-1.106-.06-2.075-.185-2.924a.75.75 0 1 1 1.483-.22c.14.941.203 1.988.203 3.144 0 3.51-.576 6.09-2.244 7.757-1.667 1.668-4.246 2.243-7.756 2.243s-6.09-.575-7.757-2.243C2.276 18.392 1.7 15.814 1.7 12.303s.576-6.089 2.244-7.757S8.189 2.303 11.7 2.303c1.135 0 2.163.06 3.09.195a.75.75 0 1 1-.215 1.484c-.837-.121-1.79-.179-2.875-.179-3.427 0-5.474.581-6.697 1.804" clip-rule="evenodd"/></svg>