<svg xmlns="http://www.w3.org/2000/svg" fill="none" viewBox="0 0 24 24"><path fill="#000" fill-rule="evenodd" d="M12 2.25c-7.198 0-9.75 2.552-9.75 9.75s2.552 9.75 9.75 9.75 9.75-2.552 9.75-9.75S19.199 2.25 12 2.25" clip-rule="evenodd" opacity=".4"/><path fill="#000" d="M14.4 15.143a.75.75 0 0 0 .53-1.281l-1.874-1.873 1.863-1.864a.749.749 0 1 0-1.06-1.06l-1.864 1.864-1.866-1.866a.75.75 0 1 0-1.06 1.06l1.866 1.866-1.866 1.868a.749.749 0 1 0 1.06 1.06l1.867-1.867 1.873 1.873a.75.75 0 0 0 .531.22"/></svg>