<svg xmlns="http://www.w3.org/2000/svg" fill="none" viewBox="0 0 24 24"><path fill="#000" fill-rule="evenodd" d="M11.72 2.057a.75.75 0 0 0-.452.693v11.7c0 .415.328.752.732.752a.74.74 0 0 0 .732-.751V4.566l1.514 1.559a.72.72 0 0 0 1.035.002.763.763 0 0 0 .002-1.06L12.519 2.22a.72.72 0 0 0-.798-.163M13.95 20.5c.404 0 .731.336.731.75s-.327.75-.731.75H6.714C4.391 22 2.5 20.062 2.5 17.679v-4.746c0-2.389 1.895-4.331 4.225-4.331h.884a.74.74 0 0 1 .73.75c0 .413-.327.75-.73.75h-.884c-1.524 0-2.762 1.27-2.762 2.83v4.746c0 1.557 1.235 2.822 2.751 2.822zm2.443-10.398a.74.74 0 0 1-.732-.75c0-.414.328-.75.732-.75h.894c2.323 0 4.214 1.938 4.214 4.321v4.747c0 2.387-1.895 4.33-4.225 4.33a.74.74 0 0 1-.73-.75.74.74 0 0 1 .73-.75c1.524 0 2.762-1.27 2.762-2.83v-4.747c0-1.556-1.234-2.822-2.751-2.822zM10.66 4.877a.76.76 0 0 1-.212.528l-.693.718a.72.72 0 0 1-1.033.005.76.76 0 0 1-.006-1.06l.692-.718a.72.72 0 0 1 1.034-.006.76.76 0 0 1 .218.533" clip-rule="evenodd"/></svg>