<svg xmlns="http://www.w3.org/2000/svg" fill="none" viewBox="0 0 24 24"><path fill="#000" fill-rule="evenodd" d="M11.94 9.445h1v-2h-1c-1.879 0-3.591-1.714-3.591-3.596v-1h-2v1c0 1.882-1.716 3.596-3.599 3.596h-1v2h1c1.343 0 2.61-.534 3.599-1.389V18.79h2V8.06c.987.854 2.251 1.386 3.591 1.386" clip-rule="evenodd"/><path fill="#000" fill-rule="evenodd" d="M21.25 14.555c-1.344 0-2.61.534-3.6 1.389V5.21h-2v10.73c-.987-.853-2.25-1.385-3.59-1.385h-1v2h1c1.878 0 3.59 1.714 3.59 3.596v1h2v-1c0-1.882 1.716-3.596 3.6-3.596h1v-2z" clip-rule="evenodd" opacity=".4"/></svg>