<svg xmlns="http://www.w3.org/2000/svg" fill="none" viewBox="0 0 24 24"><path fill="#000" fill-rule="evenodd" d="M15.905 20.9V5.46h1.5V20.9z" clip-rule="evenodd"/><path fill="#000" fill-rule="evenodd" d="M17.405 20.15c0-2.945-2.585-5.345-5.346-5.345h-.75v1.5h.75c1.964 0 3.846 1.76 3.846 3.845v.75h1.5z" clip-rule="evenodd"/><path fill="#000" fill-rule="evenodd" d="M15.905 20.15c0-2.945 2.585-5.345 5.345-5.345H22v1.5h-.75c-1.964 0-3.845 1.76-3.845 3.845v.75h-1.5zM6.596 3.1v15.439h1.5V3.099z" clip-rule="evenodd"/><path fill="#000" fill-rule="evenodd" d="M8.096 3.85c0 2.945-2.585 5.345-5.346 5.345H2v-1.5h.75c1.964 0 3.846-1.76 3.846-3.845V3.1h1.5z" clip-rule="evenodd"/><path fill="#000" fill-rule="evenodd" d="M6.596 3.85c0 2.945 2.584 5.345 5.345 5.345h.75v-1.5h-.75c-1.964 0-3.845-1.76-3.845-3.845V3.1h-1.5z" clip-rule="evenodd"/></svg>