<svg xmlns="http://www.w3.org/2000/svg" fill="none" viewBox="0 0 24 24"><path fill="#000" fill-rule="evenodd" d="M13.357 6.45c-.05-.486-.103-.99-.232-1.494C12.775 3.752 11.801 3 10.758 3c-.582-.002-1.318.356-1.736.72l-3.46 2.897h-1.81c-1.333 0-2.404 1.027-2.607 2.51-.172 1.424-.214 4.11 0 5.677.186 1.567 1.21 2.579 2.607 2.579h1.81l3.527 2.94c.362.315 1 .676 1.588.676l.105.001c1.063 0 2-.78 2.35-1.98.133-.509.18-.985.224-1.445l.001-.008.047-.459c.18-1.487.18-8.739 0-10.215zm4.05.045a.907.907 0 0 0-1.279-.237.957.957 0 0 0-.228 1.308c.802 1.182 1.243 2.756 1.243 4.434 0 1.677-.441 3.252-1.243 4.434a.956.956 0 0 0 .23 1.308.905.905 0 0 0 1.277-.237c1.012-1.492 1.571-3.447 1.571-5.505s-.559-4.013-1.571-5.505M19.29 3.22a.905.905 0 0 1 1.277.236C22.136 5.767 23 8.802 23 12c0 3.2-.864 6.234-2.433 8.544a.9.9 0 0 1-1.276.236.957.957 0 0 1-.23-1.308c1.356-1.999 2.104-4.653 2.104-7.472 0-2.818-.748-5.472-2.105-7.471a.96.96 0 0 1 .23-1.308" clip-rule="evenodd"/></svg>