<svg xmlns="http://www.w3.org/2000/svg" fill="none" viewBox="0 0 24 24"><path fill="#000" fill-rule="evenodd" d="M19.376 2.643a.755.755 0 0 1 1.075.204C22.095 5.317 23 8.57 23 12c0 .446-.346.808-.772.808s-.772-.362-.772-.808c0-3.104-.808-6.026-2.273-8.232a.835.835 0 0 1 .192-1.125M13.132 6.42l.001.012.047.442c.178 1.483.178 8.769 0 10.254l-.047.457c-.044.466-.09.946-.222 1.46-.342 1.205-1.263 1.988-2.306 1.988h-.099c-.579 0-1.207-.363-1.562-.678L5.268 17.22a.83.83 0 0 1-.11-1.136.75.75 0 0 1 1.085-.116l3.688 3.146c.231.202.534.328.615.302.38.028.74-.314.881-.811.09-.355.129-.744.168-1.154l.003-.025q.021-.247.05-.495c.16-1.338.16-8.522 0-9.858l-.05-.47v-.008c-.044-.427-.089-.867-.178-1.227-.135-.47-.499-.825-.834-.782-.143.004-.5.15-.72.345l-3.62 3.102a.75.75 0 0 1-.49.183H3.7c-.648 0-.955.575-1.027 1.114-.173 1.458-.173 3.978 0 5.278.059.44-.236.85-.657.911a.786.786 0 0 1-.872-.69c-.213-1.586-.172-4.283-.003-5.711C1.341 7.63 2.392 6.6 3.7 6.6h1.78l3.396-2.91c.41-.363 1.154-.717 1.702-.721 1.034.018 1.983.756 2.328 1.963.126.501.177 1.003.226 1.489m2.517.647a.83.83 0 0 1 .193-1.124.75.75 0 0 1 1.075.2C17.97 7.73 18.552 9.808 18.552 12s-.58 4.271-1.634 5.856a.76.76 0 0 1-.635.345.75.75 0 0 1-.44-.145.83.83 0 0 1-.194-1.124c.876-1.317 1.359-3.067 1.359-4.932 0-1.864-.483-3.617-1.358-4.933m6.376 7.783a.78.78 0 0 0-.919.618c-.367 1.776-1.033 3.423-1.924 4.763a.83.83 0 0 0 .193 1.124.75.75 0 0 0 .44.145c.244 0 .485-.12.636-.345 1.005-1.514 1.754-3.36 2.164-5.344.092-.436-.174-.867-.59-.96" clip-rule="evenodd"/></svg>