<svg xmlns="http://www.w3.org/2000/svg" fill="none" viewBox="0 0 24 24"><path fill="#000" d="M11.34 20.29v-8.48a.71.71 0 0 1 1.422 0v8.478a.71.71 0 0 1-1.421 0" opacity=".4"/><mask id="a" width="12" height="10" x="6" y="3" maskUnits="userSpaceOnUse" style="mask-type:luminance"><path fill="#fff" fill-rule="evenodd" d="M17.5 12.521H6.603V3.582H17.5z" clip-rule="evenodd"/></mask><g mask="url(#a)"><path fill="#000" d="M6.603 11.81c0-.132.037-.263.109-.378l4.738-7.518a.712.712 0 0 1 1.203 0l4.738 7.518a.71.71 0 0 1-.602 1.09H7.314a.71.71 0 0 1-.71-.711"/></g></svg>