<svg xmlns="http://www.w3.org/2000/svg" fill="none" viewBox="0 0 24 24"><path fill="#000" fill-rule="evenodd" d="M11.751 11.55a.75.75 0 0 0-.75.75v8.95a.75.75 0 0 0 1.5 0V12.3a.75.75 0 0 0-.75-.75" clip-rule="evenodd"/><mask id="a" width="12" height="11" x="6" y="3" maskUnits="userSpaceOnUse" style="mask-type:luminance"><path fill="#fff" fill-rule="evenodd" d="M6 13.05h11.502V3.613H6z" clip-rule="evenodd"/></mask><g mask="url(#a)"><path fill="#000" fill-rule="evenodd" d="m8.11 11.55 3.642-5.78 3.64 5.78zm3.642-7.937a.75.75 0 0 0-.635.35l-5.001 7.938a.748.748 0 0 0 .635 1.149h10.002a.748.748 0 0 0 .634-1.15l-5.001-7.936a.75.75 0 0 0-.634-.351" clip-rule="evenodd"/></g></svg>