<svg xmlns="http://www.w3.org/2000/svg" fill="none" viewBox="0 0 24 24"><path fill="#000" fill-rule="evenodd" d="M12 2.5c-1.617 0-2.26 1.624-2.827 3.06l-.001.004c-.29.734-.59 1.492-.972 1.888-.376.388-1.27.433-2.135.477h-.013c-1.38.07-3.097.155-3.483 1.8-.367 1.562.78 2.507 1.791 3.341.693.57 1.347 1.11 1.492 1.77.14.64-.071 1.468-.276 2.269v.002l-.001.004c-.352 1.378-.75 2.938.584 3.945.417.315.84.44 1.258.44.905 0 1.787-.584 2.542-1.084l.005-.004c.697-.461 1.418-.937 2.035-.937H12z" clip-rule="evenodd"/><path fill="#000" fill-rule="evenodd" d="M12 2.5c1.617 0 2.26 1.624 2.827 3.06l.002.004c.29.734.59 1.492.971 1.888.376.388 1.27.433 2.135.477h.013c1.38.07 3.097.155 3.483 1.8.367 1.562-.78 2.507-1.791 3.341-.692.57-1.346 1.11-1.492 1.77-.14.64.071 1.468.276 2.269v.002l.001.004c.352 1.378.75 2.938-.584 3.945-.417.315-.84.44-1.258.44-.904 0-1.786-.584-2.541-1.084l-.006-.004c-.697-.461-1.418-.937-2.035-.937H12z" clip-rule="evenodd" opacity=".4"/></svg>