<svg xmlns="http://www.w3.org/2000/svg" fill="none" viewBox="0 0 24 24"><path fill="#000" fill-rule="evenodd" d="M11.875 3.438c-1.6 0-2.902 1.33-2.902 2.965v4.584c0 1.636 1.302 2.966 2.902 2.966h.249c1.6 0 2.903-1.33 2.903-2.966V6.403c0-1.635-1.302-2.965-2.903-2.965zm.249 11.954h-.249c-2.376 0-4.31-1.976-4.31-4.405V6.403C7.566 3.975 9.5 2 11.876 2h.249c2.377 0 4.31 1.975 4.31 4.403v4.584c0 2.43-1.933 4.405-4.31 4.405M9.08 17.036c-2.265-1.146-3.672-3.461-3.672-6.042a.713.713 0 0 0-.704-.72.71.71 0 0 0-.704.72c0 3.132 1.708 5.94 4.455 7.33A.7.7 0 0 0 9.398 18a.727.727 0 0 0-.318-.964M20 10.994a.71.71 0 0 0-.704-.72.71.71 0 0 0-.703.72c0 3.714-2.958 6.736-6.592 6.736a.713.713 0 0 0-.705.72v2.83c0 .398.315.72.705.72a.71.71 0 0 0 .703-.72v-2.147c4.081-.367 7.296-3.874 7.296-8.14" clip-rule="evenodd"/></svg>