<svg xmlns="http://www.w3.org/2000/svg" fill="none" viewBox="0 0 24 24"><path fill="#000" fill-rule="evenodd" d="M11.75 22.5a.75.75 0 0 1-.75-.75v-3.161a.75.75 0 0 1 1.5 0v3.161a.75.75 0 0 1-.75.75m0-20c-1.826 0-3.312 1.494-3.312 3.331v4.688c0 1.835 1.486 3.33 3.311 3.33 1.826 0 3.313-1.495 3.313-3.33V5.831c0-1.837-1.486-3.331-3.312-3.331m0 12.849c-2.653 0-4.812-2.167-4.812-4.83V5.831C6.938 3.167 9.096 1 11.75 1s4.811 2.167 4.811 4.831v4.688c0 2.663-2.158 4.83-4.812 4.83" clip-rule="evenodd"/><mask id="a" width="18" height="11" x="3" y="9" maskUnits="userSpaceOnUse" style="mask-type:luminance"><path fill="#fff" fill-rule="evenodd" d="M3 9.8h17.5v9.539H3z" clip-rule="evenodd"/></mask><g mask="url(#a)"><path fill="#000" fill-rule="evenodd" d="M11.75 19.339C6.924 19.339 3 15.397 3 10.55a.75.75 0 0 1 1.5 0c0 4.018 3.252 7.288 7.25 7.288S19 14.569 19 10.55a.75.75 0 0 1 1.5 0c0 4.846-3.925 8.788-8.75 8.788" clip-rule="evenodd"/></g></svg>