<svg xmlns="http://www.w3.org/2000/svg" fill="none" viewBox="0 0 24 24"><path fill="#000" fill-rule="evenodd" d="M5.464 10.932a.75.75 0 0 0-1.5 0 8.154 8.154 0 0 0 7.404 8.12v2.095a.75.75 0 0 0 1.5 0v-2.095a8.154 8.154 0 0 0 7.404-8.12.75.75 0 0 0-1.5 0 6.653 6.653 0 0 1-6.654 6.654 6.653 6.653 0 0 1-6.654-6.654" clip-rule="evenodd" opacity=".4"/><path stroke="#000" stroke-linecap="round" stroke-linejoin="round" stroke-width="1.5" d="M12.245 14.584h-.253a3.66 3.66 0 0 1-3.66-3.66v-4.55a3.66 3.66 0 0 1 3.66-3.66h.253a3.66 3.66 0 0 1 3.66 3.66v4.55a3.66 3.66 0 0 1-3.66 3.66" clip-rule="evenodd"/></svg>