<svg xmlns="http://www.w3.org/2000/svg" fill="none" viewBox="0 0 24 24"><path stroke="#000" stroke-linecap="round" stroke-linejoin="round" stroke-width="1.5" d="M4.302 15.725c-.984-1.179-1.557-2.505-1.557-3.722 0-3.28 4.14-7.3 9.25-7.3 2.09 0 4.03.67 5.59 1.71m2.26 2.06c.891 1.13 1.41 2.38 1.41 3.53 0 3.28-4.15 7.3-9.26 7.3-.91 0-1.799-.13-2.63-.36"/><path stroke="#000" stroke-linecap="round" stroke-linejoin="round" stroke-width="1.5" d="M9.761 14.23a3.12 3.12 0 0 1-.925-2.229 3.16 3.16 0 0 1 3.154-3.166m3.115 3.727a3.16 3.16 0 0 1-2.537 2.542m7.319-10.991L4.113 19.887"/></svg>