<svg xmlns="http://www.w3.org/2000/svg" fill="none" viewBox="0 0 24 24"><path fill="#000" fill-rule="evenodd" d="M12 2.25c-7.199 0-9.75 2.552-9.75 9.75s2.551 9.75 9.75 9.75 9.75-2.552 9.75-9.75S19.198 2.25 12 2.25" clip-rule="evenodd" opacity=".4"/><path fill="#000" d="M12.321 16.498a.74.74 0 0 0 .416-.127c1.233-.826 4.103-2.905 4.103-4.371s-2.869-3.548-4.102-4.375a.75.75 0 1 0-.836 1.246c1.167.782 2.28 1.71 2.91 2.379H7.91a.75.75 0 0 0 0 1.5h6.9c-.625.668-1.725 1.583-2.907 2.375a.748.748 0 0 0 .418 1.373"/></svg>