<svg xmlns="http://www.w3.org/2000/svg" fill="none" viewBox="0 0 24 24"><path fill="#000" fill-rule="evenodd" d="M16.93 7a.5.5 0 0 0 .044-.226H17A4.99 4.99 0 0 0 12.005 2 4.99 4.99 0 0 0 7.01 6.774a.7.7 0 0 0 0 .226h-.078c-1.282 0-2.652.846-3.05 3.12l-.777 6.195C2.469 20.863 4.81 22 7.869 22h8.29c3.049 0 5.32-1.646 4.754-5.685l-.769-6.195C19.676 7.91 18.35 7 17.087 7zm-1.437 0a.7.7 0 0 1-.043-.226 3.48 3.48 0 0 0-3.484-3.472 3.48 3.48 0 0 0-3.484 3.472.7.7 0 0 1 0 .226zm-6.396 5.149a.897.897 0 0 1-.884-.91c0-.502.396-.91.884-.91s.884.408.884.91-.396.91-.884.91m4.905-.91c0 .502.396.91.884.91a.897.897 0 0 0 .884-.91.897.897 0 0 0-.884-.91.897.897 0 0 0-.884.91" clip-rule="evenodd"/></svg>