<svg xmlns="http://www.w3.org/2000/svg" fill="none" viewBox="0 0 24 24"><path fill="#000" fill-rule="evenodd" d="m21.404 15.747-.756-5.872c-.483-2.637-2.231-3.516-3.707-3.516a4.918 4.918 0 0 0-8.548-2.725.775.775 0 0 0 1.133 1.055V4.6a3.37 3.37 0 0 1 4.762-.264 3.44 3.44 0 0 1 1.09 2.022H7.136c-1.415 0-3.128.879-3.707 3.56l-.22 1.319a.774.774 0 0 0 1.52.263l.21-1.292c.326-1.468 1.143-2.347 2.197-2.347h9.804c1.107 0 1.924.88 2.188 2.286l.746 5.81c.229 1.582 0 2.742-.57 3.437-.572.694-1.67 1.028-3.26 1.028H8.033a4.2 4.2 0 0 1-3.171-1.142 4.06 4.06 0 0 1-.66-3.323.768.768 0 1 0-1.52-.22 4.93 4.93 0 0 0 1.013 4.55 4.93 4.93 0 0 0 4.347 1.674h8.003c2.073 0 3.514-.51 4.392-1.556s1.257-2.62.967-4.66m-6.896-3.718q.166.063.342.07a.88.88 0 0 0 .615-.264.7.7 0 0 0 .21-.29.74.74 0 0 0 .071-.334.57.57 0 0 0-.053-.343.35.35 0 0 0-.079-.15 1.3 1.3 0 0 0-.237-.245 1.1 1.1 0 0 0-.325-.132.8.8 0 0 0-.342 0 .6.6 0 0 0-.167.053.7.7 0 0 0-.159.079l-.131.114a.4.4 0 0 0-.106.132l-.088.15v.166a.6.6 0 0 0 0 .176.7.7 0 0 0 .062.334.88.88 0 0 0 .386.484m-4.367-.809a.88.88 0 0 1-.878.879.88.88 0 0 1-.598-.264.9.9 0 0 1-.193-.29.9.9 0 0 1-.061-.334.57.57 0 0 1 .052-.343.5.5 0 0 1 .08-.15.4.4 0 0 1 .105-.13.6.6 0 0 1 .132-.106.5.5 0 0 1 .149-.08.5.5 0 0 1 .167-.052.76.76 0 0 1 .343 0 .5.5 0 0 1 .166.053.5.5 0 0 1 .15.079q.079.046.14.114.067.054.106.132a1 1 0 0 1 .088.15l.052.166q.008.088 0 .176" clip-rule="evenodd"/></svg>