<svg xmlns="http://www.w3.org/2000/svg" fill="none" viewBox="0 0 24 24"><path fill="#000" d="M11.669 16.502a.74.74 0 0 1-.418-.128C10.02 15.547 7.16 13.465 7.16 12s2.862-3.545 4.092-4.37a.75.75 0 0 1 .836 1.246c-1.175.789-2.281 1.706-2.906 2.374h6.898a.75.75 0 0 1 0 1.5H9.174c.623.662 1.734 1.585 2.915 2.38a.75.75 0 0 1-.42 1.372"/><path fill="#000" fill-rule="evenodd" d="M2 12c0 7.383 2.617 10 10 10s10-2.617 10-10S19.383 2 12 2 2 4.617 2 12m1.5 0c0-6.514 1.986-8.5 8.5-8.5s8.5 1.986 8.5 8.5-1.986 8.5-8.5 8.5-8.5-1.986-8.5-8.5" clip-rule="evenodd"/></svg>