<svg xmlns="http://www.w3.org/2000/svg" fill="none" viewBox="0 0 24 24"><mask id="a" width="21" height="19" x="2" y="3" maskUnits="userSpaceOnUse" style="mask-type:luminance"><path fill="#fff" fill-rule="evenodd" d="M2 3h20.014v18.186H2z" clip-rule="evenodd"/></mask><g mask="url(#a)"><path fill="#000" fill-rule="evenodd" d="M12.013 4.5c-.476 0-.9.246-1.138.659L3.677 17.724a1.3 1.3 0 0 0 .005 1.308c.237.409.66.654 1.134.654h14.383c.472 0 .896-.245 1.133-.654.238-.409.24-.898.004-1.308L13.15 5.159a1.3 1.3 0 0 0-1.138-.659m7.186 16.686H4.816a2.78 2.78 0 0 1-2.432-1.402 2.78 2.78 0 0 1-.01-2.805l7.2-12.566A2.78 2.78 0 0 1 12.014 3a2.78 2.78 0 0 1 2.44 1.415l7.186 12.564c.503.879.5 1.928-.01 2.805a2.78 2.78 0 0 1-2.43 1.402" clip-rule="evenodd"/></g><path fill="#000" fill-rule="evenodd" d="M12.004 14.164a.75.75 0 0 1-.75-.75v-3.1a.75.75 0 0 1 1.5 0v3.1a.75.75 0 0 1-.75.75m.002 3.335a1.003 1.003 0 0 1-1.005-1c0-.553.443-1 .995-1h.01a1 1 0 1 1 0 2" clip-rule="evenodd"/></svg>