<svg xmlns="http://www.w3.org/2000/svg" fill="none" viewBox="0 0 24 24"><path fill="#000" fill-rule="evenodd" d="M20.5 12a1 1 0 0 0-1-1h-15a1 1 0 1 0 0 2h15a1 1 0 0 0 1-1" clip-rule="evenodd" opacity=".4"/><path fill="#000" d="M10.076 5.095a1 1 0 0 1 .95 1.76l-.003.002-.01.005-.046.025-.18.102a24 24 0 0 0-2.653 1.755c-.726.558-1.415 1.171-1.914 1.78-.517.635-.72 1.131-.72 1.475s.203.84.72 1.475c.499.61 1.188 1.223 1.914 1.78a24 24 0 0 0 2.891 1.89 1 1 0 0 1-.949 1.76 26 26 0 0 1-.995-.581 26 26 0 0 1-2.164-1.482c-.786-.603-1.61-1.324-2.246-2.102-.616-.756-1.17-1.703-1.17-2.74s.554-1.985 1.17-2.74c.637-.778 1.46-1.498 2.246-2.101a26 26 0 0 1 3.08-2.02l.057-.03.015-.01.005-.002z"/></svg>