<svg xmlns="http://www.w3.org/2000/svg" fill="none" viewBox="0 0 24 24"><path fill="#000" fill-rule="evenodd" d="M2 12C2 6.485 6.486 2 12 2s10 4.485 10 10-4.486 10-10 10a9.9 9.9 0 0 1-4.013-.838.723.723 0 1 1 .582-1.325 8.5 8.5 0 0 0 3.431.716c4.715 0 8.552-3.838 8.552-8.553S16.715 3.448 12 3.448c-4.716 0-8.552 3.836-8.552 8.552a8.48 8.48 0 0 0 1.674 5.084.724.724 0 0 1-1.164.86A9.9 9.9 0 0 1 2 12m8.82 3.97h.036c.293-.008.899-.26.905-.263 1.018-.429 3.033-1.753 3.847-2.629l.049-.052c.1-.106.249-.27.284-.318a1.2 1.2 0 0 0-.028-1.455 7 7 0 0 0-.237-.259l-.08-.085c-.791-.845-2.853-2.236-3.936-2.656-.165-.065-.573-.217-.796-.223a1.2 1.2 0 0 0-1.15.736c-.075.176-.175.7-.176.707-.105.58-.165 1.5-.163 2.526-.002.97.052 1.86.147 2.437 0 .006.114.653.232.882a1.21 1.21 0 0 0 1.066.651m.142-6.237c.008-.046.022-.114.037-.183l.133.05c.867.337 2.778 1.625 3.405 2.296l.084.09.005.005.002.002.003.003.004.004-.03.031-.058.06c-.607.656-2.421 1.891-3.347 2.281l-.088.035-.111.043a4 4 0 0 1-.05-.249c-.082-.495-.13-1.319-.13-2.202 0-.916.054-1.785.14-2.266" clip-rule="evenodd"/></svg>