<svg xmlns="http://www.w3.org/2000/svg" fill="none" viewBox="0 0 24 24"><path stroke="#000" stroke-linecap="round" stroke-linejoin="round" stroke-width="1.5" d="M12 2c5.523 0 10 4.477 10 10s-4.477 10-10 10S2 17.523 2 12 6.477 2 12 2" clip-rule="evenodd"/><path stroke="#000" stroke-linecap="round" stroke-linejoin="round" stroke-width="1.5" d="M15.05 12.467c-.729.786-2.713 2.116-3.728 2.543-.162.068-.575.212-.664.214a.5.5 0 0 1-.459-.27c-.034-.066-.134-.497-.166-.69-.095-.583-.144-1.49-.143-2.402 0-.957.052-1.907.158-2.485.028-.156.11-.515.134-.573a.5.5 0 0 1 .226-.246.5.5 0 0 1 .25-.06c.09.002.451.129.575.178.978.38 3.047 1.758 3.807 2.568.068.073.255.269.286.309a.5.5 0 0 1 .011.602c-.033.045-.224.245-.287.312" clip-rule="evenodd" opacity=".4"/></svg>