<svg xmlns="http://www.w3.org/2000/svg" fill="none" viewBox="0 0 24 24"><path fill="#000" fill-rule="evenodd" d="M14.212 7.762c0 2.644-2.163 4.763-4.863 4.763-2.698 0-4.863-2.119-4.863-4.763S6.651 3 9.35 3c2.7 0 4.863 2.119 4.863 4.762M2 17.917c0-2.447 3.386-3.06 7.35-3.06 3.985 0 7.349.634 7.349 3.083 0 2.448-3.386 3.06-7.35 3.06C5.364 21 2 20.367 2 17.917M16.173 7.85a6.37 6.37 0 0 1-1.137 3.646c-.075.107-.008.252.123.275q.273.046.56.052c1.898.048 3.601-1.148 4.072-2.95.697-2.675-1.35-5.077-3.957-5.077a4 4 0 0 0-.818.082c-.036.008-.075.025-.095.055-.025.04-.007.09.019.124a6.4 6.4 0 0 1 1.233 3.793m3.144 5.853c1.276.245 2.115.742 2.462 1.467a2.1 2.1 0 0 1 0 1.878c-.531 1.124-2.245 1.485-2.912 1.578a.207.207 0 0 1-.234-.232c.34-3.113-2.367-4.588-3.067-4.927-.03-.017-.036-.04-.034-.055.002-.01.015-.025.038-.028 1.515-.028 3.145.176 3.747.32" clip-rule="evenodd"/></svg>