<svg xmlns="http://www.w3.org/2000/svg" fill="none" viewBox="0 0 24 24"><path fill="#000" fill-rule="evenodd" d="M5.957 7.618a.749.749 0 0 1-1.5 0C4.457 4.797 6.76 2.5 9.592 2.5c2.83 0 5.133 2.297 5.133 5.118s-2.302 5.119-5.133 5.119a5.1 5.1 0 0 1-3.16-1.076.746.746 0 0 1-.13-1.05.75.75 0 0 1 1.052-.13 3.6 3.6 0 0 0 2.238.76 3.633 3.633 0 0 0 3.633-3.623 3.633 3.633 0 0 0-3.633-3.623 3.633 3.633 0 0 0-3.635 3.623m9.312 3.27a.75.75 0 0 1 .75-.748 2.546 2.546 0 0 0 2.547-2.54 2.545 2.545 0 0 0-2.547-2.538.75.75 0 0 1-.75-.748.75.75 0 0 1 .75-.747A4.045 4.045 0 0 1 20.066 7.6a4.044 4.044 0 0 1-4.047 4.034.75.75 0 0 1-.75-.748m4.045 3.074c1.265.248 2.098.758 2.46 1.516.301.63.301 1.353 0 1.984-.357.75-1.189 1.264-2.472 1.526a.748.748 0 1 1-.3-1.464c.762-.156 1.28-.412 1.417-.703a.81.81 0 0 0 .001-.7c-.14-.293-.656-.547-1.414-.696a10 10 0 0 0-1.522-.22.747.747 0 0 1-.696-.797.76.76 0 0 1 .799-.695c.579.04 1.16.123 1.727.249m-9.723.456c-1.877 0-7.591 0-7.591 3.551 0 .798.317 1.905 1.824 2.643a7.4 7.4 0 0 0 1.676.548.747.747 0 1 0 .312-1.462c-.527-.112-.974-.256-1.328-.43-.872-.426-.984-.918-.984-1.299 0-1.7 3.313-2.056 6.091-2.056 4.042 0 6.091.686 6.091 2.037 0 1.699-3.312 2.055-6.09 2.055a.748.748 0 1 0 0 1.495c1.876 0 7.59 0 7.59-3.55 0-3.166-4.332-3.532-7.59-3.532" clip-rule="evenodd"/></svg>