<svg xmlns="http://www.w3.org/2000/svg" fill="none" viewBox="0 0 24 24"><path fill="#000" fill-rule="evenodd" d="M4.456 7.135a5.14 5.14 0 0 0 5.136 5.135h.034a5.08 5.08 0 0 0 3.614-1.513 5.08 5.08 0 0 0 1.487-3.622A5.14 5.14 0 0 0 9.592 2a5.14 5.14 0 0 0-5.136 5.135m1.5 0A3.64 3.64 0 0 1 9.592 3.5a3.64 3.64 0 0 1 3.635 3.638A3.6 3.6 0 0 1 12.176 9.7a3.6 3.6 0 0 1-2.553 1.07h-.031a3.64 3.64 0 0 1-3.636-3.635M2 17.519c0 3.538 5.516 3.538 7.592 3.538 1.878 0 7.592 0 7.592-3.558 0-3.175-4.333-3.542-7.592-3.542-1.878 0-7.592 0-7.592 3.562m1.5 0c0-1.705 3.313-2.062 6.092-2.062 4.042 0 6.092.687 6.092 2.042 0 1.365-2.05 2.058-6.092 2.058S3.5 18.871 3.5 17.519" clip-rule="evenodd"/><path fill="#000" d="M16.482 11.132a.75.75 0 0 1-.104-1.493 2.56 2.56 0 0 0 2.192-2.52 2.54 2.54 0 0 0-2.133-2.514.75.75 0 0 1 .242-1.481A4.03 4.03 0 0 1 20.07 7.12a4.07 4.07 0 0 1-3.483 4.005 1 1 0 0 1-.105.007m2.713 6.845a.75.75 0 0 0 .966.435c1.503-.57 1.819-1.556 1.819-2.285 0-.98-.567-2.232-3.274-2.637a.76.76 0 0 0-.852.632.75.75 0 0 0 .631.853c1.323.197 1.995.585 1.995 1.152 0 .168 0 .56-.85.883a.75.75 0 0 0-.435.967"/></svg>