<svg xmlns="http://www.w3.org/2000/svg" fill="none" viewBox="0 0 24 24"><path fill="#000" fill-rule="evenodd" d="M12 2.25C4.8 2.25 2.25 4.8 2.25 12S4.8 21.75 12 21.75s9.75-2.55 9.75-9.75S19.2 2.25 12 2.25" clip-rule="evenodd" opacity=".4"/><path fill="#000" d="m16.21 10.74.56-.63c.4-.45.59-1 .59-1.55 0-.64-.27-1.29-.79-1.75a2.35 2.35 0 0 0-3.3.2l-.56.63c.04.02 3.48 3.07 3.5 3.1m-7.39 6.53c.79 0 1.79-.2 2.53-1.03l3.88-4.39c-.03-.02-3.47-3.07-3.5-3.1l-3.88 4.39c-1.43 1.62-.4 3.87-.39 3.89.01.03.04.06.07.07.01 0 .57.17 1.29.17"/></svg>