<svg xmlns="http://www.w3.org/2000/svg" fill="none" viewBox="0 0 24 24"><path fill="#000" d="M12 22C4.617 22 2 19.383 2 12S4.617 2 12 2a.75.75 0 0 1 0 1.5c-6.514 0-8.5 1.986-8.5 8.5s1.986 8.5 8.5 8.5 8.5-1.986 8.5-8.5a.75.75 0 0 1 1.5 0c0 7.383-2.617 10-10 10"/><path fill="#000" fill-rule="evenodd" d="m19.237 9.386 1.058-1.195a3.156 3.156 0 0 0-.27-4.45 3.13 3.13 0 0 0-2.28-.785c-.84.05-1.61.427-2.168 1.057L9.693 10.66c-1.824 2.058-.576 4.779-.522 4.894a.75.75 0 0 0 .452.395c.057.019.721.222 1.596.222.985 0 2.238-.26 3.19-1.335l4.668-5.271a.8.8 0 0 0 .16-.18m-8.829 5.21c.627.114 2.011.226 2.878-.753l4.251-4.8-2.471-2.189-4.249 4.802c-.888 1-.605 2.336-.409 2.94M16.06 5.73l2.472 2.188.64-.722a1.654 1.654 0 0 0-1.336-2.744c-.44.028-.843.224-1.136.554z" clip-rule="evenodd"/></svg>