<svg xmlns="http://www.w3.org/2000/svg" fill="none" viewBox="0 0 24 24"><path fill="#000" fill-rule="evenodd" d="M8.647 7.27a1.306 1.306 0 1 0 0 2.61 1.306 1.306 0 0 0 0-2.61M5.842 8.575A2.806 2.806 0 0 1 8.647 5.77h.001a2.81 2.81 0 0 1 2.805 2.804v.001a2.805 2.805 0 1 1-5.611 0m8.369 2.328h.94l6.914 9.753-1.224.867-6.148-8.672-4.009 5.833h-.886l-2.5-2.243-4.014 5.338-1.199-.902 4.686-6.23h.775l2.531 2.272z" clip-rule="evenodd"/><path fill="#000" fill-rule="evenodd" d="M2 22V2h20v20zm1.5-1.5h17v-17h-17z" clip-rule="evenodd"/></svg>