<svg xmlns="http://www.w3.org/2000/svg" fill="none" viewBox="0 0 24 24"><path fill="#000" fill-rule="evenodd" d="M6.829 7.564H2.135v.5q-.003 3.936 0 7.873v.5h4.694l4.126 3.576h1.463V3.987h-1.463z" clip-rule="evenodd" opacity=".4"/><path fill="#000" fill-rule="evenodd" d="m19.668 4.947-.428-.616-1.232.856.428.615c2.617 3.77 2.617 8.634 0 12.395l-.428.615 1.23.857.43-.616c2.932-4.214 2.932-9.883 0-14.106" clip-rule="evenodd"/><path fill="#000" fill-rule="evenodd" d="m16.981 7.623-.373-.651-1.3.745.371.65a7.33 7.33 0 0 1 .001 7.267l-.374.65 1.301.747.374-.65a8.84 8.84 0 0 0 0-8.758" clip-rule="evenodd"/></svg>