<svg xmlns="http://www.w3.org/2000/svg" fill="none" viewBox="0 0 24 24"><path fill="#000" fill-rule="evenodd" d="m19.356 4.331.428.616a12.33 12.33 0 0 1 0 14.107l-.429.615-1.231-.856.428-.616a10.83 10.83 0 0 0 0-12.394l-.428-.616z" clip-rule="evenodd"/><path fill="#000" fill-rule="evenodd" d="m16.726 6.972.372.65a8.79 8.79 0 0 1 0 8.758l-.374.65-1.3-.746.373-.65a7.29 7.29 0 0 0 0-7.266l-.373-.651zm-5.748-3.235h1.806v16.526h-1.806l-4.126-3.577h-4.85v-.749q-.004-3.938 0-7.874v-.75h4.85zm.306 1.72L7.412 8.815H3.501a4800 4800 0 0 0 0 6.372h3.911l3.872 3.356z" clip-rule="evenodd"/></svg>