<svg xmlns="http://www.w3.org/2000/svg" fill="none" viewBox="0 0 24 24"><path fill="#000" fill-rule="evenodd" d="M12.395 21h5.463C20.142 21 22 19.159 22 16.895V14.22a.747.747 0 0 0-.75-.744 1.484 1.484 0 0 1-1.489-1.475c0-.813.668-1.475 1.489-1.475a.75.75 0 0 0 .75-.744l-.001-2.677C21.999 4.841 20.14 3 17.856 3H6.144C3.86 3 2.002 4.841 2.002 7.105L2 9.87a.75.75 0 0 0 .75.743c.849 0 1.489.596 1.489 1.389 0 .814-.668 1.475-1.489 1.475a.747.747 0 0 0-.75.743v2.676C2 19.159 3.858 21 6.143 21h1.79c.414 0 .75-.333.75-.743a.747.747 0 0 0-.75-.743h-1.79c-1.457 0-2.643-1.175-2.643-2.62V14.87A2.97 2.97 0 0 0 5.739 12c0-1.362-.937-2.475-2.238-2.788l.001-2.108c0-1.444 1.185-2.619 2.642-2.619h11.712c1.457 0 2.643 1.175 2.643 2.62l.001 2.027A2.97 2.97 0 0 0 18.261 12a2.97 2.97 0 0 0 2.239 2.867v2.027c0 1.444-1.185 2.619-2.642 2.619h-5.463a.747.747 0 0 0-.75.743c0 .41.336.743.75.743m3.394-10.073a.77.77 0 0 1 .211.543.77.77 0 0 1-.224.536l-1.168 1.172.276 1.654c.063.377-.085.752-.386.975a.94.94 0 0 1-1.021.075l-1.443-.778-1.442.78a.93.93 0 0 1-1.02-.077 1.01 1.01 0 0 1-.387-.975l.277-1.654-1.168-1.172a1.01 1.01 0 0 1-.246-1.024.97.97 0 0 1 .784-.678l1.612-.242.722-1.506A.96.96 0 0 1 12.033 8c.373 0 .706.212.871.554l.787 1.547c.19.374.05.837-.313 1.031a.72.72 0 0 1-.562.054.74.74 0 0 1-.437-.374l-.331-.649-.448.935a.74.74 0 0 1-.558.417l-.968.145.7.705a.77.77 0 0 1 .214.675l-.165.994.868-.469a.72.72 0 0 1 .689 0l.868.47-.166-.995a.78.78 0 0 1 .213-.676l1.446-1.45a.7.7 0 0 1 .524-.218.73.73 0 0 1 .524.231" clip-rule="evenodd"/></svg>