<svg xmlns="http://www.w3.org/2000/svg" fill="none" viewBox="0 0 24 24"><path fill="#000" fill-rule="evenodd" d="M12.788 6.084h3.653v1.5h-3.653zm-1.08 3.611h4.735v1.5h-4.735zm1.04 8.284v4.271h-1.5v-4.271z" clip-rule="evenodd"/><path fill="#000" fill-rule="evenodd" d="M11.998 3.25a2.954 2.954 0 0 0-2.945 2.963v5.174a2.954 2.954 0 0 0 2.945 2.961 2.953 2.953 0 0 0 2.946-2.961V6.213a2.954 2.954 0 0 0-2.946-2.963M7.553 6.213c0-2.462 1.987-4.463 4.445-4.463 2.46 0 4.446 2.002 4.446 4.463v5.174c0 2.46-1.987 4.461-4.446 4.461s-4.445-2-4.445-4.461z" clip-rule="evenodd"/><path fill="#000" fill-rule="evenodd" d="M5.472 10.666v.75c0 3.628 2.925 6.562 6.527 6.562s6.529-2.935 6.529-6.562v-.75h1.5v.75c0 4.45-3.59 8.062-8.029 8.062-4.437 0-8.027-3.613-8.027-8.062v-.75z" clip-rule="evenodd"/></svg>