<svg xmlns="http://www.w3.org/2000/svg" fill="none" viewBox="0 0 24 24"><path fill="#000" d="M15.526 2H8.629C5.784 2 4 3.986 4 7.172v13.151C4 21.249 4.733 22 5.638 22c.274 0 .543-.07.784-.203l5.613-3.116 6.534 3.134a.7.7 0 0 0 .555.002.73.73 0 0 0 .393-.4.76.76 0 0 0-.319-.882l-6.491-3.107a1.39 1.39 0 0 0-1.362 0l-5.62 3.107a.21.21 0 0 1-.208 0 .21.21 0 0 1-.095-.186V7.172c.009-2.356 1.164-3.698 3.233-3.698h6.897c2.655 0 3.043 2.206 3.043 3.53v.6h-7.466a.7.7 0 0 0-.498.234.74.74 0 0 0-.191.526.715.715 0 0 0 .69.706h7.439v7.723c0 .404.32.732.716.732.391 0 .71-.322.715-.724V7.004C20 3.915 18.293 2 15.526 2"/></svg>