<svg xmlns="http://www.w3.org/2000/svg" fill="none" viewBox="0 0 24 24"><path fill="#000" d="M11.991 18.622 5.5 21.864a1.02 1.02 0 0 1-1.376-.4A1.1 1.1 0 0 1 4 20.967v-7.258c0 .72.406 1.164 1.473 1.661z" opacity=".4"/><path fill="#000" fill-rule="evenodd" d="M8.895 2h6.175c2.707 0 4.904 1.066 4.93 3.793v15.174c-.001.17-.044.338-.123.488a1.01 1.01 0 0 1-1.402.409l-6.484-3.242-6.518-3.252C4.406 14.873 4 14.428 4 13.71V5.793C4 3.066 6.196 2 8.895 2m-.67 7.622h7.524a.79.79 0 0 0 .785-.79.79.79 0 0 0-.785-.791H8.225a.79.79 0 0 0-.785.79c0 .437.351.791.785.791" clip-rule="evenodd"/></svg>