<svg xmlns="http://www.w3.org/2000/svg" fill="none" viewBox="0 0 24 24"><path fill="#000" fill-rule="evenodd" d="m5.958 15.655 3.384-3.833-.197-.316a8 8 0 0 1-.812-1.728l1.699-2.95-3.698-5.08-.391.23C4.36 2.904 3.2 4.065 2.292 5.628l-.06.16c-.475 2.542.84 6.232 3.355 9.4zm10.678-2.227-2.945 1.695a9 9 0 0 1-2.048-1.052l7.971-8.502-1.094-1.026L2.878 21.227l1.095 1.026 4.158-4.436c2.06 1.754 5.142 3.592 9.058 3.592q.284 0 .575-.013l.119-.006.102-.058c1.604-.898 2.767-2.062 3.663-3.663l.215-.385z" clip-rule="evenodd"/></svg>