<svg xmlns="http://www.w3.org/2000/svg" fill="none" viewBox="0 0 24 24"><path fill="#000" d="m5.467 15.567.466.587 1.175-.932-.466-.588zM2.8 6.104l-.648-.377-.065.111-.024.128zm3.472-3.472.607-.442-.4-.55-.586.345zm3.24 4.45.65.375.243-.422-.286-.394zM7.22 9.564l-.374.65 1.3.749.374-.65zm4.06 4.1-.585-.47-.939 1.17.585.47zm2.544 2.229-.198.723.302.083.27-.157zm2.854-1.644.446-.604-.395-.291-.425.245zm4.61 3.4.655.366.323-.578-.532-.392zm-3.47 3.472.034.749.177-.008.155-.087zm-9.302-4.467-.552-.508-1.015 1.104.552.508zm-1.873-2.019c-1.167-1.47-2.05-3.053-2.586-4.54-.54-1.497-.708-2.84-.518-3.852l-1.475-.276c-.256 1.369-.01 2.997.582 4.638.596 1.652 1.563 3.377 2.822 4.963zM3.449 6.481C4.25 5.1 5.27 4.089 6.652 3.279l-.76-1.294c-1.598.937-2.806 2.134-3.74 3.742zm2.217-3.408 3.24 4.451 1.213-.883-3.24-4.45zm3.196 3.636L7.22 9.564l1.3.748 1.643-2.855zm1.478 8.124a10.8 10.8 0 0 0 2.245 1.384 9 9 0 0 0 .95.37l.06.02.02.005.006.002h.003l.2-.722.198-.723h.002l-.007-.002-.037-.011-.16-.054a8 8 0 0 1-.612-.25 9.3 9.3 0 0 1-1.93-1.19zm3.858 1.708 2.854-1.643-.749-1.3-2.854 1.644zm2.034-1.69 4.61 3.4.89-1.207-4.61-3.4zm4.4 2.43c-.789 1.412-1.77 2.394-3.182 3.184l.733 1.309c1.652-.925 2.834-2.106 3.76-3.76zm-2.85 3.09c-3.55.162-6.764-1.415-9.267-3.718L7.5 17.757c2.709 2.492 6.295 4.297 10.35 4.112z"/><path stroke="#000" stroke-linecap="square" stroke-linejoin="round" stroke-width="1.5" d="M4.016 21.415 18.63 5.826"/></svg>