<svg xmlns="http://www.w3.org/2000/svg" fill="none" viewBox="0 0 24 24"><path fill="#000" fill-rule="evenodd" d="m16.635 13.428-2.945 1.695a9 9 0 0 1-2.047-1.052l7.971-8.502-1.095-1.026L2.88 21.227l1.094 1.026 4.158-4.436c2.06 1.754 5.141 3.592 9.057 3.592q.285 0 .575-.013l.12-.006.102-.058c1.603-.898 2.766-2.062 3.663-3.663l.215-.385z" clip-rule="evenodd"/><path fill="#000" fill-rule="evenodd" d="m5.958 15.655 3.384-3.833-.197-.316a8 8 0 0 1-.812-1.728l1.699-2.95-3.698-5.08-.391.23c-1.582.927-2.742 2.088-3.651 3.651l-.059.16c-.476 2.542.84 6.232 3.354 9.4z" clip-rule="evenodd" opacity=".4"/></svg>