<svg xmlns="http://www.w3.org/2000/svg" fill="none" viewBox="0 0 24 24"><path fill="#000" fill-rule="evenodd" d="M9.012 21.232a.766.766 0 0 1-.765.765C4.392 22 2 19.608 2 15.756V8.253C2 4.392 4.392 2 8.244 2h7.5C19.607 2 22 4.392 22 8.253v7.5C22 19.59 19.607 22 15.747 22h-2.57a.757.757 0 0 1-.755-.756v-.009h.017c0-.422.342-.764.764-.765h2.544c3.053 0 4.723-1.67 4.723-4.714v-7.5c0-3.046-1.68-4.726-4.723-4.726h-7.5c-3.034 0-4.714 1.68-4.714 4.723v7.5c0 3.043 1.68 4.714 4.714 4.714.422 0 .765.343.765.765m3.738-5.146V9.73l2.467 2.477a.749.749 0 1 0 1.062-1.058L12.53 7.385l-.001-.001a.74.74 0 0 0-.529-.22l-.02.003-.015.004a.8.8 0 0 0-.251.05.8.8 0 0 0-.23.152q-.008.004-.013.01a.74.74 0 0 0-.221.53v8.173a.75.75 0 0 0 1.5 0M8.999 9.864 7.72 11.148a.75.75 0 0 0 .002 1.062.75.75 0 0 0 1.06-.003l1.278-1.284a.751.751 0 0 0-1.062-1.059" clip-rule="evenodd"/></svg>