<svg xmlns="http://www.w3.org/2000/svg" fill="none" viewBox="0 0 24 24"><path stroke="#000" stroke-linecap="square" stroke-width="1.5" d="M14.374 10.43h2.672"/><path fill="#000" fill-rule="evenodd" d="M7.658 19.493a.524.524 0 1 1 0 1.047.524.524 0 0 1 0-1.047" clip-rule="evenodd"/><path stroke="#000" stroke-linecap="square" stroke-width="1.5" d="M7.658 19.493a.524.524 0 1 1 0 1.047.524.524 0 0 1 0-1.047Z" clip-rule="evenodd"/><path fill="#000" fill-rule="evenodd" d="M18.525 19.493a.525.525 0 1 1 0 1.049.525.525 0 0 1 0-1.05" clip-rule="evenodd"/><path stroke="#000" stroke-linecap="square" stroke-width="1.5" d="M18.525 19.493a.525.525 0 1 1 0 1.049.525.525 0 0 1 0-1.05Z" clip-rule="evenodd"/><path stroke="#000" stroke-linecap="square" stroke-width="1.5" d="M8.484 6.518H21.25l-1.269 9.635H6.494L5.217 3.458H2.75"/></svg>