<svg xmlns="http://www.w3.org/2000/svg" fill="none" viewBox="0 0 24 24"><path fill="#000" d="M13.58 11.175h4.169V9.68h-4.17z"/><path fill="#000" fill-rule="evenodd" d="M1.952 2.76c-.013.031-.017.373-.01.758l.012.7 2.514.025.022.101c.011.056.298 2.885.637 6.287s.625 6.212.635 6.243c.028.083 14.79.083 14.819 0 .01-.031.337-2.484.725-5.45s.717-5.449.73-5.517l.025-.125H6.155l-.027-.215a90 90 0 0 1-.141-1.394 56 56 0 0 0-.138-1.325l-.024-.147H3.9c-1.532 0-1.93.012-1.948.058m18.356 4.756c-.016.13-.258 1.96-.536 4.067l-.505 3.83-6.063.01c-4.828.01-6.067 0-6.082-.045-.01-.03-.194-1.81-.407-3.954a488 488 0 0 0-.409-4.022l-.021-.124h14.054z" clip-rule="evenodd"/><path fill="#000" d="M7.27 18.804a1.275 1.275 0 0 0-.562 2.13q.29.29.68.346a1.3 1.3 0 0 0 .585-.034 1.1 1.1 0 0 0 .427-.223 1.27 1.27 0 0 0-1.13-2.219m11.205-.044c.252 0 .487.074.685.201a.9.9 0 0 1 .296.263 1.26 1.26 0 0 1 .204 1.262 1 1 0 0 1-.169.304 1.26 1.26 0 0 1-.946.507 1.25 1.25 0 0 1-1.072-.486 1.18 1.18 0 0 1-.268-.787c0-.437.212-.818.56-1.047.203-.137.447-.217.71-.217"/></svg>