<svg xmlns="http://www.w3.org/2000/svg" fill="none" viewBox="0 0 24 24"><path fill="#000" fill-rule="evenodd" d="M18.16 11.8a.75.75 0 1 1-1.5 0 .75.75 0 0 1 1.5 0m-2.703.06c0 1 .814 1.812 1.813 1.812h4.46a20 20 0 0 0-.024-3.626H17.27c-.998 0-1.812.814-1.812 1.814" clip-rule="evenodd"/><path fill="#000" fill-rule="evenodd" d="M11.652 8.641h-4.06a.75.75 0 0 1 0-1.5h4.06a.75.75 0 0 1 0 1.5m5.619 6.531a3.316 3.316 0 0 1-3.313-3.312 3.317 3.317 0 0 1 3.313-3.314h4.21C20.603 4.492 17.81 2.961 12 2.961c-7.235 0-9.8 2.366-9.8 9.039 0 6.674 2.565 9.039 9.8 9.039 5.943 0 8.73-1.6 9.539-5.867z" clip-rule="evenodd"/></svg>