<svg xmlns="http://www.w3.org/2000/svg" fill="none" viewBox="0 0 24 24"><path fill="#000" fill-rule="evenodd" d="M17.27 15.172a3.316 3.316 0 0 1-3.312-3.312 3.317 3.317 0 0 1 3.313-3.314h4.21C20.603 4.492 17.81 2.961 12 2.961c-7.235 0-9.8 2.366-9.8 9.039 0 6.674 2.565 9.039 9.8 9.039 5.943 0 8.73-1.6 9.539-5.867z" clip-rule="evenodd" opacity=".4"/><path fill="#000" fill-rule="evenodd" d="M11.652 8.641h-4.06a.75.75 0 0 1 0-1.5h4.06a.75.75 0 0 1 0 1.5m5.618 5.031a1.815 1.815 0 0 1-1.812-1.812c0-1 .813-1.814 1.812-1.814h4.436a20 20 0 0 1 .024 3.626zm.89-1.872a.75.75 0 1 1-1.5 0 .75.75 0 0 1 1.5 0" clip-rule="evenodd"/></svg>